<?xml version="1.0" encoding="utf-8"?>
<!-- Generator: Adobe Illustrator 22.1.0, SVG Export Plug-In . SVG Version: 6.00 Build 0)  -->
<svg version="1.1" xmlns="http://www.w3.org/2000/svg" xmlns:xlink="http://www.w3.org/1999/xlink" x="0px" y="0px"
	 viewBox="0 0 1381.8 254.5" style="enable-background:new 0 0 1381.8 254.5;" xml:space="preserve">
<style type="text/css">
	.st0{display:none;}
	.st1{display:inline;}
	.st2{fill:#FFFFFF;}
	.st3{fill:url(#SVGID_1_);}
</style>
<g id="Слой_3">
	<g class="st0">
		<g class="st1">
			<path class="st2" d="M676.4-704.8c5.8,0,5.8-9,0-9C670.6-713.8,670.6-704.8,676.4-704.8L676.4-704.8z"/>
		</g>
	</g>
	<g id="Слой_5">
	</g>
</g>
<g id="Слой_2">
</g>
<g id="Слой_1">
</g>
<g id="Слой_4">
	<g>
		<g>
			<path class="st2" d="M2718.2,1094.8c12.9,0,12.9-20,0-20C2705.3,1074.8,2705.3,1094.8,2718.2,1094.8L2718.2,1094.8z"/>
		</g>
	</g>
	<g>
		<g>
			<linearGradient id="SVGID_1_" gradientUnits="userSpaceOnUse" x1="28.8413" y1="143.9822" x2="1324.3925" y2="143.9822">
				<stop  offset="0" style="stop-color:#F17AA9"/>
				<stop  offset="1" style="stop-color:#F17AA9;stop-opacity:0"/>
			</linearGradient>
			<path class="st3" d="M22,202.2c35,43.3,112.7,32,134.6-18.7c12.7-29.3,6.6-68,31.4-91.3c19.6-18.4,50.1-22.1,74.6-12.5
				c27.1,10.7,47.6,36,57.4,62.8c6,16.3,9.5,34.1,19.6,48.6c9.1,13,22.4,22.1,37.9,25.8c33.2,7.9,65.3-5.9,90-27.6
				c26-22.8,44.2-53,70.8-75.2c24.1-20.1,56.1-27.8,84.6-11.9c30.8,17.1,36.5,53.8,55.7,80.5c19,26.5,53.9,47.4,85.3,27.3
				c24.5-15.7,32.8-46.4,42.3-72.1c10.4-28.2,29-56.8,58.5-67.5c14.7-5.4,30.6-6.6,45.6-1.8c14.2,4.6,25.4,15.4,33.7,27.4
				c19.9,28.9,27.9,64.2,50.1,91.8c20.7,25.6,58.2,42.1,89.4,25.5c26.2-13.9,33.1-44.2,45.5-68.6c5.8-11.3,12.7-21.2,24.2-26.5
				c9-4.2,20.8-5.2,30.5-3.3c11.6,2.3,21.9,7.3,29.5,16.5c9.1,11.1,10.8,28.2,13.3,42.4c3,17.5,7.9,34,19.8,47.6
				c9.6,11,23.1,19,37.1,22.9c14.2,4,29.7,3.8,43.7-1.1c6.4-2.2,10.6-8.5,8.7-15.4c-1.7-6.2-9-11-15.4-8.7
				c-24.1,8.5-53.1-2.7-63.5-26.6c-6.9-16-6.7-34.3-11.5-51c-4.5-15.5-12.9-28.3-25.8-38c-21.5-16-51.9-18.8-76.3-8.2
				c-27.4,11.9-37,39.5-48.3,64.8c-4.8,10.6-10.2,22.2-19.8,29c-10.9,7.7-24.8,7-36.7,2c-32-13.3-43.6-50.9-57.1-79.6
				c-14-29.8-34.6-59.5-68.2-68.2c-34.6-9-71,4.3-95.6,29.1c-11.5,11.6-20.9,25.6-27.8,40.4c-6.2,13.3-10.5,27.4-15.8,41
				c-8.2,21.1-23.4,48.2-50,36.5c-30.7-13.5-38.1-52.3-54.9-77.8C649.9,84,616.9,66,582.1,69c-35.1,3.1-62.8,25.8-85.4,51.2
				c-21.7,24.3-41.9,55.7-73.2,68.8c-11.6,4.8-25.4,7.1-37.8,4.5c-14.6-3.1-24.5-11.8-30.7-25.3c-6.8-14.7-9.8-30.9-16.7-45.6
				c-6.5-14.2-15.6-27.4-26.5-38.6c-21.8-22.4-52.6-36.9-84.3-33.9c-29.4,2.7-58.7,17.9-72.7,44.8c-8.2,15.7-10.6,33.1-13.6,50.3
				c-2.5,14.4-5.9,30.7-15.7,41.2c-14.9,16-39.2,21.1-59.6,15.5c-10.7-2.9-19.2-8.4-26.4-17.3c-4.2-5.3-13.3-4.4-17.7,0
				C16.8,189.7,17.7,197,22,202.2L22,202.2z"/>
		</g>
	</g>
</g>
</svg>
