<?xml version="1.0" encoding="utf-8"?>
<!-- Generator: Adobe Illustrator 22.1.0, SVG Export Plug-In . SVG Version: 6.00 Build 0)  -->
<svg version="1.1" xmlns="http://www.w3.org/2000/svg" xmlns:xlink="http://www.w3.org/1999/xlink" x="0px" y="0px"
	 viewBox="0 0 1590.6 927.3" style="enable-background:new 0 0 1590.6 927.3;" xml:space="preserve">
<style type="text/css">
	.st0{display:none;}
	.st1{display:inline;}
	.st2{fill:#FFFFFF;}
	.st3{fill:url(#SVGID_1_);}
	.st4{fill:url(#SVGID_2_);}
	.st5{fill:url(#SVGID_3_);}
	.st6{fill:url(#SVGID_4_);}
	.st7{fill:url(#SVGID_5_);}
	.st8{fill:url(#SVGID_6_);}
	.st9{fill:url(#SVGID_7_);}
</style>
<g id="Слой_3">
	<g class="st0">
		<g class="st1">
			<path class="st2" d="M885.2-489.7c5.8,0,5.8-9,0-9C879.4-498.7,879.4-489.7,885.2-489.7L885.2-489.7z"/>
		</g>
	</g>
	<g id="Слой_5">
	</g>
</g>
<g id="Слой_2">
</g>
<g id="Слой_1">
</g>
<g id="Слой_4">
	<g>
		<linearGradient id="SVGID_1_" gradientUnits="userSpaceOnUse" x1="333.9468" y1="420.7704" x2="685.877" y2="420.7704">
			<stop  offset="0" style="stop-color:#763FF5"/>
			<stop  offset="8.104094e-02" style="stop-color:#7248F2"/>
			<stop  offset="0.2158" style="stop-color:#6862E9"/>
			<stop  offset="0.3876" style="stop-color:#578BDB"/>
			<stop  offset="0.5674" style="stop-color:#43BEC9"/>
			<stop  offset="0.8652" style="stop-color:#E828CB"/>
			<stop  offset="0.9944" style="stop-color:#FF1E44"/>
		</linearGradient>
		<path class="st3" d="M576.3,318.1c-7.3-19-29.7-26.4-49.4-31.5c-44.2-11.4-96-21.5-131.7,7.1c-33.7,27-37.4,77.6-27,119.5
			c9.7,39.2,30.7,77.5,65.3,98.3c-21.6-11.7-47.5-15.1-71.4-9.4c-11.6,2.7-24,8.9-27.4,20.3c-4.8,15.8,16,32.1,30.2,23.7
			c-0.5,6.7-0.9,13.3-1.4,20c47.1,4.6,87-37.5,134.2-41.2c25.2-2,49.8,7.3,74.9,10.5c26.6,3.4,54.9-0.6,77.4-15.3
			c22.5-14.7,38-41.2,35.7-67.9c-2.8-31.4-27.8-55.8-52.7-75.2s-52.5-38.3-64.7-67.3"/>
		<g>
			<linearGradient id="SVGID_2_" gradientUnits="userSpaceOnUse" x1="333.4468" y1="420.6897" x2="686.377" y2="420.6897">
				<stop  offset="0" style="stop-color:#763FF5"/>
				<stop  offset="8.104094e-02" style="stop-color:#7248F2"/>
				<stop  offset="0.2158" style="stop-color:#6862E9"/>
				<stop  offset="0.3876" style="stop-color:#578BDB"/>
				<stop  offset="0.5674" style="stop-color:#43BEC9"/>
				<stop  offset="0.8652" style="stop-color:#E828CB"/>
				<stop  offset="0.9944" style="stop-color:#FF1E44"/>
			</linearGradient>
			<path class="st4" d="M578.7,317.4c-11-27-46.6-32.7-71.7-38.2c-30.1-6.7-63.7-11.3-93.1,0.7c-59.4,24.2-60.7,98.9-43.1,150.9
				c11.2,33.2,31.1,64.2,61.5,82.8c0.8-1.4,1.7-2.9,2.5-4.3c-15.1-8-31.8-12.3-48.9-12.4c-14.9-0.1-32.2,2.2-44.3,11.7
				c-9.9,7.8-13.4,20.6-5.7,31.2c6.8,9.4,19.7,14.2,30.3,8.4c-1.3-0.7-2.5-1.4-3.8-2.2c-0.5,6.7-0.9,13.3-1.4,20
				c-0.1,1.4,1.2,2.4,2.5,2.5c36.6,3.2,67.8-19.6,100.3-32.5c18.7-7.4,37.4-10.5,57.4-7.8c21.2,2.9,41.7,9.6,63.2,10.5
				c37.5,1.6,77-13,95.3-47.7c8.1-15.2,10.9-32.7,6.8-49.5c-4.2-17.4-15-32.5-27.4-45.2c-29-29.7-71.4-48.3-88.6-88.1
				c-1.3-2.9-5.6-0.4-4.3,2.5c14.4,33.2,46.4,52,73.1,74.2c27.5,22.8,53.6,55.2,40.7,93.1c-13,38.4-53.2,56.3-91.3,55.8
				c-21.4-0.3-41.8-6.7-62.7-10c-18.3-2.9-35.9-2.1-53.5,3.7c-36,11.7-69.1,39.4-108.8,35.9c0.8,0.8,1.7,1.7,2.5,2.5
				c0.5-6.7,0.9-13.3,1.4-20c0.1-2-2.2-3-3.8-2.2c-9.4,5.1-21.3-1-25.6-10.2c-5.7-12.1,5.5-22.1,15.7-26.4
				c24.7-10.3,55.4-5.9,78.5,6.3c2.8,1.5,5.3-2.6,2.5-4.3c-25.6-15.6-43.6-40.7-54.9-68.2c-10.6-25.8-16.3-54.2-13.8-82.1
				c2.5-27.3,14.2-54.2,38.4-68.9c25.7-15.7,57.7-14.2,86.3-9.1c15.9,2.8,32,6.4,47.4,11.4c14.2,4.5,29.7,11.6,35.7,26.3
				C575.1,321.7,579.9,320.4,578.7,317.4L578.7,317.4z"/>
		</g>
	</g>
	<g>
		<linearGradient id="SVGID_3_" gradientUnits="userSpaceOnUse" x1="246.8308" y1="686.9189" x2="955.6151" y2="686.9189">
			<stop  offset="0" style="stop-color:#F17AA9"/>
			<stop  offset="1" style="stop-color:#F17AA9;stop-opacity:0"/>
		</linearGradient>
		<path class="st5" d="M630,443.2c-56.6,5-113.6,0.1-170.3,2.1c-56.8,2-115.2,11.7-162.8,42.6c-17,11.1-32.7,25.1-41.7,43.3
			c-17.1,34.5-6.2,78,18.4,107.5c24.6,29.5,60.6,47.3,97,59.8c117.5,40.3,249.1,34.6,360.6,89.4c14.6,7.2,30.9,19.9,27.4,35.8
			c-15.7-16.2-49-1.7-47.9,20.8c0.9,19.2,20.8,31.9,39.5,36.3c18.7,4.3,38.9,3.9,56,12.7c16.2,8.4,27.6,24.1,44,32
			c38.7,18.7,85-16.2,98.1-57.1s4.7-85.1,4.3-128c-0.1-7.2-0.2-15.1-4.9-20.5c-5.3-6.2-14.5-6.9-22.7-7.1c-19.8-0.6-39.6-1-59.4-1.2
			c-4.9-0.1-10.9,0.4-13.2,4.7c-1.6,2.8-1,6.2-1.2,9.4c-0.8,14.8-18.3,23.8-33.1,21.9s-27.3-11.1-40-18.8
			c-56.6-34-124.8-40.1-189.9-51.1c-35.9-6.1-71.5-13.8-106.6-23.3c-48.4-13-102.6-35.9-115.8-84.2c-2.4-9-3.2-18.8,0.5-27.4
			c8.2-19.4,33.4-23.7,54.4-24.9c65-3.7,130.2-4.2,195.2-1.5c18.5,0.8,41-0.4,49.7-16.7c6.7-12.6,0.9-28.9-9.6-38.4
			c-10.6-9.5-24.8-13.8-38.5-17.4"/>
	</g>
	<g>
		<linearGradient id="SVGID_4_" gradientUnits="userSpaceOnUse" x1="96.8036" y1="211.0759" x2="1534.7758" y2="211.0759">
			<stop  offset="0" style="stop-color:#F17AA9"/>
			<stop  offset="1" style="stop-color:#F17AA9;stop-opacity:0"/>
		</linearGradient>
		<path class="st6" d="M1534.8,230.7c0.3,14.8-11.3,27.8-24.8,33.7c-13.6,6-28.8,6.3-43.6,6.5c-73.8,0.8-151.7-2.5-214.3-41.6
			c-45.3-28.3-77.9-72.6-108.6-116.4c-14.8-21.2-29.9-42.9-50.9-57.8c-27.7-19.6-62.6-25.3-96.3-29.1
			c-70.2-8.1-141.1-10.5-211.7-7.4c-21.5,1-44.9,3.3-60.3,18.3c-9.1,8.9-14.1,21-18.3,33.1c-18.4,53.2-25.7,112.7-62.1,155.6
			c-29,34.1-73.4,52.7-118,57.4s-89.6-3.2-132.9-14.7c-25.4-6.8-51-15.1-72-30.8s-37.1-40.1-36.8-66.4c28.3,3.7,58.8,6.4,83.7-7.6
			c24.8-14,37.8-51.7,17.4-71.7c-7.3-7.2-17.4-10.8-27.1-14.1c-45.7-15.7-91.4-31.5-137.1-47.2c-20.4-7-41.4-14.2-63-13.8
			c-21.6,0.4-44.4,9.8-54.8,28.7c-24.6,44.5,31.7,98.5,17.1,147.1c-3.4,11.5-10.6,21.5-14.1,32.9c-3.5,11.4-2.1,26,8.1,32.3
			c6.2,3.8,14,3.6,21.1,2.3c35.3-6.2,65.1-36.2,71-71.6c13.2,36.9,26.6,74.5,50,105.9c17.6,23.8,40.5,43.4,65.3,59.4
			c70.1,45.2,157.9,62.1,239.8,46c81.9-16,156.8-64.8,204.7-133.1c26.8-38.2,47.2-84,87.7-107.3c41.4-23.8,95.2-17.1,136.7,6.5
			c41.5,23.6,72.7,61.6,99.9,100.8c19.5,28.1,38,57.9,65.7,78c41.3,30,95.7,33.4,146.7,35.6c38.2,1.7,76.9,3.3,114.2-4.8
			c37.3-8.1,73.8-27.3,94.8-59.2"/>
	</g>
	<g>
		<g>
			<path class="st2" d="M2926.9,1310c12.9,0,12.9-20,0-20C2914.1,1290,2914.1,1310,2926.9,1310L2926.9,1310z"/>
		</g>
	</g>
	<g>
		<linearGradient id="SVGID_5_" gradientUnits="userSpaceOnUse" x1="9.094947e-13" y1="455.1508" x2="1341.4509" y2="455.1508">
			<stop  offset="0" style="stop-color:#763FF5"/>
			<stop  offset="8.104094e-02" style="stop-color:#7248F2"/>
			<stop  offset="0.2158" style="stop-color:#6862E9"/>
			<stop  offset="0.3876" style="stop-color:#578BDB"/>
			<stop  offset="0.5674" style="stop-color:#43BEC9"/>
			<stop  offset="0.8652" style="stop-color:#E828CB"/>
			<stop  offset="0.9944" style="stop-color:#FF1E44"/>
		</linearGradient>
		<path class="st7" d="M533.1,48.2c11.9-21.6,41.1-33.3,63.4-22.5c23.9,11.6,31.9,41.1,37.3,67.1c63.3-2.6,126.6-3,189.9-1.3
			c8.1,0.2,17.1,0.2,23.1-5.3c10.7-9.8,3.8-27.8,7.8-41.8c6.5-22.6,40.8-25.2,58.5-9.7c17.7,15.5,23,40.5,27.5,63.6
			c1.2,5.9,2.4,12,5.5,17.1c3,5,7.7,8.7,12.2,12.4c46.7,37.7,93.3,75.3,140,113c6,4.9,12.3,9.9,19.8,11.8
			c10.5,2.8,21.5-0.8,32.1-3.5c65.9-16.6,145.5,11.2,172,73.7c16,37.8,11,81.8-4.5,119.8s-40.7,71.1-65.6,103.7
			c37.8-1.8,75.4,22.5,89.3,57.7c-22.6,5.4-46,7.2-69.2,5.4c-10.8,17.8,13.5,49.1-5.3,58c-7.5,3.6-16.2-1-22.9-6.1
			c-14.3-10.8-26.4-24.4-35.6-39.8c-4.9-8.2-9.9-17.7-19.1-20.2c-8.4-2.3-16.9,2.3-24.8,5.8c-42.2,18.5-90.5,8.8-136.5,9.5
			c-130,2-241.8,87.5-343.1,168.9c-8.1,6.5-16.5,13.5-19.9,23.2c-4.8,13.7,1.6,28.5,4.1,42.7c2.6,14.3-2.1,33.1-16.4,35.4
			c-11.6-13.8-23.1-27.6-34.7-41.4c-15.6,20.2-37.7,35.4-62.2,42.8c-17-28.7-12-68.6,11.6-92.1c-14.3,6.5-29.4,13-45.1,11.8
			c-15.7-1.3-31.6-13.4-31.4-29.1c0.3-14.4,13.7-25.4,27.5-29.3c13.8-3.9,28.6-2.8,42.8-4.6c31.6-4.1,59.4-22.4,84.7-41.6
			c42.7-32.3,82.3-68.8,118.1-108.6c-67.7-18.3-140.2-9.2-207.3,11s-130.3,51.4-195.1,78.3c-80.6,33.5-163.8,60.4-246.9,87.4
			c-8.1,2.6-18.7,4.5-23.6-2.5c-2.2-3.2-2.4-7.3-4.1-10.8c-4.6-9.6-18-10.7-28.1-7.5s-19.6,9.3-30.2,9.5
			c-23.3,0.4-37.1-32.5-23.5-51.5s43.9-20.2,62.5-6.1c-7.3-17.5-14.7-36.2-11-54.8c3.6-18.6,23.3-35.2,40.9-28.2
			c21.7,8.6,20.4,40.5,35.5,58.2c98.1-93.4,245.7-103.4,378.6-129.6c5.9-1.2,12.2-2.6,16.5-6.9c13.8-14-11.1-83.1-14.3-100.5
			c-8-43.6-14.5-87.6-15.8-132c-1.4-46.3,3-93.4,16.6-137.8c6.5-21.2,19.2-41.5,19.3-62.4C534.2,86.3,519.8,72.3,533.1,48.2z"/>
		<g>
			<linearGradient id="SVGID_6_" gradientUnits="userSpaceOnUse" x1="-0.5" y1="455.1494" x2="1342.1277" y2="455.1494">
				<stop  offset="0" style="stop-color:#763FF5"/>
				<stop  offset="8.104094e-02" style="stop-color:#7248F2"/>
				<stop  offset="0.2158" style="stop-color:#6862E9"/>
				<stop  offset="0.3876" style="stop-color:#578BDB"/>
				<stop  offset="0.5674" style="stop-color:#43BEC9"/>
				<stop  offset="0.8652" style="stop-color:#E828CB"/>
				<stop  offset="0.9944" style="stop-color:#FF1E44"/>
			</linearGradient>
			<path class="st8" d="M535.2,49.5c12.4-21.5,41.7-33.1,64-19.4c21.2,13,27.4,40.8,32.1,63.5c0.2,1,1.4,1.9,2.4,1.8
				c43.9-1.8,87.9-2.5,131.9-2.3c21.3,0.1,42.9,1.8,64.2,1c15-0.5,24.6-8.2,25.7-23.5c1.1-14.9-2.4-31.5,13.6-39.6
				c11.6-5.9,26.9-4.4,37.8,2.4c14.9,9.2,22,27.6,26.3,43.7c4.2,15.9,4.1,34.8,16.6,46.9c7.1,6.9,15.4,12.8,23.1,19
				c8.9,7.2,17.8,14.4,26.8,21.6c17.2,13.8,34.3,27.7,51.5,41.5c16.2,13.1,32.2,26.4,48.6,39.2c6,4.7,12.4,9,20,10.4
				c9.6,1.8,19.3-1,28.5-3.4c57.8-14.7,128.7,2.6,162.6,54.8c23.9,36.9,22.3,83.8,8.5,124.1c-14.6,42.4-42.5,78.7-69.4,114
				c-1.2,1.5,0.4,3.8,2.2,3.8c37-1.3,72.9,21.4,86.9,55.8c0.6-1,1.2-2.1,1.7-3.1c-22.5,5.2-45.5,7-68.6,5.3
				c-0.8-0.1-1.8,0.5-2.2,1.2c-4.8,8.5-3.3,18.3-1.4,27.5c1.6,7.8,6.9,21.6-0.3,28c-12.6,11-33.9-13-41.5-21.3
				c-5.1-5.6-9.8-11.7-13.9-18.1c-3.7-5.8-6.8-12.1-11.3-17.3c-9.2-10.6-20.9-9.4-32.9-4.3c-15.9,6.9-31.6,11.2-48.9,12.7
				c-32.1,2.7-64.2-1.9-96.3-1c-121.7,3.7-225.9,78.7-317.7,151.4c-12.6,10-27.9,19.6-37.8,32.5c-10,13-7.5,27.9-3.9,42.8
				c3,12.7,7.2,33.7-7,41.9c-4.2,2.4-4.9-0.2-7.7-3.5c-3.3-3.9-6.6-7.9-9.9-11.8c-6.6-7.9-13.2-15.8-19.8-23.7c-0.8-1-2.8-1-3.5,0
				c-15.7,20-36.8,34.6-61.1,42.2c0.9,0.4,1.9,0.8,2.8,1.1c-16.3-28.3-11.6-65.7,11.3-89.1c2.1-2.1-0.5-5-3-3.9
				c-13.6,6.1-28.5,12.8-43.8,11.4c-12.2-1.1-25.6-9.3-28.4-21.9c-3.1-14.2,9.6-25.8,21.7-30.4c13.7-5.2,29-3.9,43.4-5.4
				c26-2.8,49.5-14.9,70.8-29.5c23.2-15.8,45.1-33.9,66.2-52.4c24.7-21.7,48-44.9,70-69.3c1.2-1.4,0.8-3.7-1.1-4.2
				c-127-33.7-252.1,23.8-366.2,73.4c-61.7,26.8-124.5,50.3-188.2,71.8c-31.9,10.8-63.9,21.7-96.1,31.6c-5.4,1.7-12.8,3.9-18.1,0.9
				c-5.6-3.1-5-11.7-8.9-16.4c-6.3-7.5-17.5-8.1-26.4-6.1c-14.1,3.2-28.6,15.4-43.2,7.2c-10.4-5.9-15.9-19.1-15.1-30.7
				c2.2-31.4,43.7-34.1,64-19.3c1.7,1.2,4.5-0.8,3.7-2.8c-7-17-15.3-36.5-10.6-55.3c3.5-14.2,18.2-29.2,34-25.8
				c13.3,2.9,18.9,16.7,23.1,28.1c3.9,10.7,7.5,21.6,14.8,30.6c0.9,1.1,2.6,0.9,3.5,0c91.7-86.7,224.2-101.3,342.8-122.4
				c7.5-1.3,15-2.7,22.5-4.1c7.3-1.4,15.1-2.2,22-5c8.4-3.4,11.7-9.3,12.4-18c1.7-20.4-5.5-42.2-10.8-61.6
				c-6.9-25.1-11.7-50.1-15.4-75.9c-5.6-38.6-9-77.6-7.7-116.7c1.4-42.3,7.9-85.1,24-124.5c6.8-16.5,13.7-33.4,11.2-51.6
				c-1-7.4-3.4-14.4-4.9-21.7C528.9,68.1,530.3,58.9,535.2,49.5c1.5-2.8-2.8-5.4-4.3-2.5c-6.8,13-6.8,25.1-3.2,38.9
				c1.8,6.9,3.6,13.7,3.9,20.9c0.3,9.7-2.2,19.1-5.5,28.1c-6.1,16.9-13.3,32.9-17.8,50.4c-4.5,17.4-7.6,35.1-9.7,53
				c-4.3,37.4-3.7,75.1-0.2,112.5c1.7,18.4,4.2,36.7,7.1,55c2.2,14.1,4.1,28.5,7.6,42.4c5.3,20.8,12.1,41.2,15.5,62.4
				c1.3,8,3.3,19-0.3,26.7c-2.6,5.6-9.5,7.2-15.1,8.4c-8.1,1.8-16.3,3.2-24.4,4.6c-60.5,11.1-121.5,19.7-181,35.6
				c-64.6,17.2-127.3,44-176.4,90.4c1.2,0,2.4,0,3.5,0c-15-18.3-15.9-64.8-49.3-60.3c-14.4,1.9-26.3,14.4-30.4,27.9
				c-6.1,20,2.6,41.4,10.1,59.7c1.2-0.9,2.4-1.9,3.7-2.8c-17.5-12.8-44.6-14-61.1,1.4C-6.5,715.7-5.2,739.5,8,753.6
				c6.8,7.3,16.2,10.5,26.1,8.8c13.9-2.3,26.7-13.6,41.3-9.9c9,2.3,9.2,8.6,12.6,15.8c2.1,4.5,5.9,7.2,10.8,8.1
				c5,0.9,10.4-0.2,15.2-1.6c8.8-2.6,17.6-5.7,26.3-8.5c67.4-21.9,134.7-44.3,200.6-70.5c64.6-25.8,127-56.9,192.9-79.4
				c73.4-25.1,153.4-39,229.7-18.7c-0.4-1.4-0.7-2.8-1.1-4.2c-21.7,24.1-44.8,47-69.1,68.5c-24.4,21.5-49.8,42.9-77.6,59.9
				c-13.3,8.2-27.6,15-42.8,18.8c-15.4,3.8-31.3,2.6-46.9,5.2c-21,3.4-47.3,22.5-34.2,46.5c5.6,10.3,17.3,16.9,28.7,18.3
				c16.9,2.1,33.2-5.2,48.2-11.9c-1-1.3-2-2.6-3-3.9c-24.4,25-29.4,64.9-12,95.1c0.5,0.9,1.8,1.5,2.8,1.1
				c25-7.8,47.1-22.8,63.3-43.5c-1.2,0-2.4,0-3.5,0c11.6,13.8,23.1,27.6,34.7,41.4c0.6,0.7,1.6,0.8,2.4,0.6
				c10.4-2.2,16.2-11.4,18.1-21.3c2.6-13.4-2.4-25.7-4.7-38.8c-1.7-9.3-1.3-18.4,4.1-26.5c4.6-6.7,11.3-11.8,17.6-16.9
				c12.3-9.9,24.6-19.7,37-29.3c50-39,102.3-76.2,160.1-102.8c28.3-13,57.9-23.2,88.5-29c32.5-6.3,64.7-5.8,97.7-4.4
				c31.7,1.4,64.4,1.9,94.1-11.1c8.5-3.7,18.4-9.2,27.4-3.5c6.7,4.3,10.3,12.4,14.4,18.9c8,12.8,18,24.5,29.6,34.2
				c9,7.5,23.7,18.3,34.9,8.2c7.1-6.4,4.9-17.1,3.2-25.3c-1.3-6.3-3-12.5-3.3-19c-0.1-2.7-0.2-6.6,1.1-9.1c1.6-3.1,0.4-1.2,3-1.6
				c2.7-0.4,6,0.3,8.7,0.4c19.3,0.4,38.6-1.8,57.4-6.1c1.2-0.3,2.2-1.9,1.7-3.1c-14.9-36.5-52.3-60.9-91.7-59.5
				c0.7,1.3,1.4,2.5,2.2,3.8c45.6-59.8,98.7-133.9,74.6-213.5c-18-59.6-80.1-92.1-139.6-92.2c-15.7,0-30.8,2.5-46,6.4
				c-12.2,3.1-23.4,4.4-34.5-2.7c-9-5.8-17-13.2-25.3-19.9c-35.3-28.5-70.7-57-106-85.6c-8-6.5-16.7-12.6-24.2-19.8
				c-8.1-7.8-9.5-18.2-11.6-28.7c-3.3-16.3-7.4-33.1-16.8-47c-7.6-11.3-18.2-19.4-31.8-21.6c-11.3-1.8-24,0.1-32.8,7.8
				c-11,9.6-9.3,23.7-9.6,36.9c-0.3,10.4-4.1,18.9-15.3,20.8c-10.5,1.8-22.2,0.1-32.8-0.1c-44.8-0.9-89.7-0.7-134.5,0.6
				c-11.4,0.3-22.8,0.7-34.3,1.2c0.8,0.6,1.6,1.2,2.4,1.8c-5.3-25.5-13.2-57.1-39.3-69c-24.1-11-53.2,1.8-66,23.8
				C529.3,49.8,533.6,52.3,535.2,49.5z"/>
		</g>
	</g>
	<g>
		<path class="st2" d="M585.1,70.2c3.8-3.8,7.9-8,8.5-13.3s-4.3-11.5-9.4-9.7c-2.9,1-4.6,3.9-6,6.6c-2,3.9-4.1,8.2-3,12.4
			c1.1,4.2,7.1,7.1,9.9,3.7"/>
		<g>
			<path class="st2" d="M586.9,72c5.2-5.2,11.5-12.2,8.6-20.1c-2.2-6.2-9.3-10-14.9-5.5c-5.2,4.2-10,14.9-7.4,21.4
				c2.2,5.4,9.2,8,13.7,3.8c2.4-2.2-1.2-5.7-3.5-3.5c-2.2,2-5.1-0.6-5.7-2.6c-0.7-2.3,0.4-5.4,1.3-7.5c1.3-3,3.2-7.9,6.7-8.3
				c4.9-0.5,6.2,5.8,4.9,9.4c-1.3,3.7-4.5,6.7-7.2,9.4C581,70.7,584.6,74.3,586.9,72L586.9,72z"/>
		</g>
	</g>
	<g>
		<path class="st2" d="M913.3,56.4c-4.9,6.3-16.5,4.7-19.5-2.7s4.2-16.6,12.1-15.6C913.8,39.3,918.2,50.1,913.3,56.4"/>
		<g>
			<path class="st2" d="M911.6,54.7c-6.7,7.8-20.7-0.3-14.2-9.8c2.8-4.1,8.3-5.8,12.3-2.2c3.5,3.2,4.3,8.6,1.6,12.5
				c-1.8,2.6,2.5,5.1,4.3,2.5c4.2-6,2.5-14.6-3-19.1c-6-5-14.4-3-18.9,3c-4.5,6-3.8,14.7,2.8,18.9c5.8,3.7,14.2,3.1,18.7-2.2
				C917.2,55.8,913.7,52.2,911.6,54.7L911.6,54.7z"/>
		</g>
	</g>
	<g>
		
			<linearGradient id="SVGID_7_" gradientUnits="userSpaceOnUse" x1="84.0411" y1="488.4567" x2="297.8449" y2="488.4567" gradientTransform="matrix(0.8995 -0.4368 0.4368 0.8995 -173.4625 146.5105)">
			<stop  offset="0" style="stop-color:#F17AA9"/>
			<stop  offset="1" style="stop-color:#F17AA9;stop-opacity:0"/>
		</linearGradient>
		<path class="st9" d="M290.7,525.1c-12.3,22.2-38.7,34-64.1,33.8c-25.4-0.1-49.6-10.5-71.3-23.7c7.2,7.4,7.7,20.4,1,28.3
			s-19.4,9.8-28,4.1c-7.5-5-11-14.1-14-22.6c-5-13.9-9.9-27.8-14.9-41.7c-1.6-4.5-3.2-9.3-2.4-14c1.5-8.6,10.5-13.6,18.7-16.4
			c25.7-8.8,54.5-8.2,79.9,1.5c8.7,3.4,18.5,11.4,15.1,20c-1.7,4.3-6.5,7.3-6.8,11.9c-0.3,5.7,6.1,9.1,11.5,10.6
			c27.8,7.7,58.7,3.4,83.4-11.5c9.3-5.6,21.7-12.6,29.7-5.2c8.3,7.6,0.7,22.3-9.6,26.8c-10.3,4.5-22.4,3.7-32.6,8.4"/>
	</g>
</g>
</svg>
