<?xml version="1.0" encoding="utf-8"?>
<!-- Generator: Adobe Illustrator 22.1.0, SVG Export Plug-In . SVG Version: 6.00 Build 0)  -->
<svg version="1.1" id="Layer_1" xmlns="http://www.w3.org/2000/svg" xmlns:xlink="http://www.w3.org/1999/xlink" x="0px" y="0px"
	 viewBox="0 0 730 585.3" style="enable-background:new 0 0 730 585.3;" xml:space="preserve">
<style type="text/css">
	.st0{stroke:#000000;stroke-miterlimit:10;}
	.st1{fill:none;stroke:#000000;stroke-miterlimit:10;}
	.st2{fill:none;stroke:#000000;stroke-width:1.0046;stroke-miterlimit:10;}
	.st3{fill:none;stroke:#FFFFFF;stroke-miterlimit:10;}
	.st4{fill:#FFFFFF;stroke:#000000;stroke-width:0.75;stroke-miterlimit:10;}
	.st5{fill:#FFFFFF;stroke:#000000;stroke-miterlimit:10;}
	.st6{fill:none;stroke:#000000;stroke-width:0.7842;stroke-miterlimit:10;}
	.st7{fill:#FFFFFF;stroke:#000000;stroke-width:0.5589;stroke-miterlimit:10;}
	.st8{fill:#FFFFFF;}
	.st9{stroke:#FFFFFF;stroke-miterlimit:10;}
	.st10{display:none;stroke:#FFFFFF;stroke-miterlimit:10;}
</style>
<path class="st0" d="M471,190.1c15.8-4.3,32.5-5.3,48.7-2.7c0.8-10.6,1.7-21.2,2.5-31.8c8-0.3,16-1.2,23.9-2.8
	c8.7,18.4,14.9,38,18.5,58.1c0.7,4.1,1.4,8.5,4,11.8c1.7,2.2,4.1,3.9,6.1,5.8c10.4,10.1,7.8,30.1-4.9,37.1
	c12,10.5,19.2,26.3,19.4,42.2c18.8,2.7,37.7,10.5,49.6,25.3s14.8,37.6,3.4,52.8c-1,12.1-18.5,18.9-27.3,10.6
	c-3.8,8.7-8.2,17.9-16.5,22.5c-8.3,4.6-21.4,1-22.6-8.4c-13.6-2.3-20.4,19.1-34.1,20.6c-7.6,0.9-14.2-4.7-19.8-10
	c-0.7,7.6-6.5,14.5-13.8,16.6c-7.4,2.1-15.8-0.8-20.5-6.9c-2.2-2.8-3.9-6.6-7.4-7.3c-4.7-1-8.2,4.2-12.1,7
	c-4.7,3.4-11.7,3.6-16.1-0.2c-4.4-3.8-5.1-11.3-1-15.5c-7.3,6.6-17.5,10.5-27,8.1s-17.2-12.4-15-21.9c-7.2,2.7-14.7,5.5-22.3,4.4
	c-7.6-1-15.1-7.3-14.7-14.9c0.3-5.3,2.9-13-2.3-14.3c-1.5-0.4-3,0.1-4.5,0.6c-7.7,2.5-16.4,3.7-23.6-0.1
	c-7.1-3.8-10.8-14.3-5.4-20.3c-11.2,0.2-22.4-2.2-32.6-7c-4.9-2.3-10.2-6.6-9-11.9c0.9-4,5.2-6.2,9-7.8c4.7-2,9.5-4,14.2-5.9
	c-3.1-9.2,0.1-20.2,7.7-26.3c7.6-6.1,19-6.8,27.4-1.8c-5-10.2-1-23.3,7.5-30.9s20.5-10.2,31.9-9.5c11.4,0.6,22.3,4.2,33.1,7.8
	c1.6-13,3.6-26.9,12.4-36.6c3-3.3,6.8-6.1,8.5-10.2c2.8-6.7-0.7-14.2-2.8-21.2c-3.9-12.9-2.7-27.3,3.3-39.3c0.7-1.3,1.5-2.8,3-3.1
	c1.8-0.5,3.5,0.9,4.7,2.3c6.3,7,10,16.4,10.1,25.9c0,2.8-0.2,5.8,1.2,8.1c1.4,2.4,5.4,3.4,6.9,1"/>
<path class="st1" d="M390.3,247.3c1.3,16.9,2.6,33.7,3.9,50.6c2.4,31.4-19.3,58-36.8,82.4c-10.8,15.1-23.2,31.2-41.3,35.4
	c-10.2,2.4-24.3,3.1-26,13.5c-0.4,2.5,0.1,5-0.6,7.4c-1,3.3-4,5.5-6.9,7.4c-55,36.7-110,73.3-165,110c28.4,3.6,56.9,5.5,85.5,5.8
	c9.2,0.1,19.1-0.2,26.5-5.7c10.9-8.2,13-25.8,25.5-31.5c3.7,9.5,5.2,19.9,4.3,30c8.4-4.2,18-5.7,27.3-4.4
	c1.2-13.9,0.9-27.9-0.8-41.8c60.6-44.9,119.7-91.7,177.2-140.5c1.9-1.6,3.9-3.3,6.4-4c2.5-0.7,5.1-0.2,7.6,0
	c13.3,1.4,27.1-2.1,38-9.7c11.7,32,25.8,63,42.4,92.7c0.6,9.2-5.1,17.8-11.8,24.2c-6.7,6.4-14.7,11.4-21.1,18.1
	c-16.4,17.1-19.9,42.4-22.6,65.9c8.3-0.8,15.1-8.9,14.5-17.2c9,16.8,29.6,23.4,48.5,26c23.7,3.2,47.9,2.3,71.3-2.6
	c-23.1-22.2-56.1-29.8-87.4-36.6c20.1-26.7,40.2-53.4,60.4-80.2c3-4,6.1-9.4,3.2-13.6c-1.1-1.6-2.9-2.5-4.5-3.6
	c-7.5-4.6-13.6-11.3-17.6-19.1c-3.8-7.6-5.5-16.1-7-24.4c-9.9-54.1-15.6-109-17.1-164c-0.1-3.4,0.2-7.5,3.3-9.1c3-1.6,6.7,4.1,3.4,5
	"/>
<path class="st1" d="M108.8,297.8c-8,5.6-16.9,9.7-26.3,12.3"/>
<path class="st0" d="M61.4,315.8c-5.5-4.1-10.9-8.1-16.4-12.2c-2.2-1.6-4.6-4.1-3.5-6.6c0.5-1.2,1.8-1.9,3-2.6
	c11.3-5.9,22.6-11.9,33.9-17.8c1-0.5,2.3-1,3.2-0.3c0.6,0.4,0.7,1.2,0.9,1.9c3.2,16.9,10,33.1,19.9,47.1c2.2,3.1,4.7,6.6,4.3,10.4
	c-0.3,2.3-1.6,4.3-2.9,6.2c-2.4,3.5-5.2,7.1-9.1,8.8c-3.9,1.8-9.2,1-11.4-2.6"/>
<ellipse class="st2" cx="487.4" cy="75.1" rx="47.4" ry="64.3"/>
<ellipse class="st2" cx="506.2" cy="70.3" rx="13.5" ry="4.9"/>
<g>
	<g>
		<path d="M506.2,75.3c6.4,0,6.4-10,0-10C499.7,65.3,499.7,75.3,506.2,75.3L506.2,75.3z"/>
	</g>
</g>
<ellipse class="st2" cx="458.5" cy="71.3" rx="13.5" ry="4.9"/>
<g>
	<g>
		<path d="M458,75.4c6.4,0,6.4-10,0-10C451.6,65.4,451.6,75.4,458,75.4L458,75.4z"/>
	</g>
</g>
<line class="st2" x1="474" y1="91.3" x2="480" y2="95.1"/>
<line class="st2" x1="477" y1="70.3" x2="474" y2="91.3"/>
<path class="st3" d="M419.5,344.9c4.7-6.4,12.2-10.8,20.1-11.7c2-5.3,2.5-11.1,4.4-16.5c1.9-5.4,5.6-10.7,11.2-11.9
	c5.2-1.2,10.7,1.7,14,5.8c3.3,4.1,4.9,9.4,6.1,14.6c3.6,15.3,4.4,31.3,2.6,46.9c-0.5,4.2-1.3,8.6-4.2,11.6c-0.6,0.6-1.2,1.1-2,1.3
	c-2,0.4-3.7-1.7-4.3-3.7c-0.6-2-0.8-4.3-2.3-5.8c0.2,2,0.1,4.2-1,6c-1.1,1.7-3.5,2.7-5.3,1.8c-1.8-1-2-4.2-0.1-4.9
	c-0.9,1.5-2.2,2.8-3.7,3.8c-1.6-1.5-1.6-4.2-0.6-6.2c1-2,2.7-3.5,4.2-5.1c5-5.3,8.1-12.4,8.6-19.6"/>
<rect x="120.6" y="86.9" class="st1" width="350.4" height="212.4"/>
<rect x="100.6" y="106.1" class="st4" width="350.4" height="212.4"/>
<rect x="110.6" y="95.1" class="st4" width="350.4" height="212.4"/>
<g>
	<path d="M486,12.7c0.6-4.2,6.3-4.9,10.5-4.2c21,3.9,39.3,19.9,46.2,40.2c1.5,4.4,2.5,9,5.2,12.7c2.5,3.3,6.1,5.6,8.8,8.8
		c2.7,3.2,4.2,8.1,1.6,11.4c-0.9,1.1-2.2,1.9-3,3.1c-3,3.8-0.5,9.4,2.4,13.3c2.4,3.3,5.1,6.6,6.2,10.6c1.2,4,0.4,8.8-3,11.2
		c-1.5,1.1-3.5,1.5-4.7,2.9c-2.1,2.5-0.7,6.5,1.6,8.9c2.3,2.4,5.4,4,7.2,6.8c4,6.3-1.7,15.6-9.1,16.6c-7.5,0.9-14.6-4.6-17.5-11.5
		c-3-6.9-2.6-14.8-1.4-22.2s3.2-14.8,3.2-22.3c0-6.3-1.3-12.5-2-18.8c-0.8-7.6-0.7-15.3-2.4-22.7s-5.2-14.9-11.7-18.9
		c-3.2-2-6.9-3.1-10.4-4.4c-11.3-4.3-21.5-11.6-29.2-21"/>
	<g>
		<path d="M488.4,13.4c1.5-5.5,12.5-1.3,15.8-0.2c6,2.1,11.6,5.3,16.6,9.2c9.3,7.3,16.2,17.2,19.8,28.4c1.6,4.8,3,9.6,6.4,13.5
			c2.1,2.3,4.7,4.1,6.8,6.4c3.5,3.7,4.1,7,0.6,11c-8.7,10,4.4,18.1,7,27.4c1,3.6,0.2,7.1-3.1,9c-2,1.2-4,2-5.1,4.3
			c-2,4.2,0.7,8.9,3.7,11.7c1.9,1.7,4.4,3.1,5.7,5.3c1.8,3,0.9,6.8-1.3,9.3c-4.9,5.8-12.9,3.6-17.6-1.4c-10.1-10.8-3.7-27.9-2-40.5
			c0.9-6.1,0.7-12.1-0.1-18.2c-1.1-8-1.6-15.9-2.4-23.9c-1.3-12.8-5.7-25.4-18.4-30.8c-6.4-2.7-12.8-4.8-18.8-8.6
			c-6.1-3.9-11.4-8.7-16-14.3c-2.1-2.5-5.6,1.1-3.5,3.5c9,10.8,20.3,17.9,33.4,22.8c8,3,13.3,7.9,16.1,16.1c2.8,8.2,2.5,17,3.4,25.5
			c0.9,8.5,2.7,16.8,1.7,25.3c-0.9,8.2-3.4,16.2-3.7,24.5c-0.5,11.8,4.5,25.6,17.5,28.2c9.6,1.9,20.2-7.1,17.3-17.3
			c-0.7-2.3-2.2-4.3-4-5.9c-1-1-2.2-1.8-3.3-2.7c-2.7-2.4-4-5.5-0.8-8.3c2-1.7,4-2.4,5.3-5c1.2-2.5,1.5-5.3,1.1-8
			c-0.9-6.3-5.6-10.4-8.5-15.7c-1.4-2.5-2.2-4.6-0.9-7.2c0.8-1.7,2-2.4,3.1-3.8c1.5-2,2-4.4,1.7-6.9c-0.7-6.5-6.2-9.9-10.3-14.2
			c-5-5.2-5.9-12.8-8.8-19.3c-5.7-12.8-15.9-23.6-28.2-30.2C507.9,8.8,487-0.7,483.6,12C482.8,15.2,487.6,16.5,488.4,13.4
			L488.4,13.4z"/>
	</g>
</g>
<g>
	<path d="M474,13.1c-6.6-0.1-12.9,2.2-19.1,4.5c-5.4,2-11.3,4.5-13.5,9.8c-2.2,5.2,0.1,11,0.8,16.5c0.8,5.5-1.3,12.7-6.9,13.3
		c-1.5,0.2-3.2-0.1-4.1,1.1c-1.4,1.9,1.3,4.5,0.6,6.8c-0.7,2.3-4,2.3-6,3.7c-2.3,1.6-2.5,5-1.3,7.5s3.6,4.2,5.8,5.8
		c4.9-8,9.9-16,14.8-23.9c1-1.6,1.9-3.1,2.4-4.9c0.9-3.3-0.1-7,0.9-10.3c0.9-2.9,3.3-5.2,5.6-7.2c5.1-4.6,10.2-9.3,16.4-12.3
		c2.3-1.1,4.8-2.1,6.3-4.1c1.5-2,1.3-5.5-1.1-6.4"/>
	<g>
		<path d="M474,10.6c-6.3,0.1-12.2,1.8-18.1,4c-4.5,1.6-9.3,3.3-13,6.6c-3.7,3.3-5.2,7.8-4.9,12.6c0.3,5.5,3.1,11.3,1.1,16.8
			c-1.2,3.3-3,3.7-6.1,4.3c-1.6,0.3-3.1,0.7-4,2.1c-0.8,1.2-0.8,2.6-0.6,4c0.3,1.8,1.5,2.4-0.3,4c-0.6,0.5-1.9,0.6-2.7,1
			c-3.1,1.7-4.5,4.8-4.1,8.2c0.6,4.5,4.2,7.4,7.7,9.9c1.1,0.8,2.8,0.2,3.4-0.9c4.9-8,10-15.9,14.8-23.9c1.9-3.1,3-5.9,3.1-9.6
			c0.1-3-0.3-5.7,1.5-8.3c1.2-1.8,2.9-3.2,4.5-4.6c3.4-3.1,6.9-6.2,10.8-8.8c3.2-2.1,7.1-3.2,9.9-5.7c3.6-3.2,4.1-9-0.4-11.6
			c-2.8-1.6-5.3,2.7-2.5,4.3c4,2.3-6.3,6.8-7.4,7.4c-2.7,1.5-5.1,3.3-7.5,5.3c-4.4,3.5-10.4,7.8-12.8,13.1c-1.3,2.9-1,5.8-1.1,8.9
			c-0.2,4-2.4,6.9-4.4,10.2c-4.3,6.9-8.6,13.8-12.8,20.7c1.1-0.3,2.3-0.6,3.4-0.9c-2-1.5-5.4-3.7-5.2-6.5c0.2-2.6,2.2-3,4.3-4
			c2.2-1.1,3.7-2.8,3.6-5.4c-0.1-2-1.4-3,0.3-4.1c0.9-0.5,2.6-0.4,3.7-0.9c2.6-1.2,4.3-3.7,5.3-6.4c3-8.3-4.1-18.6,1-25.9
			c2.8-3.9,8.1-5.6,12.4-7.1c5.5-2,10.9-3.7,16.8-3.8C477.2,15.6,477.2,10.6,474,10.6L474,10.6z"/>
	</g>
</g>
<line class="st1" x1="511.6" y1="130" x2="511.6" y2="147"/>
<path class="st1" d="M519.7,155"/>
<path class="st1" d="M477.6,155"/>
<path class="st1" d="M490.8,62.3c0.5-3.9,4.7-6.4,8.6-6.2c3.9,0.1,7.5,2.1,10.8,4.1"/>
<path class="st1" d="M468.9,60.4c-3.8-2.7-8.3-4.2-12.9-4.3"/>
<path class="st1" d="M475,110.2c4.1,3.1,10.8,2.2,13.9-2"/>
<circle class="st1" cx="102.1" cy="59.1" r="6.4"/>
<circle class="st1" cx="19.9" cy="325.4" r="6.7"/>
<circle class="st1" cx="585.1" cy="87.2" r="5.1"/>
<circle class="st1" cx="703.2" cy="368.5" r="6.1"/>
<circle class="st1" cx="498" cy="250.6" r="5.3"/>
<circle class="st1" cx="327" cy="345.3" r="6"/>
<line class="st1" x1="48.9" y1="36.3" x2="67.1" y2="41.8"/>
<line class="st1" x1="56.2" y1="48.4" x2="59.1" y2="30.2"/>
<line class="st1" x1="519.7" y1="262.1" x2="537.9" y2="267.5"/>
<line class="st1" x1="527" y1="274.1" x2="529.9" y2="255.9"/>
<line class="st1" x1="342.7" y1="365.8" x2="360.9" y2="371.2"/>
<line class="st1" x1="350" y1="377.8" x2="352.9" y2="359.6"/>
<path class="st1" d="M28.3,87.8c-1.1,2.7-0.3,6.1,1.9,8c2.2,1.9,5.7,2.2,8.2,0.6c2.6-1.6,4.1-4.8,6.9-6c3-1.2,6.6,0.6,8.5,3.2
	c1.9,2.6,2.5,5.9,3.1,9.1"/>
<path class="st1" d="M597.4,122.8c-4.3-2.6-3.1-10.3,1.7-12c4.7-1.7,10.3,2.2,11,7.2c1.7-0.5,2.9-2.1,3-3.8"/>
<path class="st1" d="M358,347.4c0.7-3.3,3.4-6,6.6-6.8c3.2-0.8,6.9,0.5,8.9,3.1c2.3,2.9,2.6,6.9,4.2,10.1c1.7,3.3,6.4,5.7,8.9,3"/>
<path class="st1" d="M128.5,318.4c-9.7,4-19,8.7-28,14"/>
<path class="st5" d="M57.2,322.2c6.5-7.2,16.3-10.3,25.6-13.2c1.6-0.5,3.8-0.8,4.7,0.6c1.2,2-1.4,4-3.5,5c-5.2,2.3-10,5.6-14.2,9.5
	c7.1-3.8,14.5-6.9,22.1-9.4c-0.9,7.3-8.6,11.4-15.3,14.3c4.3-1.4,8.6-2.8,12.9-4.1c2-0.6,4.8-0.9,5.6,1c0.8,1.9-1.4,3.6-3.2,4.6
	c-4.4,2.3-8.8,4.6-13.2,6.9c5.7-1.9,11.5-3.8,17.2-5.7c1.2-0.4,2.6-0.8,3.9-0.4c2.3,0.7,2.9,4,1.8,6.1c-1.1,2.1-3.4,3.4-5.5,4.6
	c-4.8,2.6-9.6,5.3-14.4,7.9c-1.3,0.7-2.7,1.5-4.2,1.4c-1.4,0-2.7-0.8-3.9-1.6c-11.1-7.6-15.9-21.4-19.3-34.4
	c-0.7-2.5-1.3-5.2-0.4-7.7c0.8-2.5,3.7-4.4,6-3.4c2.5,1.1,2.8,4.6,2.1,7.3c-0.7,2.7-2,5.3-1.4,8"/>
<path class="st0" d="M40.7,300.2c-2.2,0.6-4.6,1.1-6.8,0.5s-4.1-2.8-3.8-5.1c0.6-4.2,7-4.3,9.4-7.8c1.8-2.6,0.7-6.3,2.1-9.1
	c1.1-2.3,3.4-3.6,5.6-4.7c3.1-1.6,6.2-3.3,9.3-4.9c2.6-1.4,5.4-2.8,8.4-3c3-0.1,6.3,1.4,7.1,4.3c2.6-1.9,5.5-3.9,8.7-3.7
	c3.2,0.2,6.3,3.8,4.6,6.6c-0.6,1-1.7,1.7-2.8,2.3c-14.7,8.5-29.7,16.6-45,24.2"/>
<path class="st0" d="M59.9,276.8c-3.5-8.1-4.6-17.2-3.2-25.9c6.1-1,12.1-2.8,17.7-5.4c0,1.6,0,3.2,0,4.8c-4.8,0.3-9.6,1.1-14.2,2.3
	c-0.2,6-0.4,11.9-0.6,17.9c0,1.2-0.1,2.5-0.9,3.4s-2.4,1.2-3.1,0.2"/>
<circle class="st1" cx="388.6" cy="20.5" r="6"/>
<line class="st1" x1="29.4" y1="260.1" x2="10.5" y2="262.9"/>
<line class="st1" x1="17.7" y1="252.3" x2="22.7" y2="270"/>
<path class="st6" d="M83.6,233.7c-1.5,1.5-4.6,1.8-7.8,0.8c-3.1-1-6-3.3-7.2-5.6c-1.3-2.6-0.4-4.9-1.1-7.5c-0.6-2.5-4.2-6-7.2-5.6"
	/>
<line class="st1" x1="56.7" y1="250.9" x2="55.7" y2="274.2"/>
<line class="st1" x1="60.2" y1="252.6" x2="74.5" y2="250.4"/>
<ellipse transform="matrix(0.6625 -0.7491 0.7491 0.6625 -87.9225 446.6786)" class="st7" cx="451.7" cy="320.9" rx="6.8" ry="3"/>
<g>
	<g>
		<path d="M451.7,323.7c3.6,0,3.6-5.6,0-5.6C448.1,318.1,448.1,323.7,451.7,323.7L451.7,323.7z"/>
	</g>
</g>
<g>
	
		<ellipse transform="matrix(0.6625 -0.7491 0.7491 0.6625 -110.8034 441.4896)" class="st7" cx="434.5" cy="343.7" rx="6.8" ry="3"/>
	<g>
		<path class="st8" d="M434.5,343.7"/>
		<g>
			<path d="M434.5,346.5c3.6,0,3.6-5.6,0-5.6C430.9,340.9,430.9,346.5,434.5,346.5L434.5,346.5z"/>
		</g>
	</g>
</g>
<path class="st9" d="M443,348.8c8.8-2.5,15.8-10.4,17.1-19.5"/>
<path class="st1" d="M539.2,380.4c2.2,2.5,5,4.6,8,5.9"/>
<path class="st1" d="M545.6,371.1c2.9,1.5,5.9,3,8.8,4.6"/>
<path class="st1" d="M547.9,362.1c2.7,0.9,5.5,1.7,8.2,2.6"/>
<path class="st1" d="M550,398.8c1,2.3,2.1,4.6,3.9,6.3s4.6,2.7,6.9,1.7c3.6-1.6,4-6.5,3.7-10.4c2.9,2.6,7.6,1.9,10.8-0.3
	c2.2-1.4,4.1-3.6,4.7-6.1s-0.4-5.6-2.7-6.8c1.1,2.1,4.4,2.2,6.2,0.6c1.8-1.6,2.3-4.2,2.2-6.6c-0.1-3.3-1.5-6.9-4.5-8.1
	c-1.1-0.5-2.5-0.7-3-1.9c-0.5-1.2,0.5-2.5,1.3-3.6c2.9-3.9,2.3-10.4-1.9-12.8c-4.2-2.4-10.8,1.7-9.4,6.4"/>
<path class="st5" d="M562.8,156.1c32.6,3.9,64.8,10.5,96.2,19.8c10.8,3.2,21.6,6.7,31,12.9c24.2,15.7,35.4,46.7,33.2,75.5
	c-0.7,9.2-2.6,18.5-7.6,26.2c-3.4,5.2-8.1,9.5-12.8,13.5c-54.1,46-127.3,68.8-197.9,61.6c-13.4-1.4-27.8-4.3-36.9-14.3
	c8.8-8.4,21.9-12.1,33.8-9.5c-5.3-1-10.9-2.2-14.6-6.1c-3.7-3.9-3.8-11.5,1-13.8c1.8-0.8,3.8-0.8,5.7-0.8c7.4,0.1,14.8,0.2,22.2,0.2
	c-6.1-3.7-12.5-7.8-15.2-14.4c-2.6-6.6,1.1-16,8.2-16.2c2.6-0.1,5,1.1,7.3,2.2c5.3,2.7,10.4,5.7,15.3,9c-1.5-4.9-3-9.9-4.5-14.8
	c-0.5-1.8-1.1-3.8-0.5-5.6c1.9-5.5,10.4-2.7,14.3,1.6c8.2,9,13.3,20.8,14.1,32.9c22.6-5.2,43.7-15.8,63.3-28.3
	c9.3-5.9,18.6-12.7,23.9-22.4c5.2-9.7,5.2-23.1-2.9-30.6c-4.9-4.5-11.8-6.2-18.3-7.6c-18.6-4.2-37.2-8.3-55.8-12.5"/>
<path class="st0" d="M491.9,14.8c9.5,0.6,19.3,1.3,28.1,5c8.8,3.7,16.7,11,18.5,20.4c1.9,9.9-3.1,20.3-0.2,29.9
	c2.4,8,9.8,13.4,15.2,19.9c5.4,6.4,8.9,16.6,3.2,22.8c-2,2.2-5,3.6-6,6.4c-1.3,3.8,1.7,7.6,4.4,10.5c7.3,7.8,14.4,16.3,17.4,26.6
	c3,10.3,0.8,22.7-7.7,29.2c-6,4.6-14.8,6-18.6,12.6c-5.3,9,2.5,19.9,9.9,27.4c-17.5-3.9-31.3-20.5-31.9-38.4
	c-0.2-5,0.5-10.3-1.9-14.6c-3.7-6.5-13.3-8.9-14.9-16.2c-2.3-10.7,15-17.2,14.7-28.1c-0.2-6.6-6.9-11.7-7.2-18.3
	c-0.4-11.2,17.1-16.2,17.7-27.5c0.5-8.7-9.7-16.8-5.8-24.6c0.7-1.4,1.8-2.6,2.2-4.1c1.1-3.7-2.5-7.3-6.3-8.2
	c-3.8-0.8-7.7,0.1-11.5,0.2c-11.8,0.3-23.3-8.5-26-20c-5.6,10.3-16,17.7-27.5,19.8c-2.1,0.4-4.5,0.7-5.8,2.4
	c-1.6,2.1-0.6,5.1-0.2,7.8c1.1,7.4-4.3,15.2-11.6,16.8c2.6,3.3,5.3,6.7,6.2,10.7s-0.4,9-4.2,10.8c8,6.5,7,20.9-1.7,26.3
	c-1.7,1-3.6,1.8-4.6,3.5c-2.6,4.1,2,8.6,4.6,12.7c6.1,9.7-2.6,24.7-14.1,24.2c5.4-3.7,2.6-12.2-1.7-17c-4.3-4.8-10.1-9.8-9.5-16.2
	c0.6-6.3,7.5-11,7.2-17.3c-0.5-9.7-17.1-14-15.2-23.5c1.8-8.9,16.9-7.8,20.7-16.1c2.6-5.7-1.9-12.8,0.4-18.7
	c2.2-5.6,9.2-7.2,14.2-10.6c7.5-5,10.5-14.3,15.3-21.9c4.8-7.6,14.2-14.4,22.3-10.4c2.8,1.4,5.2,4,8.3,3.7c1.8-0.1,3.3-1.3,4.9-2.1
	c8.5-4.7,19.7-2.4,27.5,3.5s12.8,14.8,16.6,23.8"/>
<g id="_x30_M5OVJ.tif">
	
		<image style="overflow:visible;" width="584" height="354" id="Layer_0_2_" xlink:href="2518E46018689C78.png"  transform="matrix(0.6 0 0 0.6 120.6 86.8838)">
	</image>
</g>
<path class="st0" d="M120.1,554.6c55.7-19.7,97.8-67.5,153.2-87.9c3.1-1.2,6.4-2.2,9.8-2.1c2.3,0.1,4.6,0.7,6.8,1.4
	c17.2,5,34.3,9.9,51.5,14.9c-5.7,7.3-13,13.2-21.4,17.1c-9.4,4.4-20.8,7.2-25.8,16.2c-3.6,6.6-2.7,14.6-2.8,22.2
	c-0.1,8.8-2.2,18-8.5,24.2c-6.2,6.2-17.6,7.6-23.6,1.3c0.2-6.3-0.7-12.6-2.6-18.5c-7,3.2-8,12.7-13,18.5c-5.9,7-16.2,7.7-25.3,7.6
	c-33-0.4-65.9-4.9-97.8-13.4c-1.4-0.4-3.2-1.2-3-2.7s3.1,0,1.7,0.5"/>
<g>
	<path d="M524,478.7c-8.5,1.6-15.2,8.6-18.8,16.5c-3.6,7.9-4.5,16.7-5.3,25.4c-0.7,7.3-1.5,14.6-2.2,21.9
		c-0.5,5.2-0.5,11.5,3.9,14.3c4.4,2.7,10.6-0.5,12.9-5.2s1.7-10.2,1.1-15.4c0.1,8.4,6.2,15.8,13.5,19.9s15.8,5.5,24.1,6.9
		c28,4.6,57.6,9.1,84-1.1c-31.5-11.5-63-23-94.6-34.5c-1.9-0.7-4.1-1.7-4.4-3.8c-0.2-1.7,1.1-3.2,2.3-4.4c5.4-5.5,10-11.9,13.6-18.7
		c0.9-1.6,1.7-3.3,1.6-5.2c-0.2-3.9-4.2-6.2-7.8-7.9c-8.5-4-17-8-25.5-11.9c-4.1-1.9-9-3.8-12.8-1.5c-2.2,1.3-3.5,3.7-4.5,6
		c-4.2,9.7-5.3,20.7-3.3,31.1"/>
	<g>
		<path d="M523.3,476.3c-26.4,5.9-25.6,40.7-27.7,61.7c-0.8,7.8-2.1,22.2,9.5,22.3c12.8,0.2,13.9-14.9,12.9-24.1
			c-0.3-3.1-5.2-3.3-5,0c1.4,24.9,31.4,28.1,50.3,31c24.8,3.8,50.6,6.1,74.6-2.9c2.4-0.9,2.4-4,0-4.8c-17.3-6.3-34.6-12.6-51.9-18.9
			c-8.7-3.2-17.3-6.3-26-9.5c-4.3-1.6-8.7-3.2-13-4.7c-1.2-0.4-4.7-1.1-5.4-2.1c-1.5-2.1,1.7-4.2,3-5.7c6.4-7.1,20.2-22.1,9.3-30.6
			c-6.1-4.8-14.6-7.4-21.6-10.7c-5.9-2.8-13.1-7.6-19.9-6.8c-7.5,0.9-10.2,9.3-11.9,15.5c-2.3,8.4-2.5,17.2-1,25.8
			c0.6,3.2,5.4,1.8,4.8-1.3c-1.7-9.9-1.1-21.6,3.7-30.6c3.6-6.8,9.5-4,15-1.5c4.5,2.1,9.1,4.2,13.6,6.4c4.2,1.9,8.6,3.6,12.6,6
			c1.5,0.9,3.5,2.1,4,3.9c0.7,2.5-1.6,5.4-2.7,7.4c-2.4,4.1-5.2,8-8.3,11.6c-2,2.3-5.4,4.8-6.2,8c-1.8,7.2,8.9,9.1,13.4,10.8
			c9.3,3.4,18.5,6.8,27.8,10.1c19.8,7.2,39.6,14.4,59.3,21.6c0-1.6,0-3.2,0-4.8c-21.4,8-44.3,6.8-66.5,3.7
			c-16.9-2.4-50.7-3.7-52.1-27c-1.7,0-3.3,0-5,0c0.5,4.9,1.5,10.9-1.4,15.3c-3,4.5-9.1,5.3-11.2-0.3c-1.3-3.7-0.3-8.5,0.1-12.3
			c0.5-4.6,0.9-9.1,1.4-13.7c1.6-16.1,3.2-39.7,22.8-44.1C527.8,480.4,526.5,475.6,523.3,476.3L523.3,476.3z"/>
	</g>
</g>
<path class="st3" d="M419.5,344.9c-3,4.2-6.4,10.6-8.3,15.5c-1.5,3.6-2.6,7.4-2.1,11.2c0.5,3.8,3.1,7.6,6.8,8.4
	c3.8,0.8,8.2-2.4,7.7-6.2c0.1,2.2,0.4,4.5,1.1,6.6c6.8-4.2,11.6-11.7,12.3-19.7c4.9,5.6,23.9-5.3,30.1-9.6"/>
<path class="st1" d="M300.2,433.9c-3.2-0.5-3.6-5.5-1.3-7.7c2.3-2.2,8.6-2.4,9.2-2.4"/>
<path class="st1" d="M595.2,428c4.6,4.4,4.4,12.8-0.4,17"/>
<path class="st1" d="M523.2,357.3c12.8-2.7,25.7-5.5,38.5-8.2c11.9-2.5,23.8-5.1,35.5-8.5c5.7-1.7,11.4-3.6,17-5.6"/>
<path class="st1" d="M588.9,170.8c26.4,4.4,52.5,10.9,78,19.4c10.1,3.4,28.8,13,34.2,22.2c5.6,9.6,8.7,20.5,4,30.6"/>
<line class="st1" x1="655.1" y1="222.1" x2="659.2" y2="240.7"/>
<line class="st1" x1="648.1" y1="234.3" x2="665.4" y2="228.1"/>
<path class="st1" d="M615.4,231.5c-2.9,0.3-5.5,2.6-6.2,5.5c-0.6,2.9,0.8,6.1,3.3,7.6c2.6,1.5,6.2,1.3,8.5,3.3c2.5,2.1,2.6,6,1.2,9
	c-1.4,2.9-4,5-6.6,7.1"/>
<circle class="st1" cx="297.4" cy="381.9" r="6.4"/>
<circle class="st1" cx="528.8" cy="450.5" r="6.4"/>
<circle class="st10" cx="-275.5" cy="-102.9" r="9.8"/>
</svg>
