<?xml version="1.0" encoding="utf-8"?>
<!-- Generator: Adobe Illustrator 22.1.0, SVG Export Plug-In . SVG Version: 6.00 Build 0)  -->
<svg version="1.1" id="Layer_1" xmlns="http://www.w3.org/2000/svg" xmlns:xlink="http://www.w3.org/1999/xlink" x="0px" y="0px"
	 viewBox="0 0 288.7 270" style="enable-background:new 0 0 288.7 270;" xml:space="preserve">
<style type="text/css">
	.st0{fill:#FFFFFF;stroke:#FFFFFF;stroke-miterlimit:10;}
	.st1{stroke:#000000;stroke-miterlimit:10;}
	.st2{fill:#FFFFFF;stroke:#000000;stroke-miterlimit:10;}
	.st3{fill:none;stroke:#000000;stroke-miterlimit:10;}
	.st4{fill:none;stroke:#FFFFFF;stroke-miterlimit:10;}
	.st5{fill:none;stroke:#FFFFFF;stroke-width:1.2127;stroke-miterlimit:10;}
</style>
<rect x="85.3" y="218.3" class="st0" width="36" height="19"/>
<path class="st1" d="M17.3,99.3c4.6-16.4,9.1-32.7,13.7-49.1c9.5,9.9,18.9,19.8,28.4,29.7c12.3-16.1,13.4-37.7,17-57.6
	c0.3-1.8,0.8-3.8,2-5.1c1.5-1.6,3.9-2,6.1-2.3c9.7-1.3,19.3-2.6,29-4c1.6-0.2,3.3-0.4,4.7,0.3c3.1,1.5,3,5.8,2.5,9.2
	c-3.6,22.6-9.6,44.8-17.9,66.1c-0.8,2.1-1.7,4.4-1,6.6c0.8,2.4,3.3,3.8,5.5,4.9c34.1,17.1,68.3,34.3,102.4,51.4
	c-10.9,3.4-21.8,6.8-32.7,10.2c4.2,9.5,7.1,19.6,8.4,29.9c-29.2-16.8-60.4-30.3-92.6-40.2c-3.9-1.2-7.8-2.4-11.2-4.7
	c-3.3-2.3-5.9-5.6-8.5-8.7C58.5,118.5,38.8,105.4,17,98.7"/>
<path class="st0" d="M74.6,86.1c4-4.6,4.7-11.1,7.1-16.7c3-6.9,8.7-12.4,11.8-19.3c2.6-6,3.1-12.7,3.5-19.2c0.2-2.8-0.3-6.4-3-6.9
	c-0.9-0.2-1.9,0.1-2.8,0.5c-5,2.3-7.5,8.2-8.3,13.7s-0.6,11.2-2.4,16.5c-1.6,4.7-4.9,8.8-5.4,13.8c-0.6,5.8,2.7,12.7-1.3,17"/>
<path class="st2" d="M174.7,102.2c-16.2-8-34.2,1.7-45.3-12.6c-7.9-10.2-3.4-25,1.5-36.9c1.9-4.8,3.9-9.5,6.8-13.8
	c10.7-15.7,34.8-20.3,50.6-9.5c2.6,1.8,5.1,4,8.3,4.2c1.9,0.1,3.7-0.5,5.5-1.1c12-4.2,24-8.4,36.1-12.6c4.8-1.7,9.9-3.5,13.2-7.5
	c1.4-1.7,2.5-3.8,4.5-4.7c4.6-2.2,9.5,4,8.3,8.9s-6,8.1-10.3,10.8c6.2,1.1,12.1,3.6,17.2,7.1c-11.4,5.7-23.6,9.7-36.1,11.8
	c8.8,1.2,17.5,2.5,26.3,3.7c-3.7,3.7-8.3,6.7-13.2,8.6c8.7-3.9,19.1-3.5,27.4,1.1c-1.9,6.9-10,9.8-16.9,11.7
	c-12.6,3.3-25.2,6.6-37.8,9.9c6.8,9.3,20.4,9,31.9,8.1c11.5-0.9,25.4-0.3,31.1,9.7c-11.3,0.6-22.6,1.2-33.8,1.8
	C224.7,102.3,199.7,103.6,174.7,102.2"/>
<path class="st3" d="M83.3,192.4c-4.3-5.8-1.1-15.1,5.5-18c6.6-2.9,14.9,0.1,19.1,6c4.2,5.9,4.8,13.8,2.7,20.7
	c5.5-4.2,13-5.5,19.6-3.4c6.6,2.1,12,7.4,14.2,14c0.9,2.6,1.2,5.5,0.5,8.2c-1.8,6.4-8.9,9.6-15.4,10.9c5.2,4.4,8.9,11,8.6,17.8
	c-0.3,6.8-5.4,13.5-12.1,14.6c-9,1.4-16.5-6.5-22.2-13.7c-0.2,5.7-4.1,10.9-9.2,13.2c-5.1,2.4-11.3,2.1-16.5,0
	c-6.5-2.6-11.8-8.2-13.5-15c-1.7-6.8,0.8-14.6,6.4-18.7c-10.5,1.4-20.8-8.8-19.6-19.2C52.4,200,61.5,193,70.9,191
	c4.5-0.9,10.1-0.6,12.5,3.3"/>
<path class="st1" d="M177,219c6.9,13.5,13.7,27,20.6,40.5c6.1-10.5,10.9-21.7,14.1-33.4c10.2,9.5,20.8,18.6,31.9,27.1
	c1.2-13.4,2.3-26.9,3.5-40.3c0.2-1.8,0.3-3.7,1.3-5.2c1.1-1.7,2.9-2.7,4.6-3.6c6.3-3.6,12-8.3,16.8-13.7c0.6-0.7,1.3-1.6,1.2-2.5
	c-0.1-1.5-1.8-2.2-3.2-2.7c-10.3-3.2-20.8-5.9-31.4-7.9c-0.3-3.4-0.6-6.8-0.9-10.1c-12.6,8-22.7,19.9-28.6,33.5
	c-0.6,1.4-1.2,2.9-2.5,3.8c-2,1.5-4.8,0.8-7.2,0.2c-13.1-3.6-27.2-6.6-40.1-2.2c6.9,4.9,13.4,10.5,19.1,16.7
	c-3.4,4.8-6,10.1-7.7,15.8c5.9,0.7,11.9,0.4,17.7-0.9"/>
<path class="st3" d="M10.3,182.3c16.8-7.1,33.8-13.8,51-20"/>
<ellipse class="st2" cx="152.7" cy="74.7" rx="4.4" ry="11.4"/>
<circle class="st1" cx="152.2" cy="75.5" r="3.8"/>
<ellipse transform="matrix(0.3111 -0.9504 0.9504 0.3111 66.8332 179.657)" class="st2" cx="157.3" cy="43.7" rx="11.4" ry="4.4"/>
<circle class="st1" cx="156.5" cy="44.3" r="3.8"/>
<circle class="st1" cx="100.3" cy="221.4" r="18"/>
<circle class="st4" cx="209.6" cy="240.1" r="15.2"/>
<ellipse class="st4" cx="263.8" cy="185.2" rx="15.5" ry="18.1"/>
<circle class="st4" cx="218.4" cy="199.3" r="14.1"/>
<circle class="st4" cx="168.9" cy="208.9" r="11.6"/>
<circle class="st5" cx="247.9" cy="228.8" r="15.5"/>
</svg>
