<?xml version="1.0" encoding="utf-8"?>
<!-- Generator: Adobe Illustrator 22.1.0, SVG Export Plug-In . SVG Version: 6.00 Build 0)  -->
<svg version="1.1" id="Layer_1" xmlns="http://www.w3.org/2000/svg" xmlns:xlink="http://www.w3.org/1999/xlink" x="0px" y="0px"
	 viewBox="0 0 288.7 270" style="enable-background:new 0 0 288.7 270;" xml:space="preserve">
<style type="text/css">
	.st0{fill:none;stroke:#000000;stroke-width:0.7909;stroke-miterlimit:10;}
	.st1{stroke:#000000;stroke-width:0.7909;stroke-miterlimit:10;}
	.st2{fill:#FFFFFF;stroke:#000000;stroke-width:0.7909;stroke-miterlimit:10;}
	.st3{fill:#FFFFFF;stroke:#FFFFFF;stroke-width:0.7909;stroke-miterlimit:10;}
	.st4{fill:none;stroke:#FFFFFF;stroke-width:0.7909;stroke-miterlimit:10;}
</style>
<path class="st0" d="M157.8,69.8c-5.9-6.1-12.3-13.2-12.3-21.9c0-3.4,1-6.6,2-9.8c1.9-6.1,3.7-12.2,5.6-18.3
	c0.7-2.3,1.5-4.7,3.1-6.3c1.9-1.8,4.5-2.4,7-2.9c13.2-2.5,26.3-5,39.5-7.6c1.9-0.4,3.9-0.7,5.7,0c2,0.7,3.4,2.6,4.7,4.3
	c6.8,9.3,13.7,18.6,20.5,27.9c1.7,2.3,3.4,4.7,3.8,7.5c0.4,2.9-0.7,5.9-1.7,8.6c-3.5,9.2-7.2,18.3-11,27.3
	c10.5,9.7,18.9,21.8,24.4,35.3c-30.7,16.3-61.5,32.6-92.2,48.9c-2.7-7.7-5.9-15.1-9.6-22.3c-0.7-1.3-1.6-2.8-3-3.3
	c-1.3-0.4-2.8,0.2-4.1,0.8c-12.1,5.6-24.2,11.3-36.2,16.9c-5.5-14.8-8.5-30.6-8.8-46.4c7.1,6.2,13,13.9,17.5,22.4
	c1.2-8.7,1.8-17.6,1.7-26.4c4.5,5.4,7.9,11.8,10,18.6c8.4-2.7,16.7-5.4,25.1-8c1.5-0.5,3.1-1.1,3.9-2.5c0.8-1.4,0.4-3.3,0-4.9
	c-1.5-6.1-3-12.2-4.4-18.4c-0.6-2.7-1.3-5.5-3-7.6c-2.9-3.8-7.9-4.9-12.4-5.7c-10.4-1.8-20.7-3.6-31.1-5.4c-1.3-0.2-2.6-0.5-3.5-1.4
	c-0.8-0.8-1.1-2.1-1.3-3.2c-2-10-3.1-20.2-3.2-30.5c3.4,4.2,6.8,8.4,10.3,12.6c2.8-6.2,5.5-12.4,8.3-18.6c2.9,7.7,5.7,15.4,8.6,23.2
	c0.6,1.7,1.3,3.5,2.6,4.8c1.3,1.4,3.2,2.1,5,2.8c9.2,3.4,18.4,6.7,27.5,10.1"/>
<path class="st1" d="M176.1,198.1c3.5-9.5,6.8-19.1,9.7-28.8c5.9,8.7,13,16.4,21,23c4.7-12.5,10.7-24.5,17.9-35.6
	c6.5,12.6,13,25.2,19.4,37.8c1.4,2.7,2.9,5.5,5.3,7.3c2.2,1.6,4.9,2.2,7.6,2.7c12.6,2.4,25.2,4.8,37.7,7.2
	c-6.9,9.6-18.1,14.5-28.4,20c-10.3,5.5-20.8,12.9-24.1,24.5c-6-7.3-12.1-14.5-18.1-21.8c-5.1,8.2-11.4,15.6-18.6,21.7
	c-10.5-11.9-18.9-25.9-24.4-41.1c-10,4-21,5.3-31.5,3.6c8.1-6.1,16.3-12.3,24.4-18.4"/>
<path class="st0" d="M89.1,197.1c-3.3-8.2-7.5-16.6-14.5-21.7c-12-8.9-30.8-4.6-38.2,8.6c-2.5-8.7-5.5-18.1-12.8-23.2
	c-8.5-5.9-19.8-3.8-29.7-1.4"/>
<path class="st0" d="M39,92.2c11.7-3.7,25.5,3.7,29.7,15.7c2.3,6.5,1.7,14.3-2.3,19.8c-3.8,5.2-10.3,7.8-16.5,7.6
	s-12.2-3.2-17.1-7.3c-1.5-1.3-3-2.8-3.8-4.7c-2.1-5.2,1.8-11,6.5-13.8c2.7-1.6,5.8-2.6,8.9-2.2c3.1,0.4,6,2.5,7,5.6
	c1,3.1-0.6,7-3.6,7.8c-3,0.9-6.5-2.2-5.7-5.4"/>
<path class="st1" d="M114.2,166.8c5.7,1.2,11.2,3.6,16,6.9c1.6,1.1,3.2,2.4,3.7,4.4c0.4,1.7-0.3,3.5-0.9,5.1
	c-4.2,11.3-7.3,23.5-5.7,35.6c1.6,12,8.7,23.9,19.6,27.9c-3.5,5-8.1,9.3-13.3,12.4c-1,0.6-2.3,1.2-3.4,0.7c-0.8-0.4-1.3-1.3-1.7-2.1
	c-10.5-19.8-33-31.8-54.4-29c-5,0.7-9.9,2-14.9,2.1c-2.7,0-5.7-0.6-7.3-2.8c-0.9-1.3-1.2-3-1.4-4.6c-1.3-9.1-1.5-18.4-0.6-27.6
	c19,3.8,37.6,9.7,55.4,17.7c-1.9-11.9-3.8-23.7-5.7-35.6c-0.4-2.3-0.7-4.7,0.1-6.8c2.1-5.8,9.9-5.6,15.8-4.3"/>
<ellipse transform="matrix(2.761697e-02 -0.9996 0.9996 2.761697e-02 166.8723 230.7096)" class="st2" cx="202" cy="29.6" rx="3.6" ry="8.8"/>
<ellipse class="st1" cx="201.4" cy="29.1" rx="2.9" ry="3.1"/>
<ellipse transform="matrix(2.761697e-02 -0.9996 0.9996 2.761697e-02 128.899 191.683)" class="st2" cx="163" cy="29.6" rx="3.6" ry="8.8"/>
<ellipse class="st1" cx="162.4" cy="29.1" rx="2.9" ry="3.1"/>
<line class="st2" x1="57.8" y1="188" x2="57.1" y2="235.8"/>
<line class="st3" x1="73.3" y1="192" x2="72.5" y2="252.8"/>
<line class="st4" x1="84.9" y1="197.1" x2="84.9" y2="250.4"/>
<line class="st4" x1="95.6" y1="201.6" x2="95.6" y2="259.9"/>
<line class="st4" x1="108.8" y1="156.9" x2="109.5" y2="269.8"/>
<line class="st4" x1="121.9" y1="156.9" x2="123.4" y2="283.6"/>
<line class="st4" x1="138.9" y1="180.7" x2="138.9" y2="296.8"/>
<line class="st4" x1="57.5" y1="180.7" x2="57.5" y2="259.9"/>
</svg>
