<?xml version="1.0" encoding="utf-8"?>
<!-- Generator: Adobe Illustrator 22.1.0, SVG Export Plug-In . SVG Version: 6.00 Build 0)  -->
<svg version="1.1" id="Layer_1" xmlns="http://www.w3.org/2000/svg" xmlns:xlink="http://www.w3.org/1999/xlink" x="0px" y="0px"
	 viewBox="0 0 567.3 107.3" style="enable-background:new 0 0 567.3 107.3;" xml:space="preserve">
<style type="text/css">
	.st0{fill:none;stroke:#000000;stroke-miterlimit:10;}
</style>
<path class="st0" d="M12.9,79.9c6.4-16.4,24.9-27.1,42.3-24.5c13.7,2.1,26.2,11.4,40.1,10.3c17.3-1.3,30.3-18.3,47.6-19.5
	c23.3-1.6,43.7,25.9,65.7,18.3c11.9-4.1,19.8-17.7,32.4-18.1c3.7-0.1,7.3,0.9,10.8,2.1c10.3,3.5,20.3,8,29.7,13.6
	c3.7,2.2,7.5,4.6,11.8,5c12.8,1.3,20.8-14.1,33.1-17.9c19.5-6,36.2,19.2,56.6,19c16.5-0.2,29.5-17,46.1-16.7
	c10.1,0.2,18.8,6.8,27.5,12c8.7,5.3,19.7,9.4,28.6,4.7c8-4.2,11.9-14.4,20.4-17.4c7.5-2.7,15.6,1.2,23,4.5
	c7.3,3.2,16.6,5.5,22.7,0.4"/>
<path class="st0" d="M12.9,58.9c6.4-16.4,24.9-27.1,42.3-24.5c13.7,2.1,26.2,11.4,40.1,10.3c17.3-1.3,30.3-18.3,47.6-19.5
	c23.3-1.6,43.7,25.9,65.7,18.3c11.9-4.1,19.8-17.7,32.4-18.1c3.7-0.1,7.3,0.9,10.8,2.1c10.3,3.5,20.3,8,29.7,13.6
	c3.7,2.2,7.5,4.6,11.8,5c12.8,1.3,20.8-14.1,33.1-17.9c19.5-6,36.2,19.2,56.6,19c16.5-0.2,29.5-17,46.1-16.7
	c10.1,0.2,18.8,6.8,27.5,12c8.7,5.3,19.7,9.4,28.6,4.7c8-4.2,11.9-14.4,20.4-17.4c7.5-2.7,15.6,1.2,23,4.5
	c7.3,3.2,16.6,5.5,22.7,0.4"/>
</svg>
