<?xml version="1.0" encoding="utf-8"?>
<!-- Generator: Adobe Illustrator 22.1.0, SVG Export Plug-In . SVG Version: 6.00 Build 0)  -->
<svg version="1.1" id="Layer_1" xmlns="http://www.w3.org/2000/svg" xmlns:xlink="http://www.w3.org/1999/xlink" x="0px" y="0px"
	 viewBox="0 0 392.7 280.7" style="enable-background:new 0 0 392.7 280.7;" xml:space="preserve">
<style type="text/css">
	.st0{stroke:#000000;stroke-miterlimit:10;}
	.st1{fill:none;stroke:#000000;stroke-miterlimit:10;}
	.st2{fill:#FFFFFF;}
	.st3{fill:none;stroke:#FFFFFF;stroke-miterlimit:10;}
</style>
<path class="st0" d="M30,218.2c-7.8-1.4-13-10.9-9.9-18.2c3.4,0.1,6.8,1,9.7,2.7c2.3-5.7,6.8-10.6,12.3-13.4
	c-1.9-2.4-3.9-4.9-4.5-7.9s0.8-6.6,3.7-7.5c2.1-0.7,4.4,0.3,6.4,1.1c3.6,1.6,7.2,3.2,10.9,4.8c6.1-16.6,26-22.4,43.3-26.1
	c1-20.6-3.1-41.5-12.1-60.1c4.1-0.8,8.4-0.3,12.2,1.4c1.4-4.4,2.7-8.8,4.1-13.3c2.7,4.4,5.5,8.7,8.2,13.1c2.2-1.9,4.4-3.8,6.6-5.7
	c-1.9,22-0.2,44.3,5.2,65.7c8.7-0.9,17.4-1.8,26-2.6c0.9-9.4,1.9-18.9,2.8-28.3c0.4-3.8,0.8-7.8,2.7-11.1
	c3.9-6.8,12.6-8.9,20.1-11.1c7.5-2.3,16-6.8,16.6-14.7c3.9,3.8,4.6,10.4,1.6,14.9c3.8-0.7,7.9,0.5,10.8,3.1
	c-2.5,1.7-4.9,3.4-7.4,5.2c2.2,2.8,4.4,5.7,6.6,8.5c-7.1-0.3-14.2-1.2-21.1-2.7c-17.8,22.8-6.6,59.5-25.1,81.7
	c-7.2,8.7-18,13.7-28.8,16.8c-3,0.9-6.2,1.8-8.1,4.3c-1,1.4-1.5,3.2-1.7,5c-2,14.7,10.9,29.6,25.8,29.6c-6.6,9.2-20.7,12.8-29.7,6
	c-6.2-4.6-8.7-12.5-10.9-19.9c-2.1-6.9-4.1-13.8-6.2-20.7c-12.1-3.6-25.6,7.5-26,20.2c-0.1,4.3,0.9,8.6,0.1,12.8
	c-1.8,9.5-14.2,15.1-22.5,10.3c0.6-1.7,1.2-3.4,1.8-5c-5.5-1.3-10.8-3.4-15.8-6.2c4.2-4.4,10.5-6.6,16.6-5.9
	c0.9-6.8,1.8-13.5,2.7-20.3c-11,3.6-24-0.3-31.3-9.2"/>
<path class="st0" d="M234.5,199.9c-3.4-32.3-5.8-64.8-7.2-97.2c14.9,19.8,30.3,40,51.3,53.2c6.6-28.4,13.8-57.9,32.6-80.2
	c1.1-1.3,2.5-2.7,4.2-2.5c1.2,0.1,2.2,1,3.1,1.9c16.3,16,32.6,32,49,48c1.1,1.1,2.2,2.2,2.6,3.7c0.5,1.9-0.4,3.8-1.2,5.6
	c-9.7,20.4-19.3,40.9-29,61.3c-1.2,2.6-2.5,5.5-1.6,8.2c0.7,2.2,2.7,3.7,4.6,5.1c11.7,8.5,23.5,17.1,35.2,25.6
	c-27.5,2.7-54.9,5.3-82.4,8c-23.6,2.3-48,4.8-68.8,16.3c-9-14.3-17.9-28.6-26.9-43c-4.5-7.2-9.1-14.6-10.9-22.9
	c-1.8-8.3-0.2-17.8,6.1-23.5c12.2,7.6,25.3,13.8,38.9,18.4"/>
<path class="st0" d="M263.9,103c-12.1-14.6-23.5-29.8-34-45.6c-0.8-1.2-1.6-2.4-1.7-3.8c-0.2-1.3,0.3-2.7,0.7-3.9
	c4.8-14.4,9.5-28.8,14.3-43.1c0.4-1.2,0.9-2.4,2-3c1.5-0.7,3.1,0.3,4.4,1.2c8.8,6.1,18.9,10.2,29.4,11.9c-5.3,3.1-10.5,6.2-15.8,9.3
	c5.2,4,10.1,8.5,14.5,13.4c-10.2-3.5-20.6-6.3-31.2-8.4c4.2,6-1.6,14-1.4,21.4c0,0.8,0.1,1.7,0.5,2.4c0.6,1.1,1.6,1.8,2.6,2.5
	c7.9,5.5,15.2,11.7,21.8,18.7c0.6,0.7,1.3,1.4,1.5,2.3c0.2,0.9-0.1,1.9-0.4,2.8C268.3,89.9,266.8,94.4,263.9,103"/>
<path class="st1" d="M326.3,35.7c17,14.3,34,28.7,51,43"/>
<path class="st1" d="M197.8,61.4c-7.5,2.7-15.9,3.8-23.3,1c-7.4-2.8-13.4-10.4-12.6-18.3c0.2-2,0.8-4,2-5.6
	c3.7-4.9,11.2-4.5,16.8-2.1c3.7,1.5,7.2,3.9,8.8,7.6s0.5,8.7-3.2,10.2c-3,1.3-6.5-0.1-8.8-2.4c-2.2-2.3-3.4-5.4-4.6-8.5"/>
<g>
	<g>
		<path class="st2" d="M25.4,202c0,2,0,4,0,6c0,0.8,1.2,0.8,1.2,0c0-2,0-4,0-6C26.6,201.2,25.4,201.2,25.4,202L25.4,202z"/>
	</g>
</g>
<g>
	<g>
		<path class="st2" d="M44.4,177c0,2,0,4,0,6c0,0.8,1.2,0.8,1.2,0c0-2,0-4,0-6C45.6,176.2,44.4,176.2,44.4,177L44.4,177z"/>
	</g>
</g>
<circle class="st3" cx="284.2" cy="238.6" r="30.6"/>
<circle class="st3" cx="344.1" cy="209.3" r="29.3"/>
<circle class="st3" cx="319" cy="143" r="40"/>
<circle class="st3" cx="326.8" cy="84.7" r="20.7"/>
<circle class="st3" cx="218.4" cy="228.8" r="34.8"/>
<circle class="st3" cx="250.8" cy="170.4" r="32.4"/>
<circle class="st3" cx="295.6" cy="191" r="14"/>
<ellipse class="st3" cx="233.6" cy="106.5" rx="19.6" ry="16.5"/>
</svg>
