<?xml version="1.0" encoding="utf-8"?>
<!-- Generator: Adobe Illustrator 22.1.0, SVG Export Plug-In . SVG Version: 6.00 Build 0)  -->
<svg version="1.1" id="Layer_1" xmlns="http://www.w3.org/2000/svg" xmlns:xlink="http://www.w3.org/1999/xlink" x="0px" y="0px"
	 viewBox="0 0 311.3 270" style="enable-background:new 0 0 311.3 270;" xml:space="preserve">
<style type="text/css">
	.st0{stroke:#000000;stroke-width:0.8245;stroke-miterlimit:10;}
	.st1{fill:none;stroke:#000000;stroke-width:0.8245;stroke-miterlimit:10;}
	.st2{fill:none;stroke:#FFFFFF;stroke-width:0.8245;stroke-miterlimit:10;}
	.st3{fill:#FFFFFF;stroke:#000000;stroke-width:0.8245;stroke-miterlimit:10;}
	.st4{fill:#FFFFFF;stroke:#000000;stroke-width:0.8608;stroke-miterlimit:10;}
	.st5{stroke:#000000;stroke-width:0.8608;stroke-miterlimit:10;}
</style>
<path class="st0" d="M31.1,81.7c3-12.1,6.1-24.2,9.1-36.3c6.3,8.7,12,17.8,17.1,27.4c8-2.2,16.1-4.4,24.1-6.6c1.3-0.4,2.7-0.7,4-0.5
	c5.1,0.9,5.4,8.5,5.2,14c-0.6,17.5,8.6,34.9,22.9,43.7c-11.9,6.7-26.8,7.1-37.4,15.9c-7.9,6.5-12.1,16.7-16,26.4
	c-13.6-21.3-34.3-37.5-57.6-45c13-8.6,27.1-15.1,41.9-19.4c-8.5-10.2-17.1-20.3-25.6-30.5c5.1,0.9,9.9,3.7,13.3,7.7"/>
<path class="st0" d="M150.6,87.2c6.5-15.6,13.1-31.3,19.6-46.9c11.7,9.5,23.2,19.4,34.4,29.5c2.3,2.1,4.7,4.3,6.2,7.2
	c1.9,3.9,1.9,8.4,1.9,12.8c-0.1,13-0.3,26-0.4,39c0,1.3-0.1,2.7-0.8,3.7c-0.9,1.3-2.6,1.6-4.1,1.8c-15.4,2.1-30.8,4.3-46.2,6.4
	c-3.1,0.4-6.2,0.9-8.8,2.8c-1.9,1.4-3.2,3.5-4.5,5.5c-6.7,10.8-12.4,22.2-16.9,34.1c-12.5-2.2-25.4-1.6-37.7,1.8
	c-1.3,0.3-2.6,0.8-3.4,1.9c-0.5,0.7-0.6,1.7-0.7,2.5c-2,15.6-3.9,31.1-5.5,46.8c-0.2,2.3-0.5,4.8,0.7,6.8c1.1,2,3.3,3,5.3,3.9
	c11.7,5.1,23.3,10.1,35,15.2c-8.3,5.9-20.1,5.8-28.3-0.4c2.5,3.5,5,7.1,7.5,10.6c-8.9-2.6-17.7-5.3-26.6-7.9c-1.8-0.5-3.8-1.2-5-2.7
	c-1-1.3-1.3-3-1.6-4.6c-2.4-12.9-4.8-25.9-7.2-38.8c-9.5-0.9-19.1-1.9-28.6-2.8c3.1-5.7,6.2-11.3,9.2-17c1.1-2,2.2-4.1,2.6-6.4
	c1-5.2-1.9-10.5-5.9-13.7c-4-3.2-9-4.7-13.8-6.2c14.1,0.7,28,5,40.2,12.5c4.5-8.3,13.1-13.3,21.9-15.7c8.8-2.5,17.9-2.8,26.9-4.1
	c2.3-0.3,4.8-0.9,6.3-2.8c1-1.4,1.3-3.1,1.6-4.9c1.6-10.2,3.1-20.3,4.7-30.5c10.8-0.5,21.5-3.3,31.3-8.1
	c-2.7-13.9-17.5-20.5-26.2-31.2c-6.5-8-9.6-18.4-11.7-28.8c-2.5-12.9-5-28.2-16.3-33.7c-8-3.9-17.4-1-26.2-0.9
	C70.4,24,59.6,18.4,60.3,9.1c1.6,3,5.4,4.5,8.4,3.4s5.2-4.7,4.8-8.1c7,8.7,18,13.6,28.7,12.8c7.6-0.5,16.2-3.4,22.1,1.7
	c2.6,2.2,3.9,5.6,5.2,8.8c7.3,18.1,14.6,36.2,22,54.3"/>
<path class="st1" d="M163.3,176c19.8,18.4,40.4,38.6,60.2,56.9c1.5,1.4,3.1,2.8,5,3.4c2.2,0.7,4.5,0.2,6.8-0.3
	c6.6-1.4,13.2-2.9,19.7-4.3c1.2-0.3,2.5-0.6,3.4-1.5c0.8-0.9,1.1-2.2,1.3-3.4c1.9-10.3,3.9-20.5,5.8-30.8c13.1,5,26.9,7.9,40.8,8.4
	c-1.3-6.4-3.7-14.1-9.8-15.5c-1.5-0.4-3.2-0.3-4.6-0.9c-5.5-2.2-4.2-10.8-1.8-16.5c-11.5-0.8-22.9-1.7-34.4-2.5
	c-1.4-0.1-3-0.2-4.1,0.9c-0.8,0.7-1.1,1.8-1.3,2.9c-3,11.5-6.1,23.1-9.1,34.6c-14.4-12.9-28.9-25.8-43.3-38.7
	c-1.4-1.2-2.8-2.5-4.6-3c-2.3-0.6-4.6,0.3-6.8,1.1C178.6,170,171,173,163.3,176"/>
<ellipse class="st2" cx="1.2" cy="118.5" rx="18.8" ry="19.9"/>
<ellipse class="st2" cx="50.1" cy="69.5" rx="19" ry="20.1"/>
<ellipse class="st2" cx="71.3" cy="130.3" rx="19.7" ry="20.8"/>
<ellipse class="st2" cx="92.9" cy="86.8" rx="16.8" ry="17.7"/>
<ellipse transform="matrix(0.8883 -0.4593 0.4593 0.8883 -12.2431 88.7256)" class="st3" cx="176.3" cy="69.5" rx="3.6" ry="9.5"/>
<ellipse class="st0" cx="176.4" cy="68.7" rx="3.1" ry="3.2"/>
<ellipse transform="matrix(0.9798 -0.2 0.2 0.9798 -17.4721 39.8588)" class="st4" cx="188.6" cy="106.4" rx="3.8" ry="9.6"/>
<ellipse transform="matrix(0.9022 -0.4313 0.4313 0.9022 -27.2729 91.4057)" class="st5" cx="187.9" cy="105.8" rx="3.4" ry="3.2"/>
</svg>
