<?xml version="1.0" encoding="utf-8"?>
<!-- Generator: Adobe Illustrator 22.1.0, SVG Export Plug-In . SVG Version: 6.00 Build 0)  -->
<svg version="1.1" id="Layer_1" xmlns="http://www.w3.org/2000/svg" xmlns:xlink="http://www.w3.org/1999/xlink" x="0px" y="0px"
	 viewBox="0 0 508 107.3" style="enable-background:new 0 0 508 107.3;" xml:space="preserve">
<style type="text/css">
	.st0{stroke:#000000;stroke-miterlimit:10;}
	.st1{fill:none;stroke:#000000;stroke-miterlimit:10;}
</style>
<path class="st0" d="M18.2,95.8c-3.4,0.6-6.4-3-6.6-6.4c-0.2-3.4,1.5-6.7,3.2-9.7c1.7-3,3.4-6.3,3.2-9.7c-0.3-4.3-3.4-7.9-4.4-12.1
	c-1-4.1,0.4-8.7,3.5-11.6s7.7-4,11.8-2.9c-3.5,1.3-4.4,6-3.3,9.5s3.6,6.4,5.2,9.8c1.6,3.3,2,7.8-0.7,10.4c-0.9,0.9-2.1,1.4-2.9,2.4
	c-2.3,2.7-0.7,6.8,0.4,10.2s0.4,8.5-3.2,8.8"/>
<path class="st0" d="M45.2,92.5c-4.1-2.4-5.3-8-4.2-12.6c1.1-4.6,4-8.6,6.3-12.7s4.3-8.9,3.3-13.6C49.4,48,44,43.2,45,37.5
	c1.4-8.1,14-9.7,16.1-17.7c1.5-5.9-3.8-11.3-8.9-14.7c3.9,2.6,7.9,5.2,10.9,8.8c3,3.6,5,8.4,4.2,13c-0.6,3.5-2.8,6.6-3.3,10.2
	c-1.5,9.8,9.6,19.2,5.8,28.4c-2.4,5.7-9.7,8.3-11.8,14.1c-1.9,5.3,1.3,10.8,4.3,15.5"/>
<path class="st1" d="M81,90.2c1.8-4.7,0.2-10.7,3.6-14.5c1.6-1.7,4-2.5,6.3-3.1c7.2-1.6,15.2-1,21.5,2.9c6.3,3.9,10.6,11.4,9.6,18.7
	"/>
<path class="st1" d="M109.3,75.6c0.4-8.1,8.6-14.4,16.8-14.4s15.6,5.1,20.3,11.8s6.9,14.7,8.5,22.7"/>
<path class="st1" d="M335.8,88.9c-3.2-3.8-0.8-9.7,2.1-13.7c3.9-5.4,9-10.5,15.6-11.4c7.9-1.1,15.3,4.1,21.1,9.7
	c4.5,4.3,8.9,9.6,9,15.9"/>
<path class="st0" d="M436.6,89.9c-5-3.3-7.5-9.8-5.9-15.6c0.9-3.2,2.8-6,4.1-9.1c1.3-3.1,1.7-6.8-0.2-9.5c-1.2-1.7-3.4-3-3.5-5.1
	c-0.1-4.5,8.7-4.2,9.3-8.7c4.3,1.6,7.1,6.6,6,11.1c-0.3,1.2-0.8,2.5-0.8,3.7c0.1,4.8,7.6,6.6,8,11.3c0.3,4-4.5,6.1-6.9,9.3
	c-2.8,3.6-2.1,9.3,1.4,12.2"/>
<path class="st0" d="M472.2,90.3c-3.5-3.6-4.6-9.1-3.7-14c0.9-4.9,3.7-9.4,7-13.1c0.7-0.8,1.6-1.8,1.4-2.9c-0.1-0.7-0.7-1.2-1.2-1.7
	c-2.6-2.6-5.3-5.2-7.9-7.8c-0.6-0.6-1.2-1.3-1.4-2.1c-0.3-1.2,0.5-2.4,1.4-3.3c3.6-3.7,9.3-4.1,14.4-5.1c1.4-0.3,3-0.8,3.7-2.1
	s-0.3-3.4-1.7-3c1.9,3.5,4.9,6.4,8.4,8.4c-2.3,1.8-4.5,3.6-6.8,5.4c-0.7,0.5-1.4,1.2-1.5,2c-0.2,1.1,0.7,2.1,1.6,2.9
	c3.8,3.3,8.5,6.2,10,11c2.8,8.7-6.2,17.2-5.5,26.4"/>
<path class="st0" d="M119.5,62.1c-4.6-3.2-8.7-7.1-12.3-11.4c-3-3.6-5.3-9.7-1.5-12.4c2-1.4,4.9-1.1,6.9,0.3c2,1.4,3.3,3.6,4.4,5.8
	c-3.2-4.2,0-11.2,5.1-12c5.2-0.8,10.1,4.5,9.5,9.7c-1.3-5,5.4-9.4,10.1-7.2c4.7,2.2,6.3,8.4,4.9,13.4c-1.5,5-5.3,8.8-9.3,12.2
	c-1.4,1.2-2.9,2.4-4.8,2.7c-4.1,0.7-8.2-3.3-12-1.7"/>
</svg>
