<?xml version="1.0" encoding="utf-8"?>
<!-- Generator: Adobe Illustrator 22.1.0, SVG Export Plug-In . SVG Version: 6.00 Build 0)  -->
<svg version="1.1" id="Слой_1" xmlns="http://www.w3.org/2000/svg" xmlns:xlink="http://www.w3.org/1999/xlink" x="0px" y="0px"
	 viewBox="0 0 316 298.6" style="enable-background:new 0 0 316 298.6;" xml:space="preserve">
<style type="text/css">
	.st0{fill:#FACCBA;}
	.st1{fill:#2A140C;}
</style>
<g>
	<path class="st0" d="M106,115.4c-15.6,0.8-28.7,14.7-44.5,5.6c-3.9-2.2-7.1-5.5-9.9-9C40.7,98.3,36.4,79.6,40.2,62.5
		c0.5-2.3,1.2-4.7,2.9-6.5c1.9-2,4.8-2.7,7.1-4.2c7.6-4.7,10.3-17,19.2-17.7c1.8-0.2,3.6,0.2,5.3-0.5c3.2-1.3,3.6-5.7,6.1-8.1
		c2.5-2.6,6.6-2.5,10.2-2.3c12.1,0.7,24.3,1.7,35.8,5.4c10.5,3.4,20.7,9.6,25.7,19.4c4.7,9.3,4.1,20.4,2.9,30.8
		c-1.6,13.4-4.2,27.6-13.3,37.6c-12,13.3-31.8,15.9-49.7,14.8c-5.8-0.3-12.1-1.2-16.5-4.9c-3.3-2.8-5.2-6.9-8.3-10
		c-3.4-3.4-8.1-5.3-11.2-8.9c-2.2-2.5-3.5-5.7-4.7-8.8C45.3,82.7,34,62.4,55.7,53c2.8-1.2,5.9-2,8.2-4c2.6-2.3,3.9-5.7,5.4-8.8
		c4.3-9,11.8-16.9,21.3-20s21.1-0.6,27.3,7.2c2.1,2.6,3.6,5.8,5.8,8.3c4.5,4.9,11.5,6.6,16.6,10.9c7.7,6.5,9.4,17.6,9.5,27.7
		c0.1,10.4-1.4,21.4-7.9,29.4c-7.2,8.9-19,12.6-30.2,14.8c-11.9,2.3-24.1,3.7-36.2,2.4"/>
	<g>
		<path class="st0" d="M106,112.9c-10.5,0.8-19.4,6.8-29.6,8.4c-13.4,2.1-23.1-9.1-28.7-19.9c-5.5-10.7-7.6-23.3-5.8-35.2
			c0.4-2.7,0.9-6.4,2.8-8.5c1.8-2,4.9-2.6,7.1-4.1c3.4-2.3,5.8-5.6,8.1-8.9c3.1-4.2,5.5-7.9,11.1-8.2c4.6-0.2,7-1.8,9.2-5.9
			c1.5-2.8,2.8-4.7,6.4-5.1c2.5-0.3,5.2,0.1,7.8,0.3c7,0.5,14.1,1.1,21,2.4c11.6,2.3,24.1,6.6,31.7,16.2c8,10.2,6.9,23.7,5.4,35.8
			c-1.4,11.5-3.8,23.9-11.4,33.1c-7.1,8.6-17.7,12.8-28.5,14.5c-5.5,0.9-11.2,1.1-16.8,0.9c-6.8-0.2-14.6-0.4-19.7-5.5
			c-3.7-3.7-5.8-8.1-10.1-11.3c-2.4-1.8-5.1-3.2-7.2-5.3c-2.8-2.8-4.1-6.3-5.6-9.9c-3.1-7.7-7.1-15.6-7.9-24
			c-0.4-4.1,0.2-8.1,2.7-11.5c3.4-4.5,8.7-5.8,13.6-8.2c4.6-2.2,6.8-5.8,8.9-10.3c2.5-5.3,5.6-10.2,10-14.1
			c8.8-7.7,22.6-10.4,32.3-2.6c4.7,3.8,6.7,10,11.6,13.7c5,3.9,11.6,5.6,15.9,10.4c8.2,9.3,7.9,25.9,5.7,37.3
			c-2.9,14.4-12.8,22.4-26.4,26.3c-14.2,4.1-29.6,5.8-44.3,4.4c-3.2-0.3-3.2,4.7,0,5c15.1,1.4,31.1-0.4,45.7-4.6
			c11.9-3.4,22.6-9.9,27.5-21.8c4.5-11,4.9-25,2.2-36.5c-1.3-5.4-3.7-10.8-7.7-14.7c-4.8-4.7-11.7-6.3-16.5-10.8
			c-4.8-4.5-6.9-10.7-12.7-14.4c-4.8-3-10.6-4.4-16.3-4.1C85.6,17,75.4,25,69.3,35c-1.7,2.8-2.8,5.9-4.4,8.7
			c-2.3,4.1-5.7,5.2-9.8,6.9c-4.5,1.9-8.8,4.7-11.5,8.8c-5.2,8-2.8,18.1,0.2,26.4c1.8,5,3.9,10,6,14.9c2.5,6.1,6,10,11.4,13.8
			c3.6,2.6,6,5.2,8.7,8.8c1.7,2.3,3.5,4.5,5.9,6.1c5.3,3.5,11.9,4.1,18,4.4c12.3,0.6,25.3-0.5,36.6-5.8c11.4-5.4,19.1-15.1,23-27
			c4.1-12.3,6.3-27.5,5-40.5c-1.3-12.8-8.3-22.9-19.3-29.2c-12.3-7.1-26.9-9.1-40.9-10.1c-5.5-0.4-12.7-1.9-17.7,1.3
			c-2,1.3-3,3.2-4.1,5.2c-1.1,1.9-1.2,2.6-3.4,3.4c-1.8,0.6-3.5,0.4-5.3,0.8c-4.4,1-7.5,4.4-10.1,7.9c-3.8,5.1-6.6,8.8-12.3,11.8
			C34.7,57,35.6,73.7,37,83.7c1.8,12.9,7.7,26.1,17.4,35.1c9.7,9,21,9,32.9,4.6c6.2-2.3,12.2-5,18.8-5.5
			C109.2,117.6,109.2,112.6,106,112.9L106,112.9z"/>
	</g>
</g>
<g>
	<path class="st1" d="M59.2,102.8c-0.5,1.5-2.9,1.3-4,0.1s-1.4-2.8-2.2-4.2c-2.4-3.9-8.8-5.2-9-9.8c-0.1-2,1.3-3.9,3-4.9
		c1.7-1.1,3.7-1.5,5.7-1.9c1.1-0.2,2.3-0.5,3.3-0.1c0.8,0.3,1.5,0.9,2.1,1.5c2.6,2.5,5.3,5,7,8.2c1.1,2,1.8,4.4,3.5,5.9
		c1.6,1.4,4.2,2.7,3.5,4.7c-0.3,0.8-1,1.3-1.8,1.7c-3.6,1.6-8.4,0.2-10.5-3.1"/>
	<g>
		<path class="st1" d="M57,101.5c0.5-0.6-2.1-4.5-2.7-5.3c-1-1.2-2.2-2.1-3.4-3c-2.1-1.6-6-3.4-3.3-6.6c2.1-2.5,7.1-2.5,9.3-1
			c4.1,2.9,5.7,7.5,8.3,11.5c0.6,0.8,3.8,3.4,3.8,3.7c-0.2,3.3-6.5-0.8-7.4-2c-2-2.5-5.5,1-3.5,3.5c2.6,3.4,6.8,5.1,11.1,4.3
			c3.3-0.6,6.7-3.2,5.2-7c-0.9-2.2-3.2-3.2-4.6-4.9c-1.7-2.1-2.5-4.9-4.2-7.2c-2.4-3.2-6.1-8.1-10.4-8.4c-7.9-0.6-18.6,7.4-11.1,15
			c1.5,1.5,3.4,2.4,4.9,3.8c2.2,1.8,2.4,4.6,4.4,6.5c2.5,2.4,5.9,2,7.9-0.6C63.3,101.4,59,98.9,57,101.5L57,101.5z"/>
	</g>
</g>
<g>
	<path class="st1" d="M99.2,121.6c0.9-0.8,2,0.7,2.6,1.8c1.5,2.5,5.4,3,7.5,1c1.3-1.2,1.9-3.2,3.5-3.9c2.1-0.9,4.4,1,6.7,0.8
		c2.6-0.2,4.3-3.2,4.3-5.8c0-5.9-6.6-10.7-12.1-8.9c-0.9,0.3-1.8,0.7-2.3,1.5c-0.5,0.7-0.6,1.5-1.1,2.1c-2.1,2.3-6.1-1.7-8.8-0.2
		c-1.5,0.8-1.8,2.8-1.9,4.4c-0.2,2-0.3,4,0.5,5.8c0.8,1.8,2.7,3.3,4.6,2.9"/>
	<g>
		<path class="st1" d="M99.8,124c0.3,0,0.6-0.1,0.9-0.1c-0.8-0.2-1.6-0.4-2.4-0.6c3.1,2.7,5,6,9.8,4.6c1.9-0.5,2.7-1.7,4-3
			c3.3-3,4-0.8,7.5-1.1c10-0.7,7.2-14.3,1.1-18.2c-3.3-2.1-8-2.9-11.5-0.7c-2.4,1.5-1.7,3.3-4.9,2.8c-1.8-0.3-3.1-1-5-0.4
			c-8,2.4-5.2,18.2,3.3,18.2c3.2,0,3.2-5,0-5c-2.3,0-3.2-4.4-2.6-6.2c0.8-2.1,1.9-1.7,3.4-1.6c1.7,0.1,3,1,4.7,0.3
			c2-0.7,2.6-2.7,4.4-3.6c3.2-1.7,7.5,0.6,8.5,4.2c0.7,2.7-1.4,4.6-4.3,4.6c-0.9,0-1.8-0.5-2.7-0.5c-2.3,0-3.5,1.2-5,2.7
			c-3.2,3.1-3.5,2.9-6.4,0c-1.4-1.4-2.3-1.6-4.3-1.3C95.3,119.7,96.7,124.5,99.8,124L99.8,124z"/>
	</g>
</g>
<g>
	<path class="st1" d="M125.4,84.4c-2,0.8-4,1.6-6.1,1.5c-2.1-0.1-4.3-1.2-5-3.2c-0.9-2.7,1.3-5.9-0.1-8.5c-1-2-3.7-2.5-5.3-4.1
		c-1.7-1.8-1.8-4.5-1.8-6.9c0-3.3,0-6.6-0.1-9.8c0-0.8,0-1.6,0.4-2.2c0.4-0.6,1-1.1,1.7-1.4c3.1-1.4,7-0.3,8.9,2.5
		c1.2,1.8,1.7,4.2,3.5,5.4c1.1,0.7,2.4,0.8,3.5,1.3c5.9,2.6,4.3,11.8,8.6,16.5c1.2,1.3,3,3.3,1.8,4.6c-0.4,0.4-0.9,0.5-1.4,0.6
		c-4.4,1.2-8.7,2.4-13.1,3.5"/>
	<g>
		<path class="st1" d="M124.8,82c-3.3,1.2-7.6,3.5-7.9-3c-0.1-1.4,0.5-2.7,0.2-4.2c-0.5-2.6-2.1-3.5-4-5c-2.7-2.2-3.3-3.3-3.5-6.7
			c-0.1-2.4-0.5-5.5-0.1-7.9c0.4-2.3,0.3-4.5,3.8-3.5c2.8,0.8,3,3.1,4.4,5.2c1.5,2.3,3.1,2.9,5.5,4c3.8,1.7,4,5.4,5.1,9
			c0.7,2.3,2.1,4.2,2.9,6.4c1,2.9-0.6,2.7-3.4,3.4c-2.5,0.7-5,1.3-7.5,2c-3.1,0.8-1.8,5.7,1.3,4.8c4.3-1.2,9-2,13.1-3.5
			c1.7-0.6,3.2-1.5,3.6-3.4c0.4-2.5-1.5-4.1-2.8-5.9c-1.6-2.2-2.2-4.8-2.9-7.4c-1.2-4.3-2.7-7.6-6.8-9.8c-1.8-0.9-3.2-1.6-4.3-3.3
			c-0.7-1.1-1.1-2.3-2-3.3c-1.5-1.8-3.7-2.9-6-3.2c-4-0.6-8.2,1.2-8.8,5.4c-0.5,3.5-0.1,7.4,0,11c0.1,2.9,0.3,5.8,2.2,8.2
			c2,2.4,5,2.4,5.2,6.4c0.1,2.7-1,4.7,0.7,7.3c3.1,4.6,9.1,3.4,13.4,1.8C129.1,85.6,127.8,80.8,124.8,82L124.8,82z"/>
	</g>
</g>
<g>
	<path class="st1" d="M64.3,48.9c-0.6,3.2-4.9,5.1-7.7,3.4c-2.8-1.7-3.1-6.3-0.6-8.4c1.2-1,2.9-1.4,4.1-2.4c1.9-1.7,2.1-4.6,3.4-6.8
		c2.3-3.8,7.6-4.5,11.8-3.2c1.6,0.5,3.1,1.3,4.2,2.5c2.8,3.2,1.7,8.2,0.5,12.2c-0.7,2.3-1.5,4.6-3,6.4c-1.6,1.8-4.3,2.8-6.4,1.7
		c-3-1.5-3.6-6.2-6.9-7"/>
	<g>
		<path class="st1" d="M61.9,48.3c-0.8,2.5-5.4,2.9-5.1-0.5c0.2-1.6,2.1-2.4,3.1-3.1c1.7-1.2,2.9-2.1,3.8-3.9
			c1.1-2.2,1.3-4.9,3.5-6.3c2.3-1.5,5.9-1.4,8.3-0.2c3.8,1.9,3.6,5.6,2.7,9.2c-0.6,2.5-1.7,8.1-4.9,8.7c-2.6,0.4-3.8-2.9-5.1-4.5
			c-1.1-1.3-2.2-2.1-3.9-2.7c-3-1.2-4.3,3.7-1.3,4.8c2.2,0.8,3.2,4.4,5,5.8c1.4,1.1,3.1,1.8,4.9,1.7c5-0.2,7.7-4.7,9.2-9
			c1.7-4.9,3.2-11.1-0.3-15.5c-2.7-3.4-7.6-4.6-11.8-4.2c-4.3,0.4-7.7,2.7-9.4,6.7c-0.7,1.6-1.2,3.7-2.6,4.9c-1,0.8-2.4,1.1-3.4,1.9
			c-1.5,1.2-2.3,2.8-2.6,4.7c-1.5,9.7,11.9,11.7,14.8,2.9C67.7,46.5,62.9,45.2,61.9,48.3L61.9,48.3z"/>
	</g>
</g>
<g>
	<path class="st1" d="M115.8,27.6c-2.2,0.2-4.3,0.3-6.5,0.5c-2.4,0.2-5.4,0.1-6.6-2c-1.2-2.1,0.4-4.9,2.6-5.7s4.7-0.4,7,0.2
		c2.6,0.7,5.2,1.6,7.7,2.7c1.8,0.7,3.8,2.7,2.6,4.2c-0.3,0.4-0.9,0.6-1.4,0.8c-2.7,0.8-5.7,0.7-8.3-0.3"/>
	<g>
		<path class="st1" d="M115.8,25.1c-2.5,0.2-5,0.6-7.5,0.6c-1.2,0-4.2,0.2-2.8-2.4c0.8-1.5,4-0.8,5.1-0.6c2.6,0.5,5.2,1.4,7.6,2.4
			c1,0.4,3.4,0.5,1.4,0.9c-2.1,0.4-3.9,0.1-5.9-0.5c-3.1-1-4.4,3.8-1.3,4.8c3.6,1.2,14.5,2,13.1-4.8c-1.2-5.4-10.9-7.4-15.3-8
			c-4.8-0.6-11.4,2.3-10.1,8.3c1.5,6.7,11,4.6,15.8,4.3C119,29.9,119,24.9,115.8,25.1L115.8,25.1z"/>
	</g>
</g>
<g>
	<path class="st1" d="M154.8,100.4c-1.9,0.8-4.2-0.8-4.9-2.8c-0.7-2-0.3-4.1,0.1-6.2c0.4-2,0.8-4.2,0.2-6.2c-0.3-1-0.9-1.9-1.1-2.9
		c-0.7-3.4,3.8-6.1,7-4.7s4.5,5.4,3.8,8.8c-0.4,2.2-1.5,4.3-1.5,6.5c0,1.4,0.4,2.8,0.3,4.2c-0.2,1.4-1.3,2.9-2.7,2.7"/>
	<g>
		<path class="st1" d="M154.2,98c-3.3,0.5-1-9.4-1.1-11.3c-0.1-1-0.5-1.9-0.7-2.8c-1.3-2.2-1-3.5,0.7-3.8c1-0.7,2-0.5,3,0.5
			c2.6,2.4,0.9,6.2,0.3,9c-0.3,1.4,0,7.6-1,7.8c-3.2,0.5-1.8,5.3,1.3,4.8c2.5-0.4,4.1-2.3,4.4-4.8c0.3-2.2-0.4-4.3,0.1-6.5
			c0.4-1.7,1.1-3.3,1.2-5.1c0.5-5.5-3.2-11.9-9.4-11c-2.3,0.4-4.6,1.7-5.7,3.8c-1.8,3.4,0.7,6.1,0.7,9.6c0,4-2.2,7.9,0.3,11.7
			c1.7,2.5,4.2,3.3,7.1,2.8C158.7,102.4,157.3,97.5,154.2,98L154.2,98z"/>
	</g>
</g>
<g>
	<path class="st0" d="M251.7,187.6c-15.6,0.8-28.7,14.7-44.5,5.6c-3.9-2.2-7.1-5.5-9.9-9c-10.9-13.7-15.2-32.4-11.4-49.6
		c0.5-2.3,1.2-4.7,2.9-6.5c1.9-2,4.8-2.7,7.1-4.2c7.6-4.7,10.3-17,19.2-17.7c1.8-0.2,3.6,0.2,5.3-0.5c3.2-1.3,3.6-5.7,6.1-8.1
		c2.5-2.6,6.6-2.5,10.2-2.3c12.1,0.7,24.3,1.7,35.8,5.4c10.5,3.4,20.7,9.6,25.7,19.4c4.7,9.3,4.1,20.4,2.9,30.8
		c-1.6,13.4-4.2,27.6-13.3,37.6c-12,13.3-31.8,15.9-49.7,14.8c-5.8-0.3-12.1-1.2-16.5-4.9c-3.3-2.8-5.2-6.9-8.3-10
		c-3.4-3.4-8.1-5.3-11.2-8.9c-2.2-2.5-3.5-5.7-4.7-8.8c-6.2-15.9-17.5-36.2,4.2-45.5c2.8-1.2,5.9-2,8.2-4c2.6-2.3,3.9-5.7,5.4-8.8
		c4.3-9,11.8-16.9,21.3-20c9.5-3.1,21.1-0.6,27.3,7.2c2.1,2.6,3.6,5.8,5.8,8.3c4.5,4.9,11.5,6.6,16.6,10.9
		c7.7,6.5,9.4,17.6,9.5,27.7c0.1,10.4-1.4,21.4-7.9,29.4c-7.2,8.9-19,12.6-30.2,14.8c-11.9,2.3-24.1,3.7-36.2,2.4"/>
	<g>
		<path class="st0" d="M251.7,185.1c-10.5,0.8-19.4,6.8-29.6,8.4c-13.4,2.1-23.1-9.1-28.7-19.9c-5.5-10.7-7.6-23.3-5.8-35.2
			c0.4-2.7,0.9-6.4,2.8-8.5c1.8-2,4.9-2.6,7.1-4.1c3.4-2.3,5.8-5.6,8.1-8.9c3.1-4.2,5.5-7.9,11.1-8.2c4.6-0.2,7-1.8,9.2-5.9
			c1.5-2.8,2.8-4.7,6.4-5.1c2.5-0.3,5.2,0.1,7.8,0.3c7,0.5,14.1,1.1,21,2.4c11.6,2.3,24.1,6.6,31.7,16.2c8,10.2,6.9,23.7,5.4,35.8
			c-1.4,11.5-3.8,23.9-11.4,33.1c-7.1,8.6-17.7,12.8-28.5,14.5c-5.5,0.9-11.2,1.1-16.8,0.9c-6.8-0.2-14.6-0.4-19.7-5.5
			c-3.7-3.7-5.8-8.1-10.1-11.3c-2.4-1.8-5.1-3.2-7.2-5.3c-2.8-2.8-4.1-6.3-5.6-9.9c-3.1-7.7-7.1-15.6-7.9-24
			c-0.4-4.1,0.2-8.1,2.7-11.5c3.4-4.5,8.7-5.8,13.6-8.2c4.6-2.2,6.8-5.8,8.9-10.3c2.5-5.3,5.6-10.2,10-14.1
			c8.8-7.7,22.6-10.4,32.3-2.6c4.7,3.8,6.7,10,11.6,13.7c5,3.9,11.6,5.6,15.9,10.4c8.2,9.3,7.9,25.9,5.7,37.3
			c-2.9,14.4-12.8,22.4-26.4,26.3c-14.2,4.1-29.6,5.8-44.3,4.4c-3.2-0.3-3.2,4.7,0,5c15.1,1.4,31.1-0.4,45.7-4.6
			c11.9-3.4,22.6-9.9,27.5-21.8c4.5-11,4.9-25,2.2-36.5c-1.3-5.4-3.7-10.8-7.7-14.7c-4.8-4.7-11.7-6.3-16.5-10.8
			c-4.8-4.5-6.9-10.7-12.7-14.4c-4.8-3-10.6-4.4-16.3-4.1c-12.1,0.5-22.3,8.5-28.4,18.5c-1.7,2.8-2.8,5.9-4.4,8.7
			c-2.3,4.1-5.7,5.2-9.8,6.9c-4.5,1.9-8.8,4.7-11.5,8.8c-5.2,8-2.8,18.1,0.2,26.4c1.8,5,3.9,10,6,14.9c2.5,6.1,6,10,11.4,13.8
			c3.6,2.6,6,5.2,8.7,8.8c1.7,2.3,3.5,4.5,5.9,6.1c5.3,3.5,11.9,4.1,18,4.4c12.3,0.6,25.3-0.5,36.6-5.8c11.4-5.4,19.1-15.1,23-27
			c4.1-12.3,6.3-27.5,5-40.5c-1.3-12.8-8.3-22.9-19.3-29.2c-12.3-7.1-26.9-9.1-40.9-10.1c-5.5-0.4-12.7-1.9-17.7,1.3
			c-2,1.3-3,3.2-4.1,5.2c-1.1,1.9-1.2,2.6-3.4,3.4c-1.8,0.6-3.5,0.4-5.3,0.8c-4.4,1-7.5,4.4-10.1,7.9c-3.8,5.1-6.6,8.8-12.3,11.8
			c-10.5,5.4-9.6,22.1-8.2,32.1c1.8,12.9,7.7,26.1,17.4,35.1c9.7,9,21,9,32.9,4.6c6.2-2.3,12.2-5,18.8-5.5
			C254.9,189.8,254.9,184.8,251.7,185.1L251.7,185.1z"/>
	</g>
</g>
<g>
	<path class="st1" d="M204.8,174.9c-0.5,1.5-2.9,1.3-4,0.1c-1.1-1.2-1.4-2.8-2.2-4.2c-2.4-3.9-8.8-5.2-9-9.8c-0.1-2,1.3-3.9,3-4.9
		c1.7-1.1,3.7-1.5,5.7-1.9c1.1-0.2,2.3-0.5,3.3-0.1c0.8,0.3,1.5,0.9,2.1,1.5c2.6,2.5,5.3,5,7,8.2c1.1,2,1.8,4.4,3.5,5.9
		c1.6,1.4,4.2,2.7,3.5,4.7c-0.3,0.8-1,1.3-1.8,1.7c-3.6,1.6-8.4,0.2-10.5-3.1"/>
	<g>
		<path class="st1" d="M202.7,173.7c0.5-0.6-2.1-4.5-2.7-5.3c-1-1.2-2.2-2.1-3.4-3c-2.1-1.6-6-3.4-3.3-6.6c2.1-2.5,7.1-2.5,9.3-1
			c4.1,2.9,5.7,7.5,8.3,11.5c0.6,0.8,3.8,3.4,3.8,3.7c-0.2,3.3-6.5-0.8-7.4-2c-2-2.5-5.5,1-3.5,3.5c2.6,3.4,6.8,5.1,11.1,4.3
			c3.3-0.6,6.7-3.2,5.2-7c-0.9-2.2-3.2-3.2-4.6-4.9c-1.7-2.1-2.5-4.9-4.2-7.2c-2.4-3.2-6.1-8.1-10.4-8.4c-7.9-0.6-18.6,7.4-11.1,15
			c1.5,1.5,3.4,2.4,4.9,3.8c2.2,1.8,2.4,4.6,4.4,6.5c2.5,2.4,5.9,2,7.9-0.6C208.9,173.6,204.6,171.1,202.7,173.7L202.7,173.7z"/>
	</g>
</g>
<g>
	<path class="st1" d="M244.8,193.8c0.9-0.8,2,0.7,2.6,1.8c1.5,2.5,5.4,3,7.5,1c1.3-1.2,1.9-3.2,3.5-3.9c2.1-0.9,4.4,1,6.7,0.8
		c2.6-0.2,4.3-3.2,4.3-5.8c0-5.9-6.6-10.7-12.1-8.9c-0.9,0.3-1.8,0.7-2.3,1.5c-0.5,0.7-0.6,1.5-1.1,2.1c-2.1,2.3-6.1-1.7-8.8-0.2
		c-1.5,0.8-1.8,2.8-1.9,4.4c-0.2,2-0.3,4,0.5,5.8s2.7,3.3,4.6,2.9"/>
	<g>
		<path class="st1" d="M245.5,196.2c0.3,0,0.6-0.1,0.9-0.1c-0.8-0.2-1.6-0.4-2.4-0.6c3.1,2.7,5,6,9.8,4.6c1.9-0.5,2.7-1.7,4-3
			c3.3-3,4-0.8,7.5-1.1c10-0.7,7.2-14.3,1.1-18.2c-3.3-2.1-8-2.9-11.5-0.7c-2.4,1.5-1.7,3.3-4.9,2.8c-1.8-0.3-3.1-1-5-0.4
			c-8,2.4-5.2,18.2,3.3,18.2c3.2,0,3.2-5,0-5c-2.3,0-3.2-4.4-2.6-6.2c0.8-2.1,1.9-1.7,3.4-1.6c1.7,0.1,3,1,4.7,0.3
			c2-0.7,2.6-2.7,4.4-3.6c3.2-1.7,7.5,0.6,8.5,4.2c0.7,2.7-1.4,4.6-4.3,4.6c-0.9,0-1.8-0.5-2.7-0.5c-2.3,0-3.5,1.2-5,2.7
			c-3.2,3.1-3.5,2.9-6.4,0c-1.4-1.4-2.3-1.6-4.3-1.3C241,191.9,242.3,196.7,245.5,196.2L245.5,196.2z"/>
	</g>
</g>
<g>
	<path class="st1" d="M271.1,156.6c-2,0.8-4,1.6-6.1,1.5s-4.3-1.2-5-3.2c-0.9-2.7,1.3-5.9-0.1-8.5c-1-2-3.7-2.5-5.3-4.1
		c-1.7-1.8-1.8-4.5-1.8-6.9c0-3.3,0-6.6-0.1-9.8c0-0.8,0-1.6,0.4-2.2c0.4-0.6,1-1.1,1.7-1.4c3.1-1.4,7-0.3,8.9,2.5
		c1.2,1.8,1.7,4.2,3.5,5.4c1.1,0.7,2.4,0.8,3.5,1.3c5.9,2.6,4.3,11.8,8.6,16.5c1.2,1.3,3,3.3,1.8,4.6c-0.4,0.4-0.9,0.5-1.4,0.6
		c-4.4,1.2-8.7,2.4-13.1,3.5"/>
	<g>
		<path class="st1" d="M270.4,154.1c-3.3,1.2-7.6,3.5-7.9-3c-0.1-1.4,0.5-2.7,0.2-4.2c-0.5-2.6-2.1-3.5-4-5
			c-2.7-2.2-3.3-3.3-3.5-6.7c-0.1-2.4-0.5-5.5-0.1-7.9c0.4-2.3,0.3-4.5,3.8-3.5c2.8,0.8,3,3.1,4.4,5.2c1.5,2.3,3.1,2.9,5.5,4
			c3.8,1.7,4,5.4,5.1,9c0.7,2.3,2.1,4.2,2.9,6.4c1,2.9-0.6,2.7-3.4,3.4c-2.5,0.7-5,1.3-7.5,2c-3.1,0.8-1.8,5.7,1.3,4.8
			c4.3-1.2,9-2,13.1-3.5c1.7-0.6,3.2-1.5,3.6-3.4c0.4-2.5-1.5-4.1-2.8-5.9c-1.6-2.2-2.2-4.8-2.9-7.4c-1.2-4.3-2.7-7.6-6.8-9.8
			c-1.8-0.9-3.2-1.6-4.3-3.3c-0.7-1.1-1.1-2.3-2-3.3c-1.5-1.8-3.7-2.9-6-3.2c-4-0.6-8.2,1.2-8.8,5.4c-0.5,3.5-0.1,7.4,0,11
			c0.1,2.9,0.3,5.8,2.2,8.2c2,2.4,5,2.4,5.2,6.4c0.1,2.7-1,4.7,0.7,7.3c3.1,4.6,9.1,3.4,13.4,1.8C274.7,157.8,273.4,153,270.4,154.1
			L270.4,154.1z"/>
	</g>
</g>
<g>
	<path class="st1" d="M209.9,121.1c-0.6,3.2-4.9,5.1-7.7,3.4c-2.8-1.7-3.1-6.3-0.6-8.4c1.2-1,2.9-1.4,4.1-2.4
		c1.9-1.7,2.1-4.6,3.4-6.8c2.3-3.8,7.6-4.5,11.8-3.2c1.6,0.5,3.1,1.3,4.2,2.5c2.8,3.2,1.7,8.2,0.5,12.2c-0.7,2.3-1.5,4.6-3,6.4
		c-1.6,1.8-4.3,2.8-6.4,1.7c-3-1.5-3.6-6.2-6.9-7"/>
	<g>
		<path class="st1" d="M207.5,120.5c-0.8,2.5-5.4,2.9-5.1-0.5c0.2-1.6,2.1-2.4,3.1-3.1c1.7-1.2,2.9-2.1,3.8-3.9
			c1.1-2.2,1.3-4.9,3.5-6.3c2.3-1.5,5.9-1.4,8.3-0.2c3.8,1.9,3.6,5.6,2.7,9.2c-0.6,2.5-1.7,8.1-4.9,8.7c-2.6,0.4-3.8-2.9-5.1-4.5
			c-1.1-1.3-2.2-2.1-3.9-2.7c-3-1.2-4.3,3.7-1.3,4.8c2.2,0.8,3.2,4.4,5,5.8c1.4,1.1,3.1,1.8,4.9,1.7c5-0.2,7.7-4.7,9.2-9
			c1.7-4.9,3.2-11.1-0.3-15.5c-2.7-3.4-7.6-4.6-11.8-4.2c-4.3,0.4-7.7,2.7-9.4,6.7c-0.7,1.6-1.2,3.7-2.6,4.9c-1,0.8-2.4,1.1-3.4,1.9
			c-1.5,1.2-2.3,2.8-2.6,4.7c-1.5,9.7,11.9,11.7,14.8,2.9C213.3,118.7,208.5,117.4,207.5,120.5L207.5,120.5z"/>
	</g>
</g>
<g>
	<path class="st1" d="M261.5,99.8c-2.2,0.2-4.3,0.3-6.5,0.5c-2.4,0.2-5.4,0.1-6.6-2c-1.2-2.1,0.4-4.9,2.6-5.7s4.7-0.4,7,0.2
		c2.6,0.7,5.2,1.6,7.7,2.7c1.8,0.7,3.8,2.7,2.6,4.2c-0.3,0.4-0.9,0.6-1.4,0.8c-2.7,0.8-5.7,0.7-8.3-0.3"/>
	<g>
		<path class="st1" d="M261.5,97.3c-2.5,0.2-5,0.6-7.5,0.6c-1.2,0-4.2,0.2-2.8-2.4c0.8-1.5,4-0.8,5.1-0.6c2.6,0.5,5.2,1.4,7.6,2.4
			c1,0.4,3.4,0.5,1.4,0.9c-2.1,0.4-3.9,0.1-5.9-0.5c-3.1-1-4.4,3.8-1.3,4.8c3.6,1.2,14.5,2,13.1-4.8c-1.2-5.4-10.9-7.4-15.3-8
			c-4.8-0.6-11.4,2.3-10.1,8.3c1.5,6.7,11,4.6,15.8,4.3C264.6,102,264.7,97,261.5,97.3L261.5,97.3z"/>
	</g>
</g>
<g>
	<path class="st1" d="M300.5,172.6c-1.9,0.8-4.2-0.8-4.9-2.8c-0.7-2-0.3-4.1,0.1-6.2c0.4-2,0.8-4.2,0.2-6.2c-0.3-1-0.9-1.9-1.1-2.9
		c-0.7-3.4,3.8-6.1,7-4.7s4.5,5.4,3.8,8.8c-0.4,2.2-1.5,4.3-1.5,6.5c0,1.4,0.4,2.8,0.3,4.2c-0.2,1.4-1.3,2.9-2.7,2.7"/>
	<g>
		<path class="st1" d="M299.8,170.2c-3.3,0.5-1-9.4-1.1-11.3c-0.1-1-0.5-1.9-0.7-2.8c-1.3-2.2-1-3.5,0.7-3.8c1-0.7,2-0.5,3,0.5
			c2.6,2.4,0.9,6.2,0.3,9c-0.3,1.4,0,7.6-1,7.8c-3.2,0.5-1.8,5.3,1.3,4.8c2.5-0.4,4.1-2.3,4.4-4.8c0.3-2.2-0.4-4.3,0.1-6.5
			c0.4-1.7,1.1-3.3,1.2-5.1c0.5-5.5-3.2-11.9-9.4-11c-2.3,0.4-4.6,1.7-5.7,3.8c-1.8,3.4,0.7,6.1,0.7,9.6c0,4-2.2,7.9,0.3,11.7
			c1.7,2.5,4.2,3.3,7.1,2.8C304.3,174.5,303,169.7,299.8,170.2L299.8,170.2z"/>
	</g>
</g>
<g>
	<path class="st0" d="M84.1,274.7c-15.6,0.8-28.7,14.7-44.5,5.6c-3.9-2.2-7.1-5.5-9.9-9c-10.9-13.7-15.2-32.4-11.4-49.6
		c0.5-2.3,1.2-4.7,2.9-6.5c1.9-2,4.8-2.7,7.1-4.2c7.6-4.7,10.3-17,19.2-17.7c1.8-0.2,3.6,0.2,5.3-0.5c3.2-1.3,3.6-5.7,6.1-8.1
		c2.5-2.6,6.6-2.5,10.2-2.3c12.1,0.7,24.3,1.7,35.8,5.4c10.5,3.4,20.7,9.6,25.7,19.4c4.7,9.3,4.1,20.4,2.9,30.8
		c-1.6,13.4-4.2,27.6-13.3,37.6c-12,13.3-31.8,15.9-49.7,14.8c-5.8-0.3-12.1-1.2-16.5-4.9c-3.3-2.8-5.2-6.9-8.3-10
		c-3.4-3.4-8.1-5.3-11.2-8.9c-2.2-2.5-3.5-5.7-4.7-8.8c-6.2-15.9-17.5-36.2,4.2-45.5c2.8-1.2,5.9-2,8.2-4c2.6-2.3,3.9-5.7,5.4-8.8
		c4.3-9,11.8-16.9,21.3-20c9.5-3.1,21.1-0.6,27.3,7.2c2.1,2.6,3.6,5.8,5.8,8.3c4.5,4.9,11.5,6.6,16.6,10.9
		c7.7,6.5,9.4,17.6,9.5,27.7c0.1,10.4-1.4,21.4-7.9,29.4c-7.2,8.9-19,12.6-30.2,14.8c-11.9,2.3-24.1,3.7-36.2,2.4"/>
	<g>
		<path class="st0" d="M84.1,272.2c-10.5,0.8-19.4,6.8-29.6,8.4c-13.4,2.1-23.1-9.1-28.7-19.9c-5.5-10.7-7.6-23.3-5.8-35.2
			c0.4-2.7,0.9-6.4,2.8-8.5c1.8-2,4.9-2.6,7.1-4.1c3.4-2.3,5.8-5.6,8.1-8.9c3.1-4.2,5.5-7.9,11.1-8.2c4.6-0.2,7-1.8,9.2-5.9
			c1.5-2.8,2.8-4.7,6.4-5.1c2.5-0.3,5.2,0.1,7.8,0.3c7,0.5,14.1,1.1,21,2.4c11.6,2.3,24.1,6.6,31.7,16.2c8,10.2,6.9,23.7,5.4,35.8
			c-1.4,11.5-3.8,23.9-11.4,33.1c-7.1,8.6-17.7,12.8-28.5,14.5c-5.5,0.9-11.2,1.1-16.8,0.9c-6.8-0.2-14.6-0.4-19.7-5.5
			c-3.7-3.7-5.8-8.1-10.1-11.3c-2.4-1.8-5.1-3.2-7.2-5.3c-2.8-2.8-4.1-6.3-5.6-9.9c-3.1-7.7-7.1-15.6-7.9-24
			c-0.4-4.1,0.2-8.1,2.7-11.5c3.4-4.5,8.7-5.8,13.6-8.2c4.6-2.2,6.8-5.8,8.9-10.3c2.5-5.3,5.6-10.2,10-14.1
			c8.8-7.7,22.6-10.4,32.3-2.6c4.7,3.8,6.7,10,11.6,13.7c5,3.9,11.6,5.6,15.9,10.4c8.2,9.3,7.9,25.9,5.7,37.3
			c-2.9,14.4-12.8,22.4-26.4,26.3c-14.2,4.1-29.6,5.8-44.3,4.4c-3.2-0.3-3.2,4.7,0,5c15.1,1.4,31.1-0.4,45.7-4.6
			c11.9-3.4,22.6-9.9,27.5-21.8c4.5-11,4.9-25,2.2-36.5c-1.3-5.4-3.7-10.8-7.7-14.7c-4.8-4.7-11.7-6.3-16.5-10.8
			c-4.8-4.5-6.9-10.7-12.7-14.4c-4.8-3-10.6-4.4-16.3-4.1c-12.1,0.5-22.3,8.5-28.4,18.5c-1.7,2.8-2.8,5.9-4.4,8.7
			c-2.3,4.1-5.7,5.2-9.8,6.9c-4.5,1.9-8.8,4.7-11.5,8.8c-5.2,8-2.8,18.1,0.2,26.4c1.8,5,3.9,10,6,14.9c2.5,6.1,6,10,11.4,13.8
			c3.6,2.6,6,5.2,8.7,8.8c1.7,2.3,3.5,4.5,5.9,6.1c5.3,3.5,11.9,4.1,18,4.4c12.3,0.6,25.3-0.5,36.6-5.8c11.4-5.4,19.1-15.1,23-27
			c4.1-12.3,6.3-27.5,5-40.5c-1.3-12.8-8.3-22.9-19.3-29.2c-12.3-7.1-26.9-9.1-40.9-10.1c-5.5-0.4-12.7-1.9-17.7,1.3
			c-2,1.3-3,3.2-4.1,5.2c-1.1,1.9-1.2,2.6-3.4,3.4c-1.8,0.6-3.5,0.4-5.3,0.8c-4.4,1-7.5,4.4-10.1,7.9c-3.8,5.1-6.6,8.8-12.3,11.8
			C12.7,216.3,13.6,233,15,243c1.8,12.9,7.7,26.1,17.4,35.1c9.7,9,21,9,32.9,4.6c6.2-2.3,12.2-5,18.8-5.5
			C87.2,276.9,87.3,271.9,84.1,272.2L84.1,272.2z"/>
	</g>
</g>
<g>
	<path class="st1" d="M37.2,262.1c-0.5,1.5-2.9,1.3-4,0.1c-1.1-1.2-1.4-2.8-2.2-4.2c-2.4-3.9-8.8-5.2-9-9.8c-0.1-2,1.3-3.9,3-4.9
		c1.7-1.1,3.7-1.5,5.7-1.9c1.1-0.2,2.3-0.5,3.3-0.1c0.8,0.3,1.5,0.9,2.1,1.5c2.6,2.5,5.3,5,7,8.2c1.1,2,1.8,4.4,3.5,5.9
		c1.6,1.4,4.2,2.7,3.5,4.7c-0.3,0.8-1,1.3-1.8,1.7c-3.6,1.6-8.4,0.2-10.5-3.1"/>
	<g>
		<path class="st1" d="M35.1,260.8c0.5-0.6-2.1-4.5-2.7-5.3c-1-1.2-2.2-2.1-3.4-3c-2.1-1.6-6-3.4-3.3-6.6c2.1-2.5,7.1-2.5,9.3-1
			c4.1,2.9,5.7,7.5,8.3,11.5c0.6,0.8,3.8,3.4,3.8,3.7c-0.2,3.3-6.5-0.8-7.4-2c-2-2.5-5.5,1-3.5,3.5c2.6,3.4,6.8,5.1,11.1,4.3
			c3.3-0.6,6.7-3.2,5.2-7c-0.9-2.2-3.2-3.2-4.6-4.9c-1.7-2.1-2.5-4.9-4.2-7.2c-2.4-3.2-6.1-8.1-10.4-8.4c-7.9-0.6-18.6,7.4-11.1,15
			c1.5,1.5,3.4,2.4,4.9,3.8c2.2,1.8,2.4,4.6,4.4,6.5c2.5,2.4,5.9,2,7.9-0.6C41.3,260.8,37,258.3,35.1,260.8L35.1,260.8z"/>
	</g>
</g>
<g>
	<path class="st1" d="M77.2,281c0.9-0.8,2,0.7,2.6,1.8c1.5,2.5,5.4,3,7.5,1c1.3-1.2,1.9-3.2,3.5-3.9c2.1-0.9,4.4,1,6.7,0.8
		c2.6-0.2,4.3-3.2,4.3-5.8c0-5.9-6.6-10.7-12.1-8.9c-0.9,0.3-1.8,0.7-2.3,1.5c-0.5,0.7-0.6,1.5-1.1,2.1c-2.1,2.3-6.1-1.7-8.8-0.2
		c-1.5,0.8-1.8,2.8-1.9,4.4c-0.2,2-0.3,4,0.5,5.8c0.8,1.8,2.7,3.3,4.6,2.9"/>
	<g>
		<path class="st1" d="M77.9,283.4c0.3,0,0.6-0.1,0.9-0.1c-0.8-0.2-1.6-0.4-2.4-0.6c3.1,2.7,5,6,9.8,4.6c1.9-0.5,2.7-1.7,4-3
			c3.3-3,4-0.8,7.5-1.1c10-0.7,7.2-14.3,1.1-18.2c-3.3-2.1-8-2.9-11.5-0.7c-2.4,1.5-1.7,3.3-4.9,2.8c-1.8-0.3-3.1-1-5-0.4
			c-8,2.4-5.2,18.2,3.3,18.2c3.2,0,3.2-5,0-5c-2.3,0-3.2-4.4-2.6-6.2c0.8-2.1,1.9-1.7,3.4-1.6c1.7,0.1,3,1,4.7,0.3
			c2-0.7,2.6-2.7,4.4-3.6c3.2-1.7,7.5,0.6,8.5,4.2c0.7,2.7-1.4,4.6-4.3,4.6c-0.9,0-1.8-0.5-2.7-0.5c-2.3,0-3.5,1.2-5,2.7
			c-3.2,3.1-3.5,2.9-6.4,0c-1.4-1.4-2.3-1.6-4.3-1.3C73.4,279,74.7,283.8,77.9,283.4L77.9,283.4z"/>
	</g>
</g>
<g>
	<path class="st1" d="M103.5,243.7c-2,0.8-4,1.6-6.1,1.5s-4.3-1.2-5-3.2c-0.9-2.7,1.3-5.9-0.1-8.5c-1-2-3.7-2.5-5.3-4.1
		c-1.7-1.8-1.8-4.5-1.8-6.9c0-3.3,0-6.6-0.1-9.8c0-0.8,0-1.6,0.4-2.2c0.4-0.6,1-1.1,1.7-1.4c3.1-1.4,7-0.3,8.9,2.5
		c1.2,1.8,1.7,4.2,3.5,5.4c1.1,0.7,2.4,0.8,3.5,1.3c5.9,2.6,4.3,11.8,8.6,16.5c1.2,1.3,3,3.3,1.8,4.6c-0.4,0.4-0.9,0.5-1.4,0.6
		c-4.4,1.2-8.7,2.4-13.1,3.5"/>
	<g>
		<path class="st1" d="M102.8,241.3c-3.3,1.2-7.6,3.5-7.9-3c-0.1-1.4,0.5-2.7,0.2-4.2c-0.5-2.6-2.1-3.5-4-5
			c-2.7-2.2-3.3-3.3-3.5-6.7c-0.1-2.4-0.5-5.5-0.1-7.9c0.4-2.3,0.3-4.5,3.8-3.5c2.8,0.8,3,3.1,4.4,5.2c1.5,2.3,3.1,2.9,5.5,4
			c3.8,1.7,4,5.4,5.1,9c0.7,2.3,2.1,4.2,2.9,6.4c1,2.9-0.6,2.7-3.4,3.4c-2.5,0.7-5,1.3-7.5,2c-3.1,0.8-1.8,5.7,1.3,4.8
			c4.3-1.2,9-2,13.1-3.5c1.7-0.6,3.2-1.5,3.6-3.4c0.4-2.5-1.5-4.1-2.8-5.9c-1.6-2.2-2.2-4.8-2.9-7.4c-1.2-4.3-2.7-7.6-6.8-9.8
			c-1.8-0.9-3.2-1.6-4.3-3.3c-0.7-1.1-1.1-2.3-2-3.3c-1.5-1.8-3.7-2.9-6-3.2c-4-0.6-8.2,1.2-8.8,5.4c-0.5,3.5-0.1,7.4,0,11
			c0.1,2.9,0.3,5.8,2.2,8.2c2,2.4,5,2.4,5.2,6.4c0.1,2.7-1,4.7,0.7,7.3c3.1,4.6,9.1,3.4,13.4,1.8C107.1,245,105.8,240.1,102.8,241.3
			L102.8,241.3z"/>
	</g>
</g>
<g>
	<path class="st1" d="M42.3,208.3c-0.6,3.2-4.9,5.1-7.7,3.4s-3.1-6.3-0.6-8.4c1.2-1,2.9-1.4,4.1-2.4c1.9-1.7,2.1-4.6,3.4-6.8
		c2.3-3.8,7.6-4.5,11.8-3.2c1.6,0.5,3.1,1.3,4.2,2.5c2.8,3.2,1.7,8.2,0.5,12.2c-0.7,2.3-1.5,4.6-3,6.4c-1.6,1.8-4.3,2.8-6.4,1.7
		c-3-1.5-3.6-6.2-6.9-7"/>
	<g>
		<path class="st1" d="M39.9,207.6c-0.8,2.5-5.4,2.9-5.1-0.5c0.2-1.6,2.1-2.4,3.1-3.1c1.7-1.2,2.9-2.1,3.8-3.9
			c1.1-2.2,1.3-4.9,3.5-6.3c2.3-1.5,5.9-1.4,8.3-0.2c3.8,1.9,3.6,5.6,2.7,9.2c-0.6,2.5-1.7,8.1-4.9,8.7c-2.6,0.4-3.8-2.9-5.1-4.5
			c-1.1-1.3-2.2-2.1-3.9-2.7c-3-1.2-4.3,3.7-1.3,4.8c2.2,0.8,3.2,4.4,5,5.8c1.4,1.1,3.1,1.8,4.9,1.7c5-0.2,7.7-4.7,9.2-9
			c1.7-4.9,3.2-11.1-0.3-15.5c-2.7-3.4-7.6-4.6-11.8-4.2c-4.3,0.4-7.7,2.7-9.4,6.7c-0.7,1.6-1.2,3.7-2.6,4.9c-1,0.8-2.4,1.1-3.4,1.9
			c-1.5,1.2-2.3,2.8-2.6,4.7c-1.5,9.7,11.9,11.7,14.8,2.9C45.7,205.9,40.9,204.5,39.9,207.6L39.9,207.6z"/>
	</g>
</g>
<g>
	<path class="st1" d="M93.8,186.9c-2.2,0.2-4.3,0.3-6.5,0.5c-2.4,0.2-5.4,0.1-6.6-2c-1.2-2.1,0.4-4.9,2.6-5.7c2.2-0.9,4.7-0.4,7,0.2
		c2.6,0.7,5.2,1.6,7.7,2.7c1.8,0.7,3.8,2.7,2.6,4.2c-0.3,0.4-0.9,0.6-1.4,0.8c-2.7,0.8-5.7,0.7-8.3-0.3"/>
	<g>
		<path class="st1" d="M93.8,184.4c-2.5,0.2-5,0.6-7.5,0.6c-1.2,0-4.2,0.2-2.8-2.4c0.8-1.5,4-0.8,5.1-0.6c2.6,0.5,5.2,1.4,7.6,2.4
			c1,0.4,3.4,0.5,1.4,0.9c-2.1,0.4-3.9,0.1-5.9-0.5c-3.1-1-4.4,3.8-1.3,4.8c3.6,1.2,14.5,2,13.1-4.8c-1.2-5.4-10.9-7.4-15.3-8
			c-4.8-0.6-11.4,2.3-10.1,8.3c1.5,6.7,11,4.6,15.8,4.3C97,189.2,97.1,184.2,93.8,184.4L93.8,184.4z"/>
	</g>
</g>
<g>
	<path class="st1" d="M132.9,259.8c-1.9,0.8-4.2-0.8-4.9-2.8c-0.7-2-0.3-4.1,0.1-6.2c0.4-2,0.8-4.2,0.2-6.2c-0.3-1-0.9-1.9-1.1-2.9
		c-0.7-3.4,3.8-6.1,7-4.7c3.2,1.4,4.5,5.4,3.8,8.8c-0.4,2.2-1.5,4.3-1.5,6.5c0,1.4,0.4,2.8,0.3,4.2s-1.3,2.9-2.7,2.7"/>
	<g>
		<path class="st1" d="M132.2,257.4c-3.3,0.5-1-9.4-1.1-11.3c-0.1-1-0.5-1.9-0.7-2.8c-1.3-2.2-1-3.5,0.7-3.8c1-0.7,2-0.5,3,0.5
			c2.6,2.4,0.9,6.2,0.3,9c-0.3,1.4,0,7.6-1,7.8c-3.2,0.5-1.8,5.3,1.3,4.8c2.5-0.4,4.1-2.3,4.4-4.8c0.3-2.2-0.4-4.3,0.1-6.5
			c0.4-1.7,1.1-3.3,1.2-5.1c0.5-5.5-3.2-11.9-9.4-11c-2.3,0.4-4.6,1.7-5.7,3.8c-1.8,3.4,0.7,6.1,0.7,9.6c0,4-2.2,7.9,0.3,11.7
			c1.7,2.5,4.2,3.3,7.1,2.8C136.7,261.7,135.3,256.9,132.2,257.4L132.2,257.4z"/>
	</g>
</g>
</svg>
