<?xml version="1.0" encoding="utf-8"?>
<!-- Generator: Adobe Illustrator 22.1.0, SVG Export Plug-In . SVG Version: 6.00 Build 0)  -->
<svg version="1.1" id="Layer_1" xmlns="http://www.w3.org/2000/svg" xmlns:xlink="http://www.w3.org/1999/xlink" x="0px" y="0px"
	 viewBox="0 0 841.9 595.3" style="enable-background:new 0 0 841.9 595.3;" xml:space="preserve">
<style type="text/css">
	.st0{fill:none;stroke:#000000;stroke-miterlimit:10;}
	.st1{fill:none;stroke:#000000;stroke-width:1.0663;stroke-miterlimit:10;}
	.st2{fill:#FFFFFF;}
	.st3{fill:#FFFFFF;stroke:#000000;stroke-miterlimit:10;}
	.st4{stroke:#000000;stroke-miterlimit:10;}
	.st5{fill:none;stroke:#000000;stroke-width:0.8541;stroke-miterlimit:10;}
	.st6{stroke:#000000;stroke-width:0.1894;stroke-miterlimit:10;}
	.st7{fill:#FFFFFF;stroke:#FFFFFF;stroke-width:0.1894;stroke-miterlimit:10;}
	.st8{stroke:#000000;stroke-width:0.2366;stroke-miterlimit:10;}
	.st9{stroke:#000000;stroke-width:0.1735;stroke-miterlimit:10;}
	.st10{fill:#FFFFFF;stroke:#FFFFFF;stroke-width:0.1735;stroke-miterlimit:10;}
	.st11{fill:#FFFFFF;stroke:#FFFFFF;stroke-width:0.7963;stroke-miterlimit:10;}
	.st12{fill:none;stroke:#000000;stroke-width:3;stroke-miterlimit:10;}
	.st13{fill:none;stroke:#000000;stroke-width:5;stroke-miterlimit:10;}
	.st14{fill:#FFFFFF;stroke:#FFFFFF;stroke-width:1.0616;stroke-miterlimit:10;}
	.st15{fill:#FFFFFF;stroke:#000000;stroke-width:1.0616;stroke-miterlimit:10;}
	.st16{fill:none;stroke:#000000;stroke-width:1.0616;stroke-miterlimit:10;}
	.st17{stroke:#000000;stroke-width:0.9051;stroke-miterlimit:10;}
</style>
<path class="st0" d="M541.7,174.8c1,2.2,3.5,3.4,5.9,3.5s4.7-0.8,6.9-1.8c6.5-2.9,12.4-7,17.5-12.1c2-2,4-4.3,6.6-5.2
	c2.8-1,6.2-0.3,8.4,1.8c2.9,2.8,3.6,7.5,7.2,9.4c3.6,1.9,8-0.4,11.4-2.6"/>
<path class="st1" d="M710.4,164.7c3,2.8,7.9,3.4,12.1,2.3s7.7-3.5,10.7-6.2c1.5-1.3,3-2.8,5-3.4c3.5-1,7.3,1.1,9.4,3.8
	s3,5.9,4.6,8.8c1.6,2.9,4.3,5.7,8,6.1c1.9,0.2,3.8-0.3,5.7-0.8c4.9-1.3,9.9-2.6,14.8-3.9"/>
<g>
	<path class="st2" d="M601.3,190c-6.8-2.5-9.2-13.4-6.7-21.4c2.5-8,8.3-13.6,13.9-18.9c4-3.8,8-7.6,12-11.4
		c13.5-12.7,28.3-26,45.4-26.2c14-0.1,26.8,8.6,40.2,13.8c4.2,1.6,8.7,3,12.1,6.5c5.4,5.5,7.9,16,14.9,17.3c1.6,0.3,3.2,0,4.8,0.5
		c2.5,0.7,4.4,3,6.1,5.2c6.9,8.7,14.4,20,11.5,31.5c-1.8,7.1-7.1,12-12.5,15.2c-5.5,3.2-11.4,5.3-16.6,9.2c-3.7,2.8-7,6.6-11,8.7
		c-5.2,2.7-11.1,2.2-16.8,1.4c-32.9-4.2-65.3-14.2-95.8-29.5"/>
	<g>
		<path class="st2" d="M602.6,187.7c-4.9-2.2-6.4-7.8-6.3-12.7c0.1-7,4-13,8.6-17.9c8.9-9.6,18.9-18.7,28.9-27.1
			c9.9-8.3,21.9-16.3,35.5-15c13.3,1.2,25.3,9.3,37.6,14.2c6.2,2.5,10.1,5.2,13.6,11c2.3,3.8,4.5,8.3,8.4,10.8
			c1.4,0.9,2.7,1.3,4.3,1.6c2.5,0.5,4.1,0,6.2,1.7c1.1,0.9,1.9,2.1,2.8,3.2c4.5,5.6,9,11.9,10.7,19c3.8,15.5-8.7,22.4-20.3,28.3
			c-5.3,2.7-9.4,6.3-13.9,10.1c-6.9,5.7-14.5,5-22.8,3.8c-31.9-4.5-62.8-14.4-91.6-28.8c-3-1.5-5.7,3.1-2.7,4.6
			c29.8,14.8,61.6,25.1,94.6,29.6c6.9,0.9,14.2,1.8,20.6-1.5c6.7-3.5,11.6-9.7,18.4-13.2c11.7-6,24-13,23.7-28
			c-0.2-6.9-3.1-13.4-6.7-19.1c-3-4.7-7-11.7-12.3-14c-3-1.3-6.2-0.5-8.9-2.5c-2.6-1.9-4.2-5.6-5.9-8.3c-3.2-5.3-6.8-9.2-12.6-11.8
			c-7.2-3.2-14.5-6.2-21.6-9.5c-6.4-2.9-12.9-5.5-19.9-6.4c-14.2-1.7-26.8,5.2-37.6,13.7c-7,5.5-13.4,11.8-19.9,18
			c-5.9,5.6-12.4,11-17.1,17.8c-6.2,9.1-8.8,27.3,3.7,32.9C603,193.7,605.7,189.1,602.6,187.7L602.6,187.7z"/>
	</g>
</g>
<path class="st3" d="M192.9,323.9c2.8-10,11-17.9,20.3-22.5s19.7-6.6,29.9-8.6c8.6,42.1,8.1,86.1-1.4,128c80,1.1,160.2,2.3,240-3.7
	c3.3-41.4-6.1-82.7-7.3-124.2c0-1.2,0-2.6,0.6-3.6c0.6-0.9,1.5-1.4,2.5-1.8c6.7-2.7,14.6,0.9,18.9,6.7c4.3,5.7,5.9,13.1,7.2,20.1
	c8.6,46.4,10.7,94.4,2.4,140.8c-3.3,18.4-8.4,37-19.8,51.8c-0.9,1.2-1.9,2.4-3.3,3c-1,0.5-2.2,0.6-3.3,0.7
	c-10.9,1.1-21.8,2.2-32.6,3.2c-8.4,0.8-16.7,1.7-25.1,2.1c-21.9,1-43.8-0.8-65.6-2.7c-51-4.4-102-8.7-153-13.1
	c13.2-40.4,18-83,22.7-125.3c2.4-21.9,4.8-44.3,0.3-65.9c-0.3-1.6-0.9-3.5-2.4-4.1c-1.3-0.5-2.7,0-3.9,0.6
	c-9.6,4.3-18.5,10.3-26,17.6"/>
<path class="st0" d="M93.1,510.7c5.4-27.8,12.2-55.4,20.3-82.5c7.3-24.6,16.2-49.5,33-68.8c13.1-15,30.2-25.7,47.2-35.9
	c35.2-21,71.7-41.1,111.8-49.6c3.6-0.8,7.7-1.7,9.8-4.7c1.6-2.2,1.9-5,2.1-7.7c1.9-24.3,3.9-48.6,5.8-73c-2.6,7.4-14.1,9.6-19.2,3.6
	c-5.2-5.9-1.4-16.9,6.3-18.5c-7.1-1.7-12.3-9.3-11.3-16.6c1-7.3,8.1-13.1,15.4-12.8c-3.5-10.1,1-21.7,8.9-28.9
	c7.9-7.2,18.6-10.5,29.2-11.9c16.4-2.1,33.7,0.3,48.1,8.6s25.5,22.6,28.1,39c15.4,1.4,30.9,2.9,46.3,4.3c4,0.4,8.4,0.7,11.9-1.3
	c2.1-1.2,3.7-3.1,5.9-4.1c5.3-2.4,12.3,2.8,11.4,8.6c5.6,4.1,14.4,2.7,18.4-2.9c1.1-1.5,2-3.3,3.7-4.1c4.6-2.1,7.5,5,7.6,10
	c0.1,10.1,0.3,20.1,0.4,30.2c0.1,4.4-2.3,10.7-6.4,9.1c-1.4-0.5-2.3-1.9-3.3-2.9c-3.3-3.3-9-3.7-12.7-0.9c-2.4,1.9-4,4.8-6.7,6.2
	c-2.2,1.1-4.8,0.9-7.2,0.7c-17.1-1.3-34.1-2.6-51.2-3.9c-5-0.4-10.5-0.6-14.6,2.3c-7.3,5.2-5.2,17.4,1.8,23s16.5,6.4,25.4,7
	c11.1,0.7,22.3,1.4,33.4,2.1c2.9,0.2,5.9,0.3,8.4-1.1c3-1.6,4.6-5,7.6-6.6c3-1.6,8.1,1.3,6.2,4.1c2,3.7,7.7,1.9,10.9-0.8
	c3.2-2.7,7.6-6,11.1-3.6c2.4,1.6,2.6,5.1,2.6,8c0,4.2-0.1,8.4-0.1,12.6c0,3.9-0.2,8.2-2.9,11c-3.1,3.3-8.2,3.3-12.7,3.1
	c-25.7-1.3-51.4-3.8-76.9-7.4c-6.4-0.9-14.3-1.3-18.1,4c-3.2,4.5-1.4,11.1,2.6,15s9.4,5.7,14.7,7.3c43.2,13.6,89.3,29,117,64.8
	c18.4,23.7,26.5,53.8,29.9,83.5c3.4,29.8,2.6,59.8,5.4,89.7"/>
<path class="st4" d="M434.9,508.9c9.1-25.9,19.4-51.3,30.9-76.3c8.9-19.4,19.8-39.8,39.1-48.7c-1.8,5.9-2.5,12.2-2,18.3
	c7.3-8.1,16.4-14.6,26.4-18.9c-0.9,6.5-1.8,13.1-2.6,19.6c9-4.3,18.7-7.4,28.5-9.1c-4.3,8.4-8.5,16.7-12.8,25.1
	c7.4-0.4,14.8-0.8,22.2-1.2c-8.3,7.2-16.5,14.3-24.8,21.5c-2,1.7-4,3.5-5.3,5.8c-1.5,2.7-1.8,6-2.1,9.1c-1.6,18.9-3.3,37.9-4.9,56.8
	c-0.1,1.2-0.2,2.5-0.9,3.5c-1.4,2.1-4.3,2.2-6.8,2.1c-28.9-1.3-68.7,0.6-97.6-0.7"/>
<path class="st4" d="M738.9,511.4c-1.8-25.2-3.6-50.3-5.3-75.5c-0.7-9.2-1.4-18.7-4.9-27.2c-2.9-6.9-7.6-13.4-8-20.8
	c-0.3-5.6,2-10.9,3.9-16.2c4.7-13,7.2-27.9,1.2-40.3c-3.1-6.6-8.6-12.4-9.3-19.7c-0.7-7.1,3.3-13.7,3.9-20.8
	c1-13.2-9.8-24.2-20.9-31.4c-15.9-10.3-35.2-16.8-53.8-13.1c-18.5,3.8-35.2,20.1-34.8,39c8.9-3.2,17.3-7.8,24.7-13.6
	c-3.8,9-5.3,18.9-4.2,28.6c10.8-4.3,20.6-11,28.6-19.4c-2.1,10.3-2.5,21-1,31.4c10.7-4.6,20.4-11.3,28.6-19.6
	c-1.1,7.9-0.5,16,1.7,23.7c6.6-3.9,12.8-8.5,18.5-13.6"/>
<path class="st4" d="M653.7,288.8c-7.9,4.7-7.1,16.2-5.1,25.2c2.4,10.2,5,20.4,8.1,30.5c1.9,6.3,3.9,12.7,3.4,19.2
	c-0.7,9.1-6.3,17-10.9,24.8c-4.7,7.8-8.8,17.1-6.3,25.9c3.1,10.9,15.4,18,16.3,29.2c0.8,11-9.8,19.7-11.9,30.5
	c-2.6,14.3,10,29.2,4.3,42.5"/>
<path class="st0" d="M613,162"/>
<path class="st0" d="M641,144"/>
<g>
	<path d="M650.8,515.3c28.2,0.7,58.5,2.6,86.7,1.3c1.4-0.1,2.8-0.2,3.9-1c2-1.7,1.2-4.9,0.3-7.5c-9.5-26.6-8.7-55.7-15.2-83.2
		c-1.8-7.7-4.3-15.3-5.3-23.1c-0.8-6.1-0.8-12.2-0.6-18.3c0.3-9.8,1-19.5,0.5-29.3c-0.7-16.2-4.6-32.3-11.3-47.1
		c-4.8,8.7-12.1,16-20.8,20.9c-0.7,0.4-1.6,0.8-2.4,0.6c-0.9-0.3-1.4-1.3-1.7-2.2c-1.7-4.5-3.3-9.1-5-13.6
		c-6.7,4.4-13.7,8.4-20.9,11.9c-4.8-3.3-7.9-9.1-8.1-15c0.4,15.5,8.1,30.6,5.9,46c-1.3,9.4-6.2,17.9-10.2,26.5
		c-3.9,8.7-7,18.4-4.3,27.6c1.8,6.1,5.9,11.2,9.1,16.7c3.2,5.5,5.7,12,3.8,18.1c-1.7,5.5-6.7,9.3-9.8,14.2c-3,4.8-4.1,10.7-3,16.3
		c0.8,4.3,2.9,8.2,4.5,12.3C650.3,496,651.7,505.8,650.8,515.3"/>
	<g>
		<path d="M650.8,517.8c21.4,0.5,42.8,1.7,64.3,1.7c5.3,0,10.6,0,15.9-0.2c3.5-0.1,8.6,0.6,11.6-1.6c6-4.3-0.3-15.4-1.7-20.6
			c-5.2-19.8-6.1-40.4-9.5-60.5c-1.8-10.5-5.1-20.6-7.1-31c-2.1-10.8-1.3-21.9-0.9-32.9c0.9-23.3-1.9-45.4-11.5-66.9
			c-0.8-1.8-3.5-1.5-4.3,0c-3.7,6.5-8.6,12.2-14.6,16.6c-1.2,0.9-2.6,2-3.9,2.6c-2.2,1-1.5,0.8-2.4-1.1c-1.8-3.7-2.9-8-4.3-11.9
			c-0.5-1.4-2.2-2.4-3.7-1.5c-6.8,4.4-13.7,8.3-20.9,11.9c0.8,0,1.7,0,2.5,0c-4.2-3.1-6.5-7.6-6.8-12.8c-0.2-3.2-5.1-3.2-5,0
			c0.4,9.3,3,18.2,4.8,27.2c2.1,10.5,1.9,20-2.2,30c-6.5,15.9-17.5,31.9-8.8,49.2c3.9,7.8,12,15.6,11.2,25
			c-0.8,8.4-9.8,13.6-12.5,21.5c-2.9,8.5-0.2,15.9,3,23.8c3.8,9.3,5.3,19,4.4,29c-0.3,3.2,4.7,3.2,5,0c0.7-9.2-0.3-18.4-3.4-27.1
			c-3.4-9.7-8.4-18.4-2.3-28.3c3.9-6.4,10.2-10.8,10.7-18.8c0.5-8.3-4.4-15.4-8.6-22.1c-5.7-9-7.2-17.5-4-27.9
			c2.9-9.1,8.2-17.3,11.3-26.3c6.6-18.9-2.8-36.3-3.7-55.2c-1.7,0-3.3,0-5,0c0.5,7.1,3.6,12.9,9.3,17.1c0.7,0.5,1.8,0.4,2.5,0
			c7.2-3.6,14.2-7.5,20.9-11.9c-1.2-0.5-2.4-1-3.7-1.5c1.7,4.8,2.9,10.9,5.6,15.2c2,3.2,4.8,2.9,7.8,1.3
			c8.9-4.8,16.1-12.7,21.1-21.4c-1.4,0-2.9,0-4.3,0c8.1,18.2,11.5,37.6,11.1,57.5c-0.2,10.1-1.2,20.3-0.5,30.4
			c0.6,9.1,3,17.8,5.3,26.6c4.6,18.2,5.8,36.9,8.6,55.3c1.4,9.2,3.2,18.3,6.1,27.1c0.4,1.4,2.4,5.3,2,6.8c-0.7,2.5-5.5,2.1-7.3,2.2
			c-5,0.2-10,0.3-15,0.3c-22.4,0.1-44.7-1.2-67.1-1.7C647.5,512.7,647.5,517.7,650.8,517.8L650.8,517.8z"/>
	</g>
</g>
<ellipse class="st5" cx="376.1" cy="149" rx="20.2" ry="5"/>
<g>
	<g>
		<path d="M495,159.2c3.2,0,3.2-5,0-5C491.8,154.2,491.8,159.2,495,159.2L495,159.2z"/>
	</g>
</g>
<g>
	<g>
		<path d="M528.3,161.8c3.2,0,3.2-5,0-5C525.1,156.8,525.1,161.8,528.3,161.8L528.3,161.8z"/>
	</g>
</g>
<circle class="st0" cx="320.1" cy="155.2" r="5.1"/>
<circle class="st0" cx="352.2" cy="168.3" r="6.3"/>
<circle class="st0" cx="329.6" cy="172.6" r="4.4"/>
<path class="st4" d="M309.7,259.9c-1.4,2-0.7,4.9,1,6.7s4.1,2.6,6.4,3.3c36.9,11.6,77.6,11,114.1-1.7c1.5-0.5,3.2-1.2,4-2.6
	c1.1-1.9,0.1-4.4-1.6-5.7c-1.7-1.3-3.9-1.7-6.1-2c-21.4-2.5-42.7,6-64.2,5.8c-15.1-0.1-29.8-4.4-44.2-8.8c-2.2-0.7-4.6-1.3-6.8-0.6
	c-2.2,0.8-3.6,3.7-2.1,5.5"/>
<path class="st3" d="M375.7,287.8c-1.4-0.2-2.8-0.7-4.1-1.3c-9.5-4.4-16.5-13.8-17.9-24.1c-0.5-3.9-0.1-8.3,2.9-10.9
	c2.7-2.3,7-2.2,10.1-0.4s5.1,5.1,6.2,8.5c1.7-3.4,4-6.8,7.5-8.5s8.3-0.9,10.1,2.5c1.9,3.6-0.2,8-2.3,11.5
	c-4.6,7.7-9.2,15.4-13.8,23.1"/>
<path class="st0" d="M268.2,389.2c4,6.8,8.1,13.6,12.1,20.3"/>
<path class="st0" d="M330.8,383.6c1.5,7.6,2.9,15.1,4.4,22.7"/>
<path class="st0" d="M371.2,380.3c1.1,7.3,2,14.7,2.7,22.1"/>
<path class="st0" d="M425.8,378.7c-0.8,7.5-0.8,15.1,0,22.6"/>
<path class="st0" d="M467.9,382.1c-2,6.7-4.3,13.4-7.1,19.9"/>
<path class="st0" d="M326.2,456.7c-1.8,5.3-3.2,10.7-4.2,16.2c-0.6,3.4-1,6.9,0.3,10.1c0.8,1.9,2.1,3.5,3.5,5.1
	c2.9,3.2,6.2,6,10,7.9c9.3,4.6,20.4,3.2,30.4,0.2c3.8-1.1,7.7-2.6,10.3-5.6c3.2-3.8,3.5-9.2,3.7-14.2c0.2-5.8,0.4-11.7,0.6-17.5
	c-18.5,3.2-37.7,2.5-56-1.9"/>
<path class="st4" d="M351.4,492.2c-2.4-3.2-6.1-5.3-8.5-8.5c-2.4-3.2-2.9-8.6,0.6-10.6c1.9-1,4.3-0.6,6.1,0.6c1.8,1.2,3,3.1,4,5
	c0.6-2.7,2.6-5,5.2-5.9c2.6-0.9,5.6-0.4,7.7,1.3c-0.2,8.4-11.4,12.1-14.3,19.9"/>
<path class="st0" d="M439.3,159.3c0.4,3.3,0.8,6.7,1.2,10c4.4-2,8.4-4.7,11.9-7.9c1.9,3.2,3.9,6.4,5.8,9.7c2.1-2.8,4.4-5.5,6.8-8.1
	c0.3-0.4,0.8-0.8,1.3-0.7c0.5,0.1,0.8,0.5,1,0.8c2.3,3.3,4.7,6.6,7,9.9c2.9-3.2,5.2-6.9,6.7-10.9"/>
<path class="st6" d="M123.9,202.3c-1.9,1.1-2.4,3.5-2.9,5.6c-0.7,3.6-1.4,7.2-2.2,10.9c-0.3,1.7-0.7,3.4-1.5,4.9c-1,2-2.9,3.5-5,4.2
	c-0.3,0.1-0.6,0.2-0.9,0.2c-0.4,0-0.8-0.2-1.1-0.5c-1.7-1.3-2.7-3.6-2-5.6c0.2-0.5,0.4-1,0.9-1.3c0.8-0.5,2.2-0.1,2.5,0.9
	c0.3,1-0.5,2.1-1.5,2.1c0.5,0.6,1.4,0.8,2.2,0.6s1.4-0.8,1.8-1.5c0.7-1.2,0.7-2.7,0.1-3.9c-0.6-1.2-2-2.1-3.3-2.1
	c-1.4-0.1-2.8,0.7-3.7,1.8c-0.9,1.1-1.3,2.5-1.4,3.9c-0.3,3.1,1.2,6.6,4.1,7.7c1.2,0.5,2.6,0.5,3.9,0.2c2.8-0.5,5.3-2.1,7-4.4
	c3.2-4.5,2.6-10.7,4.9-15.7c0.1-0.3,0.3-0.6,0.6-0.7c0.2-0.1,0.5,0,0.8,0.1c1.7,0.6,3.7,0.3,5.2-0.7c-0.3,3.4-0.6,6.7-0.9,10.1
	c-0.3,3.4-0.5,7.2,1.4,10c0.6,0.9,1.4,1.6,2.5,1.8c0.5,0.1,1.1,0,1.7-0.1c4.7-1,8.2-5.8,7.8-10.5c0-0.5-0.1-1.1-0.4-1.5
	c-0.6-1-2.2-1.1-3.1-0.3c-0.8,0.8-0.6,2.4,0.4,3c0-0.6,0.1-1.1,0.4-1.6c0.5-0.1,0.7,0.7,0.6,1.3c-0.4,1.7-1.2,3.2-2.4,4.5
	c-0.7,0.8-1.5,1.5-2.5,1.5c-1.2,0-2.1-1.1-2.6-2.2c-0.8-2-0.3-4.3,0.3-6.4c0.6-2.6,1.3-5.1,1.9-7.7c0.2-0.9,0.5-2,1.3-2.6
	c0.2-0.2,0.5-0.3,0.8-0.3c0.3,0,0.6,0.2,0.8,0.3c1.5,0.7,3.5,0,4.1-1.5c0.4-1,0.3-2.1,1-3c0.8-1,2.4-1,3.6-1.4
	c1.6-0.6,2.9-2.2,3-3.9c0-0.6,0-1.1-0.4-1.6c-0.7-0.9-2.3-0.7-3.3,0.1c-1,0.7-1.6,1.8-2.6,2.5c-1.6,1.1-3.8,1-5.7,1.5
	c-2.6,0.7-5.1,2.6-7.7,1.9c-2.5-0.6-4-3.3-6.5-3.8c-2.4-0.4-4.7,1.4-7.2,1.7c-1.4,0.2-2.8-0.2-4.2-0.5c-1.4-0.4-2.8-0.7-4.2-0.6
	s-2.9,0.8-3.5,2.1c-0.6,1.3,0,3.1,1.4,3.4c0.6,0.1,1.3,0,1.9-0.2c1.2-0.4,2.3-0.9,3.4-1.5c0.3-0.2,0.5-0.3,0.8-0.3
	c0.6-0.1,1.1,0.4,1.6,0.7c0.9,0.7,2.1,1.1,3.1,0.7c0.5-0.2,0.9-0.6,1.4-0.9c1.1-0.7,2.5-0.8,3.7-0.9"/>
<path class="st6" d="M151.8,226.4c0.1,0.3-0.3,0.5-0.6,0.4s-0.5-0.4-0.6-0.6c-3.6-6.3-2.4-14.8,2.7-19.9c0.6-0.6,1.3-1.2,2.2-1.3
	c0.7,0,1.4,0.3,2,0.6c1.3,0.6,2.7,1.3,3.6,2.4c1.2,1.5,1.3,3.6,1.2,5.5c-0.2,3-1,6-2.3,8.7c-0.8,1.7-1.9,3.4-3.6,4.3s-4,1-5.4-0.3"
	/>
<path class="st7" d="M154.4,221.7c-0.6,0.5-1.5,0-1.9-0.7c-0.7-1.1-0.9-2.4-0.9-3.7c0-2.9,1-5.9,2.7-8.2c0.4-0.6,1.1-1.2,1.9-1
	c0.5,0.1,0.8,0.6,1.1,1c0.9,1.6,1.2,3.4,1,5.2c-0.2,1.7-1,3.2-1.7,4.7c-0.5,1.1-1.2,2.3-2.5,2.6"/>
<path class="st6" d="M166.8,205.2c-1.6,7.8-3.3,15.5-5.5,23.2c-0.7,2.3-1.4,4.7-2.9,6.6c-0.5,0.6-1.1,1.2-1.8,1.3
	c-1.2,0.1-2.2-0.9-3.4-0.9c-1.3,0-2.3,1.5-2,2.8c0.2,1.3,1.3,2.3,2.5,2.8c1,0.4,2.2,0.6,3.3,0.4c2.9-0.6,4.4-3.7,5.5-6.4
	c2-5.1,3.8-10.4,5.4-15.6c0.8,0.9,1,2.3,1.9,3.1c1.1,1.1,3.1,1.1,4.4,0.4c1.4-0.8,2.4-2.1,3.1-3.5c1.1-2,2-4.3,1.7-6.6
	s-2.4-4.4-4.7-4.3c-1.7,0.1-3,1.3-4.1,2.6c0.6-1.3,1.1-2.6,1.4-4c0.1-0.6,0.2-1.4-0.2-1.9c-0.4-0.6-1.2-0.7-1.9-0.6
	c-0.9,0.1-1.8,0.4-2.5,1"/>
<path class="st6" d="M170.3,215.5c0.5-0.8,1-1.5,1.8-2c0.8-0.5,1.9-0.5,2.5,0.1c0.2,0.2,0.4,0.6,0.5,0.9c0.3,1,0,2.1-0.5,3
	c-0.5,0.9-1.4,1.6-2.2,2.1c-0.1,0.1-0.3,0.2-0.4,0.2c-0.2,0-0.4-0.1-0.5-0.3c-1.2-1.2-1.4-3.2-0.3-4.5"/>
<path class="st6" d="M185.5,209c-2.2,2.8-3,6.4-4.1,9.7s-2.9,6.8-6.1,8.4c-0.3,0.1-0.6,0.2-0.7,0.5c-0.3,0.5,0.3,1.1,0.9,1.3
	c2,0.8,4.4,0,6-1.5c1.6-1.5,2.5-3.5,3.2-5.6c0.7-2,1.2-4.2,2.1-6.1c0.5-1.1,1.2-2.1,2.1-2.7c1.6-1.1,3.8-1.1,5.7-1.4
	c2-0.3,4.1-1.4,4.4-3.3c0-0.3,0-0.6-0.1-0.9c-0.3-0.5-1.1-0.6-1.8-0.6c-3.2,0-6.3-1.2-9.5-1.9c-3.2-0.7-6.7-0.9-9.4,0.9
	c-0.5,0.4-1.1,1-0.8,1.6c0.1,0.2,0.4,0.4,0.6,0.5c1.2,0.5,2.6,0.2,3.9,0.1c1.3-0.1,2.8-0.1,3.6,0.9"/>
<ellipse class="st6" cx="155.4" cy="215" rx="4.5" ry="2.1"/>
<path class="st8" d="M205.6,200.1c-1,4.7-2.1,9.3-3.1,14c-0.9,3.9-1.7,7.9-3.6,11.3c-1.9,3.5-5,6.4-8.7,7.1
	c-0.8,0.2-1.7,0.2-2.5,0.6c-0.8,0.4-1.5,1.1-1.4,2c0.1,1.6,2.1,2.1,3.5,1.9c4.8-0.6,9.2-3.6,12.1-7.6c3-4,4.6-8.9,5.5-13.9
	c0.2,1.2,1.3,2.2,2.4,2.6s2.4,0.1,3.5-0.4c3.7-1.7,5.4-6.3,5.7-10.5c0.1-1.2,0.1-2.5-0.4-3.6c-0.9-1.9-3.1-2.9-5.1-2.6
	c-2,0.4-3.7,1.9-4.6,3.8c0.5-0.2,0.6-0.8,0.8-1.3c0.2-0.9,0.4-1.7,0.3-2.6c-0.1-0.9-0.5-1.8-1.3-2.1c-0.8-0.4-1.8,0-2.4,0.7
	c-0.6,0.6-1,1.5-1.4,2.4"/>
<path class="st8" d="M202.8,214.2c-1.1,2.3-3.7,4-6,3c-1.1-0.5-1.9-2.1-1-3c0.3-0.4,0.8-0.5,1.3-0.6c2-0.8,3.2-2.8,4-4.9
	c0.5-1.4,0.9-3.1,0-4.2c-0.7-0.9-1.9-1.1-3-1c-1.1,0.1-2.1,0.4-3.2,0.4c-1.1,0-2.3-0.6-2.6-1.6c-0.5-1.3,0.5-2.7,1.6-3.5
	c2.2-1.5,5-1.5,7.5-0.7c1.8,0.6,3.7,2.1,3.7,4.1"/>
<path class="st8" d="M243.3,202.8c-1.8,1.1-2.9,3.1-3.9,5.1c-1.4,3-2.7,6.1-3.8,9.3c-0.6,1.8-1.2,3.7-2.2,5.4
	c-1,1.7-2.4,3.1-4.2,3.6c-0.8,0.2-1.7,0.2-2.5,0.6c-0.8,0.3-1.5,1.1-1.4,2c0.2,1.3,1.7,1.7,2.9,1.7c3.3-0.1,6.8-1.4,8.5-4.4
	c1.2-2.2,1.2-4.8,1.8-7.3c0.6-2.3,1.7-4.5,3.3-6.2c0.4-0.5,1-1,1.6-1c1.4-0.1,1.9,1.8,2,3.3c0,1.5-0.1,3-0.4,4.5
	c-0.3,1.5-0.7,3-0.5,4.6c0.2,1.5,1.3,3.1,2.7,3.1c0.7,0,1.4-0.3,2.1-0.7c1-0.6,1.9-1.4,2.3-2.5c0.3-1.1-0.2-2.6-1.3-2.8
	c-0.5-0.1-1,0.1-1.4-0.1c-0.9-0.4-0.9-1.7-0.6-2.7c0.6-2.4,1.4-4.7,1.6-7.1c0.2-2.4-0.1-5-1.7-6.9c-1.5-1.8-4.4-2.5-6.2-1"/>
<path class="st8" d="M253.4,210.4c0.7-4.5,3.9-8.5,8-10c0.9,1.1,0.4,2.8-0.1,4.1c-0.9,2.6-1.8,5.1-2.8,7.7c-0.7,2-1.4,4.4-0.2,6.2
	c0.1,0.1,0.2,0.3,0.4,0.3c0.2,0,0.3-0.1,0.5-0.2c4.5-4.3,7.5-10.2,8.4-16.5c2,5.9,0.3,12.6,2,18.6c0.6,1.9,1.5,3.8,1.7,5.8
	s-0.4,4.4-2.2,5.2c-0.4,0.2-0.9,0.3-1.3,0c-0.3-0.2-0.5-0.6-0.7-1c-1.1-2.6-2-5.3-2.9-8c-0.8,0.5-1,1.7-1.6,2.4
	c-0.9,1-2.3,1-3.5,0.5c-2.2-0.9-3.8-3-4.3-5.4s-0.1-5,0.9-7.2c-0.5,1.1-1.5,2.5-2.5,1.9c-1-0.5-0.7-2-0.4-3c0.5-1.5,1-2.9,1.4-4.4"
	/>
<path class="st9" d="M223.8,223.7c0.1,0.3-0.3,0.5-0.5,0.4s-0.4-0.3-0.6-0.6c-3.2-5.9-2.2-13.8,2.4-18.6c0.5-0.6,1.2-1.1,2-1.2
	c0.6,0,1.2,0.2,1.8,0.5c1.2,0.6,2.4,1.2,3.2,2.3c1.1,1.4,1.2,3.3,1.1,5.1c-0.2,2.8-0.9,5.6-2.1,8.1c-0.8,1.6-1.7,3.2-3.2,4.1
	c-1.5,0.9-3.6,1-4.8-0.2"/>
<path class="st10" d="M226.1,219.3c-0.5,0.4-1.3,0-1.7-0.6c-0.7-1-0.8-2.2-0.8-3.4c0-2.8,0.9-5.5,2.5-7.7c0.4-0.6,1-1.1,1.7-1
	c0.5,0.1,0.8,0.5,1,1c0.8,1.5,1.1,3.2,0.9,4.9c-0.2,1.6-0.9,3-1.5,4.4c-0.5,1-1.1,2.2-2.2,2.4"/>
<ellipse class="st9" cx="227" cy="213" rx="4" ry="2"/>
<path class="st6" d="M275.4,224.7c0.1,0.3-0.3,0.5-0.6,0.4c-0.3-0.1-0.5-0.4-0.6-0.6c-3.6-6.3-2.4-14.8,2.7-19.9
	c0.6-0.6,1.3-1.2,2.2-1.3c0.7,0,1.4,0.3,2,0.6c1.3,0.6,2.7,1.3,3.6,2.4c1.2,1.5,1.3,3.6,1.2,5.5c-0.2,3-1,6-2.3,8.7
	c-0.8,1.7-1.9,3.4-3.6,4.3s-4,1-5.4-0.3"/>
<path class="st7" d="M278,220c-0.6,0.5-1.5,0-1.9-0.7c-0.7-1.1-0.9-2.4-0.9-3.7c0-2.9,1-5.9,2.7-8.2c0.4-0.6,1.1-1.2,1.9-1
	c0.5,0.1,0.8,0.6,1.1,1c0.9,1.6,1.2,3.4,1,5.2c-0.2,1.7-1,3.2-1.7,4.7c-0.5,1.1-1.2,2.3-2.5,2.6"/>
<ellipse class="st6" cx="278.9" cy="213.2" rx="4.5" ry="2.1"/>
<path class="st11" d="M655.6,164.4c0.4,0.1,0.4,1.6,0.1,3.3c-0.3,1.8-0.8,3.2-1.2,3.1"/>
<g>
	<g>
		<path class="st2" d="M655.8,228.8c-1.6,1.3-2.6,3-4.2,4.3c-1.3,1-2,1.5-3.1-0.1c-0.5-0.7-0.7-1.4-1.3-2.1c-1.9-2-5.4-2-6.8,0.5
			c-1.6,2.8,2.7,5.3,4.3,2.5c-1.1,0.3-1.3,0.8-0.6,1.5c0.1,0.4,0.3,0.7,0.6,1c0.4,0.6,0.9,1.1,1.6,1.6c1.3,0.9,3,1.1,4.5,0.8
			c3.9-0.8,5.6-4.3,8.5-6.6C661.8,230.3,658.3,226.8,655.8,228.8L655.8,228.8z"/>
	</g>
</g>
<g>
	<g>
		<path class="st2" d="M656.8,228.6c-1.5,1.4-3.2,2.7-5,3.6c-1,0.5-2,1-3.1,1.2c-0.8,0.2-3.6,0.2-2.7-1.3c1.6-2.8-2.7-5.3-4.3-2.5
			c-2.3,3.8,0.6,8.3,4.8,8.9c5.1,0.7,10.4-3,13.9-6.3C662.7,229.9,659.2,226.3,656.8,228.6L656.8,228.6z"/>
	</g>
</g>
<g>
	<g>
		<path class="st2" d="M656.9,230c-2.8,3-6.4,7-11,6.8c-4.3-0.2-7.5-4.1-10.2-7.1c-2.1-2.4-5.7,1.1-3.5,3.5c3.6,4,7.9,8.4,13.7,8.6
			c6,0.1,10.6-4.2,14.5-8.3C662.7,231.2,659.2,227.7,656.9,230L656.9,230z"/>
	</g>
</g>
<g>
	<g>
		<path class="st2" d="M654.8,229.7c-2,3.7-5.4,6.2-9.7,6.3c-2.2,0.1-4.3-0.6-6.3-1.3c-0.5-0.2-7.5-2.7-4.3-4.5
			c-1.1-0.3-2.3-0.6-3.4-0.9c0,0.2,0.1,0.4,0.1,0.5c-0.4,3.1,4.4,4.5,4.8,1.3c0.3-1.9,0.2-2.6-0.6-4.4c-0.6-1.3-2.3-1.5-3.4-0.9
			c-2.6,1.4-3.8,4.3-2.9,7.2c1,3.4,4.5,5,7.6,6.1c8.7,3.1,17.8,1.5,22.5-7.1C660.7,229.4,656.4,226.9,654.8,229.7L654.8,229.7z"/>
	</g>
</g>
<path class="st0" d="M87.4,186.6c11.2-6.1,23-11,35.3-14.4c3.6-1,7.4-1.9,11.1-1.4c9.9,1.3,16.3,11.5,25.9,14.4
	c9.6,2.9,19.6-2.3,28.8-6.5c8.3-3.8,17.1-7,26.3-7.5c9.1-0.6,18.7,1.7,25.6,7.8c1.4,1.2,2.8,2.6,4.6,2.9c1,0.2,2,0,3-0.2
	c5.9-1.2,11.7-3.2,17.1-5.8c5.1-2.4,10.2-5.5,15.8-5.5c5.6-0.1,11.8,4.5,10.9,10"/>
<path class="st0" d="M33.2,247.9c4.3,11,14.3,19.6,25.8,22.3s24.2-0.6,33-8.5c4.5-4.1,8.6-9.5,14.6-10.2c10.5-1.2,17,12.7,27.5,14
	c9.9,1.3,18.1-9.1,28.1-9c5.3,0,10,3,14.8,5.2s10.7,3.6,15.2,0.8"/>
<path class="st0" d="M541.7,279.1c5,4.2,10.3,8.2,16.6,9.9c13,3.5,26.5-3.9,36.7-12.8c3.5-3,7-6.3,11.5-7.3
	c5.2-1.2,10.6,1.1,15.5,3.3"/>
<path class="st0" d="M711.3,282.4c3.6-5.7,10.8-8.8,17.3-7.5c6,1.2,10.9,5.5,16.8,7.1c7.8,2.1,16.8-1.4,21.1-8.2"/>
<path class="st12" d="M305.5,420.7c-5.6-14.4-11.4-28.7-17.6-42.8"/>
<path class="st12" d="M322.4,422c-2.2-17.4-2.6-35.1-1.1-52.6"/>
<path class="st4" d="M316.5,391.4c-1.3,3.5-7.1,3-9-0.3s-1-7.4,0.5-10.9c-6.9-3-8.9-13.5-3.6-18.8c-4-2.9-6.6-7.9-6.1-12.8
	c0.5-4.9,4.2-9.5,9.1-10.5c1.1-0.2,2.3-0.3,3-1.2c0.6-0.8,0.5-2,0.2-3c-0.7-2.7-2.1-5.1-3-7.7s-1.1-5.7,0.4-8
	c1.5-2.3,5.1-3.3,7.1-1.4c0.3,0.3,0.6,0.7,1,1c1,0.5,2.2-0.4,2.6-1.5s0.4-2.2,0.8-3.3c1.5-3.5,7.2-3,9.4,0.1c2.2,3.1,2,7.3,1.7,11.1
	c3.9-0.8,7.1,3.6,7.5,7.7s-0.8,8.1-0.1,12c0.6,3.1,2.3,5.8,3.2,8.8c1.8,5.8,0.5,12.5-3.4,17.1c-0.9,1-1.9,2-2.2,3.3
	c-0.6,2.5,1.6,4.7,2.7,7.1c2.6,5.6-2.8,13.1-8.9,12.3c1.9,1.9-1.1,5.1-3.8,5c-2.7-0.1-5.3-1.6-8-1.2c-1.9,0.3-3.5,1.6-5.4,1.9
	c-3,0.4-6-2.1-6.8-5s0.1-6.2,1.5-8.9"/>
<g>
	<g>
		<path d="M348,457.4c-1.1-2.8-1.4-5.5-1-8.5c-1.4,0.6-2.8,1.2-4.3,1.8c1.2,1.4,1.9,2.9,2.3,4.7c0.4,1.8,2.9,2.4,4.2,1.1
			c1.8-1.9,4.7-2.1,6.7-0.3c1.7,1.6,4.1,0.4,4.3-1.8c0.1-1.6,0.8-2.8,1.9-4c-1.4-0.4-2.8-0.7-4.2-1.1c0.6,2.8,0.6,5.6,0,8.4
			c1-0.6,2.1-1.2,3.1-1.7c-4.6-1.7-9.4-1.3-13.7,1c-2.1,1.1-1.3,3.9,0.6,4.6c1.9,0.7,3.6,0.5,5.3-0.6c2.8-1.6,0.2-6-2.5-4.3
			c-0.5,0-1,0-1.5,0.1c0.2,1.5,0.4,3,0.6,4.6c3.2-1.6,6.5-1.7,9.9-0.5c1.2,0.4,2.8-0.5,3.1-1.7c0.8-3.7,0.8-7.3,0-11.1
			c-0.4-1.8-2.9-2.4-4.2-1.1c-2,2.2-3,4.6-3.3,7.5c1.4-0.6,2.8-1.2,4.3-1.8c-3.9-3.7-10-3.6-13.7,0.3c1.4,0.4,2.8,0.7,4.2,1.1
			c-0.6-2.6-1.8-4.8-3.5-6.9c-1.6-1.8-4-0.1-4.3,1.8c-0.4,3.4,0,6.7,1.2,9.9C344.3,461.7,349.2,460.4,348,457.4L348,457.4z"/>
	</g>
</g>
<g>
	<g>
		<path d="M343.3,458c-0.7,1.6-1.5,3.1-2.5,4.5c-0.5,0.6-1,1.1-1.4,1.7c1.2,0.9,2.3,0.9,3.3,0.1c3.6-1.1,6.2-3.9,10.3-3.6
			c4.3,0.3,6.7,7.3,11.4,5.5c3.2-1.2,3.1-5,0.8-7c-3.8-3.2-10.8-3.9-15.5-4.7c-3.1-0.5-4.5,4.3-1.3,4.8c2.2,0.4,4.5,0.8,6.7,1.4
			c1.2,0.3,3.7,1.5,4.9,1.5c6.1-0.1-1-4.8-2.7-5.5c-6-2.4-12.6,0.5-17.7,3.8c-2.8,1.8-5.7,7.9-0.3,8.8c4.5,0.8,7.7-6.8,9-9.9
			C349.4,456.4,344.6,455.1,343.3,458L343.3,458z"/>
	</g>
</g>
<path class="st12" d="M594.3,217.8c31,17.2,66.8,32.7,102.2,34.9c13.3,0.8,26.6,0.5,40,0.1c15.2-0.4,30.4-0.8,45.6-1.1
	c-9.2-34.2-18.9-68.3-31.4-101.3c-5-13.1-10.6-26.3-20.3-36.5c-9.8-10.2-23.1-16.5-36.3-21.5c-15.5-5.8-31.5-10.3-47.7-13.3
	c-2.2-0.4-4.6-0.8-6.6,0.2c-1.7,0.8-2.8,2.4-3.9,3.9c-17.5,25.6-22.7,54.4-36.1,76.9c-5.6,9.5-12.7,18.4-15.5,29.1
	S584.3,213.1,594.3,217.8c2.3,1.1,5.2,1.6,7.5,0.5c2.1-1,3.4-3.2,4.5-5.3c13.1-23.7,24.4-48.5,33.8-74c7-19.2,12.8-41.4,3.2-59.5"/>
<path class="st13" d="M518.8,439.1c28.5-78,52.9-152.6,73.8-223.1"/>
<circle class="st14" cx="670.6" cy="129" r="4.3"/>
<circle class="st15" cx="736.6" cy="229.1" r="6.9"/>
<circle class="st15" cx="672.1" cy="118.4" r="6.2"/>
<circle class="st15" cx="634.3" cy="217.2" r="3.1"/>
<circle class="st15" cx="737.1" cy="151.4" r="7.4"/>
<circle class="st15" cx="616" cy="171" r="5.1"/>
<line class="st16" x1="658.7" y1="231.8" x2="670.6" y2="228.2"/>
<line class="st16" x1="691.9" y1="112.2" x2="702.8" y2="124.7"/>
<line class="st16" x1="631.2" y1="138" x2="655.1" y2="138.7"/>
<line class="st16" x1="750.3" y1="202" x2="759.7" y2="216"/>
<line class="st16" x1="711.3" y1="233.4" x2="723" y2="245.3"/>
<path class="st17" d="M265.6,372.9c2.9,2.6,5.9,5.1,9.4,7s7.7,2.9,11.7,2.1c4.8-1,8.7-4.6,10.2-8.9c1.5-4.3,0.8-9-1.2-13.1
	c-0.4-0.9-0.9-1.7-1.8-2.2c-1.1-0.7-2.5-0.6-3.8-0.6c-4,0.1-8,0.2-11.8,1.3c-3.8,1.1-7.4,3.2-9.3,6.4c-1.5,2.6-1.7,5.6-3.3,8.1
	c0.1-3,1.8-5.9,4.6-7.5"/>
<path class="st3" d="M309.7,107.6c-7.5-0.7-15.2,0.8-21.7,4.4c-1.7,0.9-3.3,2-4.3,3.6c-1.9,3.2-0.5,7.6,2.2,10.2
	c2.7,2.6,6.5,3.7,10.1,4.7c45.7,12.5,94.7,9.7,140.6-2c4.3-1.1,8.7-2.3,12.3-5s6.2-7.1,5.4-11.5c-0.7-4.1-4.2-7.3-8-8.9
	c-3.8-1.7-8-2.2-12.1-3.1c-1.5-0.3-3-0.7-4.2-1.7c-1.1-0.9-1.7-2.1-2.3-3.3c-3.8-7.4-7.7-14.8-11.5-22.2c-0.9-1.7-1.8-3.5-3.4-4.7
	c-1.7-1.3-3.9-1.6-6-1.9c-21.5-2.8-43.2-3.5-64.8-2c-2.7,0.2-5.4,0.4-7.9,1.6c-3.2,1.5-5.5,4.4-7.5,7.3c-4.9,7.3-8.4,15.6-10.2,24.3
	c-0.7,3.2-1.2,6.6-3.4,8.9s-6.9,2.6-8.2-0.4"/>
<path class="st4" d="M434.8,103.7c-38.2,19.2-85.1,20.1-124.1,2.4c0.1-2.7,0.1-5.5,0.2-8.2c0-1,0.1-2.1,0.8-2.8
	c0.9-0.9,2.4-0.6,3.6-0.2c17.4,5,35,11.9,53,10.3c5-0.5,9.9-1.6,14.7-2.7c12.7-2.9,25.4-5.7,38.1-8.6c3.4-0.8,7.1-1.5,10.4-0.3
	s5.7,5.4,3.9,8.4"/>
<path class="st4" d="M309.6,98.9c-6.8-12.5-18.1-22.5-31.4-27.7c-0.9-0.4-1.9-0.7-2.8-0.5c-1.1,0.2-2,1-2.8,1.8
	c-4.4,4.5-8.1,9.7-10.9,15.3c-0.6,1.2-1.2,2.5-1.1,3.9c0.1,1.3,0.9,2.5,1.6,3.7c2.3,3.5,4.6,7.1,7,10.6c1.3,2,2.7,4.1,4.7,5.4
	c2.4,1.6,5.5,1.8,8.4,1.9c5.4,0.3,11.3,0.4,15.4-3.1c3.7-3.2,5.5-9,10.3-9.8c0.6-0.1,1.3-0.1,1.9-0.4c0.7-0.3,1.2-0.9,1.7-1.6
	c8.2-10.8,8.4-27,0.4-38.1c-0.4-0.5-0.8-1-1.3-1.3c-0.8-0.4-1.8-0.2-2.7,0.1c-4,1.6-6.3,6.1-6.5,10.5s1.2,8.6,2.6,12.7
	c2.1,6,4.1,11.9,6.2,17.9c0.9,2.7,1.1,6.8-1.7,7.2"/>
<path class="st4" d="M312.4,99.2c-8.2,11.9-23,18.8-37.3,17.6c-12-1.1-22.8-7.3-33.8-12c-11-4.7-23.9-8-34.9-3.3
	c-12.1,5.2-18.7,20.5-14.3,32.8c1.2,3.3,3.1,6.5,3.5,10c0.6,4.6-1.7,9.4-5.6,12c-3.9,2.5-9.2,2.7-13.2,0.3c7.3,3.8,16,7.7,23.6,4.4
	c8.7-3.8,11.1-14.9,10.9-24.3c-0.2-7.7-0.3-17.3,6.6-20.7c5.4-2.6,11.8,0.7,16.9,3.9c5.9,3.7,11.7,7.3,17.6,11
	c3.5,2.2,7.2,4.4,11.3,4.6c7.1,0.3,12.8-5.5,17.2-11.2c4.3-5.6,9-12,15.9-13.5c2.8-0.6,5.6-0.3,8.4-1.1c2.7-0.7,5.4-2.9,5.4-5.7"/>
<g>
	<g>
		<path d="M92.9,510.3c-3.8,12.6,1.5,25.8,10.7,34.7c7.6,7.4,19.2,10.9,29,14.2c14.1,4.7,29.1,6.6,43.9,8.3c18.9,2.2,38,3.2,57,3.6
			c38.3,0.9,76.7,0.7,114.9,0.5c18.8-0.1,37.6-1.3,56.1-5.1c18.2-3.8,36.1-9.4,53.5-15.8c9.2-3.4,18.3-7,27.2-11
			c8.7-3.8,17.6-7.5,25.5-12.7c11.9-7.8,22-22.2,15-36.6c-0.4-0.7-1.4-0.1-1.1,0.6c8.3,17.2-7.8,31.8-21.5,38.9
			c-14.9,7.7-30.6,14.1-46.4,19.8c-16,5.8-32.3,11-48.9,14.7c-17.3,3.9-34.9,5.5-52.6,5.8c-34.4,0.6-68.9,0.1-103.3-0.1
			c-35.1-0.3-70.4-1.7-105-8.4c-11.7-2.3-23.6-6.5-34.2-11.9c-13.9-7-23.3-23.8-18.6-39.2C94.3,509.8,93.1,509.5,92.9,510.3
			L92.9,510.3z"/>
	</g>
</g>
<g>
	<g>
		<path d="M599.1,519.2c18.4,2.8,36.8,2.2,55-1.9c0.8-0.2,0.5-1.4-0.3-1.2c-17.9,4-36.2,4.7-54.3,1.9
			C598.7,517.8,598.3,519,599.1,519.2L599.1,519.2z"/>
	</g>
</g>
<g>
	<g>
		<path d="M737.5,514.3c6,21.4-14.1,37.2-31,45.3c-17.7,8.5-37.4,11.8-56.7,13.6c-41.8,3.9-84.1,2.3-125.5-4.6
			c-11.3-1.9-22.6-4.2-33.8-6.8c-11.1-2.6-22.1-5.7-31.3-12.7c-0.6-0.5-1.3,0.6-0.6,1.1c7.8,6,17,9.1,26.4,11.5
			c11,2.8,22.1,5.2,33.3,7.1c22.1,3.9,44.4,6.4,66.8,7.3c22.7,0.9,45.5,0.3,68.1-2c19.3-2,38.8-5.6,56.2-14.6
			c16.7-8.6,35.3-24.6,29.3-45.6C738.5,513.2,737.3,513.6,737.5,514.3L737.5,514.3z"/>
	</g>
</g>
<g>
	<path d="M424.6,517.7c6.2,13.5,19.5,22.1,32.1,30c8.2,5.1,16.5,10.3,24.7,15.4c0.9,0.6,1.9,1.2,3,1.3c1.1,0.1,2.2-0.2,3.2-0.6
		c11.3-4,21.7-10.9,29-20.4s11.3-21.7,10-33.7c-0.2-2-0.6-4.1-2-5.6c-1.1-1.2-2.6-1.8-4-2.3c-14.2-5.3-30-6.1-44.7-2.3
		c-6.3,1.7-12.4,4.2-18.6,6.2c-8.6,2.8-17.6,4.6-26.6,5.5c-2.8,0.3-5.9,0.6-7.8,2.6c-1.9,2.1-0.9,6.4,1.9,6.3"/>
	<g>
		<path d="M424.1,518.1c8.6,17.8,27.8,27.4,43.8,37.4c4.5,2.8,9.6,7.2,14.6,9c3.4,1.2,6.5-0.4,9.7-1.8c8.2-3.5,15.8-8.6,21.8-15.2
			c6.3-6.9,10.8-15.4,12.6-24.5c1.3-6.6,2.8-17.3-4.2-21c-8.4-4.4-19.9-5.5-29.2-5.4c-10.5,0.2-20.3,3.1-30.1,6.6
			c-6,2.1-12,4-18.1,5.3c-5.9,1.3-12,1.3-17.9,2.7c-2.5,0.6-5.1,1.9-5.6,4.6c-0.4,2.4,0.8,4.7,3.3,5c0.8,0.1,1.1-1.1,0.3-1.2
			c-0.4-0.3-0.8-0.6-1.1-0.9c-1.9-0.9-1.6-2.1,0.8-3.5c2.1-2.8,1.8-2.7,4.7-3.1c1.9-0.3,3.9-0.4,5.8-0.7c3.7-0.5,7.3-1.1,10.9-1.9
			c8.2-1.8,16-4.8,24-7.5c8-2.7,16.3-4.3,24.8-4.2c7.9,0,17.4,0.9,24.7,4.4c4.3,2.1,6.2,4.7,6.5,9.3c0.1,1.6,0.1,3.3,0,4.9
			c-0.2,4.3-1.1,8.5-2.5,12.6c-2.7,8-7.6,15.2-13.9,21c-5.9,5.4-12.8,9.6-20.2,12.5c-5.6,2.2-10-1.1-14.5-4
			c-3.8-2.4-7.7-4.8-11.5-7.2c-14.5-9-30.7-17.9-38.4-33.9C424.8,516.7,423.8,517.3,424.1,518.1L424.1,518.1z"/>
	</g>
</g>
</svg>
