<?xml version="1.0" encoding="utf-8"?>
<!-- Generator: Adobe Illustrator 22.1.0, SVG Export Plug-In . SVG Version: 6.00 Build 0)  -->
<svg version="1.1" xmlns="http://www.w3.org/2000/svg" xmlns:xlink="http://www.w3.org/1999/xlink" x="0px" y="0px"
	 viewBox="0 0 1226.6 1106.1" style="enable-background:new 0 0 1226.6 1106.1;" xml:space="preserve">
<style type="text/css">
	.st0{display:none;}
	.st1{display:inline;}
	.st2{fill:#FFFFFF;}
	.st3{fill:url(#SVGID_1_);}
	.st4{fill:url(#SVGID_2_);}
	.st5{fill:url(#SVGID_3_);}
	.st6{fill:url(#SVGID_4_);}
	.st7{fill:url(#SVGID_5_);}
	.st8{fill:url(#SVGID_6_);}
</style>
<g id="Слой_3">
	<g class="st0">
		<g class="st1">
			<path class="st2" d="M-212.1-435.1c5.8,0,5.8-9,0-9C-217.9-444.1-217.9-435.1-212.1-435.1L-212.1-435.1z"/>
		</g>
	</g>
	<g id="Слой_5">
	</g>
</g>
<g id="Слой_2">
</g>
<g id="Слой_1">
</g>
<g id="Слой_4">
	<g>
		<linearGradient id="SVGID_1_" gradientUnits="userSpaceOnUse" x1="874.2835" y1="299.2006" x2="1180.1526" y2="299.2006">
			<stop  offset="0" style="stop-color:#763FF5"/>
			<stop  offset="8.104094e-02" style="stop-color:#7248F2"/>
			<stop  offset="0.2158" style="stop-color:#6862E9"/>
			<stop  offset="0.3876" style="stop-color:#578BDB"/>
			<stop  offset="0.5674" style="stop-color:#43BEC9"/>
			<stop  offset="0.8652" style="stop-color:#E828CB"/>
			<stop  offset="0.9944" style="stop-color:#FF1E44"/>
		</linearGradient>
		<path class="st3" d="M1172.5,369.7c3.3,24.1-10.1,49.5-31.9,60.4c-6.6,3.3-14.1,5.3-21.3,3.9c-12.1-2.4-20.2-13.5-29.4-21.6
			c-10.9-9.6-24.9-15.7-39.4-17.2c-23.3-2.4-46.1,6.9-67.9,15.5c-21.8,8.6-45.2,16.9-68.3,12.5s-44.4-26.4-39.3-49.3
			c4.3-19.3,24.1-30.4,41.8-39.1c19.7-9.6,39.3-19.2,59-28.9c15.3-7.5,31.6-15.9,39.3-31.2c11.3-22.5-0.6-51,9.1-74.2
			c5.8-13.8,18.6-23.7,32.1-30c15.3-7.2,34.5-10.4,48.4-0.8c21.3,14.7,16.7,46.9,9.8,71.9c-6.9,25-11,57.5,10.8,71.5
			c11.6,7.5,27,6.6,39,13.6c17.8,10.3,21.2,38.7,6.3,53"/>
		<g>
			<linearGradient id="SVGID_2_" gradientUnits="userSpaceOnUse" x1="873.7835" y1="299.1308" x2="1180.6526" y2="299.1308">
				<stop  offset="0" style="stop-color:#763FF5"/>
				<stop  offset="8.104094e-02" style="stop-color:#7248F2"/>
				<stop  offset="0.2158" style="stop-color:#6862E9"/>
				<stop  offset="0.3876" style="stop-color:#578BDB"/>
				<stop  offset="0.5674" style="stop-color:#43BEC9"/>
				<stop  offset="0.8652" style="stop-color:#E828CB"/>
				<stop  offset="0.9944" style="stop-color:#FF1E44"/>
			</linearGradient>
			<path class="st4" d="M1171,369.7c1.9,15.8-2.8,31.9-12.8,44.2c-10.1,12.4-28.8,24.6-44.9,16.5c-7.2-3.6-12.7-9.9-18.5-15.4
				c-5.6-5.4-11.8-10.2-18.8-13.7c-14.6-7.4-30.8-9.2-46.9-6.7c-37.6,5.8-71.7,33.1-111,27.9c-15.9-2.1-31.3-11.8-38.6-26.4
				c-7.8-15.5-2.1-31.7,10.3-42.7c12.3-11,28.4-17.4,43-24.6c17.3-8.5,34.9-16.6,51.9-25.5c12.7-6.6,25.6-15,32-28.3
				c6.8-14.3,5-30.5,4.8-45.9c-0.1-8.6,0.3-17.5,3.3-25.7c2.9-8.1,8.2-14.9,14.8-20.4c12.4-10.5,29.7-18.1,46.1-17.5
				c16.6,0.6,28.7,11.8,32,27.8c3,14.3,0.2,29.6-3.3,43.6c-5.7,22.5-14.3,54.2,4.5,73.2c11.4,11.5,28.1,10.2,41.9,16.7
				c13.1,6.1,19.5,21,17.4,35c-1,6.5-3.9,12.4-8.5,17.1c-1.4,1.4,0.8,3.5,2.1,2.1c8.9-8.9,11.6-22.1,8.6-34.1
				c-3.4-13.7-13.4-22-26.6-25.8c-8.8-2.5-18.3-3.5-26.2-8.2c-7-4.1-11.9-10.7-14.4-18.4c-4.7-14.7-2.2-31.1,1.3-45.8
				c5.9-24.5,16.9-60.8-7.6-79.2c-13-9.8-30.6-8.1-45.1-2.7c-14.2,5.3-28.2,14.5-36.1,27.8c-8.8,14.9-6.9,32.6-6.7,49.2
				c0.1,9.8-0.3,19.9-4.4,28.9c-3.7,8.2-10.2,14.7-17.5,19.8c-15.7,11-34.2,18.3-51.4,26.7c-17,8.3-35.3,15.6-50.9,26.6
				c-11.4,8-21.3,19.3-21.9,33.8c-0.6,14.4,8.3,27.5,19.6,35.7c33.1,24.2,74.9,2.3,108-9.7c19.4-7.1,40.3-12.2,60.8-6.7
				c9.4,2.5,18.2,7,25.7,13.2c6.5,5.3,11.8,11.8,18.4,16.9c27.5,21.2,60.2-10.1,67.2-36.9c1.9-7.3,2.4-14.8,1.5-22.3
				C1173.8,367.8,1170.8,367.8,1171,369.7L1171,369.7z"/>
		</g>
	</g>
	<g>
		<linearGradient id="SVGID_3_" gradientUnits="userSpaceOnUse" x1="436.1208" y1="973.9354" x2="664.9578" y2="973.9354">
			<stop  offset="0" style="stop-color:#763FF5"/>
			<stop  offset="8.104094e-02" style="stop-color:#7248F2"/>
			<stop  offset="0.2158" style="stop-color:#6862E9"/>
			<stop  offset="0.3876" style="stop-color:#578BDB"/>
			<stop  offset="0.5674" style="stop-color:#43BEC9"/>
			<stop  offset="0.8652" style="stop-color:#E828CB"/>
			<stop  offset="0.9944" style="stop-color:#FF1E44"/>
		</linearGradient>
		<path class="st5" d="M570.7,995.8c-12.5,12.4-10.5,34.6,1,47.9s29.8,19,47.3,19.9c6.6,0.4,13.6,0,19.1-3.5
			c5.4-3.5,8.6-9.6,11.3-15.5c9.3-19.8,16.9-41.2,15.3-62.9c-1.7-21.8-14.8-43.9-35.7-50.2c-24.2-7.3-52.9,7.2-74.6-5.9
			c-13.6-8.2-19.8-25-32.6-34.4c-19.1-13.9-47.9-6.3-63.6,11.4c-15.7,17.7-20.7,42.3-22,65.9c-0.3,6.3-0.3,13.1,3.4,18.1
			c3.1,4.3,8.3,6.5,13.2,8.5c22.9,9.4,49.3,18.8,71.5,7.8c12-6,23.8-17.8,36.4-13.4"/>
		<g>
			<linearGradient id="SVGID_4_" gradientUnits="userSpaceOnUse" x1="435.6208" y1="974.0621" x2="665.4578" y2="974.0621">
				<stop  offset="0" style="stop-color:#763FF5"/>
				<stop  offset="8.104094e-02" style="stop-color:#7248F2"/>
				<stop  offset="0.2158" style="stop-color:#6862E9"/>
				<stop  offset="0.3876" style="stop-color:#578BDB"/>
				<stop  offset="0.5674" style="stop-color:#43BEC9"/>
				<stop  offset="0.8652" style="stop-color:#E828CB"/>
				<stop  offset="0.9944" style="stop-color:#FF1E44"/>
			</linearGradient>
			<path class="st6" d="M569.6,994.7c-14,14.6-10.4,38.6,3.1,52.3c8.2,8.3,19.2,13.3,30.4,15.9c10.2,2.3,23,4.4,32.9,0
				c10.7-4.8,15.2-17.9,19.4-27.9c5.2-12.4,9.4-25.4,10.7-38.9c2.1-21.7-4.7-45.3-22.6-58.9c-20.1-15.2-44.5-6.7-67.4-7.4
				c-13.2-0.4-23.6-5.7-32.1-15.7c-7.2-8.5-12.9-18.6-22.4-24.9c-17.4-11.7-41.1-6.7-56.8,5.5c-18.3,14.2-25.9,38-28.7,60.2
				c-1.4,11.4-4.5,27.6,5.6,36c4.5,3.7,10.4,5.7,15.7,7.8c7.1,2.8,14.4,5.5,21.8,7.5c13.3,3.6,27.8,5.2,41,0.3
				c12.8-4.7,25.7-19.8,40.3-15.4c1.9,0.6,2.6-2.3,0.8-2.9c-9.7-2.9-18.4,2-26.5,7c-10.5,6.5-20.4,11.4-33,11.3
				c-12.1-0.1-24-3.5-35.3-7.6c-11.6-4.2-27.2-7.9-28.6-22.4c-1-10.8,0.9-22.8,3.2-33.3c2.3-10.8,6-21.5,11.9-30.9
				c11.2-17.6,32.5-30.2,53.8-26c21.5,4.3,27.7,25.9,43.3,38.1c16.6,12.9,38.2,7.4,57.4,6.6c11.1-0.5,22.1,0.8,31.6,6.9
				c9,5.8,15.6,14.9,19.6,24.8c9.2,22.5,3.7,47.3-5.2,69.1c-5.2,12.7-10.5,28.7-26.2,30.4c-12.4,1.3-26.5-1.5-37.8-6.9
				c-11.2-5.3-20.5-14.1-24.2-26.2c-3.4-11.1-1.9-23.6,6.4-32.2C573.1,995.5,571,993.3,569.6,994.7L569.6,994.7z"/>
		</g>
	</g>
	<g>
		<linearGradient id="SVGID_5_" gradientUnits="userSpaceOnUse" x1="79.5032" y1="500.7828" x2="949.4764" y2="500.7828">
			<stop  offset="0" style="stop-color:#763FF5"/>
			<stop  offset="8.104094e-02" style="stop-color:#7248F2"/>
			<stop  offset="0.2158" style="stop-color:#6862E9"/>
			<stop  offset="0.3876" style="stop-color:#578BDB"/>
			<stop  offset="0.5674" style="stop-color:#43BEC9"/>
			<stop  offset="0.8652" style="stop-color:#E828CB"/>
			<stop  offset="0.9944" style="stop-color:#FF1E44"/>
		</linearGradient>
		<path class="st7" d="M509.3,737.8c-110,35.2-227.5,63.7-339.9,37.6c-20.6-4.8-41.9-12.1-55.9-28c-12.6-14.4-17.5-33.9-21.8-52.6
			c-11.4-49.9-21-104.2,0.9-150.5c13.3-28,36.8-49.8,52.9-76.3c19.4-32.1,27.1-71.1,21.4-108.2c-7.2-46.8-34.3-96.2-12.5-138.2
			c19.8-38.2,69.2-47.7,111.9-52.6c58.5-6.7,122.3-11.8,172,19.8c64,40.6,92.9,135,167.7,147.3c40,6.6,84.4-13.5,120.1,5.9
			c13.7,7.5,24,20,31.7,33.6c26.4,47.1,22.6,104.8,14.7,158.2c-2.1,13.8-4.4,28-1.6,41.7c4.8,24,24.4,42.5,45.5,54.8
			c28.9,16.8,62.4,25.2,90.4,43.5c28,18.4,50.6,52.5,40.1,84.3c-10.9,33-50.1,46.2-84.4,51.6c-61.3,9.8-124.2,9.8-185.5-0.1
			c-21.7-3.5-44.5-8.1-65.3-0.8c-15,5.3-27.4,16.4-42,22.8c-23.6,10.4-52.6,7.2-73.3-8c-20.8-15.2-32.5-41.9-29.7-67.5"/>
		<g>
			<linearGradient id="SVGID_6_" gradientUnits="userSpaceOnUse" x1="79.0032" y1="500.7836" x2="949.9764" y2="500.7836">
				<stop  offset="0" style="stop-color:#763FF5"/>
				<stop  offset="8.104094e-02" style="stop-color:#7248F2"/>
				<stop  offset="0.2158" style="stop-color:#6862E9"/>
				<stop  offset="0.3876" style="stop-color:#578BDB"/>
				<stop  offset="0.5674" style="stop-color:#43BEC9"/>
				<stop  offset="0.8652" style="stop-color:#E828CB"/>
				<stop  offset="0.9944" style="stop-color:#FF1E44"/>
			</linearGradient>
			<path class="st8" d="M508.9,736.3c-94.9,30.3-195.1,56.3-295.5,45c-23.3-2.6-47.8-6.5-69.6-15.4c-10.5-4.3-20.4-10.2-28.1-18.5
				c-8-8.7-13-19.6-16.6-30.7c-7-21.8-11.3-45-14.7-67.5c-3.6-23.7-5.1-48.2-0.7-72c4.3-23.3,14.9-43.4,29-62.3
				c13.5-18.1,28.7-35.1,39.2-55.3c10.1-19.4,16.1-40.8,17.9-62.6c1.8-22.5-1.8-44.3-7.5-66.1c-10.7-40.8-28.6-90.8,5.8-125.5
				c27.1-27.4,70.3-32,106.6-36c43.8-4.8,90.2-8.4,132.6,6.1c36.4,12.4,62.4,39.2,86,68.4c20.8,25.8,40.3,54.1,67.4,73.9
				c12.7,9.3,27.1,16.2,42.6,19.1c21.4,4.1,43.1,0.5,64.5-1.4c22.2-1.9,45.6-1.8,64.4,11.8c18.6,13.5,30,36,36.5,57.5
				c13.8,45,7.2,92.2,0.9,137.8c-1.6,11.4-2.5,23.1,0.1,34.5c2.1,9.3,6.5,17.9,12.2,25.5c12.2,16.2,29.5,27.3,47.5,36
				C869,658.1,917,669.2,939.6,711c9.9,18.3,11.7,40.1,0.3,58.2c-10.1,16-27.9,25.5-45.4,31.3c-20.8,7-43,9.7-64.8,11.9
				c-25.7,2.6-51.7,3.6-77.5,2.8c-26.3-0.8-52.5-3.4-78.5-7.6c-22.3-3.6-45.9-7.7-67.4,1.8c-10.1,4.4-19,11-28.6,16.5
				c-9.9,5.6-20.5,9.3-31.9,10.1c-21.7,1.6-43.7-6.4-58.5-22.5c-14.2-15.4-21.2-36.6-19.1-57.4c0.2-1.9-2.8-1.9-3,0
				c-4.1,41.5,26.8,79.1,68.3,82.8c10.4,0.9,21-0.2,30.8-3.6c10.5-3.5,19.7-9.8,29-15.5c11.2-6.9,22.7-12,36-13.1
				c12.7-1,25.5,0.8,38.1,2.9c52.5,8.4,105.4,11.3,158.4,6.2c22.4-2.1,45.3-4.8,66.8-11.6c16.7-5.3,33.6-13.4,45-27
				c27.5-32.8,7-76-22.5-99.2c-36.6-28.8-87.4-33.6-121.4-66.4c-7.8-7.5-14.6-16.4-18.5-26.6c-4.8-12.2-4.7-25.2-3.2-38
				c2.8-24,6.9-47.6,7.6-71.8c1.3-42.8-6-93.6-38.9-124.4c-35.5-33.2-84.8-11.5-127.4-15.3c-36.5-3.3-64.1-27.9-86.8-54.6
				c-23.1-27.2-43-57.6-70.5-80.8c-33-27.9-74.7-37.3-117.1-37.6c-23.2-0.2-46.4,2-69.4,4.6c-19.2,2.2-38.5,4.8-57,10.4
				c-17.1,5.2-34,13-46.7,25.9c-14,14.1-20.9,33.2-21.2,52.9c-0.4,22.9,6.5,45.3,12.5,67.2c6.3,23.4,11.4,46.7,9.8,71.1
				c-1.6,24.4-8.8,48.4-21,69.7c-11.8,20.6-28.3,38-41.8,57.5c-12.9,18.7-21.4,39.3-24.5,61.9c-3.3,23.8-1.2,48.1,2.6,71.7
				c1.9,11.6,4.3,23.2,6.9,34.7c2.5,11.4,5.1,22.9,9.2,33.8c7.9,20.9,22.3,35.6,42.8,44.3c20.9,8.9,44.3,12.8,66.8,15.6
				c25.7,3.3,51.8,4,77.7,2.7c51.4-2.5,102.3-12.6,151.9-25.8c24.3-6.5,48.3-13.8,72.3-21.4C511.6,738.6,510.8,735.7,508.9,736.3
				L508.9,736.3z"/>
		</g>
	</g>
</g>
</svg>
