<?xml version="1.0" encoding="utf-8"?>
<!-- Generator: Adobe Illustrator 22.1.0, SVG Export Plug-In . SVG Version: 6.00 Build 0)  -->
<svg version="1.1" id="Слой_1" xmlns="http://www.w3.org/2000/svg" xmlns:xlink="http://www.w3.org/1999/xlink" x="0px" y="0px"
	 viewBox="0 0 5442.5 1275.6" style="enable-background:new 0 0 5442.5 1275.6;" xml:space="preserve">
<style type="text/css">
	.st0{fill:url(#SVGID_1_);}
	.st1{fill:url(#SVGID_2_);}
	.st2{fill:url(#SVGID_3_);}
	.st3{fill:url(#SVGID_4_);}
	.st4{fill:url(#SVGID_5_);}
	.st5{fill:url(#SVGID_6_);}
	.st6{fill:url(#SVGID_7_);}
	.st7{fill:url(#SVGID_8_);}
	.st8{fill:url(#SVGID_9_);}
	.st9{fill:url(#SVGID_10_);}
</style>
<g>
	<linearGradient id="SVGID_1_" gradientUnits="userSpaceOnUse" x1="24.0715" y1="802.3678" x2="5827.0688" y2="802.3678">
		<stop  offset="0" style="stop-color:#BA4B95"/>
		<stop  offset="1" style="stop-color:#2581C4;stop-opacity:0"/>
	</linearGradient>
	<path class="st0" d="M314.9,240.8c120.8-52.5,268.1-38.7,377.1,35.4c74.7,50.8,133.4,128.2,219.1,157.1
		c224,75.6,422.3-220.3,658.4-207c210.3,11.9,369.7,266.6,576,223.8c105.4-21.9,177.6-116,267.3-175.4
		c125.5-83.1,294.7-95.5,430.9-31.6c134,62.8,248.4,195.5,395.8,182.7C3411,411,3522.7,202,3694.7,202.1
		c175.3,0,290.5,217.8,465.8,222.8c180.8,5.2,298.4-189.6,469.7-226c104.5-22.2,182.7,56.1,276.2,94.4c108,44.2,230.8,66.6,340.8,16
		c58.9-27.1,108-72.7,167.6-98.1c76.1-32.4,166.7-28.3,239.5,10.9c119.4,64.3,176,210.1,172.5,345.7s-56.3,264.3-108.4,389.6
		c-22.6,54.4-45.2,108.9-67.8,163.3c-15.7,37.8-31.8,76.2-58.1,107.4c-50.1,59.4-129.2,84.4-204.7,102.8
		c-549.7,134.6-1125.3,75.2-1690.6,47c-1174.3-58.4-2351.9,22.6-3526.7-24.1c-40.8-1.6-87.1-6.1-111.8-38.6
		c-16.4-21.5-18.9-50.1-20.7-77c-14.1-214.1-17.5-428.9-10.1-643.3C30,533.6,9,403.3,68.5,364.5c35.2-23,83.5-31.9,121.1-53.5
		C231.1,287.1,270.8,260,314.9,240.8z"/>
	<g>
		<linearGradient id="SVGID_2_" gradientUnits="userSpaceOnUse" x1="21.5767" y1="803.3017" x2="5829.1748" y2="803.3017">
			<stop  offset="0" style="stop-color:#BA4B95"/>
			<stop  offset="1" style="stop-color:#2581C4;stop-opacity:0"/>
		</linearGradient>
		<path class="st1" d="M315.6,243.2c108.7-45.6,235.2-41.3,339.7,13.9c92.2,48.7,154.5,144.4,255.1,178.6
			c161.8,55,315.2-81.2,449-150.3c83.1-42.9,173.5-71.7,266.9-47.5c87.8,22.8,162.8,78.6,237.9,127.1c66.8,43.2,139.9,87.7,221.5,92
			c95.1,5,169.6-51.7,238.7-109.8c40.9-34.4,81.7-69.1,129.5-93.7c54.2-27.8,114.3-43.8,175.1-47.7c116-7.3,216.3,33.4,311.3,96.1
			c77.9,51.4,157.8,115.1,253.7,125.6c86.7,9.5,161.9-33.7,229.3-83.2c69.1-50.8,137.1-114.6,223-134.4
			c94.2-21.7,177.3,27.2,250.3,81.1c66.5,49.1,132.4,108.2,214.5,129c80.5,20.4,159.5-7.3,228-49.4
			c79.2-48.7,148.4-114.5,234.7-151.2c51.7-22,104.6-29.2,158.6-10.6c52.7,18.2,98.6,51.1,148.6,75.3c93.3,45.2,206.9,71.7,309.6,47
			c117.3-28.2,196-134.6,321.7-139.4c119.7-4.5,220.2,68.1,270.8,173.5c50.9,106.1,49.6,225.8,22.8,338.3
			c-29.3,122.7-83.6,238.7-131.8,354.7c-24.5,59-44.8,126.2-88.8,174.3c-39.3,43-94.9,66.3-149.6,82.6
			c-247.1,73.6-513.8,92.6-770.4,96.8c-263.6,4.3-527-12.4-790-27.3c-539-30.6-1078.3-34.6-1618-29.6
			c-543.7,5-1087.5,16.6-1631.3,8.1c-136.4-2.1-272.7-5.5-409-10.5c-57.6-2.1-143.9,5.2-167.8-62.1c-10.9-30.6-9.4-66.7-11.2-98.7
			c-2-34.4-3.8-68.9-5.2-103.3c-5.7-134-7.2-268.1-4.5-402.2c1-50.7,2.9-101,1.3-151.6c-1.3-41.6-3.3-86.3,10.7-126.1
			c19-54.2,78.1-63.1,125.3-83.2c52.8-22.6,98.6-59,151-82.7c2.9-1.3,0.4-5.6-2.5-4.3c-59.6,26.8-111.3,68.1-172.6,91.1
			C104.1,343.7,60.1,355,41,393c-16.3,32.2-17.5,71.6-17.6,106.9c-0.1,43.2,2.1,86.1,0.8,129.3c-4,139.8-3.5,279.7,1.5,419.5
			c2.5,68.9,3.6,138.9,11.1,207.5c4.4,40.2,19.7,73.6,59.4,88.5c50.8,19.1,113.2,13.1,166.3,15c71,2.4,142.1,4.4,213.1,6
			c140.2,3.2,280.4,4.9,420.6,5.5c280.5,1.3,561.1-1.5,841.6-4.9c559-6.7,1118.2-15.4,1677.1,2.6
			c540.1,17.4,1085.3,86.7,1624.7,25.5c127.4-14.4,255.5-35.2,379.3-69.1c50.4-13.8,101.3-31.9,142.8-64.5
			c40.3-31.6,63.8-75.2,83.6-121.5c50.2-117.3,103.3-235.5,142.9-356.9c34.8-106.7,54.8-220.9,29.1-331.9
			c-20.4-88.4-69-173.7-147.6-222.3c-92.8-57.4-207.3-51.5-299.4,3c-53.6,31.7-101.7,71.6-162.1,90.2
			c-63.5,19.6-131.6,17.4-195.9,3.1c-61-13.6-118.3-37-172.7-67.4c-42.9-23.9-86.1-50.6-134.8-60.6
			c-90.2-18.4-176.1,35.5-246.6,85.1c-76.7,54-153.6,120.9-249,137.3c-196.3,33.6-300.2-186.6-478.7-216.2
			c-184.8-30.7-292.1,174.7-456.4,214.9c-111.6,27.4-210.4-38.2-298.6-97.6c-87.7-59.1-174.6-110.1-282.4-118.5
			c-106.2-8.2-213.4,21.1-299.6,83.7c-86.8,62.9-162.7,157-276.6,166.7c-92.1,7.8-176.1-43-250.3-91
			c-75.4-48.8-150.8-104.8-239.1-127.6c-178.7-46.3-329.1,91.2-478.2,164.7c-85.5,42.2-180.7,64.7-270,19.4
			c-97.2-49.3-160-143.7-263.9-183.6c-96.8-37.2-205.7-35.3-301.3,4.8C311.3,239.6,312.6,244.5,315.6,243.2z"/>
	</g>
</g>
<g>
	<linearGradient id="SVGID_3_" gradientUnits="userSpaceOnUse" x1="-27.5837" y1="968.1977" x2="5775.4136" y2="968.1977">
		<stop  offset="0" style="stop-color:#BA4B95"/>
		<stop  offset="1" style="stop-color:#2581C4;stop-opacity:0"/>
	</linearGradient>
	<path class="st2" d="M263.2,406.7C384,354.1,531.4,368,640.3,442.1c74.7,50.8,133.4,128.2,219.1,157.1
		c224,75.6,422.3-220.3,658.4-207c210.3,11.9,369.7,266.6,576,223.8c105.4-21.9,177.6-116,267.3-175.4
		c125.5-83.1,294.7-95.5,430.9-31.6c134,62.8,248.4,195.5,395.8,182.7c171.4-14.9,283.1-223.8,455.2-223.8
		c175.3,0,290.5,217.8,465.8,222.8c180.8,5.2,298.4-189.6,469.7-226c104.5-22.2,182.7,56.1,276.2,94.4c108,44.2,230.8,66.6,340.8,16
		c58.9-27.1,108-72.7,167.6-98.1c76.1-32.4,166.7-28.3,239.5,10.9c119.4,64.3,176,210.1,172.5,345.7s-56.3,264.3-108.4,389.6
		c-22.6,54.4-45.2,108.9-67.8,163.3c-15.7,37.8-31.8,76.2-58.1,107.4c-50.1,59.4-129.2,84.4-204.7,102.8
		c-549.7,134.6-1125.3,75.2-1690.6,47c-1174.3-58.4-2351.9,22.6-3526.7-24.1c-40.8-1.6-87.1-6.1-111.8-38.6
		c-16.4-21.5-18.9-50.1-20.7-77C-27.8,1189.8-31.2,975-23.8,760.5c2.1-61.2-18.8-191.4,40.6-230.2c35.2-23,83.5-31.9,121.1-53.5
		C179.4,452.9,219.2,425.8,263.2,406.7z"/>
	<g>
		<linearGradient id="SVGID_4_" gradientUnits="userSpaceOnUse" x1="-30.0785" y1="969.1316" x2="5777.5195" y2="969.1316">
			<stop  offset="0" style="stop-color:#BA4B95"/>
			<stop  offset="1" style="stop-color:#2581C4;stop-opacity:0"/>
		</linearGradient>
		<path class="st3" d="M263.9,409.1c108.7-45.6,235.2-41.3,339.7,13.9c92.2,48.7,154.5,144.4,255.1,178.6
			c161.8,55,315.2-81.2,449-150.3c83.1-42.9,173.5-71.7,266.9-47.5c87.8,22.8,162.8,78.6,237.9,127.1c66.8,43.2,139.9,87.7,221.5,92
			c95.1,5,169.6-51.7,238.7-109.8c40.9-34.4,81.7-69.1,129.5-93.7c54.2-27.8,114.3-43.8,175.1-47.7c116-7.3,216.3,33.4,311.3,96.1
			c77.9,51.4,157.8,115.1,253.7,125.6c86.7,9.5,161.9-33.7,229.3-83.2c69.1-50.8,137.1-114.6,223-134.4
			c94.2-21.7,177.3,27.2,250.3,81.1c66.5,49.1,132.4,108.2,214.5,129c80.5,20.4,159.5-7.3,228-49.4
			c79.2-48.7,148.4-114.5,234.7-151.2c51.7-22,104.6-29.2,158.6-10.6c52.7,18.2,98.6,51.1,148.6,75.3c93.3,45.2,206.9,71.7,309.6,47
			c117.3-28.2,196-134.6,321.7-139.4c119.7-4.5,220.2,68.1,270.8,173.5c50.9,106.1,49.6,225.8,22.8,338.3
			c-29.3,122.7-83.6,238.7-131.8,354.7c-24.5,59-44.8,126.2-88.8,174.3c-39.3,43-94.9,66.3-149.6,82.6
			c-247.1,73.6-513.8,92.6-770.4,96.8c-263.6,4.3-527-12.4-790-27.3c-539-30.6-1078.3-34.6-1618-29.6
			c-543.7,5-1087.5,16.6-1631.3,8.1c-136.4-2.1-272.7-5.5-409-10.5c-57.6-2.1-143.9,5.2-167.8-62.1c-10.9-30.6-9.4-66.7-11.2-98.7
			c-2-34.4-3.8-68.9-5.2-103.3c-5.7-134-7.2-268.1-4.5-402.2c1-50.7,2.9-101,1.3-151.6c-1.3-41.6-3.3-86.3,10.7-126.1
			c19-54.2,78.1-63.1,125.3-83.2c52.8-22.6,98.6-59,151-82.7c2.9-1.3,0.4-5.6-2.5-4.3c-59.6,26.8-111.3,68.1-172.6,91.1
			c-37,13.9-80.9,25.2-100.1,63.2c-16.3,32.2-17.5,71.6-17.6,106.9c-0.1,43.2,2.1,86.1,0.8,129.3c-4,139.8-3.5,279.7,1.5,419.5
			c2.5,68.9,3.6,138.9,11.1,207.5c4.4,40.2,19.7,73.6,59.4,88.5c50.8,19.1,113.2,13.1,166.3,15c71,2.4,142.1,4.4,213.1,6
			c140.2,3.2,280.4,4.9,420.6,5.5c280.5,1.3,561.1-1.5,841.6-4.9c559-6.7,1118.2-15.4,1677.1,2.6
			c540.1,17.4,1085.3,86.7,1624.7,25.5c127.4-14.4,255.5-35.2,379.3-69.1c50.4-13.8,101.3-31.9,142.8-64.5
			c40.3-31.6,63.8-75.2,83.6-121.5c50.2-117.3,103.3-235.5,142.9-356.9c34.8-106.7,54.8-220.9,29.1-331.9
			c-20.4-88.4-69-173.7-147.6-222.3c-92.8-57.4-207.3-51.5-299.4,3c-53.6,31.7-101.7,71.6-162.1,90.2
			c-63.5,19.6-131.6,17.4-195.9,3.1c-61-13.6-118.3-37-172.7-67.4c-42.9-23.9-86.1-50.6-134.8-60.6
			c-90.2-18.4-176.1,35.5-246.6,85.1c-76.7,54-153.6,120.9-249,137.3c-196.3,33.6-300.2-186.6-478.7-216.2
			c-184.8-30.7-292.1,174.7-456.4,214.9c-111.6,27.4-210.4-38.2-298.6-97.6c-87.7-59.1-174.6-110.1-282.4-118.5
			c-106.2-8.2-213.4,21.1-299.6,83.7c-86.8,62.9-162.7,157-276.6,166.7c-92.1,7.8-176.1-43-250.3-91
			c-75.4-48.8-150.8-104.8-239.1-127.6c-178.7-46.3-329.1,91.2-478.2,164.7c-85.5,42.2-180.7,64.7-270,19.4
			c-97.2-49.3-160-143.7-263.9-183.6c-96.8-37.2-205.7-35.3-301.3,4.8C259.6,405.5,260.9,410.3,263.9,409.1z"/>
	</g>
</g>
<g>
	<linearGradient id="SVGID_5_" gradientUnits="userSpaceOnUse" x1="56.6086" y1="933.8149" x2="5636.4712" y2="933.8149">
		<stop  offset="0" style="stop-color:#BA4B95"/>
		<stop  offset="1" style="stop-color:#2581C4;stop-opacity:0"/>
	</linearGradient>
	<path class="st4" d="M363.1,568.6c120.8-52.5,268.1-38.7,377.1,35.4c74.7,50.8,133.4,128.2,219.1,157.1
		c224,75.6,422.3-220.3,658.4-207c210.3,11.9,369.7,266.6,576,223.8c105.4-21.9,177.6-116,267.3-175.4
		c125.5-83.1,294.7-95.5,430.9-31.6c134,62.8,248.4,195.5,395.8,182.7c171.4-14.9,283.1-223.8,455.2-223.8
		c175.3,0,290.5,217.8,465.8,222.8c180.8,5.2,298.4-189.6,469.7-226c104.5-22.2,182.7,56.1,276.2,94.4c108,44.2,230.8,66.6,340.8,16
		c52.1-24,247.6-187.6,264-56.6c25.2,201.4,50.3,402.8,75.5,604.2c2.3,18.5,3.6,40-9.8,53c-9.6,9.3-23.9,11.1-37.2,12.5
		c-575,60.7-1153.4,121.6-1730.2,82.6c-149.6-10.1-298.7-26.9-448.5-33.5c-200.8-8.8-401.8,0.7-602.7,7.7
		c-899.3,31.1-1799.6,9.4-2698.6-29.2c-13.2-109.5-113.8-505.3,8.7-585.3c0,0,0,0,0,0c35.2-23,83.5-31.9,121.1-53.5
		C279.3,614.9,319,587.8,363.1,568.6z"/>
	<g>
		<linearGradient id="SVGID_6_" gradientUnits="userSpaceOnUse" x1="52.292" y1="933.7453" x2="5633.1543" y2="933.7453">
			<stop  offset="0" style="stop-color:#BA4B95"/>
			<stop  offset="1" style="stop-color:#2581C4;stop-opacity:0"/>
		</linearGradient>
		<path class="st5" d="M363.8,571c105-44.2,227.1-41.7,329.7,8.7c92.5,45.5,153.5,137.4,248.8,177.6
			c154.7,65.1,305.8-55.8,434-127.2c75.6-42.1,159.7-80.5,248.5-73c90.7,7.7,170.2,58.8,244.5,107.4
			c67.9,44.5,137.5,94.4,217.8,113.4c85.2,20.2,162.7-7.7,231.1-58.9c85.3-63.7,155.9-137.8,261.3-168.4
			c107.8-31.3,226-21.5,326.1,29.5c89.2,45.4,164.3,115.7,257.3,154.1c77.5,32,156.4,27.5,230.3-11.5
			c75.9-40.1,137.3-102,210.6-146.2c81.5-49.1,168.3-57.9,254.1-13.8c140.5,72.1,252.6,232.4,429.5,182
			c82.3-23.5,149.9-80.4,218.5-128.9c78-55.2,170.6-112.2,269.3-80.9c50,15.9,93.9,46.2,140.2,70.1c45,23.2,93.6,40.4,142.9,51.4
			c86.1,19.3,182.7,17.7,259.9-29.6c53.4-32.8,106.6-76,168.5-91.2c33.5-8.2,61.2,0.8,69.2,37.2c14,63.5,16.8,131.6,24.8,196.1
			c16.2,129.5,32.4,258.9,48.5,388.4c1.8,14.2,4.9,28.9,4.8,43.3c-0.3,32.3-18.9,43.3-45.9,46.7c-34.5,4.4-69.2,7.3-103.7,10.9
			c-65.6,6.9-131.2,13.7-196.8,20.3c-523.4,52.5-1046.7,84.7-1571.9,40.3c-131.2-11.1-262.3-22.6-394-25.2
			c-131.5-2.6-263.1,1.5-394.5,6.1c-264.1,9.4-528.2,16.2-792.4,18.3c-528.9,4.1-1057.8-6.9-1586.3-25.8
			c-132.1-4.7-264.3-9.9-396.4-15.5c-8.5-0.4-38.1,1.9-42.1-3.9c-1.7-2.4-1.4-9.6-1.8-12.3c-1.8-12.2-4-24.4-6.1-36.6
			c-5.6-31.8-11.5-63.6-16.8-95.5c-13.1-77.6-24.6-156.1-26-234.9c-1.1-59.8-0.8-141.2,44.2-187.4c29.1-29.9,74.9-37.7,111.9-53.9
			c51.9-22.7,97.1-58.5,149-81.8c2.9-1.3,0.4-5.6-2.5-4.3c-42.4,19.1-80.9,44.7-121.2,67.7c-37.5,21.4-80.8,29.8-118,51.5
			c-33.7,19.7-50,54.6-58.6,91.4c-25.7,109.8-3.7,231.6,14.4,341c8.8,53.1,20.4,106.1,27.1,159.5c0.2,1.4,1,2.4,2.5,2.5
			c488.1,20.9,976.4,36.9,1464.9,42.2c244.2,2.6,488.4,2.6,732.6-0.9c243.9-3.4,487.5-12.9,731.3-20c120.5-3.5,241.1-5.1,361.6-0.2
			c120.6,4.9,240.8,16.7,361,26.5c244.3,20,489.2,23.8,734.1,15c241.5-8.7,482.5-28.4,723-51.9c122.1-11.9,244.2-24.2,366.2-37.6
			c34.2-3.8,56.8-14.6,56.3-52.2c-0.8-57-13.9-116.2-21-172.8c-15.1-120.5-30.1-241-45.2-361.4c-3.6-28.7-6.4-57.7-10.8-86.3
			c-1.6-10.6-3.7-21.2-9.3-30.5c-8.7-14.5-23-21.6-39.7-22.3c-51.4-2.2-105.3,36.5-146.5,62.5c-21.5,13.6-42.4,28.7-64.8,40.8
			c-44.8,24.3-98.7,33.1-149.1,32.4c-108.7-1.5-204.4-45.7-297.5-97c-36.8-20.3-75.4-39.6-117.6-44.7c-39.3-4.8-78,4.8-114.2,19.8
			C4479.4,601,4364.8,765,4195,749.3c-161.1-14.9-252.6-185.5-407.7-217.3c-157.5-32.3-267,115.4-390.7,183.4
			c-85.3,46.9-174.1,44.8-260.5,1.4c-83.7-42.1-154.6-105.7-239.2-146.2c-80.3-38.4-171.8-50.7-259.6-37.5
			c-90.9,13.7-167.8,55.2-238,113.1c-72.7,60-146.1,131.3-246.3,134.1c-81.8,2.3-156.2-39.6-223.1-82
			c-127.5-80.9-254.4-178.5-413.8-134.7c-150.2,41.3-265.2,163-416.8,199.5c-94.7,22.8-175.8-10.4-248.6-71.2
			C780.1,632.8,716.8,573.8,625.7,549c-87.1-23.8-180.1-17.8-263.3,17.2C359.5,567.4,360.8,572.3,363.8,571z"/>
	</g>
</g>
<g>
	<linearGradient id="SVGID_7_" gradientUnits="userSpaceOnUse" x1="58.507" y1="1130.7764" x2="5571.7568" y2="1130.7764">
		<stop  offset="0" style="stop-color:#BA4B95"/>
		<stop  offset="1" style="stop-color:#2581C4;stop-opacity:0"/>
	</linearGradient>
	<path class="st6" d="M363.1,871.1c120.8-52.5,268.1-38.7,377.1,35.4c74.7,50.8,133.4,128.2,219.1,157.1
		c224,75.6,422.3-220.3,658.4-207c210.3,11.9,369.7,266.6,576,223.8c105.4-21.9,177.6-116,267.3-175.4
		c125.5-83.1,294.7-95.5,430.9-31.6c134,62.8,248.4,195.5,395.8,182.7c171.4-14.9,283.1-223.8,455.2-223.8
		c175.3,0,290.5,217.8,465.8,222.8c180.8,5.2,298.4-189.6,469.7-226c104.5-22.2,182.7,56.1,276.2,94.4c108,44.2,230.8,66.6,340.8,16
		c92.3-42.5,232.4-213.8,263.6-22.8c0,0,0,0.1,0,0.1c22.9,140.3,27.6,319.6-98.7,385c-40.6,21-87.7,24.8-133.4,28.2
		c-689.7,51-1382.3,102-2072.1,52.9c-215.8-15.4-432.8-40.5-647.8-15.8c-94.3,10.8-187.3,31.2-281.6,42.2
		c-103.7,12.1-208.4,13-312.8,13.8c-571.5,4.4-1142.9,8.9-1714.4,13.3c-65.2,0.5-135.2-0.4-188.7-37.6
		c-69.2-48.1-69.4-353.9,7-403.9c0,0,0,0,0,0c35.2-23,83.5-31.9,121.1-53.5C279.3,917.4,319,890.3,363.1,871.1z"/>
	<g>
		<linearGradient id="SVGID_8_" gradientUnits="userSpaceOnUse" x1="55.6201" y1="1131.1136" x2="5574.6885" y2="1131.1136">
			<stop  offset="0" style="stop-color:#BA4B95"/>
			<stop  offset="1" style="stop-color:#2581C4;stop-opacity:0"/>
		</linearGradient>
		<path class="st7" d="M363.8,873.5c101.5-42.7,218.5-41.8,319.1,3.8c93.2,42.2,153.5,130.1,244.2,175.6
			c147.3,73.8,295.3-31.2,419.6-103.3c73-42.4,151.6-84.8,237.6-90.2c87.5-5.5,167.1,33.8,239.5,78.6
			c129.3,80.2,273.2,202.5,432.4,123c87.8-43.8,150.1-124.6,235.9-171.7c95.8-52.5,211.5-67.1,317.6-41.9
			c101.2,24.1,180.9,89.4,267.1,143.6c71.6,45.1,152.4,81.6,238.8,63.6c161.2-33.5,258.6-222.3,431-219.7
			c170.5,2.6,266.2,189.4,428.3,219.1c171.3,31.3,292.3-130.5,431.9-197.2c46.8-22.3,97.6-36,149.3-24.4
			c49.6,11.1,93.2,39.1,137.1,63.4c89.2,49.2,194.3,82.9,297.1,73.7c43.1-3.8,86.3-15.4,124-36.9c29.8-17.1,56.9-38.7,85.1-58.2
			c25.6-17.7,54.8-38.7,86.4-42.9c42.5-5.7,60.1,34.3,68,69.5c18.4,82.1,24.6,177.3,4.9,259.6c-10,42-28.9,83.2-61.4,112.6
			c-43.3,39.2-100,48.7-156.3,53.2c-506.9,40.7-1016.1,75.4-1524.9,73.8c-253.4-0.8-505-16.4-757.6-34.9
			c-125.4-9.2-251.4-15.6-377.1-7.4c-123.2,8-243.5,36.6-366,50c-123.7,13.6-248.6,12.2-372.9,13.2c-128.4,1-256.8,2-385.2,3
			c-255,2-510,4-765,5.9c-128.4,1-256.8,2-385.2,3c-57,0.4-114.6,3.2-171.5-0.2c-45.2-2.7-110.8-10.9-138.9-51.7
			c-34.8-50.5-36.2-127.9-35.4-186.7c0.8-57.8,3.8-142.8,46.1-188c27.8-29.7,76.4-36.8,112.2-53c50.3-22.7,94.4-57.3,144.9-80
			c2.9-1.3,0.4-5.6-2.5-4.3c-55.7,25-104.2,64.1-160.8,86.6c-32.3,12.8-74.4,21.4-98.5,48.5c-36,40.4-42,108.5-45.2,159.8
			c-4,64-2,136.1,22.8,196.3c28.7,69.6,116.2,77.3,182.4,78.5c129.4,2.4,259.2-1.7,388.6-2.7c132-1,264-2.1,396-3.1
			c264-2.1,528.1-4.1,792.1-6.2c127.4-1,255.2,0.8,382.4-6.3c128.3-7.3,253-35.3,380.3-50.4c258.3-30.6,518.9,9,777,23
			c523.6,28.4,1048.2,2.7,1570.7-33.4c130.4-9,260.9-17.9,391.2-28.3c87.4-7,166.2-33.4,205.1-118c34.4-74.8,32.2-163.4,23.1-243.4
			c-5.1-45.2-8.6-141-71.6-144.3c-25.5-1.3-50.8,12.7-71.8,25.4c-30,18.1-57.6,40-86.6,59.7c-96.2,65.4-212.3,65.5-320.9,32.7
			c-54.1-16.4-102.9-41-152-68.5c-40.2-22.5-82.2-45.2-128.6-50.8c-83.7-10.2-163.6,40.5-229,86.4c-72.1,50.6-143,112-230.3,134.2
			c-93.2,23.7-175.2-13.7-249.9-67c-66.4-47.3-128.7-105.6-206.6-133.5c-73.3-26.4-146.8-11.9-212.9,26.3
			c-75.2,43.4-137.1,106.6-213.5,148.2c-92.7,50.5-186.8,40.9-277.7-9.2c-85.9-47.3-160.5-115-252.9-150.3
			c-93.6-35.8-199.4-37.9-294.9-8.2c-99.1,30.8-167.7,100-247.9,161.5c-43.8,33.6-92.6,62.2-148.4,68.8
			c-41.4,4.9-82.9-2.4-121.9-16.7c-155.7-57-277.7-213.6-454.1-210.8c-170.1,2.7-299.9,139.8-451.7,197.2
			c-86.7,32.7-174,29.3-252.1-23.7c-44.5-30.2-82.2-69.2-124.4-102.4c-37.6-29.5-79-52.8-124.5-67.7
			c-92.1-30.2-193.1-26.1-282.4,11.5C359.5,869.9,360.8,874.8,363.8,873.5z"/>
	</g>
</g>
<g>
	<linearGradient id="SVGID_9_" gradientUnits="userSpaceOnUse" x1="-27.5837" y1="537.7953" x2="5775.4136" y2="537.7953">
		<stop  offset="0" style="stop-color:#BA4B95"/>
		<stop  offset="1" style="stop-color:#2581C4;stop-opacity:0"/>
	</linearGradient>
	<path class="st8" d="M263.2-23.7C384-76.3,531.4-62.4,640.3,11.7C715,62.5,773.7,139.9,859.4,168.8c224,75.6,422.3-220.3,658.4-207
		c210.3,11.9,369.7,266.6,576,223.8c105.4-21.9,177.6-116,267.3-175.4c125.5-83.1,294.7-95.5,430.9-31.6
		c134,62.8,248.4,195.5,395.8,182.7c171.4-14.9,283.1-223.8,455.2-223.8c175.3,0,290.5,217.8,465.8,222.8
		c180.8,5.2,298.4-189.6,469.7-226c104.5-22.2,182.7,56.1,276.2,94.4c108,44.2,230.8,66.6,340.8,16c58.9-27.1,108-72.7,167.6-98.1
		c76.1-32.4,166.7-28.3,239.5,10.9c119.4,64.3,176,210.1,172.5,345.7s-56.3,264.3-108.4,389.6c-22.6,54.4-45.2,108.9-67.8,163.3
		c-15.7,37.8-31.8,76.2-58.1,107.4c-50.1,59.4-129.2,84.4-204.7,102.8c-549.7,134.6-1125.3,75.2-1690.6,47
		c-1174.3-58.4-2351.9,22.6-3526.7-24.1c-40.8-1.6-87.1-6.1-111.8-38.6c-16.4-21.5-18.9-50.1-20.7-77
		c-14.1-214.1-17.5-428.9-10.1-643.3c2.1-61.2-18.8-191.4,40.6-230.2C52,76.9,100.3,68,137.9,46.4C179.4,22.5,219.2-4.6,263.2-23.7z
		"/>
	<g>
		<linearGradient id="SVGID_10_" gradientUnits="userSpaceOnUse" x1="-30.0785" y1="538.7292" x2="5777.5195" y2="538.7292">
			<stop  offset="0" style="stop-color:#BA4B95"/>
			<stop  offset="1" style="stop-color:#2581C4;stop-opacity:0"/>
		</linearGradient>
		<path class="st9" d="M263.9-21.3C372.6-67,499.1-62.7,603.6-7.4C695.8,41.3,758.1,137,858.7,171.2c161.8,55,315.2-81.2,449-150.3
			c83.1-42.9,173.5-71.7,266.9-47.5c87.8,22.8,162.8,78.6,237.9,127.1c66.8,43.2,139.9,87.7,221.5,92c95.1,5,169.6-51.7,238.7-109.8
			c40.9-34.4,81.7-69.1,129.5-93.7c54.2-27.8,114.3-43.8,175.1-47.7c116-7.3,216.3,33.4,311.3,96.1
			c77.9,51.4,157.8,115.1,253.7,125.6c86.7,9.5,161.9-33.7,229.3-83.2c69.1-50.8,137.1-114.6,223-134.4
			c94.2-21.7,177.3,27.2,250.3,81.1c66.5,49.1,132.4,108.2,214.5,129c80.5,20.4,159.5-7.3,228-49.4
			C4366.5,57.6,4435.7-8.2,4522-44.9c51.7-22,104.6-29.2,158.6-10.6c52.7,18.2,98.6,51.1,148.6,75.3c93.3,45.2,206.9,71.7,309.6,47
			c117.3-28.2,196-134.6,321.7-139.4C5580.1-77,5680.6-4.4,5731.2,101c50.9,106.1,49.6,225.8,22.8,338.3
			c-29.3,122.7-83.6,238.7-131.8,354.7c-24.5,59-44.8,126.2-88.8,174.3c-39.3,43-94.9,66.3-149.6,82.6
			c-247.1,73.6-513.8,92.6-770.4,96.8c-263.6,4.3-527-12.4-790-27.3c-539-30.6-1078.3-34.6-1618-29.6
			c-543.7,5-1087.5,16.6-1631.3,8.1c-136.4-2.1-272.7-5.5-409-10.5c-57.6-2.1-143.9,5.2-167.8-62.1c-10.9-30.6-9.4-66.7-11.2-98.7
			c-2-34.4-3.8-68.9-5.2-103.3c-5.7-134-7.2-268.1-4.5-402.2c1-50.7,2.9-101,1.3-151.6c-1.3-41.6-3.3-86.3,10.7-126.1
			c19-54.2,78.1-63.1,125.3-83.2c52.8-22.6,98.6-59,151-82.7c2.9-1.3,0.4-5.6-2.5-4.3C202.4,0.9,150.7,42.2,89.4,65.2
			c-37,13.9-80.9,25.2-100.1,63.2c-16.3,32.2-17.5,71.6-17.6,106.9c-0.1,43.2,2.1,86.1,0.8,129.3c-4,139.8-3.5,279.7,1.5,419.5
			c2.5,68.9,3.6,138.9,11.1,207.5c4.4,40.2,19.7,73.6,59.4,88.5c50.8,19.1,113.2,13.1,166.3,15c71,2.4,142.1,4.4,213.1,6
			c140.2,3.2,280.4,4.9,420.6,5.5c280.5,1.3,561.1-1.5,841.6-4.9c559-6.7,1118.2-15.4,1677.1,2.6
			c540.1,17.4,1085.3,86.7,1624.7,25.5c127.4-14.4,255.5-35.2,379.3-69.1c50.4-13.8,101.3-31.9,142.8-64.5
			c40.3-31.6,63.8-75.2,83.6-121.5c50.2-117.3,103.3-235.5,142.9-356.9c34.8-106.7,54.8-220.9,29.1-331.9
			c-20.4-88.4-69-173.7-147.6-222.3c-92.8-57.4-207.3-51.5-299.4,3c-53.6,31.7-101.7,71.6-162.1,90.2
			c-63.5,19.6-131.6,17.4-195.9,3.1c-61-13.6-118.3-37-172.7-67.4c-42.9-23.9-86.1-50.6-134.8-60.6
			c-90.2-18.4-176.1,35.5-246.6,85.1c-76.7,54-153.6,120.9-249,137.3C3961.4,187.9,3857.5-32.3,3679-62
			c-184.8-30.7-292.1,174.7-456.4,214.9c-111.6,27.4-210.4-38.2-298.6-97.6c-87.7-59.1-174.6-110.1-282.4-118.5
			c-106.2-8.2-213.4,21.1-299.6,83.7c-86.8,62.9-162.7,157-276.6,166.7c-92.1,7.8-176.1-43-250.3-91
			c-75.4-48.8-150.8-104.8-239.1-127.6c-178.7-46.3-329.1,91.2-478.2,164.7c-85.5,42.2-180.7,64.7-270,19.4
			C730.5,103.4,667.7,9,563.8-30.9C467-68.2,358.1-66.3,262.6-26.2C259.6-24.9,260.9-20.1,263.9-21.3z"/>
	</g>
</g>
</svg>
