<?xml version="1.0" encoding="utf-8"?>
<!-- Generator: Adobe Illustrator 22.1.0, SVG Export Plug-In . SVG Version: 6.00 Build 0)  -->
<svg version="1.1" id="Слой_1" xmlns="http://www.w3.org/2000/svg" xmlns:xlink="http://www.w3.org/1999/xlink" x="0px" y="0px"
	 viewBox="0 0 111.6 114.5" style="enable-background:new 0 0 111.6 114.5;" xml:space="preserve">
<style type="text/css">
	.st0{fill:#F9D7E4;}
	.st1{fill:#FFFFFF;}
</style>
<g>
	<path class="st0" d="M22.5,73.2c-2.4-0.9-5-1.9-6.6-3.9c-1.6-2-1.8-5.4,0.3-6.9c1.8-1.2,4.3-0.6,5.9,0.8c1.6,1.4,2.5,3.5,3.3,5.5
		c1.5-3.4,4.3-7.4,7.9-6.4c2.4,0.7,3.6,3.5,3.2,5.9c-0.4,2.4-1.9,4.5-3.6,6.4c1.3,0.2,2.7,0.5,3.8,1.3c3.1,2.3,1.7,8-2,9.2
		c-3.7,1.2-7.8-1.4-9.3-5c-3,1.2-6,2.3-9.1,3c-0.7,0.2-1.4,0.3-2.1,0.2c-1.6-0.3-2.6-2.1-2.7-3.7c-0.3-4.5,5.2-8.2,9.3-6.4"/>
	<g>
		<path class="st0" d="M23.8,68.4c-0.4-0.2-3.9-2.4-4.1-2.5c-2.4-0.2,0.6,3.5,0.9,4.1c1.5,3.5,7,5.5,9.1,1.2
			c0.8-1.6,1.7-2.8,2.8-4.2c-1-0.3-1.5,0.2-1.2,1.4c-0.5,0.9-1.1,1.8-1.9,2.6c-2.3,2.6-1.8,7.5,2.2,8.4c0.7,0.5,1.3,0.4,1.9,0
			c0,0.4-0.1,0.7-0.3,1c-1.8,0-2.6-1.3-3.4-2.7c-0.9-1.8-3.7-3.1-5.6-2.3c-2.5,1-5.1,1.6-7.6,2.6c-0.5,0.1-1,0.3-1.6,0.4
			c0.6,0.1,1.2,0.3,1.8,0.4c1.6-0.3,0.8-1.3,2.7-0.6c6.1,2,8.8-7.6,2.7-9.6C14.6,65.9,5.8,72,6.6,80.2c1.1,11.5,13.2,7.5,20.2,4.7
			c-1.9-0.8-3.8-1.5-5.6-2.3c3.6,7.2,13.7,10.9,19.6,4.1c5.9-6.7,1.5-15.4-6.5-17c0.7,2.8,1.5,5.6,2.2,8.4
			c4.6-5.3,8.1-14.2,0.9-19.3C30.6,54,24,60.1,21.1,66.1c3,0.4,6.1,0.8,9.1,1.2c-1.7-4-3.6-8-7.8-9.8c-3.8-1.6-8.3-0.9-10.9,2.5
			c-6.2,8.1,2.7,15.3,9.6,18C27.1,80.3,29.7,70.7,23.8,68.4L23.8,68.4z"/>
	</g>
</g>
<g>
	<g>
		<path class="st1" d="M24.5,79.7c9.7,0,9.7-15,0-15C14.8,64.7,14.8,79.7,24.5,79.7L24.5,79.7z"/>
	</g>
</g>
<g>
	<path class="st0" d="M79,91.3c-2.4-0.9-5-1.9-6.6-3.9c-1.6-2-1.8-5.4,0.3-6.9c1.8-1.2,4.3-0.6,5.9,0.8c1.6,1.4,2.5,3.5,3.3,5.5
		c1.5-3.4,4.3-7.4,7.9-6.4c2.4,0.7,3.6,3.5,3.2,5.9c-0.4,2.4-1.9,4.5-3.6,6.4c1.3,0.2,2.7,0.5,3.8,1.3c3.1,2.3,1.7,8-2,9.2
		c-3.7,1.2-7.8-1.4-9.3-5c-3,1.2-6,2.3-9.1,3c-0.7,0.2-1.4,0.3-2.1,0.2c-1.6-0.3-2.6-2.1-2.7-3.7c-0.3-4.5,5.2-8.2,9.3-6.4"/>
	<g>
		<path class="st0" d="M80.3,86.5c-0.4-0.2-3.9-2.4-4.1-2.5c-2.4-0.2,0.6,3.5,0.9,4.1c1.5,3.5,7,5.5,9.1,1.2
			c0.8-1.6,1.7-2.8,2.8-4.2c-1-0.3-1.5,0.2-1.2,1.4c-0.5,0.9-1.1,1.8-1.9,2.6c-2.3,2.6-1.8,7.5,2.2,8.4c0.7,0.5,1.3,0.4,1.9,0
			c0,0.4-0.1,0.7-0.3,1c-1.8,0-2.6-1.3-3.4-2.7c-0.9-1.8-3.7-3.1-5.6-2.3c-2.5,1-5.1,1.6-7.6,2.6c-0.5,0.1-1,0.3-1.6,0.4
			c0.6,0.1,1.2,0.3,1.8,0.4c1.6-0.3,0.8-1.3,2.7-0.6c6.1,2,8.8-7.6,2.7-9.6c-7.5-2.5-16.4,3.6-15.6,11.8c1.1,11.5,13.2,7.5,20.2,4.7
			c-1.9-0.8-3.8-1.5-5.6-2.3c3.6,7.2,13.7,10.9,19.6,4.1c5.9-6.7,1.5-15.4-6.5-17c0.7,2.8,1.5,5.6,2.2,8.4
			c4.6-5.3,8.1-14.2,0.9-19.3c-6.8-4.8-13.4,1.3-16.3,7.3c3,0.4,6.1,0.8,9.1,1.2c-1.7-4-3.6-8-7.8-9.8c-3.8-1.6-8.3-0.9-10.9,2.5
			c-6.2,8.1,2.7,15.3,9.6,18C83.7,98.4,86.3,88.8,80.3,86.5L80.3,86.5z"/>
	</g>
</g>
<g>
	<g>
		<path class="st1" d="M81,97.8c9.7,0,9.7-15,0-15C71.3,82.8,71.3,97.8,81,97.8L81,97.8z"/>
	</g>
</g>
<g>
	<path class="st0" d="M71.9,39.3c-2.4-0.9-5-1.9-6.6-3.9s-1.8-5.4,0.3-6.9c1.8-1.2,4.3-0.6,5.9,0.8c1.6,1.4,2.5,3.5,3.3,5.5
		c1.5-3.4,4.3-7.4,7.9-6.4c2.4,0.7,3.6,3.5,3.2,5.9s-1.9,4.5-3.6,6.4c1.3,0.2,2.7,0.5,3.8,1.3c3.1,2.3,1.7,8-2,9.2
		c-3.7,1.2-7.8-1.4-9.3-5c-3,1.2-6,2.3-9.1,3c-0.7,0.2-1.4,0.3-2.1,0.2C62,49,61.1,47.3,61,45.6c-0.3-4.5,5.2-8.2,9.3-6.4"/>
	<g>
		<path class="st0" d="M73.2,34.4c-0.4-0.2-3.9-2.4-4.1-2.5c-2.4-0.2,0.6,3.5,0.9,4.1c1.5,3.5,7,5.5,9.1,1.2
			c0.8-1.6,1.7-2.8,2.8-4.2c-1-0.3-1.5,0.2-1.2,1.4c-0.5,0.9-1.1,1.8-1.9,2.6c-2.3,2.6-1.8,7.5,2.2,8.4c0.7,0.5,1.3,0.4,1.9,0
			c0,0.4-0.1,0.7-0.3,1c-1.8,0-2.6-1.3-3.4-2.7c-0.9-1.8-3.7-3.1-5.6-2.3c-2.5,1-5.1,1.6-7.6,2.6c-0.5,0.1-1,0.3-1.6,0.4
			c0.6,0.1,1.2,0.3,1.8,0.4c1.6-0.3,0.8-1.3,2.7-0.6c6.1,2,8.8-7.6,2.7-9.6c-7.5-2.5-16.4,3.6-15.6,11.8c1.1,11.5,13.2,7.5,20.2,4.7
			c-1.9-0.8-3.8-1.5-5.6-2.3c3.6,7.2,13.7,10.9,19.6,4.1c5.9-6.7,1.5-15.4-6.5-17c0.7,2.8,1.5,5.6,2.2,8.4
			c4.6-5.3,8.1-14.2,0.9-19.3c-6.8-4.8-13.4,1.3-16.3,7.3c3,0.4,6.1,0.8,9.1,1.2c-1.7-4-3.6-8-7.8-9.8c-3.8-1.6-8.3-0.9-10.9,2.5
			c-6.2,8.1,2.7,15.3,9.6,18C76.6,46.4,79.2,36.7,73.2,34.4L73.2,34.4z"/>
	</g>
</g>
<g>
	<g>
		<path class="st1" d="M73.9,45.8c9.7,0,9.7-15,0-15C64.3,30.8,64.2,45.8,73.9,45.8L73.9,45.8z"/>
	</g>
</g>
</svg>
