<?xml version="1.0" encoding="utf-8"?>
<!-- Generator: Adobe Illustrator 22.1.0, SVG Export Plug-In . SVG Version: 6.00 Build 0)  -->
<svg version="1.1" xmlns="http://www.w3.org/2000/svg" xmlns:xlink="http://www.w3.org/1999/xlink" x="0px" y="0px"
	 viewBox="0 0 757.6 951.5" style="enable-background:new 0 0 757.6 951.5;" xml:space="preserve">
<style type="text/css">
	.st0{display:none;}
	.st1{display:inline;}
	.st2{fill:#FFFFFF;}
	.st3{fill:url(#SVGID_1_);}
	.st4{fill:url(#SVGID_2_);}
</style>
<g id="Слой_3">
	<g class="st0">
		<g class="st1">
			<path class="st2" d="M-496.3-653.3c5.8,0,5.8-9,0-9C-502.1-662.3-502.1-653.3-496.3-653.3L-496.3-653.3z"/>
		</g>
	</g>
	<g id="Слой_5">
	</g>
</g>
<g id="Слой_2">
</g>
<g id="Слой_1">
</g>
<g id="Слой_4">
	<g>
		<linearGradient id="SVGID_1_" gradientUnits="userSpaceOnUse" x1="39.5905" y1="475.7576" x2="724.0459" y2="475.7576">
			<stop  offset="0" style="stop-color:#763FF5"/>
			<stop  offset="8.104094e-02" style="stop-color:#7248F2"/>
			<stop  offset="0.2158" style="stop-color:#6862E9"/>
			<stop  offset="0.3876" style="stop-color:#578BDB"/>
			<stop  offset="0.5674" style="stop-color:#43BEC9"/>
			<stop  offset="0.8652" style="stop-color:#E828CB"/>
			<stop  offset="0.9944" style="stop-color:#FF1E44"/>
		</linearGradient>
		<path class="st3" d="M336.5,637.6c-13.7,20.9-5.7,49.5,8.4,70.2c14.1,20.7,33.6,37.5,45.4,59.6c13.4,25.2,15.4,54.8,13.8,83.3
			c-1.1,19.5-4.3,39.9-16,55.5c-7.6,10.1-18.3,17.5-29.8,22.9c-56.3,26.1-126.2,0.1-167-46.7c-22-25.2-37.9-56.9-39.8-90.3
			c-1.4-24.6,4.5-50.6-5-73.4c-11.6-28-42.1-42-67.2-59c-25.1-17-48.6-47.6-36.2-75.3c17-38.1,81.4-29.1,103-64.7
			c15-24.7,0.9-56.6-16.6-79.6s-39.4-45.7-41-74.6c-0.7-13.2,4.2-27.8,16-34c9-4.7,19.8-3.5,29.9-2.2c19.5,2.6,39.1,5.1,58.6,7.7
			c6.8,0.9,13.8,1.8,20.4-0.2c9.2-2.7,15.9-10.3,21.4-18.2c20.9-30.2,29-68.9,22-105c-6.3-32.2-23.7-61.1-31.6-92.9
			s-2.9-71.2,25.1-88.2c8.3-5.1,17.9-7.6,27.3-9.8c31.2-7.2,63.2-10.7,95.2-10.5c38.8,0.2,85.3,11.9,96.9,49
			c5.4,17.2,1.6,36.5,8.4,53.2c7.8,19.2,28,30.7,48.2,35.1c20.2,4.4,41.2,3.1,61.8,4.7c30.7,2.4,61.7,11.6,85.5,31.1
			s39.6,50.3,36.2,80.9c-4.2,38.2-35.6,68.6-43.2,106.3c-6.8,33.8,6.3,68.2,21.4,99.1s32.8,61.9,35.8,96.2s-13.9,73.5-47,82.8
			c-23.2,6.5-48.2-3.1-67.8-17.2c-19-13.6-34.9-31.4-46.5-51.6c-17.4-30.1-25.2-64.7-37.1-97.4c-11.9-32.7-29.6-65.5-59.7-83
			c-30.1-17.5-74.8-13.1-92.5,16.9c-14.7,24.9-6.2,57.6,10,81.6c16.1,24,38.9,42.9,56,66.2c17.7,24.2,29.1,53,32.6,82.7
			c1.3,11,1.1,23.4-6.4,31.5c-5.3,5.7-13.3,8.1-21.1,9.4c-39.9,6.7-82.9-11.3-106.1-44.5"/>
		<g>
			<linearGradient id="SVGID_2_" gradientUnits="userSpaceOnUse" x1="39.0905" y1="475.6046" x2="724.5459" y2="475.6046">
				<stop  offset="0" style="stop-color:#763FF5"/>
				<stop  offset="8.104094e-02" style="stop-color:#7248F2"/>
				<stop  offset="0.2158" style="stop-color:#6862E9"/>
				<stop  offset="0.3876" style="stop-color:#578BDB"/>
				<stop  offset="0.5674" style="stop-color:#43BEC9"/>
				<stop  offset="0.8652" style="stop-color:#E828CB"/>
				<stop  offset="0.9944" style="stop-color:#FF1E44"/>
			</linearGradient>
			<path class="st4" d="M334.3,636.3c-15.4,24.5-4.4,55.4,11.3,76.8c9,12.3,19.6,23.4,29,35.4c10.2,12.9,18,27,22.3,42.9
				c4.3,15.9,5.4,32.4,5,48.8c-0.4,15.5-1.5,31.3-6.4,46.1c-10,29.7-39.7,45.5-69.3,49.6c-55.9,7.7-112.3-24.3-144.1-68.9
				c-18.4-25.8-28.9-55.4-28.4-87.2c0.2-15.8,1.9-31.7-0.8-47.4c-2.3-13.4-8.6-25.3-17.7-35.2c-18.7-20.3-45.4-30.1-65.8-48.1
				c-19.6-17.3-38.6-47.9-18.7-72.2c13.3-16.1,36.2-20.7,55-27.3c19.2-6.7,39-16.3,46.4-36.7c9.8-26.9-6.8-56.2-22.8-76.9
				c-17-22-41.1-47-38.2-77.2c0.7-7,3.1-14.2,7.8-19.5c5.4-6.1,13-8.4,21-8.5c8.4-0.1,16.9,1.5,25.3,2.6c8.8,1.1,17.6,2.3,26.4,3.4
				c9,1.2,18,2.6,27.1,3.5c7.2,0.7,14.4,0.3,20.9-3.1c11.9-6.2,19.9-19.6,25.9-31.2c13.7-26.1,19-56.4,15-85.5
				c-4.5-32.5-21.4-61.3-30.7-92.5c-7.3-24.5-8.8-53.6,5-76.2c7.7-12.6,19.6-19.9,33.5-24c17.1-5,35.1-7.9,52.8-10
				c29.4-3.5,60.5-5.5,89.5,1.2c22.9,5.3,47.2,17.1,55.8,40.6c5.5,14.9,3.3,31.2,6.5,46.6c2.8,13.1,10.2,24,20.9,32
				c25.8,19.3,59.1,16.7,89.6,18.5c31.6,1.9,64.3,10.6,89,31.2c22.6,18.8,37.9,48,35,77.9c-2.9,29.3-22.1,53.7-34.1,79.7
				c-5.9,12.9-10.1,26.4-10.9,40.7c-0.9,16.1,2.2,32.3,7.1,47.6c18,56,69.9,113.3,46.2,175.3c-10.2,26.6-33.9,45-63.2,40.8
				c-31.5-4.5-59.1-28.2-77.4-53c-37.5-50.6-37.9-118.8-76.5-168.9c-15.5-20.1-36.8-35.5-62.5-38.5c-22.2-2.6-46.9,3.9-61.2,22
				c-17.3,22-13.4,52.3-1.9,76.1c13.7,28.4,38.9,48.9,58.5,73c20.6,25.4,34.2,56.7,37.8,89.2c0.8,7,1,14.5-1.3,21.2
				c-2.9,8.4-10,13-18.3,15.2c-13.6,3.6-28.6,3.4-42.3,0.7c-26.8-5.2-51.3-20.4-67.2-42.7c-1.8-2.6-6.2-0.1-4.3,2.5
				c15.9,22.3,39.9,38.1,66.6,44.2c12.9,3,26.3,3.7,39.4,1.8c13.6-1.9,26.7-7,31.1-21.2c4.3-13.8,0.7-30.1-2.6-43.7
				c-3.7-15.3-9.5-30.2-17.1-44c-16.1-29.3-41.9-50.5-62-76.7c-18.1-23.6-32.6-58.5-16.4-86.9c12.9-22.6,41.5-29.8,65.7-25.3
				c29,5.4,50.6,27.6,64.9,52.2c16.2,27.8,24.1,59.1,34.4,89.3c10.4,30.4,24.4,59.2,47.5,82.1c20.9,20.8,50.3,39.9,81.1,36.2
				c25.5-3,43.8-22.7,52.3-46c10.1-27.6,5.2-56.7-5.1-83.5c-12.2-31.8-31.2-60.6-41.6-93.2c-5.3-16.6-8.5-34.2-6.4-51.6
				c1.8-15.6,8.1-30.1,15.3-43.9c13-24.9,29.7-49.7,29.6-78.9c-0.1-28.7-15.5-56.2-37.4-74.1c-24.1-19.7-55-29.1-85.6-31.7
				c-32.1-2.7-69.3,2.3-95.8-20.2c-13.3-11.2-17-26.1-18.1-42.9c-1-14.2-1.9-28.4-9.5-40.9c-12.4-20.3-36-30.3-58.4-34.8
				c-30.2-6.1-62.3-3.8-92.6,0.2c-16.8,2.2-33.9,5-50.1,10c-12.8,3.9-24,10.7-32,21.5c-14.8,20-16.4,47.6-11.7,71.3
				c6.5,32.9,24.9,62,32.1,94.7c6.9,31.3,2.1,64.9-12.9,93.2c-7.2,13.6-17.5,30.6-34.6,31.4c-8.9,0.4-18-1.6-26.8-2.7
				c-9.1-1.2-18.2-2.4-27.3-3.6c-15.1-2-33.5-7.1-48-0.1c-11.2,5.4-16.7,17.8-17.8,29.6c-2.7,29.1,18.4,53.8,35.2,75.1
				c17.7,22.4,40.1,56.7,22.3,85.2c-11.7,18.7-35.8,24.5-55.4,31.1c-18.9,6.4-39.8,14.7-48,34.5c-10.9,26.4,8.4,53.7,27.9,69.9
				c21.1,17.6,48.3,27.6,66.2,49.2c22.8,27.5,11.5,62.6,15.1,94.9c6.5,57.7,49.9,108.3,102.3,130.8c24.5,10.5,51.8,15.2,78.3,10.9
				c27.7-4.5,56.1-19.3,67.7-46.1c5.9-13.7,7.9-28.7,8.7-43.5c1-16.2,0.7-32.6-2.1-48.7c-2.8-15.8-8.3-31-17.1-44.4
				c-8.3-12.8-18.8-24-28.5-35.6c-18.3-22-37.8-55-20.2-83.1C340.4,636.1,336.1,633.6,334.3,636.3L334.3,636.3z"/>
		</g>
	</g>
</g>
</svg>
