<?xml version="1.0" encoding="utf-8"?>
<!-- Generator: Adobe Illustrator 22.1.0, SVG Export Plug-In . SVG Version: 6.00 Build 0)  -->
<svg version="1.1" id="Layer_1" xmlns="http://www.w3.org/2000/svg" xmlns:xlink="http://www.w3.org/1999/xlink" x="0px" y="0px"
	 viewBox="0 0 435.3 272" style="enable-background:new 0 0 435.3 272;" xml:space="preserve">
<style type="text/css">
	.st0{fill:none;stroke:#000000;stroke-miterlimit:10;}
	.st1{stroke:#000000;stroke-miterlimit:10;}
</style>
<ellipse class="st0" cx="172" cy="109.7" rx="64" ry="39.5"/>
<ellipse class="st0" cx="203.5" cy="101.9" rx="23.5" ry="7.8"/>
<ellipse class="st0" cx="137.4" cy="101.9" rx="21.6" ry="7.8"/>
<circle class="st1" cx="205.2" cy="101.6" r="7.2"/>
<circle class="st1" cx="137.4" cy="101.9" r="7.2"/>
<line class="st0" x1="169.5" y1="129.2" x2="169.5" y2="112.2"/>
<line class="st0" x1="151" y1="129.2" x2="191" y2="129.2"/>
<line class="st0" x1="125" y1="82.9" x2="130.2" y2="44.8"/>
<line class="st0" x1="151" y1="72.4" x2="130.2" y2="44.8"/>
<line class="st0" x1="187.7" y1="71.4" x2="205.2" y2="44.8"/>
<line class="st0" x1="214.6" y1="80.2" x2="205.2" y2="44.8"/>
<line class="st1" x1="137.4" y1="142.9" x2="160.3" y2="230.1"/>
<line class="st1" x1="223.2" y1="133.4" x2="212.4" y2="238.2"/>
<line class="st1" x1="180" y1="171.2" x2="196.5" y2="237.2"/>
<line class="st1" x1="172" y1="235.2" x2="180" y2="171.2"/>
<path class="st1" d="M157.9,229.2c-1.6,6.1-3.2,12.2-4.9,18.3c3.8-2.6,7.1-6.1,9.5-10.1c-0.7,5.1,0,10.3,1.9,15.1
	c2.3-3.6,3.8-7.7,4.4-11.9c3.1,3.7,5.8,7.6,8.3,11.8c1.9,0,1.9-2.8,1.3-4.6c-2.1-5.9-4.2-11.7-6.2-17.6"/>
<path class="st1" d="M197,237.2c-3,8.3-5.2,16.8-6.5,25.5c4.3-5.8,8.6-11.6,12.9-17.3c0.1,5.6,2,11.2,5.3,15.7c0.5-4.6,2-9,4.4-12.9
	c3.1,4.6,6.2,9.3,9.4,13.9c-1.4-9.6-4.9-18.9-10.1-27.1"/>
<line class="st0" x1="169.5" y1="112.2" x2="176" y2="109.1"/>
<circle class="st0" cx="101.6" cy="159.5" r="6.4"/>
<line class="st0" x1="48.3" y1="136.6" x2="66.6" y2="142.1"/>
<line class="st0" x1="55.6" y1="148.7" x2="58.5" y2="130.5"/>
<path class="st0" d="M43.4,175.9c-1.1,2.7-0.3,6.1,1.9,8c2.2,1.9,5.7,2.2,8.2,0.6c2.6-1.6,4.1-4.8,6.9-6c3-1.2,6.6,0.6,8.5,3.2
	s2.5,5.9,3.1,9.1"/>
<line class="st0" x1="223.2" y1="133.4" x2="269.3" y2="105.3"/>
<line class="st0" x1="330" y1="132" x2="269.3" y2="105.3"/>
<line class="st0" x1="217.8" y1="185.8" x2="282.7" y2="170"/>
<line class="st0" x1="330" y1="132" x2="324" y2="234.9"/>
<line class="st0" x1="282.7" y1="170" x2="310.7" y2="234.9"/>
<line class="st0" x1="257.8" y1="176" x2="262" y2="229.2"/>
<line class="st0" x1="275.3" y1="229.2" x2="282.7" y2="170"/>
<line class="st0" x1="330" y1="132" x2="381.3" y2="139.6"/>
<line class="st0" x1="367.3" y1="47.3" x2="330" y2="132"/>
<line class="st0" x1="381.3" y1="139.6" x2="409.3" y2="104.7"/>
<line class="st0" x1="367.3" y1="47.3" x2="415.3" y2="18"/>
<line class="st0" x1="409.3" y1="104.7" x2="415.3" y2="18"/>
<path class="st1" d="M310,234.7c-2,6.8-3.8,13.6-5.6,20.4c3.2-3.5,6.8-6.6,10.7-9.4c0.9,5.3,2.9,10.4,6,14.8
	c1.6-4.4,3.2-8.8,4.9-13.1c2.9,3.7,5.9,7.4,8.8,11c1-2.3,0.1-5-0.9-7.3c-2.3-5.6-4.5-11.3-6.8-16.9c-0.2-0.5-0.4-1-0.9-1.3
	c-0.4-0.3-1-0.2-1.5-0.1c-5.2,0.8-10.6,3.2-15.6,1.4"/>
<path class="st1" d="M261.7,227.5c-4,10-11.4,18.8-13,29.5c5-3.9,10-7.7,15-11.6c0.3-0.3,0.8-0.5,1.2-0.4c0.3,0.1,0.4,0.5,0.5,0.8
	c1.5,4.3,3.1,8.5,4.6,12.8c2.1-4.5,3.8-9.3,4.9-14.2c3.5,3.6,6.9,7.2,10.4,10.8c-1.5-9.3-4.3-18.5-8.1-27.1"/>
<line class="st0" x1="176" y1="109.1" x2="165.9" y2="94.7"/>
<line class="st0" x1="367.3" y1="47.3" x2="409.3" y2="104.7"/>
<circle class="st0" cx="374.1" cy="214.3" r="6.4"/>
<line class="st0" x1="391.1" y1="166.8" x2="386" y2="185.2"/>
<line class="st0" x1="379.2" y1="174.4" x2="397.5" y2="176.9"/>
<path class="st0" d="M358.4,153.3c-2.7-1.1-6.1-0.3-8,1.9c-1.9,2.2-2.2,5.7-0.6,8.2c1.6,2.6,4.8,4.1,6,6.9c1.2,3-0.6,6.6-3.2,8.5
	s-5.9,2.5-9.1,3.1"/>
</svg>
