<?xml version="1.0" encoding="utf-8"?>
<!-- Generator: Adobe Illustrator 22.1.0, SVG Export Plug-In . SVG Version: 6.00 Build 0)  -->
<svg version="1.1" id="Layer_1" xmlns="http://www.w3.org/2000/svg" xmlns:xlink="http://www.w3.org/1999/xlink" x="0px" y="0px"
	 viewBox="0 0 515.5 284.7" style="enable-background:new 0 0 515.5 284.7;" xml:space="preserve">
<style type="text/css">
	.st0{fill:none;stroke:#000000;stroke-miterlimit:10;}
	.st1{fill:#FFFFFF;stroke:#000000;stroke-miterlimit:10;}
</style>
<path class="st0" d="M201.2,113.4"/>
<path class="st0" d="M296.2,112.4"/>
<g>
	<path d="M100.6,265c-9.8-9.3-20.4-20.5-19.4-34c0.7-8.9,6.6-16.9,6.1-25.8c-0.4-7.8-5.6-14.5-10.9-20.3c-2.7-2.9-5.6-6-6.6-9.8
		c-2.2-8.7,5.9-16.3,13.4-21.2c9.2-5.9,18.8-11.1,28.8-15.5c-0.4,7.1-10.1,8.7-15.1,13.7c-7.1,6.9-3.8,18.9,1.1,27.5
		c4.9,8.6,11.2,17.9,8.7,27.5c-0.9,3.4-2.9,6.5-3.3,10c-1.1,8.9,7.9,15.9,9.5,24.7c1.1,5.9-1.4,12.1-5.5,16.5
		c-4.1,4.4-9.7,7.1-15.4,9.1"/>
	<g>
		<path d="M102.3,263.3c-9.1-8.7-20.4-19.7-18.4-33.6c0.9-6.5,4.3-12.4,5.5-18.9c1-5.5,0.1-10.8-2.4-15.7
			c-2.6-5.2-6.6-9.3-10.4-13.6c-5.6-6.3-5.8-12.6,0-19c4.7-5.2,11.2-8.7,17.2-12.1c6.3-3.6,12.8-6.9,19.5-9.8
			c-1.2-0.9-2.4-1.9-3.7-2.8c-0.8,5.8-8,7.6-12.2,10.6c-3.9,2.9-6.4,6.8-7,11.7c-1.7,13.5,8.7,23.3,12.9,35.1
			c1.3,3.6,1.9,7.5,1,11.3c-0.8,3.2-2.6,6-3.2,9.3c-1,5.2,1,9.9,3.5,14.4c3.6,6.3,7.8,12.3,5.1,19.8c-2.9,8-10.8,12.3-18.3,15
			c-3,1.1-1.7,5.9,1.3,4.8c11.9-4.2,24.9-13.5,22.7-27.9c-0.9-5.8-4.5-10.4-7.2-15.4c-2-3.8-3-7.2-1.7-11.5c1-3.2,2.6-6,3.1-9.3
			c2.1-14.7-11.3-25.2-13.9-38.8c-0.7-3.7-0.6-8,1.6-11.2c1.9-2.8,5.1-4.3,8-6c4.2-2.4,8.4-5.2,9.1-10.4c0.3-2.2-1.6-3.8-3.7-2.8
			c-7.8,3.5-15.3,7.3-22.6,11.7c-5.8,3.4-11.7,7-16.1,12.2c-3.5,4.2-5.9,9.4-4.8,14.9c1.3,6.3,6.6,10.5,10.5,15.2
			c5.5,6.7,8.4,13.7,6.1,22.4c-1.9,7.1-5.6,13.8-5.2,21.4c0.7,13.5,10.9,24,20.1,32.7C101.1,269,104.7,265.5,102.3,263.3
			L102.3,263.3z"/>
	</g>
</g>
<g>
	<path d="M48.3,275.5c7.8-3.6,12-13.7,8.9-21.7c-2.9-7.6-10.6-12.2-16.1-18.2c-1-1.1-1.9-2.2-2.3-3.6c-0.9-3.2,1.2-6.4,3.2-9.1
		c5.7-7.7,11.3-16.9,9.5-26.4c-2.2-11.6-14.2-18.3-25.2-22.6c7.1,7.8,8.3,20.5,2.6,29.5c-1,1.7-2.3,3.3-2.8,5.2
		c-0.8,3.5,1.4,7,1.5,10.6c0.2,7.1-7.3,12-9,18.9c-1.6,6.8,3,13.7,8.7,17.8c4.1,2.9,9.6,6.1,9.2,11.1c-0.2,2.4-1.7,4.5-1.7,6.9
		c0.1,2.4,3.6,4.4,4.7,2.3"/>
	<g>
		<path d="M49.5,277.6c8.5-4.4,13.2-14.7,10.3-23.9c-1.7-5.2-5.6-9.3-9.5-12.9c-2.1-2-4.5-3.8-6.4-6c-2.4-2.7-3.4-3.8-1.5-7.9
			c0.7-1.5,2-2.9,2.9-4.2c6.7-9.4,12.4-21.2,6.8-32.5c-4.8-9.7-15.4-14.9-25-18.7c-2.5-1-3.9,2.5-2.4,4.2c4.5,5.2,6.4,12.3,5.1,19.1
			c-1,5.2-5.1,8.8-6,13.8c-0.5,2.9,0.5,5.4,1.1,8.2c0.8,3.7-0.3,6.4-2.3,9.5c-2.6,4.1-5.9,7.8-6.5,12.9c-0.5,4.8,1.3,9.4,4.2,13.1
			c3.4,4.4,8.7,6.4,12.2,10.5c3.9,4.6-2.1,9.4,1.2,14.1c1.9,2.6,5.6,3.5,7.8,0.9c2.1-2.4-1.5-6-3.5-3.5c-0.4,0.5,0.9-5,0.9-5.3
			c0.2-0.7,0.3-1.4,0.3-2.1c0.1-1.8-0.4-3.6-1.3-5.2c-2.1-3.6-5.9-5.6-9.1-8c-4.9-3.7-9.4-9.8-7.1-16.2c1.6-4.6,5.5-7.9,7.4-12.4
			c1.8-4.2,1.1-7.6,0.1-11.9c-1.3-5.7,3.7-10.2,5.1-15.7c2.3-9-0.1-18.4-6.1-25.4c-0.8,1.4-1.6,2.8-2.4,4.2
			c8.8,3.5,19.4,8.6,22.8,18.3c2.2,6.2,0.1,12.8-2.9,18.3c-2.5,4.7-6.7,8.7-8.6,13.6c-3.4,9,7,14.9,12.4,20.3
			c3.9,3.9,6.8,8.5,6.2,14.2c-0.6,5.4-3.8,9.9-8.6,12.3C44.1,274.8,46.7,279.1,49.5,277.6L49.5,277.6z"/>
	</g>
</g>
<g>
	<path d="M243.9,260.6c-20.5-4.8-40.8-12.6-56.7-26.4s-26.8-34.3-25.5-55.3c0.9-13.8,9.5-28.9,23.3-29.9c4.9-0.4,9.7,1.1,14.1,3.2
		c10.5,5,19.1,13.8,24,24.4c-2.3-10.5-0.9-23.1,7.8-29.4c5.1-3.7,11.8-4.5,18.1-4.2c23.2,1.3,45.5,18.9,48.8,41.8
		c-4.3-16.1,12.7-32.5,29.3-30.9c16.6,1.6,23.5,1.2,26.2,17.6c2.7,16.4-0.8,47-14.1,57c-15.3,11.5-37.4,24.8-52.8,34.1"/>
	<g>
		<path d="M244.6,258.2c-33.5-7.9-69.5-25.9-78.7-62.1c-3.6-14.2-2.2-34.7,12.5-42.5c16.7-8.9,36,10.7,42.6,24.4
			c1.3,2.7,5.1,0.7,4.6-1.9c-1.8-8.8-1.4-20,6-26.2c7.8-6.5,20.4-4.9,29.4-2.1c17.3,5.4,31.5,19.6,34.5,37.8
			c1.6-0.4,3.2-0.9,4.8-1.3c-3.4-14.8,11.2-28.3,25.5-27.9c5.3,0.2,11.3,0.5,16.4,2.2c4.5,1.5,6.6,4.9,7.9,9.3
			c3.1,11.1,2,24.1-0.4,35.2c-1.3,6-3.2,12-6.4,17.2c-3.4,5.5-8.9,8.8-14.1,12.4c-14.3,9.9-29.1,18.8-44,27.8
			c-2.7,1.7-0.2,6,2.5,4.3c16.2-9.8,32.5-19.6,47.9-30.5c5.6-4,10.2-7.8,13.4-14c3.3-6.3,5.2-13.4,6.4-20.4
			c1.9-11.8,3.5-28.1-2.7-39.1c-2.3-4-6-6.3-10.4-7.5c-6.1-1.6-13.7-2.5-19.9-1.9c-16.3,1.6-30.7,17.3-26.9,34.1
			c0.7,3.2,5.3,1.8,4.8-1.3c-3.5-21.7-22.3-38.5-43.5-42.7c-10.4-2-23.1-1.8-30.6,6.7c-7,7.8-7.3,19.3-5.4,29.1
			c1.5-0.6,3-1.3,4.6-1.9c-6.2-12.9-18.1-24.6-32.3-28.1c-13.7-3.4-25,5.2-30.3,17.4c-12.2,28.3,7.1,60.4,29.8,76.8
			c15,10.9,32.8,17.3,50.8,21.5C246.4,263.8,247.7,259,244.6,258.2L244.6,258.2z"/>
	</g>
</g>
<g>
	<g>
		<path d="M278.7,259.1c-12.4-20.2-25.4-43.8-16.6-67.9c1.1-3-3.7-4.3-4.8-1.3c-9.3,25.4,4,50.5,17.1,71.8
			C276.1,264.3,280.4,261.8,278.7,259.1L278.7,259.1z"/>
	</g>
</g>
<g>
	<g>
		<path d="M288.9,262.7c0.4-6.1,4.3-12,6.3-17.7c1.9-5.4,3.5-10.9,4.6-16.6c2.3-11.2,3-22.6,2.2-34c-0.2-3.2-5.2-3.2-5,0
			c0.8,12.2,0,24.3-2.9,36.2c-1.3,5.6-3,11.1-5.1,16.4c-2.1,5.2-4.8,9.9-5.2,15.6C283.6,265.9,288.6,265.9,288.9,262.7L288.9,262.7z
			"/>
	</g>
</g>
<g>
	<path d="M464.4,264.7c-6.9-4.1-13.9-8.3-19.2-14.3s-8.7-14.2-7.1-22c2.8-13.2,17.4-19.5,27.5-28.4c2.6-2.3,5-5,5.7-8.4
		c0.9-4.3-1.2-8.5-3.2-12.3c-3.4-6.5-6.8-13-10.2-19.6c-2.5-4.7-5-9.6-5.3-15c-0.8-12.3,9.8-22.1,20.3-28.4c-2.7-0.5-5.2,2-5.8,4.6
		c-0.6,2.7,0.2,5.4,1.1,8c2.6,7.3,6.1,14.3,10.4,20.8c3.7,5.6,8,10.9,10.3,17.3c2.2,6.1,2.2,12.8,2.2,19.3c0,7.9,0,15.8,0.1,23.6
		c0,4.2,0,8.6-2.1,12.2c-3.4,5.8-10.6,7.6-16.9,9.7c-6.3,2.1-13.3,6.4-13.3,13.1c0,1.9,0.6,3.7,0.5,5.6c-0.2,4.8-5.2,8.7-9.8,7.8"/>
	<g>
		<path d="M465.6,262.6c-12.8-7.6-32.7-21.5-23-38.9c6.4-11.5,20.6-15.4,28.3-25.6c4-5.4,3.5-11.3,0.8-17.1
			c-3.5-7.7-7.8-15-11.7-22.5c-4.2-8.2-7.2-16.1-2.3-24.7c3.7-6.6,10.1-11.4,16.4-15.3c2.1-1.3,1.3-4.7-1.3-4.7
			c-16.6,0-3.8,24.6-0.1,31.1c3.6,6.5,8.6,12.2,12,18.8c4.3,8.3,3.9,17.5,3.9,26.6c0,8.4,1,17.3-0.2,25.6c-1.3,9.1-9.6,10.9-17,13.5
			c-5.1,1.8-10.6,4.5-13.5,9.4c-1.5,2.5-1.7,5.1-1.6,8c0.1,2.2,0.8,4-0.4,6.1c-1.4,2.4-4,3.2-6.6,3c-3.2-0.3-3.2,4.7,0,5
			c5,0.5,9.9-2.4,11.7-7.2c1.3-3.5-0.7-7.2,0.4-10.7c1.2-3.6,4.7-6,8-7.5c5.6-2.7,11.9-3.5,17-7.2c5.1-3.7,6.8-9.2,7.1-15.2
			c0.4-8.6,0-17.2,0-25.8c0-7.6,0-15.4-2.9-22.5c-2.8-7.1-7.9-12.9-11.8-19.3c-1.8-3-15-26.7-6-26.7c-0.4-1.6-0.8-3.1-1.3-4.7
			c-12,7.4-24.5,19.3-21,34.7c2,8.8,7.7,17.2,11.9,25.1c2.2,4.2,5.4,8.8,6.3,13.5c1,5.6-3.1,9.3-7,12.5c-10.2,8.3-24.8,15.3-26.4,30
			c-2,17.8,14.5,29,27.7,36.9C465.9,268.5,468.4,264.2,465.6,262.6L465.6,262.6z"/>
	</g>
</g>
<circle class="st1" cx="145.7" cy="112.9" r="10.5"/>
<circle class="st1" cx="76.6" cy="102.8" r="13.4"/>
<circle class="st1" cx="396.1" cy="139.4" r="10.9"/>
<circle class="st1" cx="440.2" cy="77.4" r="12"/>
<circle class="st1" cx="281.5" cy="112.4" r="4.9"/>
<line class="st0" x1="182.2" y1="83.4" x2="195.2" y2="97.4"/>
<line class="st0" x1="12.2" y1="143" x2="27.2" y2="128.4"/>
<line class="st0" x1="311.2" y1="60.4" x2="330.2" y2="77.4"/>
<line class="st0" x1="58.2" y1="19.4" x2="83.2" y2="34.4"/>
</svg>
