<?xml version="1.0" encoding="utf-8"?>
<!-- Generator: Adobe Illustrator 22.1.0, SVG Export Plug-In . SVG Version: 6.00 Build 0)  -->
<svg version="1.1" id="Слой_1" xmlns="http://www.w3.org/2000/svg" xmlns:xlink="http://www.w3.org/1999/xlink" x="0px" y="0px"
	 viewBox="0 0 116 95" style="enable-background:new 0 0 116 95;" xml:space="preserve">
<style type="text/css">
	.st0{stroke:#000000;stroke-width:0.7963;stroke-miterlimit:10;}
	.st1{fill:#FFFFFF;stroke:#FFFFFF;stroke-width:0.7963;stroke-miterlimit:10;}
</style>
<path class="st0" d="M18.9,40c-3.5-3.9-4.1-10.7-0.3-14.5S30,23.7,30.7,29c4-1.9,8.1-3.5,12.3-4.7c-2.4-2.5-1.6-7.2,1.2-9.2
	c2.8-2.1,6.8-1.7,9.6,0.4c2.8,2.1,4.3,5.5,4.8,8.9c6.1-1.9,12.8-1.4,18.6,1.2c2.4,1.1,4.8,2.6,7.5,2.7c1.4,0,2.9-0.3,4.3-0.1
	c5.1,0.8,5.9,7.9,9.1,12c1.3,1.6,3,2.9,3.9,4.8c1,2.1,0.6,4.6,0.3,6.9c-0.9,5.9-1.8,11.9-2.6,17.8c-0.7,4.9-2.1,10.7-6.6,12.6
	c-1.2-2.8-1.7-5.9-1.6-9c0,2-1.4,3.9-3.2,4.6c-2.5-6.6,4.5-15,0.5-20.8c-2.1,0-4.2,0.1-6.3,0.1c-3.2,3.6-3.4,8.9-4,13.7
	s-2.5,10.3-7.1,11.7c-0.6-2.1-1.2-4.2-1.8-6.3c-1.7,1.2-3.4,2.4-5.1,3.6c-1.6-7-1.6-14.4,0.1-21.4c-3.2-2.1-7.6-0.2-10,2.8
	c-2.4,3.1-3.3,7-4.6,10.6c-1.3,3.6-3.4,7.4-6.9,8.9c-0.7-1.8-1.4-3.7-2.1-5.5c-1.6,0.8-3.1,1.7-4.7,2.5c-0.3-6.9,1.2-13.9,4.3-20.1
	c-3.4-0.4-6.8-0.8-10.2-1.2c-2.3,2.6-2.8,6.3-3.7,9.7c-1,3.4-3,7-6.3,7.6c-2.3,0.4-4.7-0.9-5.7-3S14.3,66,16,64.4
	c-1,2.9-5.9,2.8-6.7-0.2c-0.5-2.1,0.9-4.2,2.6-5.5s3.8-2,5.5-3.3c5.3-3.9,5.7-13.1,0.8-17.4"/>
<path class="st1" d="M22.5,34.9c-0.4-0.1-0.4-1.6-0.1-3.3c0.3-1.8,0.8-3.2,1.2-3.1"/>
<ellipse transform="matrix(0.1637 -0.9865 0.9865 0.1637 22.0361 67.0872)" class="st1" cx="50.6" cy="20.5" rx="3.3" ry="0.7"/>
</svg>
