<?xml version="1.0" encoding="utf-8"?>
<!-- Generator: Adobe Illustrator 22.1.0, SVG Export Plug-In . SVG Version: 6.00 Build 0)  -->
<svg version="1.1" id="Слой_1" xmlns="http://www.w3.org/2000/svg" xmlns:xlink="http://www.w3.org/1999/xlink" x="0px" y="0px"
	 viewBox="0 0 841.9 137.6" style="enable-background:new 0 0 841.9 137.6;" xml:space="preserve">
<style type="text/css">
	.st0{fill:none;stroke:#020203;stroke-miterlimit:10;}
	.st1{fill:#020203;stroke:#020203;stroke-miterlimit:10;}
	.st2{fill:#020203;}
	.st3{fill:none;stroke:#000000;stroke-miterlimit:10;}
</style>
<ellipse transform="matrix(0.9903 -0.1393 0.1393 0.9903 -6.379 47.3526)" class="st0" cx="335.1" cy="69.2" rx="37.5" ry="17"/>
<ellipse class="st0" cx="310.7" cy="56.5" rx="8.5" ry="6.3"/>
<ellipse class="st0" cx="345.9" cy="50.2" rx="8.3" ry="5.4"/>
<circle class="st1" cx="310.3" cy="55.9" r="4.5"/>
<circle class="st1" cx="345.9" cy="50.2" r="4.5"/>
<circle class="st1" cx="316.2" cy="70.6" r="1.3"/>
<circle class="st1" cx="323.6" cy="69.3" r="1.3"/>
<ellipse class="st0" cx="328.1" cy="78.2" rx="17.8" ry="5.3"/>
<path class="st0" d="M306.2,82.8C301,95.2,284.1,97,274.1,106c-2,1.8-3.8,4.4-2.8,6.8s5.8,1.8,5.1-0.8c0.4,2.1,1,4.3,1.7,6.3
	c2.6-1,4.8-3,6.2-5.4c-1.6,2.4,0.3,6.2,3.2,6.3c2.2-7.1,7.8-13.1,14.8-15.8c4.9-1.9,10.2-2.2,15.5-2.1c15.5,0.2,33.2,5.2,39.7,19.3
	c-2.3-0.6-4.7-1.2-7.1-0.7c-2.3,0.5-4.6,2.3-4.8,4.6c2,1.6,4.7,2.3,7.3,2.1c-0.3,1.9,1,4,2.9,4.5c1.9,0.5,4.1-0.7,4.7-2.6
	c-0.1,1.7,1.9,2.9,3.6,2.6c1.7-0.3,2.9-1.7,3.8-3.2c5.1-8.6-0.3-19.3-5.6-27.7c19.9,1.2,40.3,0.8,59.1-5.7
	c17-5.9,32.6-16.8,50.5-18.5c5.5-0.5,13.6-0.8,18.9,0.8c29.3,8.9,41,16.4,68,28.3c-3.4,2-5.7,5.6-6.2,9.5c2,0.5,4.3-0.2,5.7-1.7
	c0.3,1.8,0.7,3.6,1,5.3c1.7-0.4,3.2-1.2,4.5-2.3c0.1,1.4,1.2,2.6,2.5,2.8c2.8-6.5,5.6-10.3,0.9-15.7c-2-2.3-5-7.9-7.8-8.9
	c-17.2-6.3-30.2-14.3-46.2-23.4c-19.1-10.9-39.9-25.2-61.5-29.6c-14.9-3-30.1,1.5-44.6,5.9c-12.6,3.8-25.2,7.7-37.9,11.5"/>
<path class="st0" d="M439.9,86.9c-1.3,2.7-3.7,4.7-5.7,7c-1.9,2.3-3.4,5.5-2.3,8.3c1.5,3.7,6.4,4.4,10.4,4.5
	c5.9,0.1,11.8,0.3,17.7,0.4c-3.3,5.6-11.1,6.2-16.9,9.4c-1.1,0.6-2.2,1.4-2.5,2.6c-0.5,1.8,1.1,3.7,3,4.2c1.8,0.5,3.8,0,5.6-0.6
	c-1.7,1.2,0.1,4.2,2.2,4.2c2.1-0.1,3.7-1.8,5-3.4c0.3,1.4,0.6,2.7,1,4.1c7.3-5.6,12-14.5,12.6-23.7c0.1-1,0.1-2-0.2-2.9
	c-1-2.9-4.7-3.8-7.8-3.8s-6.6,0.1-8.7-2.2c5-5.6,6.3-12.2,11.3-17.7"/>
<g>
	<g>
		<path class="st2" d="M525.3,70.8c-0.6-1.1-1.3-1.8-2.3-2.6c-0.6-0.5-1.3-0.9-2-1.3c-1.3-0.9-1.4-1.5-0.3-1.7
			c0.3-0.8,1.4-1.4,1.7-2.3c0.5-1.5-0.2-3,0.1-4.5c-1.6-0.2-3.3-0.4-4.9-0.7c0,3.1-0.5,6.5,0.4,9.4c0.3,1.1,1.3,1.8,2.4,1.8
			c4.3,0.2,6.8-5.9,8.3-9c-1.5-0.6-3-1.3-4.6-1.9c-0.8,2.6-1.6,5.2-2.4,7.9c-0.8,2.6,2.4,3.9,4.2,2.4c3.1-2.6,7.9,2.3,7.6,5.4
			c0.4-0.7,0.8-1.4,1.2-2.2c-2,1.5-5.5,3-6.7,0.2c-1.3-1.4-1.1-2,0.5-1.6c2.2-0.3,2.6,0,1,1.1c-1.2,0.5-2.4,1-3.7,1.5
			c0.2,0.3,0.4,0.7,0.5,1c0.6-1,1.2-2.1,1.7-3.1c0.4-0.1-3-2.9-3.4-3c-1.3-0.7-2.9-1.1-4.3-1c-2.8,0.2-4.2,2.1-4.3,4.7
			c-0.3,9.1,11.4,9.3,16.8,12.8c2.7,1.7,5.2-2.6,2.5-4.3c-3.5-2.2-10.8-2.4-13-5.8c-1-1.6-0.4-1.8,1.1-1.1c0.8,0.4,1.3,1.5,2.1,2
			c1.4,1,2.3,1.1,3.9,0.6c1.4-0.4,2-1.7,1.7-3.1c-0.3-1.9-1.2-3-2.8-4c-1.4-0.8-3.2,0-3.7,1.5c-2.5,8.7,12.6,8.2,11.8,0.4
			c-0.8-7.4-15.9-7.2-16.6,0.3c-0.4,4,3,6.9,6.6,7.5c3.3,0.6,10.5,0.1,11.8-3.8c1.2-3.3-2.5-7.9-4.9-9.8c-3.5-2.7-7.8-2.7-11.2,0.2
			c1.4,0.8,2.8,1.6,4.2,2.4c0.8-2.6,1.6-5.2,2.4-7.9c0.8-2.7-3.3-4.5-4.6-1.9c-0.4,0.7-2.9,6.6-4,6.5c0.8,0.6,1.6,1.2,2.4,1.8
			c-0.7-2.4-0.2-5.6-0.2-8.1c0-2.7-4.5-3.5-4.9-0.7c-0.2,1.5,0,3.4-0.6,4.2c-1,1.4-2.1,1.4-2.4,3.4c-0.7,4.8,4.3,5.4,6.2,8.7
			C522.6,76.1,526.9,73.6,525.3,70.8L525.3,70.8z"/>
	</g>
</g>
<g>
	<g>
		<path class="st2" d="M521.4,60.2c-0.7-2.2-1.4-4.3-2.1-6.5c-0.5-1.5-2.9-0.9-2.4,0.7c0.7,2.2,1.4,4.3,2.1,6.5
			C519.5,62.4,521.9,61.8,521.4,60.2L521.4,60.2z"/>
	</g>
</g>
<g>
	<g>
		<path class="st2" d="M528.4,62.6c-0.2-2.7-0.4-5.3-0.6-8c-0.1-1.6-2.6-1.6-2.5,0c0.2,2.7,0.4,5.3,0.6,8
			C526,64.2,528.5,64.2,528.4,62.6L528.4,62.6z"/>
	</g>
</g>
<path class="st3" d="M266.8,135c4.5-7,4.3-16.8-0.6-23.6c-1.7-2.4-3.9-4.4-5.3-7c-4.4-7.8-0.5-17.3,2.7-25.6s5.3-19-1.2-25.1
	c-5.9-5.5-16.9-4.9-20-12.3c-3-7,3.6-16.7-2-21.9c-2.7-2.5-6.9-2.3-10.6-1.9c-1,0.1-2.2,0.3-2.8,1.2c-0.7,1.2,0.1,2.7,0.6,3.9
	c3.7,8.5-4.9,18.8-1.1,27.3c3.1,7,13.6,9.6,14.5,17.2c0.9,6.9-6.7,12-7.9,18.8c-0.9,5.1,2.2,10.3,6.5,13.2c2.5,1.7,5.5,3.1,6.5,5.9
	c2,5.8-6.3,10.9-5.5,17c1,6.8,11.3,7,15.8,12.2"/>
<path class="st3" d="M92.8,134.7c-5.9-8.8-11.8-17.6-17.7-26.4c-1.2-1.8-2.5-3.8-2-5.9c0.3-1.3,1.3-2.4,2.2-3.4
	c7.9-8.2,18.9-16.1,18.5-27.4c-0.3-8.6-7.3-17.5-2.8-24.8c3.5-5.8,12.2-6.4,16.1-12c2-2.9,2.3-6.6,4.3-9.6c2.7-4.1,8.9-5.7,12.8-2.8
	c4,2.9,3.9,10-0.4,12.3c-1.7,0.9-3.7,1-5.4,2c-4.4,2.6-3.7,9.2-2.1,14.1s3.4,10.9-0.1,14.6c-1.1,1.2-2.7,2-3.8,3.3
	c-5.8,6.7,6,18,0.9,25.3c-3.2,4.5-10.5,3.6-14.2,7.7c-4.3,4.7-0.8,12.1,2.5,17.6s5.7,13.7,0.4,17.3"/>
<path class="st3" d="M136,136.6c-2.1-7.5-3.9-16.2,0.5-22.7c2.4-3.5,6.4-5.8,8-9.7c3.1-7.5-4.1-15.6-3.1-23.7
	c0.8-6.2,6.3-10.6,9.6-16c3-4.8,4.2-10.7,3.3-16.3c3.2,0.4,6.5,0.9,9.3,2.4c2.8,1.5,5.2,4.3,5.3,7.5c0.1,5-5,8.5-6.5,13.3
	c-1.6,5.1,1.2,10.6,5.1,14.2c1.2,1.1,2.6,2.2,2.7,3.8c0.1,1.3-0.7,2.6-1.5,3.6c-4.3,5.2-11.6,9.2-11.5,16c0.1,3.5,2.3,6.6,3.7,9.8
	c1.4,3.2,1.7,7.6-1.1,9.7c-2.1,1.6-5.1,1.1-7.7,1.5c-2.6,0.4-5.6,2.7-4.5,5.2"/>
<path class="st3" d="M279.2,126.6c5.8-6.4,17.4-6.1,22.9,0.6"/>
<path class="st3" d="M181.5,116.8c6.1-5.1,16.3-4,21.2,2.2"/>
<path class="st3" d="M38.6,123.1c7.6-2.3,15.9-2.3,23.5,0"/>
<path class="st3" d="M45,111.4c-4.1-2.6-7.4-6.3-9.5-10.7c-1.3-2.7-2.2-5.9-0.8-8.6c1.2-2.4,4-3.7,6.7-4.1c3.8-0.7,8.6,0.7,9.3,4.5
	c1.2-2.7,3-5.4,5.9-6.2c2.8-0.7,6.4,2,5.4,4.7c1.7,0.9,3.5-1.4,5.5-1.2c2.2,0.3,2.6,3.4,2,5.6c-2.3,8.9-9.7,16.3-18.5,18.8"/>
<path class="st3" d="M663.3,118.4c-3.8-0.8-7.6-2.2-11-4.1c-5.7-3.2-11-9-10.1-15.4c0.3-2.2,1.9-4.6,4.1-4.5c0.8,0,1.6,0.4,2.3,0.8
	c1.9,1.2,3.5,2.8,4.6,4.8c2.6-2.1,4-6.2,7.4-6.6c3-0.4,5.5,3.8,3.7,6.3c1.1-1.5,1.5-3.4,2.5-4.9c1-1.6,3-2.8,4.6-1.9
	c1.4,0.8,1.6,2.8,1.5,4.4c-0.5,7.8-4.3,15.2-10.2,20.3"/>
<path class="st3" d="M599.3,129.5c-6.6-3.5-10-12.1-7.6-19.2c1.7-5.1,6-10,4.4-15.1c-0.6-1.8-1.9-3.3-2.9-5
	c-4.6-7.7-0.3-19.1,8.2-21.9c1.3-0.4,2.7-0.7,3.7-1.7c1.9-1.8,1.2-4.9,1-7.6c-0.4-4.7,1.6-9.8,5.8-12s10.4,0,11.3,4.6
	c1.1,5.3-4.4,9.8-4.7,15.2c-0.1,2.1,0.7,4.3-0.2,6.3c-1.7,4-8.1,3.5-10.4,7.2c-1.5,2.4-0.5,5.6,1.2,7.8c1.7,2.2,4.1,3.8,6,5.9
	c0.8,0.9,1.5,2,1.6,3.2c0.2,3.4-4.2,4.7-6.8,6.8c-3.1,2.6-3.7,7.6-1.3,10.8c1.7,2.3,4.4,3.5,6.1,5.8c1.6,2.3,0.9,6.6-1.9,6.6"/>
<path class="st3" d="M703.2,122.8c-0.4-4.3-0.8-8.7-0.1-13s2.5-8.5,5.9-11.2c3.1-2.5,7-3.4,10.9-3.9c2.3-0.3,4.7-0.3,6.9,0.5
	c1.8,0.7,3.3,2.1,4.7,3.5c5.3,5,11,10.8,11.4,18"/>
<path class="st3" d="M744.6,95.3c0.2-7.7,8.3-13.9,16-13c7.7,0.9,13.8,8.1,14.5,15.8"/>
<path class="st3" d="M194.8,89.7c-2-4.1-0.9-9.3,1.8-12.9c2.7-3.7,6.9-6,11.2-7.5c4-1.4,8.4-2.1,12.4-0.6c3.9,1.5,7,5.8,5.9,9.9"/>
<path class="st3" d="M16.4,61.1c-0.3-2,2.1-3.1,4.1-3.5c4.8-1,9.8-1.8,14.5-0.6c4.7,1.2,9.2,4.7,10,9.6"/>
<path class="st3" d="M696.9,82.2c-4-0.5-7.6-3.4-9.1-7.2c-1.5-3.8-0.7-8.3,1.9-11.5c1.2-1.4,2.8-3,2.2-4.8c-0.4-1-1.4-1.5-2.4-2
	c-4.2-2-8.8-4.3-10.6-8.6c-1.7-3.9-0.5-8.6,1.9-12.1c2.4-3.5,5.9-6.1,9.4-8.6c2.5,3.3-1.2,8.2,0.5,12c0.9,2,3,3.1,4.9,4.1
	c3.7,2.1,7.1,4.9,9.9,8.2c1.4,1.6,2.8,3.7,2.3,5.8c-0.5,2.2-2.9,3.6-3.3,5.9c-0.9,5.1,8.3,6.9,8.4,12.1c0,1-0.3,2-0.7,2.9
	c-1.1,2.9-2.7,6.4-5.9,6.8"/>
<path class="st3" d="M689.9,93.2c2.4-2.9,5.4-5.5,9-6.5c3.6-1,8,0,10.1,3.1"/>
<path class="st3" d="M596,135.3c4.4-2.3,8.9-4.6,13.8-5.5c4.9-0.9,10.3-0.3,14.2,2.8"/>
<path class="st3" d="M85.6,139.7c7-2.3,14.9-1.2,21,2.9"/>
<path class="st3" d="M129.9,143c3.9-4.5,9.8-7.2,15.8-7.1c6,0.2,11.8,3.1,15.4,7.9"/>
<path class="st3" d="M249.4,142.5c8.8-5.8,20.4-7.1,30.2-3.4"/>
<path class="st3" d="M799.8,123.5c-2.5,1.9-5.9-0.7-7.4-3.5c-4.3-7.8-3.5-18.2,2-25.2c2.3-2.9,5.5-5.8,5.5-9.5c0-5.2-5.9-8-10.2-11
	c-1.6-1.1-3.2-2.7-3-4.7c0.1-1,0.7-1.9,1.2-2.7c4.1-6,9.5-11.1,15.7-14.9c2.4-1.5,5.3-3.4,5.2-6.2c-1.2,4.6-2.3,9.2-3.5,13.8
	c-0.3,1.2-0.6,2.5-0.5,3.8c0.2,1.5,1,2.8,1.8,4.1c2.5,3.9,4.9,7.7,7.4,11.6c2.2,3.5,4.5,7,5.4,11.1s0.3,8.7-2.6,11.6
	c-1.8,1.8-4.2,2.7-6.3,4.2c-2,1.5-3.8,4-3.1,6.4c1.2,4.4,8.4,4,10.6,8c1.5,2.7-0.3,6.3-3,7.9c-2.7,1.6-5.9,1.7-9.1,1.8"/>
</svg>
