<?xml version="1.0" encoding="utf-8"?>
<!-- Generator: Adobe Illustrator 22.1.0, SVG Export Plug-In . SVG Version: 6.00 Build 0)  -->
<svg version="1.1" id="Layer_1" xmlns="http://www.w3.org/2000/svg" xmlns:xlink="http://www.w3.org/1999/xlink" x="0px" y="0px"
	 viewBox="0 0 494 438.7" style="enable-background:new 0 0 494 438.7;" xml:space="preserve">
<style type="text/css">
	.st0{fill:#FFFFFF;stroke:#000000;stroke-width:0.4111;stroke-miterlimit:10;}
	.st1{stroke:#000000;stroke-width:0.5097;stroke-miterlimit:10;}
	.st2{fill:#FFFFFF;stroke:#000000;stroke-width:0.3488;stroke-miterlimit:10;}
	.st3{stroke:#000000;stroke-width:0.4324;stroke-miterlimit:10;}
</style>
<g>
	<path d="M129.1,327.2c-14.7,2.5-30.6-4.7-38.5-17.3c-7.9-12.7-7.4-30.1,1.3-42.2c8.3-11.7,22.7-17.8,36.8-20.4
		c2.5-0.5,5.1-0.9,7.1-2.5c2.1-1.7,3-4.4,3.8-7c3.3-10,6.5-20.1,9.8-30.1c8.4-0.4,16.8-1.7,25-3.7c2.2-0.6,4.8-1.5,5.4-3.7
		c0.5-1.8-0.6-3.6-1.7-5.1c-9.9-14.7-20.8-28.8-32.4-42.1c-1-1.2-2.2-2.5-3.7-2.8c-1.6-0.4-3.3,0.3-4.8,1
		c-15.1,6.6-31.3,10.8-47.7,12.5c-2,0.2-4.2,0.3-5.8-0.8c-1.9-1.3-2.5-3.7-2.9-5.9c-2.2-11-4.5-22.1-6.7-33.1
		c-1.4-6.8-2.8-13.8-1.8-20.7c0.9-6.9,4.7-13.9,11-16.8c1.1,15.6,3.6,31.1,7.3,46.3c0.7,2.7,1.6,5.7,4.1,7c2,1,4.4,0.6,6.6,0.1
		c7.6-1.6,15.1-3.2,22.7-4.8c2.1-0.4,4.3-0.9,5.9-2.4c3-2.6,2.8-7.3,1.9-11.2c-4-16.2-16.9-31.1-13.5-47.4
		c11.4,7.5,22.4,15.7,32.9,24.5c5.2,4.4,10.5,9.1,14,15c2.9,4.9,4.5,10.4,6.5,15.7c5,13.2,12.8,25.5,22.6,35.7
		c4.4-19.5,8.7-39.2,8.5-59.2c-0.2-17.3-3.8-35.5,3.3-51.3c5.4-12,16.4-20.7,28.4-26c12-5.3,25.1-7.6,38-9.9
		c-3.3,10.3-6.7,20.6-10,30.8c-2.4,7.5-4.9,15-5.4,22.9c-1.2,18.3,8,35.5,16.9,51.6c1.3,2.4,2.9,5,5.6,5.8c2.2,0.6,4.5-0.2,6.6-1
		c19.2-7,39.5-10.8,59.9-11.4c2.3-0.1,4.8,0,6.7,1.4c3.2,2.4,2.7,7.3,1.8,11.2c-3.2,14.2-7.2,28.3-12,42c-3,8.9-6.6,17.9-12.9,24.7
		c-6.3,6.8-15,10.9-23.4,14.8c-22.3,10.2-44.9,19.9-67.5,29.6c31.6,8.1,64.6-4.5,97.3-4.2c4.7,0,10.7,1.4,11.6,6
		c0.4,2.3-0.7,4.6-1.8,6.7c-3.9,7.4-8.5,14.4-13.5,21.1c7.8,4.5,17.6,3.4,26.3,5.9s16.9,12.7,11.5,20c16.2-4.9,31.9-11.7,46.7-20.2
		c3.9-2.2,7.7-4.6,10.4-8.2c3.4-4.6,4.4-10.6,6.3-16c2-5.4,5.8-11,11.5-11.7c-0.5,15.1-3.6,30.2-9.2,44.3c-1.8,4.5-3.9,9.1-7.5,12.3
		c-3.1,2.9-7.2,4.5-11.1,6.2c-14.5,6-29.5,12.1-45.2,12.2c-10.9,0.1-21.6-2.6-32.1-5.3c-15.4-3.9-30.8-7.9-46.1-11.8
		c-8.1,12.7-0.1,31,13.3,37.7c13.5,6.7,29.9,4.1,43.7-1.9c-2,8.9-4,17.7-6.1,26.6c-34.8-2-69-12.9-98.4-31.5c-3.6-2.3-7.2-4.7-9.8-8
		c-7.1-8.9-6-22.2-12.9-31.2c-8.2,4.1-12.4,13.4-20,18.6c-12.7,8.8-30.7,3.6-45,9.5c-10.5,4.4-20.9,14.8-31.3,10.1"/>
	<g>
		<path d="M128.5,324.8c-14.2,2.1-29.3-4.9-36.5-17.4c-7.4-13-5.5-30.4,4.5-41.5c4.9-5.4,11.2-9.3,17.9-11.9
			c6.4-2.6,13.7-2.9,20-5.5c5.8-2.4,7.1-8.2,8.8-13.7c2.8-8.8,5.7-17.6,8.5-26.3c-0.8,0.6-1.6,1.2-2.4,1.8c7.7-0.4,15.4-1.5,23-3.2
			c4.4-1,10.5-2.7,9.9-8.5c-0.3-2.9-2.5-5.4-4.1-7.7c-2.4-3.5-4.9-7-7.4-10.5c-4.6-6.3-9.4-12.6-14.4-18.6c-2.5-3.1-5-6.1-7.7-9.1
			c-1.9-2.2-3.7-4.5-6.7-4.9c-3.3-0.5-6.8,1.7-9.7,2.8c-4.2,1.7-8.6,3.2-13,4.6c-8.1,2.5-16.3,4.3-24.7,5.4
			c-4.7,0.7-10.1,1.7-11.4-4.3c-1-4.5-1.8-9.1-2.8-13.6c-2-9.9-4.8-20-5.8-30.1c-0.9-9.2,0.9-19.5,9.8-24.1
			c-1.3-0.7-2.5-1.4-3.8-2.2c1.2,15.7,3.3,31.7,7.4,46.9c1.4,5,3.9,9.5,9.7,9.4c7.2-0.1,15-2.9,22-4.3c5.2-1.1,11.5-1.6,13.9-7.1
			c2.3-5.2,0.3-11.5-1.5-16.5c-4.7-12.9-14.2-25.7-11.6-40c-1.2,0.5-2.4,1-3.7,1.5c9.2,6,18.1,12.5,26.7,19.3
			c7.9,6.4,16.4,12.9,20.9,22.2c4.1,8.5,6.5,17.5,11,25.8c4.6,8.4,10.4,16.1,16.9,23.1c1.3,1.3,3.8,0.7,4.2-1.1
			c3.6-15.9,7.1-32,8.2-48.3c1.1-15.7-2-31.6-0.4-47.3c1.7-15.6,10.4-27.7,23.7-35.6c13.6-8.1,29.5-10.8,44.8-13.5
			c-1-1-2.1-2.1-3.1-3.1c-4.1,12.6-8.4,25.1-12.2,37.8c-3.2,10.9-4.4,21.7-1.9,32.9c2.6,11.8,8.3,22.8,14.1,33.4
			c1.8,3.2,3.6,7.4,7,9.3c4.9,2.6,10.3-0.5,15-2c12.4-4.1,25.2-7,38.2-8.4c5.6-0.6,11.5-1.3,17.1-1.1c9.2,0.4,3.8,13.5,2.4,18.7
			c-3.1,12.1-6.6,24.2-10.8,35.9c-4.5,12.4-10.7,22.3-22.3,29c-12.1,7-25.5,12.2-38.3,17.8c-13.6,6-27.3,11.8-41,17.7
			c-2,0.9-1.3,4.1,0.6,4.6c22.2,5.4,44.6,1.5,66.8-1.6c6.1-0.8,12.3-1.6,18.4-2.1c5.2-0.4,11.1-1.2,16.4-0.1c3.2,0.7,5.9,2.1,5.3,6
			c-0.5,2.8-3.3,6.5-4.7,8.9c-3.1,5.1-6.4,10.1-10,14.9c-0.8,1.1-0.2,2.8,0.9,3.4c7.5,4,15.7,3.7,23.8,5.4c6.9,1.4,18.5,8.6,13.1,17
			c-1.2,1.8,0.8,4.3,2.8,3.7c16.7-5.2,32.9-12,48-20.9c6.2-3.7,11.1-7.9,13.8-14.8c2.9-7.4,3.8-18.6,13.2-20.5
			c-1.1-0.8-2.1-1.6-3.2-2.4c-0.6,15.8-3.7,32.3-10.4,46.8c-3.7,7.9-9.4,11.1-17.2,14.3c-7.3,3-14.6,5.9-22.2,8.1
			c-16.5,4.7-31.9,3.2-48.3-0.9c-16.6-4.2-33.2-8.5-49.9-12.8c-1.1-0.3-2.2,0.2-2.8,1.1c-7.7,12.8-2,29.3,9.3,38
			c14.7,11.4,35.2,8,51.1,1.2c-1.2-0.9-2.4-1.9-3.7-2.8c-2,8.9-4,17.7-6.1,26.6c0.8-0.6,1.6-1.2,2.4-1.8c-25.9-1.6-51.5-8-75-19.1
			c-5.5-2.6-10.9-5.4-16.2-8.5c-5.5-3.2-11.9-6.6-15.7-11.9c-6.3-9-5.6-21-12-30.1c-0.8-1.1-2.1-1.6-3.4-0.9
			c-7.2,3.9-11.3,10.8-17.1,16.3c-7.5,7-17.7,7.4-27.4,8.1c-8.3,0.5-16.3,1.5-23.8,5.4c-7.8,4.1-16.6,11.9-25.9,8.2
			c-3-1.2-4.3,3.6-1.3,4.8c8.2,3.2,15.9-0.8,22.9-4.8c4.5-2.6,8.9-5.3,14-6.7c5.1-1.4,10.4-1.6,15.6-2c8.8-0.6,18.1-1.2,25.5-6.3
			c7.6-5.2,11.8-14.1,20-18.6c-1.1-0.3-2.3-0.6-3.4-0.9c6.8,9.5,5.8,22.5,13.3,31.8c3.7,4.6,9,7.7,14,10.7c6,3.6,12.1,6.9,18.4,9.8
			c24.4,11.5,50.7,18.1,77.5,19.7c1,0.1,2.2-0.8,2.4-1.8c2-8.9,4-17.7,6.1-26.6c0.5-2.3-1.7-3.7-3.7-2.8c-13.6,5.8-31.5,9-44.5,0
			c-10-7-15.7-21.3-9.1-32.3c-0.9,0.4-1.9,0.8-2.8,1.1c18.5,4.7,36.9,9.9,55.5,14.1c17.4,4,33.6,3.6,50.6-2.1
			c7.5-2.5,15-5.5,22.2-8.7c7.3-3.2,12-7.9,15.3-15.1c6.9-15.2,10.1-32,10.8-48.6c0.1-1.7-1.6-2.7-3.2-2.4
			c-6.3,1.3-10.4,6.3-12.7,12.1c-3.5,8.5-4.2,16.4-12.5,21.9c-15,9.9-32.5,16.8-49.6,22.1c0.9,1.2,1.9,2.4,2.8,3.7
			c4.8-7.4,0-15.9-6.5-20.5c-9.5-6.7-22.2-3.5-32.3-8.8c0.3,1.1,0.6,2.3,0.9,3.4c4.1-5.5,7.9-11.2,11.3-17.2
			c2.4-4.2,5.9-9.3,3.6-14.3c-4.1-8.9-19.6-6.3-27.1-5.7c-27.6,2.2-55.4,10.5-83,3.7c0.2,1.5,0.4,3,0.6,4.6
			c24.8-10.6,50.1-20.7,74.2-32.8c10.2-5.1,18.7-11.7,24.2-21.9c5.7-10.5,9-22.6,12.4-34c1.8-6.1,3.4-12.2,4.9-18.4
			c1.1-4.6,3.1-10.2,1.6-15c-3.1-9.9-18.5-6.1-26-5.4c-12.5,1.3-24.9,3.8-36.9,7.5c-3,0.9-5.8,2-8.8,3c-4.3,1.4-6.1,1.3-8.7-2.4
			c-3.6-5.2-6.4-11.4-9.1-17.1c-6.7-14.2-10.3-28.9-6.5-44.4c3.6-14.5,9-28.8,13.6-43c0.6-2-1.3-3.4-3.1-3.1
			c-27.9,4.9-62.5,13.3-70.6,44.9c-4,15.6-0.7,31.8-0.9,47.6c-0.2,18.9-4.3,37.3-8.4,55.7c1.4-0.4,2.8-0.7,4.2-1.1
			c-7.1-7.5-13.1-15.9-17.7-25.1c-4.5-8.8-6.5-19-11.9-27.3c-5.3-8-13.2-14-20.7-19.9c-8.4-6.7-17.2-13-26.2-19
			c-1.3-0.8-3.4-0.1-3.7,1.5c-1.7,9.6,1,18.4,4.8,27.1c2.3,5.2,4.8,10.3,6.8,15.6c2.2,6,5,14.1-3.4,16.3c-6.2,1.6-12.5,2.6-18.7,3.9
			c-4.2,0.9-9.1,3-11.6-2c-1.3-2.6-1.6-6-2.2-8.8c-2.9-12.9-4.7-26-5.7-39.2c-0.1-1.9-2-3.1-3.8-2.2c-12.2,6.3-13.6,20.7-11.7,32.8
			c1.4,8.7,3.4,17.4,5.2,26c0.9,4.2,1.7,8.4,2.6,12.7c0.6,2.7,1,5.9,3,8.1c4,4.4,11.4,2.2,16.5,1.4c8.2-1.2,16.2-3.1,24.1-5.5
			c3.8-1.2,7.5-2.5,11.2-3.9c1.3-0.5,2.7-1.1,4-1.6c4-1.6,5.8-0.9,8.4,2.1c5.7,6.5,11.1,13.3,16.3,20.2c2.8,3.6,5.5,7.3,8.2,11.1
			c2.1,2.9,7.4,8.1,6.9,11.7c-0.4,2.4-2.4,2.4-4.6,2.9c-2.3,0.6-4.7,1-7.1,1.5c-5.1,0.9-10.3,1.5-15.5,1.7c-1.1,0.1-2.1,0.7-2.4,1.8
			c-3.2,10-6.3,20.2-9.8,30.1c-0.9,2.4-1.5,4.9-3.9,6.3c-1.9,1.1-4.6,1.3-6.8,1.7c-3.6,0.7-7.1,1.6-10.5,2.8
			c-13.9,4.8-26.3,13.9-31.3,28.2c-4.7,13.5-1.9,29.3,7.6,40c9.3,10.6,23.7,15.4,37.5,13.3C133,329.2,131.6,324.3,128.5,324.8
			L128.5,324.8z"/>
	</g>
</g>
<ellipse transform="matrix(0.8613 -0.5081 0.5081 0.8613 -126.3485 90.9125)" class="st0" cx="103.3" cy="276.9" rx="4.2" ry="9.7"/>
<ellipse transform="matrix(5.016412e-03 -1 1 5.016412e-03 -174.027 379.2027)" class="st1" cx="103.5" cy="277.1" rx="5" ry="3.9"/>
<ellipse transform="matrix(0.7986 -0.6019 0.6019 0.7986 -160.2584 135.7578)" class="st2" cx="122.7" cy="307.3" rx="3.2" ry="9.1"/>
<ellipse transform="matrix(0.9597 -0.281 0.281 0.9597 -81.4482 46.9295)" class="st3" cx="122.9" cy="307.5" rx="2.8" ry="5"/>
</svg>
