<?xml version="1.0" encoding="utf-8"?>
<!-- Generator: Adobe Illustrator 22.1.0, SVG Export Plug-In . SVG Version: 6.00 Build 0)  -->
<svg version="1.1" id="Layer_1" xmlns="http://www.w3.org/2000/svg" xmlns:xlink="http://www.w3.org/1999/xlink" x="0px" y="0px"
	 viewBox="0 0 494 438.7" style="enable-background:new 0 0 494 438.7;" xml:space="preserve">
<style type="text/css">
	.st0{fill:#0B0C0C;}
	.st1{fill:#0B0C0C;stroke:#0B0C0C;stroke-miterlimit:10;}
	.st2{fill:none;stroke:#FFFFFF;stroke-miterlimit:10;}
</style>
<g>
	<path class="st0" d="M225.3,156.5c0.8-4.2,1.7-8.6,4.2-12.1c2.5-3.5,7-5.9,11.1-4.6c4.2,1.3,6.7,6,10.9,7.1
		c5.9,1.4,10.9-5.1,11.4-11.1s-1.7-12-1.5-18c0.4-11,9.8-20.9,20.7-21.9c10.9-1,21.9,7.1,24.3,17.9c1.6,7.4-0.5,15-0.9,22.5
		c-0.5,11,3,22,8.9,31.3c4.9,7.8,11.6,14.7,14.7,23.4c3.1,8.7,1,20.4-7.5,24c-8.5,3.6-20.4-2-26.5,4.9c-1.5,1.7-2.4,4-2.9,6.2
		c-4.5,19.1,10.9,40.6,1.3,57.7c-5.7,10.2-19.1,14.5-30.5,12.1c-11.5-2.4-21.1-10.3-28.6-19.3c-8.3-10.1-14.4-21.9-17.9-34.4
		c-1.3-4.9-2.6-10.3-6.8-13.2c-5-3.5-11.8-1.6-17.9-0.8c-21.8,2.8-44.5-12.7-49.8-34.1s7.7-45.7,28.3-53.3c3.2-1.2,6.6-2,9.3-4
		c5.6-4,7.3-11.9,12.9-15.9c6.9-4.9,16.6-1.9,23.6,2.9c7,4.8,13,11.3,21,14"/>
	<g>
		<path class="st0" d="M227.7,157.1c1.1-5.6,3.8-17.5,12.3-15c4.7,1.4,6.9,6.7,12.2,7.2c9.3,1,13.7-9.7,13.3-17.3
			c-0.3-6.2-2.5-12.3-0.8-18.4c1.6-5.7,5.7-10.7,11.1-13.4c10.8-5.4,24.8,1.2,28.1,12.8c1.8,6.4,0.3,13-0.3,19.4
			c-0.6,6.4-0.2,12.8,1.4,19c3.1,11.9,10.3,20.7,17,30.7c5.4,8.1,11.3,23.8-0.2,30.1c-8.4,4.6-19.5-2-27.2,4.9
			c-7.1,6.4-5.8,18.8-4.4,27.2c1.8,10.7,6.5,22.6,3.4,33.5c-3.2,11.1-14.5,16.7-25.6,16.1c-12.3-0.7-22.8-9-30.5-17.9
			c-8.6-10-14.7-21.9-18.3-34.6c-2.7-9.5-6.5-17.4-17.7-17.1c-5.3,0.2-10.3,1.6-15.6,1.5c-5.8-0.2-11.6-1.6-16.9-4.1
			c-9.9-4.7-18.4-12.9-22.5-23.1c-4.4-11-3.3-23.5,1.9-34c2.5-5.1,6-9.8,10.2-13.7c5.3-4.8,11.1-7,17.6-9.6c5.1-2,8.4-5.1,11.3-9.6
			c3.8-5.8,7.1-11.4,15-10.9c13.5,1,22.1,14.7,34.3,19.3c3,1.1,4.3-3.7,1.3-4.8c-12.3-4.6-20-17.1-33.5-19.2
			c-4.7-0.7-9.6,0-13.5,2.9c-4.9,3.7-6.7,9.8-10.9,14.1c-4.4,4.5-11.7,5.2-17,8.3c-4.9,2.8-9.3,6.6-12.9,11
			c-6.8,8.3-11,18.6-11.6,29.3c-1.2,22.2,15.1,41.8,36.1,47.5c5.1,1.4,10.6,2,15.9,1.5c7.1-0.7,16.2-4.1,20.7,3.5
			c3.2,5.4,3.9,12.5,6.2,18.3c2.6,6.5,5.9,12.8,9.8,18.6c12.4,18.2,35.5,36.4,58.2,24c25-13.6,7.4-42.3,8.6-63.2
			c0.4-7,2.6-12.6,10.2-13.1c5.6-0.4,11.4,0.8,16.9-0.9c9.5-2.9,12.9-13.5,11.7-22.6c-1.8-13.1-12.9-22.3-18.8-33.5
			c-3.5-6.8-5.7-14.4-5.9-22c-0.2-8.1,2.2-16.1,1.2-24.1c-1.4-11.4-11-20.6-22.3-22.1c-11.5-1.5-22.6,6.2-26.6,16.9
			c-2.7,7.4-0.3,14.2,0,21.7c0.2,4-0.5,9.1-4.4,11.4c-4.3,2.6-7.1-1.2-10.3-3.6c-4.5-3.4-9.7-4-14.5-0.7c-5.6,3.7-7.2,10.5-8.5,16.6
			C222.2,159,227.1,160.3,227.7,157.1L227.7,157.1z"/>
	</g>
</g>
<path class="st1" d="M137.5,250.8c1.2-5.2,7.4-8.3,12.6-6.8s8.8,6.5,9.4,11.8c0.6,5.3-1.4,10.6-4.7,14.9c-0.5,0.7-1.1,1.4-1.1,2.3
	c0,0.9,0.6,1.6,1.1,2.3c2.6,3.6,3.6,8.2,2.9,12.6c-5-1.7-9.4-4.8-12.7-8.9c-1.5,3.5-3.7,6.8-6.5,9.4c-0.6,0.6-1.4,1.2-2.3,1.2
	c-1.9,0-2.6-2.4-2.7-4.3c-0.3-3.5-0.6-7.1-0.9-10.6c-4,1.3-8.2,2-12.4,2.2c-2.1,0.1-4.7-0.4-5.2-2.4c-0.2-0.9,0.2-1.9,0.6-2.8
	c1.7-3.7,4.3-6.9,7.4-9.5c1.1-0.9,2.3-2.1,1.8-3.4c-0.3-0.7-1-1-1.6-1.4c-4.3-2.3-7.9-5.7-10.4-9.8c-0.6-1-1.1-2.5-0.3-3.3
	c0.8-0.7,2.1-0.3,3.1,0.1c4.6,2.1,9.2,4.1,13.8,6.2c2.3,1,5.9,1.5,6.6-0.9"/>
<path class="st1" d="M275,50.4c-5.2-1.3-8.1-7.6-6.5-12.7s6.7-8.6,12-9.1c5.3-0.5,10.6,1.7,14.8,5c0.7,0.5,1.4,1.1,2.3,1.2
	c0.9,0,1.6-0.5,2.3-1c3.7-2.5,8.3-3.4,12.7-2.6c-1.8,4.9-5.1,9.3-9.2,12.5c3.5,1.6,6.7,3.9,9.3,6.7c0.6,0.6,1.2,1.4,1.2,2.3
	c0,1.9-2.5,2.5-4.3,2.6c-3.6,0.2-7.1,0.4-10.7,0.6c1.2,4,1.8,8.2,1.9,12.4c0,2.1-0.5,4.7-2.6,5.2c-0.9,0.2-1.9-0.2-2.8-0.6
	c-3.6-1.8-6.8-4.4-9.3-7.6c-0.8-1.1-2.1-2.4-3.3-1.9c-0.7,0.3-1.1,1-1.4,1.6c-2.4,4.2-5.9,7.8-10.1,10.2c-1,0.6-2.5,1.1-3.3,0.2
	c-0.7-0.8-0.3-2.1,0.2-3.1c2.2-4.5,4.3-9.1,6.5-13.6c1.1-2.3,1.7-5.9-0.7-6.6"/>
<path class="st1" d="M288.4,361.1c-4.1-3.4-4.2-10.3-0.6-14.3s9.7-5,14.7-3.2s8.9,6,11.3,10.7c0.4,0.8,0.8,1.6,1.6,2
	c0.8,0.4,1.7,0.2,2.6,0c4.4-0.7,9,0.3,12.6,2.9c-3.7,3.7-8.5,6.3-13.6,7.5c2.5,2.9,4.4,6.3,5.6,9.9c0.3,0.8,0.5,1.8,0.1,2.6
	c-0.8,1.7-3.3,1.3-5,0.6c-3.3-1.3-6.6-2.6-9.9-3.9c-0.6,4.2-1.8,8.2-3.5,12.1c-0.8,1.9-2.4,4.1-4.5,3.6c-0.9-0.2-1.7-1-2.3-1.7
	c-2.5-3.1-4.4-6.9-5.3-10.8c-0.3-1.3-0.9-3-2.3-3.1c-0.7,0-1.4,0.4-2,0.9c-3.9,2.8-8.6,4.6-13.4,5.1c-1.2,0.1-2.7-0.1-3.1-1.2
	c-0.3-1,0.6-2,1.4-2.7c3.9-3.2,7.7-6.4,11.6-9.7c1.9-1.6,4-4.6,2.1-6.3"/>
<circle class="st2" cx="145.4" cy="258.7" r="7.9"/>
<circle class="st2" cx="282.7" cy="42.5" r="7.9"/>
<circle class="st2" cx="299.5" cy="357.3" r="7.9"/>
</svg>
