<?xml version="1.0" encoding="utf-8"?>
<!-- Generator: Adobe Illustrator 22.1.0, SVG Export Plug-In . SVG Version: 6.00 Build 0)  -->
<svg version="1.1" id="Layer_1" xmlns="http://www.w3.org/2000/svg" xmlns:xlink="http://www.w3.org/1999/xlink" x="0px" y="0px"
	 viewBox="0 0 142.7 188.7" style="enable-background:new 0 0 142.7 188.7;" xml:space="preserve">
<style type="text/css">
	.st0{stroke:#000000;stroke-miterlimit:10;}
	.st1{fill:#FFFFFF;stroke:#000000;stroke-miterlimit:10;}
	.st2{fill:none;stroke:#000000;stroke-miterlimit:10;}
</style>
<path class="st0" d="M43,125.2c-4-1.7-8.8,0.3-12.1,3.1c-0.9,0.8-1.8,1.7-2.2,2.9c-0.7,1.8-0.2,3.9,0.4,5.7c2.1,6.3,5,12.3,8.6,17.9
	c-2.5,0.8-5,1.5-7.5,2.3c-2.5,0.8-5.6,2.4-5.1,5c0.2,0.9,0.8,1.7,1.4,2.3c1.8,2.1,4.9,4.2,7.1,2.6c-2,1.3-4.2,3-3.9,5.4
	c0.4,3,4.7,3.7,7.4,2.4c2.7-1.3,5-3.7,8-4.2"/>
<path class="st1" d="M42.9,117.7c1.4,13,2.7,25.9,4.1,38.9c0.1,0.7,0.1,1.5-0.1,2.1c-0.6,1.6-2.7,1.9-4.1,2.9
	c-2.1,1.5-2.5,4.8-0.9,6.7c1.6,2,4.9,2.1,6.8,0.4c-1.7,1.4-1.9,4.3-0.3,5.7c1.6,1.5,4.5,1.1,5.6-0.8c1.5,3.3,4.7,7.3,8,5.6
	c1.4-0.7,2.1-2.4,2.6-3.9c2.5-7.5,3-15.7,1.2-23.5c-0.5-2.2-1-4.9,0.6-6.5c0.7-0.6,1.6-0.9,2.5-1.2c3.8-1.1,7.6-2.3,11.4-3.4
	c2.2,10,4.1,21.2-1.4,29.7c-1.2,1.8-2.7,4.1-1.5,5.9c1.6,2.4,5.3,0.3,7.3-1.9c-1,3,1.3,6.7,4.4,7.1s6.3-2.5,6.1-5.7
	c0.4,1.5,0.9,2.9,1.3,4.4c3.4-0.7,5.9-3.7,6.8-7.1c1-3.3,0.7-6.8,0.5-10.3c-0.6-8.2-1.2-16.4-1.8-24.6"/>
<path class="st0" d="M111.5,121.3c7.9,5,11.2,16.1,7.4,24.7c-1.7,3.8-4.6,7.1-4.9,11.2c3.5-0.3,7.3,0,9.9,2.4
	c2.6,2.4,2.6,7.4-0.6,8.8c-2.5,1-5.4-0.6-8,0.1c0.6,1.1,1.3,2.3,1.4,3.6s-0.5,2.7-1.8,3.1c-1,0.3-2-0.1-2.9-0.6
	c-3.1-1.7-5.8-4.3-7.5-7.4"/>
<path class="st2" d="M66.1,151c5.1,0,10.2,0,15.3,0"/>
<line class="st2" x1="81.5" y1="81.7" x2="86.2" y2="102"/>
<line class="st2" x1="57.4" y1="81.7" x2="51.8" y2="105.1"/>
<g>
	<g>
		<path d="M110,162.5c-0.6-7.1-1.2-14.2-1.9-21.2c-1.6,0-3.2,0-4.9,0c0.8,7,1.1,13.9,0.9,21c1.6,0,3.2,0,4.9,0
			c0.2-11.8-1.2-23.5-4.1-34.9c-0.8-3.1-5.3-1.8-4.7,1.3c0.9,4.5,1.5,9,1.7,13.6c1.6-0.2,3.2-0.4,4.8-0.6c-1-6-1.8-12-2.5-18
			c-1.5,0.4-3,0.8-4.5,1.2c2.6,4.6,4.3,9.4,5.4,14.6c0.6,2.7,4.9,2.1,4.8-0.6c-0.3-5.1-0.6-10.1-0.9-15.2c-1.6,0.2-3.2,0.4-4.8,0.6
			c1,2.6,2,5.3,2.9,7.9c0.9,2.3,3.8,2.3,4.7,0c1-2.7,1.4-5.2,1.2-8.1c-0.2-3.1-5-3.1-4.9,0c0.1,2.5-0.2,4.5-1.1,6.8
			c1.6,0,3.1,0,4.7,0c-1-2.6-2-5.3-2.9-7.9c-0.9-2.4-5-2.3-4.8,0.6c0.3,5.1,0.6,10.1,0.9,15.2c1.6-0.2,3.2-0.4,4.8-0.6
			c-1.2-5.6-3.1-10.8-5.9-15.7c-1.1-2-4.8-1.2-4.5,1.2c0.8,6.5,1.6,12.9,2.7,19.3c0.4,2.7,4.9,2.1,4.8-0.6c-0.2-5-0.9-10-1.9-14.9
			c-1.6,0.4-3.1,0.9-4.7,1.3c2.8,11,4.1,22.2,4,33.6c0,3.1,4.8,3.1,4.9,0c0.2-7-0.1-14-0.9-21c-0.4-3-5.1-3.2-4.9,0
			c0.6,7.1,1.2,14.2,1.9,21.2C105.4,165.6,110.3,165.6,110,162.5L110,162.5z"/>
	</g>
</g>
<g>
	<g>
		<path d="M46.4,157.7c-2.4-9.1-3.7-18.3-3.7-27.7c-1.6,0.2-3.3,0.4-4.9,0.7c2.6,8.4,4.3,17,5,25.8c0.3,3.2,5.3,3.2,5,0
			c-0.8-9.2-2.5-18.2-5.2-27.1c-0.8-2.6-4.9-2.2-4.9,0.7c0.1,9.9,1.4,19.6,3.9,29.1C42.4,162.2,47.2,160.9,46.4,157.7L46.4,157.7z"
			/>
	</g>
</g>
<path class="st1" d="M48.3,65.9c-16.1,11.8-13.9,40.3-31.7,49.4c9.4,5.7,22,5.4,31.2-0.6c5.7,8.9,13.3,16.5,22.2,22.3
	c7.9-6.2,14.2-14.2,18.5-23.3c8.4,7.8,21.4,10.3,32,6c-5.5-6.7-6.8-15.7-9.5-24c-4.6-14.1-8.2-22.3-20.2-31"/>
<path class="st2" d="M50.9,56.2c-7.1,1-16.4,1.2-23.5,2.1c6.4,3.9,18.4,6.7,25.9,6.5c1.5,0-1.2-0.9,0,0c1.1,0.7,1.6,2,2.1,3.2
	c3.8,7.9,12,13.5,20.8,14c-1.4-6.4-2.7-12.8-4.1-19.2c3.8,2.5,7.9,5.1,12.4,4.7c3.9-0.4,7.2-3.1,9.4-6.4s0.5-6.1,1.6-9.8
	c0.8,0.2,3.1,1,2.3,0.8c-2.3-0.8-1.6-0.3-2.3-0.8c-6.3-3.9-15.3-2.4-20.1,3.3c-2-14.3,0.8-29.3,7.7-42c-5.4,0.6-9.8,4.9-12,9.8
	s-2.7,10.5-3.1,15.9c-0.4,5.8-0.9,11.5-1.3,17.3C62.4,48.4,54.3,43.6,45.9,43C48.5,47,50.3,51.5,50.9,56.2"/>
<circle class="st2" cx="56.3" cy="96.4" r="4.5"/>
<circle class="st2" cx="95.9" cy="83.6" r="5.8"/>
<circle class="st2" cx="77.6" cy="105.8" r="3.8"/>
<circle class="st2" cx="49.3" cy="77.6" r="2.5"/>
<circle class="st2" cx="36" cy="113.7" r="4"/>
</svg>
