<?xml version="1.0" encoding="utf-8"?>
<!-- Generator: Adobe Illustrator 22.1.0, SVG Export Plug-In . SVG Version: 6.00 Build 0)  -->
<svg version="1.1" xmlns="http://www.w3.org/2000/svg" xmlns:xlink="http://www.w3.org/1999/xlink" x="0px" y="0px"
	 viewBox="0 0 1517 1402.4" style="enable-background:new 0 0 1517 1402.4;" xml:space="preserve">
<style type="text/css">
	.st0{display:none;}
	.st1{display:inline;}
	.st2{fill:#FFFFFF;}
	.st3{fill:url(#SVGID_1_);}
	.st4{fill:url(#SVGID_2_);}
	.st5{fill:url(#SVGID_3_);}
	.st6{fill:url(#SVGID_4_);}
	.st7{fill:url(#SVGID_5_);}
	.st8{fill:url(#SVGID_6_);}
</style>
<g id="Слой_3">
	<g class="st0">
		<g class="st1">
			<path class="st2" d="M85.2-176.4c5.8,0,5.8-9,0-9C79.4-185.4,79.4-176.4,85.2-176.4L85.2-176.4z"/>
		</g>
	</g>
	<g id="Слой_5">
	</g>
</g>
<g id="Слой_2">
</g>
<g id="Слой_1">
</g>
<g id="Слой_4">
	<g>
		<g>
			<path class="st2" d="M2126.9,1623.3c12.9,0,12.9-20,0-20C2114.1,1603.3,2114.1,1623.3,2126.9,1623.3L2126.9,1623.3z"/>
		</g>
	</g>
	<g id="Слой_4_1_">
		<g>
			
				<linearGradient id="SVGID_1_" gradientUnits="userSpaceOnUse" x1="181.8054" y1="1475.6163" x2="891.8796" y2="1475.6163" gradientTransform="matrix(1 0 0 -1 0 2064.3284)">
				<stop  offset="0" style="stop-color:#F17AA9"/>
				<stop  offset="1" style="stop-color:#F17AA9;stop-opacity:0"/>
			</linearGradient>
			<path class="st3" d="M562.4,358.2c-56.4-17.6-120.9-6.9-168.6,28c-52.8,38.8-83.4,103-138.1,138.9
				c-25.6,16.8-57.9,29.1-69.8,57.4c-11,26,1.1,57.8,23.3,75.2c22.2,17.3,52.3,22,80.3,19c2.1,23,21.3,41.5,42.9,49.7
				s45.3,7.9,68.3,7c3.1,27.4,23.5,52.1,49.8,60.4s57.1-0.1,75.5-20.7c4.7-5.2,9.6-11.7,16.6-11.7c11.8,0,14.4,16.1,18.3,27.1
				c6.5,18.2,25.2,29.2,43.7,34.8c60.9,18.4,132.7-10.9,163.5-66.6c6.7,30.9,49.8,42,77.1,26s40.2-48.7,45-79.9
				c3.3-21.5,2.8-46.1-12.4-61.6c-10.1-10.3-24.6-14.4-37.9-20c-66-27.7-106.2-93.3-147.5-151.7s-96.6-117.8-168-120.8"/>
		</g>
		<g>
			
				<linearGradient id="SVGID_2_" gradientUnits="userSpaceOnUse" x1="-8.3902" y1="1235.5676" x2="582.7039" y2="1235.5676" gradientTransform="matrix(1 0 0 -1 0 2064.3284)">
				<stop  offset="0" style="stop-color:#F17AA9"/>
				<stop  offset="1" style="stop-color:#F17AA9;stop-opacity:0"/>
			</linearGradient>
			<path class="st4" d="M487.8,455.1c-71.9,4-130.6,80.4-116.1,150.9c4.6,22.3,15.1,42.8,22.9,64.2c24.5,67.3,21,144.4-9.5,209.2
				S297.4,996,229.9,1020c-58.3,20.7-122,21-181.3,38.4c-19.4,5.7-39.7,14.3-50.2,31.7c-11.5,19.1-7.6,44.7,5.3,62.9
				c12.9,18.2,33.2,29.8,54.1,37.5c56.2,20.5,121.4,14.4,172.8-16c52.5-31,87.9-83.5,131.2-126.4c69.1-68.4,163.5-118.4,199.6-208.7
				c16.3-40.9,18.6-85.8,20.2-129.8c1.8-48.4,3.1-98-11.4-144.2s-47.7-89.4-94.3-102.9"/>
		</g>
		<g>
			
				<linearGradient id="SVGID_3_" gradientUnits="userSpaceOnUse" x1="181.7803" y1="1033.829" x2="463.0136" y2="1033.829" gradientTransform="matrix(1 0 0 -1 0 2064.3284)">
				<stop  offset="0" style="stop-color:#F17AA9"/>
				<stop  offset="1" style="stop-color:#F17AA9;stop-opacity:0"/>
			</linearGradient>
			<path class="st5" d="M402.5,923.9c-40.1,11-79.3,5.3-120.8,2.3c-22.8-1.7-46.4-5.4-67.9,2.4c-21.4,7.8-38.9,32.6-29.4,53.4
				c6.5,14.3,25.2,21.5,39.6,15.2c10.2-4.4,21.9-14.4,30.5-7.3c6.5,5.4,4,15.6,4.4,24c0.9,19.8,25.2,34.4,43.1,26
				c6.2-2.9,13.6-8,19.1-3.9c3.3,2.5,3.9,7.1,4.6,11.2c6.4,36.4,51.7,59.9,85.2,44.2c-3,10.3-4.3,21.1-3.7,31.9
				c0.2,2.9,0.5,5.9,2.1,8.3c2.5,3.9,7.4,5.4,12,5.6c19.5,1,35.9-16.8,40.1-35.9c4.2-19.1-0.7-38.8-6-57.6
				C443.6,1001.4,429.5,958.6,402.5,923.9"/>
		</g>
	</g>
	<g>
		<linearGradient id="SVGID_4_" gradientUnits="userSpaceOnUse" x1="70.9178" y1="1114.0497" x2="1028.5099" y2="1114.0497">
			<stop  offset="0" style="stop-color:#F17AA9"/>
			<stop  offset="1" style="stop-color:#F17AA9;stop-opacity:0"/>
		</linearGradient>
		<path class="st6" d="M88,1259.9c114.6,6.2,229.3,12.4,343.9,18.7c30.5,1.7,61.9,3.2,90.6-7.3c51.5-18.8,82.7-72.3,95.6-125.6
			c7.6-31.8,10.8-65.9,29.3-92.8c24.5-35.7,70.5-50.6,98.5-83.6c-28.3,10.9-58.5,16.7-88.8,17c-14.7,0.1-31.5-2.2-39.5-14.5
			c-13.9-21.4,11.2-46.7,33.9-58.4c39.4-20.2,81.6-35.2,125-44.3c41.2-8.6,52.3-13.9,71.1-35.6c9.5-10.9,26.5-10.4,35.5,0.9
			c39,49.3,108.5,98.7,135.6,148c8.9,16.2,17.3,38.6-1.1,50c-1.6,1-3.4,1.9-5.2,2.5c-55.1,21.3-122.5,4-160.9-40.8
			c3.8,18.7,7.6,38.1,3.6,56.8c-3.9,18.7-17.6,36.7-36.5,39.6c-17.6,2.6-34.9-8.6-44.8-23.3c-9.9-14.8-13.8-32.6-17.6-49.9
			c-2.8,54.1-39.6,67.6-54.1,119.8c-9.9,35.6,14,68.2-14.9,91.2c-42.8,34.1-54.5,93.1-104.6,115.2c-33.3,14.7-120.2,20.8-152.4,37.7
			c-78.6,41.3-178.5,17.7-250.5-34.3c-28.2-20.4-54.4-45.2-87.4-56.3c-8.2-2.7-17.8-5.6-20.9-13.6s9.7-17.7,13.6-10"/>
	</g>
	<g>
		<linearGradient id="SVGID_5_" gradientUnits="userSpaceOnUse" x1="-112.7394" y1="557.0248" x2="1517.03" y2="557.0248">
			<stop  offset="0" style="stop-color:#F17AA9"/>
			<stop  offset="1" style="stop-color:#F17AA9;stop-opacity:0"/>
		</linearGradient>
		<path class="st7" d="M-80.9,1080.8C-2,1071.9,56.2,997.9,75.9,921S86,763.2,83.5,683.8c-2.4-73.5,1.4-147.9,20.7-219
			c18.6-68.8,51.5-133.3,92.5-191.6c50.9-72.5,117.6-137.8,201.3-166.9c107.4-37.3,226.3-9.9,333,29.5c46.7,17.2,93.5,37.4,130.2,71
			c31.7,29,54.1,66.6,78.4,102c54.5,79.5,120.7,150.9,195.8,211.1c6.8,5.5,14.3,11.7,15.5,20.4c0.9,6.3-1.7,12.5-3.8,18.6
			c-10,28-10.8,59.2-2.3,87.8c-32.2,20.8-44,67.8-25.4,101.3c18.6,33.5,64.9,48.3,99.5,31.8c41.3-19.7,56.6-70.6,89.9-102
			c44.5-42.1,112.6-42.9,170.3-63.7c8.9-3.2,18.1-7.2,24.1-14.6c6.5-8,8.4-18.6,10-28.8c5.3-32.9,9.2-70.9-13.4-95.3
			c-25.9-28-73-23-103.1-46.3c-20.4-15.8-29.5-41.7-41.8-64.3c-12.3-22.7-32.8-45.2-58.6-44.1c-37.9,1.7-52.7,48.3-66,83.7
			c-2.6,7-5.9,14.3-12,18.6c-14.9,10.5-34.5-2.2-49.6-12.4s-40.6-15.3-47.5,1.5c-78.7-117-162.9-235.8-282.8-309.8
			C731.4,36.7,604.3,11.6,479.3,1.9c-38.3-3-78.5-4.3-113.5,11.6c-76.5,34.9-146.5,103.7-205.5,163.4
			c-32.8,33.2-60.6,84.4-89.4,121.2c-31.6,40.5-33.5,93.8-50,142.4C2.8,493.7,0,543.4-8.2,598.9c-8.2,55.4,5.8,111.4,13.3,166.9
			c7.5,55.5,7.5,116.3-24.5,162.4c-15.8,22.7-38.2,40-57.4,59.9s-36,44.9-36,72.6c0,27.7,23.3,56.4,50.8,53.1"/>
	</g>
	<g>
		<linearGradient id="SVGID_6_" gradientUnits="userSpaceOnUse" x1="687.2791" y1="170.0051" x2="985.2435" y2="170.0051">
			<stop  offset="0" style="stop-color:#F17AA9"/>
			<stop  offset="1" style="stop-color:#F17AA9;stop-opacity:0"/>
		</linearGradient>
		<path class="st8" d="M929.7,265.7c-28.8-10.9-57.6,13-86.2,24.5c-23.6,9.5-49.7,10.5-75.2,11.3c-11.6,0.4-23.5,0.7-34.3-3.4
			c-19.8-7.5-31.3-27.7-41.2-46.5c-3.4-6.5-7-13.9-5.1-21c2.6-9.6,13.4-14,23.1-16.1c20-4.6,40.7-5.6,61-3.1
			c-7.6,4.8-15.9-4.9-19.7-13c-6.3-13.4-12.6-27.4-12.9-42.2c-0.2-14.8,7.4-30.8,21.4-35.6c12.6-4.3,26.4,1.4,37.3,9
			s20.4,17.4,32.5,22.9c9.8-29.7-7.9-60.7-15.2-91.1c-1.6-6.6-2.3-14.6,2.7-19.2c3.5-3.3,8.7-3.8,13.4-3.7c39.3,0.7,75.2,34.8,78,74
			c-2.8-19.5-4.6-42.3,9.8-55.8c18.3-17.2,51.5-4.2,61.4,18.8c9.9,23,2.8,49.9-8.3,72.5c-5.6,11.3-12.3,23-11.2,35.6
			c0.8,9.9,6.3,18.6,9.6,28s3.9,21.1-3.4,27.8c-15.1,14-48.4-6.1-56.9,12.7c-1.7,3.7-1.6,8.1-2.9,12c-3,8.6-14.2,13.2-22.4,9.1"/>
	</g>
</g>
</svg>
