<?xml version="1.0" encoding="utf-8"?>
<!-- Generator: Adobe Illustrator 22.1.0, SVG Export Plug-In . SVG Version: 6.00 Build 0)  -->
<svg version="1.1" xmlns="http://www.w3.org/2000/svg" xmlns:xlink="http://www.w3.org/1999/xlink" x="0px" y="0px"
	 viewBox="0 0 990.1 1511.7" style="enable-background:new 0 0 990.1 1511.7;" xml:space="preserve">
<style type="text/css">
	.st0{display:none;}
	.st1{display:inline;}
	.st2{fill:#FFFFFF;}
	.st3{fill:url(#SVGID_1_);}
	.st4{fill:url(#SVGID_2_);}
	.st5{fill:url(#SVGID_3_);}
	.st6{fill:url(#SVGID_4_);}
	.st7{fill:url(#SVGID_5_);}
	.st8{fill:url(#SVGID_6_);}
	.st9{fill:url(#SVGID_7_);}
	.st10{fill:url(#SVGID_8_);}
	.st11{fill:url(#SVGID_9_);}
</style>
<g id="Слой_3">
	<g class="st0">
		<g class="st1">
			<path class="st2" d="M-441.8-405.2c5.8,0,5.8-9,0-9C-447.6-414.2-447.6-405.2-441.8-405.2L-441.8-405.2z"/>
		</g>
	</g>
	<g id="Слой_5">
	</g>
</g>
<g id="Слой_2">
</g>
<g id="Слой_1">
</g>
<g id="Слой_4">
	<g>
		<g>
			<path class="st2" d="M1600,1394.5c12.9,0,12.9-20,0-20C1587.1,1374.5,1587.1,1394.5,1600,1394.5L1600,1394.5z"/>
		</g>
	</g>
	<g id="Слой_4_1_">
		<g>
			
				<linearGradient id="SVGID_1_" gradientUnits="userSpaceOnUse" x1="464.018" y1="1066.9252" x2="968.9497" y2="1066.9252" gradientTransform="matrix(1 0 0 -1 0 1606.6606)">
				<stop  offset="0" style="stop-color:#F17AA9"/>
				<stop  offset="1" style="stop-color:#F17AA9;stop-opacity:0"/>
			</linearGradient>
			<path class="st3" d="M959.6,922.9c-37.9,5.7-75.7-13.6-103.7-39.8s-48.6-59-72.7-88.8c-75.1-92.6-187.6-161.2-223.9-274.8
				c-10.7-33.5-14.1-69.5-30.1-100.7c-10.7-21-26.7-38.8-38.9-58.9c-38-62.7-34.5-148,8.5-207.5c2.7-3.7,6-7.6,10.5-8.2
				c7.8-1,12.9,8,15,15.6c18.4,67.7-14.2,150.8,31.4,204.1c8.4,9.8,18.8,17.6,27.7,26.8c46.6,48.6,44,127.8,84.5,181.7
				c42.2,56.2,122.2,73.1,165.4,128.6c20.8,26.7,31,59.9,48.3,89c23.1,38.8,58.2,69.4,81.1,108.3c3.7,6.3,7.2,13.4,6,20.6
				c-1.9,11.5-15.5,17.9-27,16.3c-11.5-1.6-21.4-9-30.6-16"/>
		</g>
		<g>
			
				<linearGradient id="SVGID_2_" gradientUnits="userSpaceOnUse" x1="527.1122" y1="1063.0201" x2="743.875" y2="1063.0201" gradientTransform="matrix(1 0 0 -1 0 1606.6606)">
				<stop  offset="0" style="stop-color:#F17AA9"/>
				<stop  offset="1" style="stop-color:#F17AA9;stop-opacity:0"/>
			</linearGradient>
			<path class="st4" d="M555.3,494.2c-13.1,20-25.3,41.5-27.8,65.2s6.8,50.2,27.8,61.4c3.9,2.1,8.2,3.6,12.6,3.5
				c16.1-0.4,23-20.2,25.8-36c10.6,8.1,21.5,15.7,32.8,22.7c4.5,2.8,9.3,5.6,14.5,5.4c11.4-0.3,17.8-13.6,18.3-25
				c0.4-11.4-2.4-23.4,2-33.9c19.5,13.2,41.4,22.7,64.3,28c2.3,0.5,5,1,7-0.4c1.9-1.3,2.5-3.9,2.7-6.2c1.9-16.6-3.4-33.9-14.1-46.6
				c7.2,7.7,20.6-1.7,22.3-12.1c2.1-12.8-5.1-25.8-15.2-33.9c-10.1-8.1-22.9-12.2-35.4-15.5c-21.8-5.7-44.6-9.6-67-6.8
				c-26.6,3.3-51.9,16.4-70,36.2"/>
		</g>
		<g>
			
				<linearGradient id="SVGID_3_" gradientUnits="userSpaceOnUse" x1="313.6979" y1="1437.0098" x2="752.0726" y2="1437.0098" gradientTransform="matrix(1 0 0 -1 0 1606.6606)">
				<stop  offset="0" style="stop-color:#F17AA9"/>
				<stop  offset="1" style="stop-color:#F17AA9;stop-opacity:0"/>
			</linearGradient>
			<path class="st5" d="M359.7,295.6c35.9,17,72.4,34.1,111.5,40.9s81.9,2.1,113.9-21.4c14.4-10.6,27.7-25.4,45.5-27.1
				c16.1-1.5,31.3,8.3,47.5,8.7c32.7,0.8,53-34.4,65.8-64.4c6.4-15,12.6-33,3.8-46.7c-9.4-14.7-30.8-15.9-44.1-27.2
				c-19.7-16.8-15.2-47.7-20.9-72.9c-6.5-28.6-28.1-52.2-53.9-66C602.9,5.7,573.2,0.9,543.9,0.1c-9-0.2-18.4,0-26.6,3.8
				c-10.2,4.7-17.2,14.4-23.7,23.6c-29,41.2-58.3,82.9-77,129.6c-4.8,11.9-9,24.4-17.5,34c-10,11.3-24.6,17.1-37.5,24.9
				c-16.7,10.1-31,24.1-41.5,40.5c-3.3,5.1-6.2,10.6-6.4,16.6c-0.4,11.3,9.6,20.9,20.5,24.1c10.9,3.1,22.5,1.3,33.7-0.5"/>
		</g>
	</g>
	<g>
		<linearGradient id="SVGID_4_" gradientUnits="userSpaceOnUse" x1="24.1037" y1="767.1887" x2="997.1827" y2="767.1887">
			<stop  offset="0" style="stop-color:#F17AA9"/>
			<stop  offset="1" style="stop-color:#F17AA9;stop-opacity:0"/>
		</linearGradient>
		<path class="st6" d="M966.4,1058.5c-24.1-52.9-74-90.9-128.6-111.2c-54.5-20.3-113.6-24.6-171.7-25c-23.6-0.2-47.7,0.2-70.3-6.7
			c-25-7.6-46.6-23.6-65.9-41.2c-34.4-31.3-63.4-68.4-85.4-109.4c-12.9-24-23.9-50.1-44.5-68c-39.5-34.3-103.4-26-144.4,6.5
			c8.9,1,17.8,2,26.7,3.1c5.5,12,1.8,27.6-8.4,35.9c17.4-3.7,36.7,6.3,43.6,22.7c6.9,16.4,0.6,37.3-14.3,47.1
			c21.8,14.3,36.7,41,31.5,66.6c-5.2,25.6-34.5,45.2-58.7,35.5c-18.4-7.4-28.2-27.3-43.2-40.2c-30.4-26.2-76.1-20.4-114.8-31.4
			C56.8,825.2,14.6,757.3,26,694.6c1.8-10.1,5-20.2,11.2-28.3c11.6-15.1,31.8-20.9,46-33.6c37.1-33.4,19.6-96.7,44-140.3
			c4.4-7.9,10.4-15.2,18.4-19.6c18.9-10.4,44.3-0.2,55.9,18c11.5,18.2,11.5,41.7,6,62.5c30-1.5,55.8,32.4,46.5,60.9
			c98-3.4,207.5,12.9,269,89.3c28,34.8,43.4,79.4,76.2,109.8c75.9,70.3,204.9,34,292.9,88.5c41.4,25.6,68.7,68.5,93.4,110.5
			c7.7,13.2,15.6,28.9,9.7,43c-5.9,14.1-32.8,14.3-32.6-0.9"/>
	</g>
	<g>
		<linearGradient id="SVGID_5_" gradientUnits="userSpaceOnUse" x1="471.7077" y1="806.9813" x2="622.8017" y2="806.9813">
			<stop  offset="0" style="stop-color:#F17AA9"/>
			<stop  offset="1" style="stop-color:#F17AA9;stop-opacity:0"/>
		</linearGradient>
		<path class="st7" d="M478.6,814.7c-4.9,17-7.2,34.7-6.8,52.4c0.2,9.7,1.4,19.8,6.4,28.2c5,8.3,14.8,14.5,24.4,12.6
			c9-1.8,15.6-10.3,17.9-19.2c2.3-8.9,1.2-18.3,0.1-27.5c12.3-0.1,9.2,26.9,21.5,26.1c4.1-0.3,6.9-4,9-7.5
			c11.4-18.6,19.3-39.3,23.3-60.7c13.8,6,31.7-0.1,39-13.3c7.3-13.2,2.8-31.6-9.7-40c15.2-3.4,23.1-22.8,17.2-37.2
			c-5.9-14.4-22.1-22.8-37.6-22.7c-22.9,0.1-42.7,15.1-60.6,29.4c-9.7,7.7-20,16.5-22.3,28.7c-1.3,6.8,0.1,13.9-0.8,20.7
			c-1.8,13.4-13.5,24.8-26.9,26.2"/>
	</g>
	<g>
		<linearGradient id="SVGID_6_" gradientUnits="userSpaceOnUse" x1="685.1545" y1="685.1539" x2="991.2478" y2="685.1539">
			<stop  offset="0" style="stop-color:#F17AA9"/>
			<stop  offset="1" style="stop-color:#F17AA9;stop-opacity:0"/>
		</linearGradient>
		<path class="st8" d="M980.5,1076.8c7.8,10.2-7.7,22.2-20.2,25.2c-44.1,10.3-93.6,8.1-130.4-18.2c-38.3-27.4-55.8-75.2-66.8-121
			c-9.9-41-16.4-83.2-13.4-125.2c4.8-69.3,34.7-133.9,56-200.1c21.3-66.1,33.6-140.4,4.5-203.4c-11.3,30.2-57.9,38.6-79.1,14.3
			c-2.7-3.1-5.5-6.9-9.6-7.6c-5.6-0.9-10.1,4.4-15.6,6.1c-8.9,2.8-18.2-5.4-20.2-14.6c-2-9.1,1.2-18.5,4.3-27.3
			c12.1-34,24.2-68,36.2-102c4.5-12.6,9.6-26.1,20.5-33.9c18.2-13,44.3-4.6,61.6,9.6s30.2,33.5,49,45.6c20.4,13.2,46.2,16.8,65.2,32
			c18.9,15.2,24.1,51.4,1.3,59.9c-7,2.6-15.1,1.8-21.7,5.4c-13.7,7.5-12.1,27.2-10.2,42.7c8.7,70.6-15.7,140.5-33.2,209.5
			c-17,67.4-27.6,136.5-31.4,206c-1.9,34.1-1.9,69.7,12.1,100.8c14.1,31.2,45.8,56.8,79.8,53.4c11.6-1.2,22.9-5.5,34.5-4.9
			c23.2,1.4,41.9,26.6,36.4,49.3"/>
	</g>
	<g>
		<linearGradient id="SVGID_7_" gradientUnits="userSpaceOnUse" x1="13.1042" y1="1232.6874" x2="896.5969" y2="1232.6874">
			<stop  offset="0" style="stop-color:#F17AA9"/>
			<stop  offset="1" style="stop-color:#F17AA9;stop-opacity:0"/>
		</linearGradient>
		<path class="st9" d="M760.7,959.2c-59.4-5.3-119.1-6.8-178.6-4.5c-43.6,1.7-90.9,7-122.2,37.4c-21.4,20.8-32.5,50.9-55.9,69.5
			c-32.3,25.6-78.2,22.2-117.6,34.6c-48.1,15.1-87,56.4-99.1,105.3c-1.9,7.8-4.4,17.2-12,19.7c-7.4,2.4-14.7-3.1-21.2-7.2
			c-18.3-11.6-43-13.7-61.7-2.7c-18.7,11-28.9,35.8-20.8,55.9c-20.5-18-59.2,0.4-58.4,27.7c1.1,37.8,54.5,49.4,73.2,82.3
			c14.6,25.6,5,58.5,13.7,86.7c7.1,22.7,26.8,41,50,46.3c23.2,5.3,49-2.6,65.2-20c12.5-13.4,19.5-31.8,33.8-43.3
			c35.2-28.4,95.9-2.6,128.2-34.3c18.2-17.8,18.3-49.6,2.7-69.7c-15.7-20.1-44-28-68.8-22.3c-4.8,1.1-9.9,2.6-14.6,0.9
			c-5-1.9-7.9-7-10.3-11.7C265.6,1270,246,1218,275.2,1184c44.6-51.9,149.6,0.9,189.9-54.4c13.6-18.7,14.3-44.4,28.2-62.9
			c17.8-23.6,51-27.9,80.5-30.3c43.9-3.5,87.9-7.1,131.9-5.4c56.7,2.1,115.6,12.5,168.5-7.8c12.1-4.7,25.6-15.2,21.8-27.5
			c-3-10-15.2-13.3-25.5-15.1c-39.6-6.7-79.3-13.4-118.9-20.1"/>
	</g>
	<g>
		<linearGradient id="SVGID_8_" gradientUnits="userSpaceOnUse" x1="245.0485" y1="1111.8528" x2="447.0934" y2="1111.8528">
			<stop  offset="0" style="stop-color:#F17AA9"/>
			<stop  offset="1" style="stop-color:#F17AA9;stop-opacity:0"/>
		</linearGradient>
		<path class="st10" d="M267.6,1098.9c-17-22.2-25-51.1-21.9-78.9c1.2-10.5,6.1-22.8,16.6-24c7.5-0.8,14.1,4.8,19.2,10.4
			c9.4,10.4,17.2,22.2,23.1,34.8c1.8,3.8,3.5,7.8,6.7,10.5c6.8,5.6,17.1,2.9,24.6-1.6c7.5-4.5,14.5-10.8,23.2-12.1
			c17.5-2.6,30.9,16,35.2,33.2c2.5,10,3.1,21.6-3.7,29.4c5.7,4.5,14,1,21.3,0.4c11.6-0.8,23.1,8,25.3,19.4s-5.1,23.9-16.2,27.5
			c-3,1-6.9,2.1-7.1,5.3c-0.1,1.4,0.6,2.6,1.4,3.7c7.2,11,18.5,18.9,25.9,29.8s9.2,28-1.5,35.7c-4.8,3.5-11,4.2-16.9,4.7
			c-15.1,1.2-31,1.5-44.3-5.5c-27.6-14.5-37.9-55.9-68.7-60.4c-9.9-1.4-20.5,1.5-29.7-2.4c-10.1-4.2-15.5-15.8-15.8-26.7
			s3.6-21.5,7.4-31.7"/>
	</g>
	<g>
		<linearGradient id="SVGID_9_" gradientUnits="userSpaceOnUse" x1="737.1779" y1="641.1404" x2="943.754" y2="641.1404">
			<stop  offset="0" style="stop-color:#F17AA9"/>
			<stop  offset="1" style="stop-color:#F17AA9;stop-opacity:0"/>
		</linearGradient>
		<path class="st11" d="M822.1,581.6c-1.6,11-11.6,19-22,22.9c-10.4,3.9-21.7,5-32.1,8.7c-14.4,5.1-27.6,16.5-30.4,31.5
			c-2.7,15,8.9,32.4,24.2,31.8c9.8-0.4,22-6.6,27.9,1.3c2.8,3.7,2.3,8.8,2.4,13.4c0.1,8.3,2.8,17.2,9.5,22.2
			c10.9,8.3,27.8,2.3,35.8-8.7c8-11.1,9.6-25.4,11-39.1c8.1,9.7,16.2,19.4,24.2,29.1c5.5,6.6,14.7,13.8,21.5,8.6
			c2.5-1.8,3.7-4.8,4.9-7.7c4.5-11.4,8.2-23,11.3-34.8c9.1,1.1,13.3,16.4,22.2,14.2c2.5-0.6,4.5-2.7,6-4.8
			c10.2-14.3,5.4-36.9-9.7-45.8c-7.2-4.3-15.7-5.6-23.2-9.2c-11.8-5.8-19.9-16.8-28.2-26.9c-8.3-10.1-18.1-20.3-30.9-23
			c-12.8-2.7-28.6,5.8-28.6,18.9"/>
	</g>
</g>
</svg>
