<?xml version="1.0" encoding="utf-8"?>
<!-- Generator: Adobe Illustrator 22.1.0, SVG Export Plug-In . SVG Version: 6.00 Build 0)  -->
<svg version="1.1" xmlns="http://www.w3.org/2000/svg" xmlns:xlink="http://www.w3.org/1999/xlink" x="0px" y="0px"
	 viewBox="0 0 932.7 954" style="enable-background:new 0 0 932.7 954;" xml:space="preserve">
<style type="text/css">
	.st0{display:none;}
	.st1{display:inline;}
	.st2{fill:#FFFFFF;}
	.st3{fill:url(#SVGID_1_);}
</style>
<g id="Слой_3">
	<g class="st0">
		<g class="st1">
			<path class="st2" d="M-212.1-435.1c5.8,0,5.8-9,0-9C-217.9-444.1-217.9-435.1-212.1-435.1L-212.1-435.1z"/>
		</g>
	</g>
	<g id="Слой_5">
	</g>
</g>
<g id="Слой_2">
</g>
<g id="Слой_1">
</g>
<g id="Слой_4">
	<g>
		<linearGradient id="SVGID_1_" gradientUnits="userSpaceOnUse" x1="118.6063" y1="397.8039" x2="815.5807" y2="397.8039">
			<stop  offset="0" style="stop-color:#74BF44"/>
			<stop  offset="1" style="stop-color:#74BF44;stop-opacity:0"/>
		</linearGradient>
		<path class="st3" d="M815.6,127c-90-6.8-184-13.1-267.1,21.9c-35.2,14.8-67.1,36.6-97.7,59.5c-26.4,19.8-53.1,41.8-65.9,72.2
			c-2,4.8-3.9,10.1-8.2,13c-8.5,5.8-19.7-1.2-27.7-7.7c-29.7-23.8-63.5-44-100.9-50.7c-37.4-6.7-79,1.8-105.9,28.8
			c-31.7,31.8-27.1,69-10.9,105.9c21.5,48.9,39.9,98.1,51.6,150.3c10.7,47.6,18.3,99.9,53.3,133.9c26.1,25.4,63.6,36,100,38.2
			c43.6,2.7,90.3-6.5,122.3-36.2c32.4-30.1,46.9-78.2,85-100.7c36.1-21.2,83.4-13.2,120.5-32.7c35.3-18.6,54.7-64.4,40.6-101.7
			c-14.1-37.3-62.2-58.6-98.1-41.3c5.7-19.4-2.8-42-19.7-52.9c-24.3-15.7-67.9,4.5-30.5-31.5c24.4-23.4,66.9-35.3,99.4-38.6
			c25.8-2.6,52-0.3,77.6-4.6c25.6-4.3,51.9-16.9,63-40.3c14.1-29.4-1.6-66.6-28-85.7s-60.7-23.6-93.3-23.4
			c-37.5,0.2-80.4,9.4-98.2,42.3"/>
	</g>
</g>
</svg>
