<?xml version="1.0" encoding="utf-8"?>
<!-- Generator: Adobe Illustrator 22.1.0, SVG Export Plug-In . SVG Version: 6.00 Build 0)  -->
<svg version="1.1" id="Слой_1" xmlns="http://www.w3.org/2000/svg" xmlns:xlink="http://www.w3.org/1999/xlink" x="0px" y="0px"
	 viewBox="0 0 178.5 179.2" style="enable-background:new 0 0 178.5 179.2;" xml:space="preserve">
<style type="text/css">
	.st0{fill:#F8B88C;}
	.st1{fill:#FFF18C;}
	.st2{fill:#E563A1;}
	.st3{fill:#EEBAD7;}
	.st4{fill:#6798A5;}
	.st5{fill:#8DD1E5;}
</style>
<g>
	<path class="st0" d="M39.9,57.2c0.5-1.8-1.2-3.4-2.8-4.4c-3-1.9-6.3-3.6-9.9-4s-7.4,0.5-9.9,3.1c-2.5,2.7-3.1,6.7-3.4,10.3
		c-0.6,7.2-0.8,14.4-0.4,21.6c0.1,1.2,0.2,2.4,0.9,3.3c0.9,1.1,2.5,1.4,3.9,1.6c6.8,0.9,13.8,0.7,20.5-0.6
		C46,86.8,53.8,83.5,56,76.6c0.8-2.5,0.8-5.3,0.6-7.9c-0.1-1.1-0.1-2.2-0.6-3.2c-0.6-1.2-1.8-2-3-2.6c-6.5-3.6-14.7-3.9-21.5-0.9
		c1.7,1.2,4.2,1,5.7-0.3s2-3.8,1.1-5.6"/>
	<g>
		<path class="st0" d="M42.4,57.2c0-6.5-9-10.1-14.5-10.8c-6.2-0.9-12.3,1.8-14.8,7.8c-2.9,7-2.3,16.4-2.2,23.8
			c0,3.1-0.5,7.8,1.4,10.5c1.8,2.5,5,2.8,7.9,3.1c12.1,1.2,33.7,0.2,38.2-14.3c2.1-6.8,1.2-14.1-5.6-17.3c-7-3.3-15-3.3-22-0.4
			c-1.8,0.7-2.7,3.5-0.6,4.6c6.1,3,12.8-2,10.4-8.8c-1-3-5.9-1.7-4.8,1.3c-1,1-2.1,2.1-3.1,3.1c-0.2,1.5-0.4,3-0.6,4.6
			c4.6-1.8,9.4-2.5,14.3-1.4c3.7,0.8,6.9,2.5,7.7,6.5c0.5,2.3,0,5.3-1,7.4c-3.9,8.7-17.3,9.9-25.5,10c-2.5,0-5,0-7.5-0.3
			c-4.1-0.4-4.2-3-4.3-6.6c-0.2-5.2,0-10.5,0.4-15.7c0.4-5.3,1-11.5,7.2-12.8c2.9-0.6,13.8,1.4,13.9,5.8
			C37.4,60.4,42.4,60.4,42.4,57.2L42.4,57.2z"/>
	</g>
</g>
<g>
	<path class="st1" d="M47.5,56.9c0.5-1.8-1.2-3.4-2.8-4.4c-3-1.9-6.3-3.6-9.9-4c-3.6-0.4-7.4,0.5-9.9,3.1c-2.5,2.7-3.1,6.7-3.4,10.3
		c-0.6,7.2-0.8,14.4-0.4,21.6c0.1,1.2,0.2,2.4,0.9,3.3c0.9,1.1,2.5,1.4,3.9,1.6c6.8,0.9,13.8,0.7,20.5-0.6
		c7.1-1.3,14.9-4.7,17.1-11.6c0.8-2.5,0.8-5.3,0.6-7.9c-0.1-1.1-0.1-2.2-0.6-3.2c-0.6-1.2-1.8-2-3-2.6C54,59,45.8,58.6,39,61.7
		c1.7,1.2,4.2,1,5.7-0.3s2-3.8,1.1-5.6"/>
	<g>
		<path class="st1" d="M50,56.9c0-6.5-9-10.1-14.5-10.8c-6.2-0.9-12.3,1.8-14.8,7.8c-2.9,7-2.3,16.4-2.2,23.8
			c0,3.1-0.5,7.8,1.4,10.5c1.8,2.5,5,2.8,7.9,3.1C39.9,92.4,61.5,91.4,66,77c2.1-6.8,1.2-14.1-5.6-17.3c-7-3.3-15-3.3-22-0.4
			c-1.8,0.7-2.7,3.5-0.6,4.6c6.1,3,12.8-2,10.4-8.8c-1-3-5.9-1.7-4.8,1.3c-1,1-2.1,2.1-3.1,3.1c-0.2,1.5-0.4,3-0.6,4.6
			c4.6-1.8,9.4-2.5,14.3-1.4c3.7,0.8,6.9,2.5,7.7,6.5c0.5,2.3,0,5.3-1,7.4c-3.9,8.7-17.3,9.9-25.5,10c-2.5,0-5,0-7.5-0.3
			c-4.1-0.4-4.2-3-4.3-6.6c-0.2-5.2,0-10.5,0.4-15.7c0.4-5.3,1-11.5,7.2-12.8c2.9-0.6,13.8,1.4,13.9,5.8C45,60.1,50,60.1,50,56.9
			L50,56.9z"/>
	</g>
</g>
<g>
	<path class="st2" d="M130.9,121.2c-2-5-8-8.1-13.2-6.7c-5.6,1.5-9.3,7.4-9.3,13.2c0,5.8,3.1,11.2,7.3,15.3c3.6,3.4,7.9,6,12.2,8.3
		c4.7,2.6,9.9,5.1,15.2,4c6.1-1.3,10.2-7.1,12-13.1c1.7-6,1.6-12.3,2.6-18.4c0.5-3.1,1.3-6.4,0-9.4c-0.8-1.9-2.4-3.4-4.2-4.5
		c-4.3-2.8-9.8-3.7-14.6-1.9c-4.7,1.8-8.3,6.8-7.9,11.8"/>
	<g>
		<path class="st2" d="M133.1,120c-5-10.6-19.4-10.6-24.9-0.6c-6.9,12.4,3.3,24.8,13.6,31.2c5.8,3.6,12.7,7.8,19.7,7.5
			c5.9-0.3,10.7-4.3,13.6-9.2c3.8-6.5,3.9-14.1,4.7-21.3c0.7-6.4,2.8-12.9-2.5-17.9c-9.9-9.3-28.7-4.7-28.6,10.3c0,3.2,5,3.2,5,0
			c0-6.3,5.3-10.5,11.4-10.3c2.9,0.1,7.5,1.6,9.3,4.1c2.4,3.3,1.5,6.7,0.9,10.4c-1.4,9.3-0.5,26.3-12.7,28.8
			c-6,1.3-12.6-3.2-17.6-6.2c-4.7-2.9-9.2-6.3-11.9-11.2c-2.8-5.1-3-11.9,1.4-16.2c4.7-4.6,11.7-2.3,14.3,3.2
			C130.1,125.4,134.4,122.9,133.1,120L133.1,120z"/>
	</g>
</g>
<g>
	<path class="st3" d="M122.7,121.6c-2-5-8-8.1-13.2-6.7c-5.6,1.5-9.3,7.4-9.3,13.2c0,5.8,3.1,11.2,7.3,15.3c3.6,3.4,7.9,6,12.2,8.3
		c4.7,2.6,9.9,5.1,15.2,4c6.1-1.3,10.2-7.1,12-13.1s1.6-12.3,2.6-18.4c0.5-3.1,1.3-6.4,0-9.4c-0.8-1.9-2.4-3.4-4.2-4.5
		c-4.3-2.8-9.8-3.7-14.6-1.9c-4.7,1.8-8.3,6.8-7.9,11.8"/>
	<g>
		<path class="st3" d="M124.8,120.4c-5-10.6-19.4-10.6-24.9-0.6c-6.9,12.4,3.3,24.8,13.6,31.2c5.8,3.6,12.7,7.8,19.7,7.5
			c5.9-0.3,10.7-4.3,13.6-9.2c3.8-6.5,3.9-14.1,4.7-21.3c0.7-6.4,2.8-12.9-2.5-17.9c-9.9-9.3-28.7-4.7-28.6,10.3c0,3.2,5,3.2,5,0
			c0-6.3,5.3-10.5,11.4-10.3c2.9,0.1,7.5,1.6,9.3,4.1c2.4,3.3,1.5,6.7,0.9,10.4c-1.4,9.3-0.5,26.3-12.7,28.8
			c-6,1.3-12.6-3.2-17.6-6.2c-4.7-2.9-9.2-6.3-11.9-11.2c-2.8-5.1-3-11.9,1.4-16.2c4.7-4.6,11.7-2.3,14.3,3.2
			C121.9,125.8,126.2,123.3,124.8,120.4L124.8,120.4z"/>
	</g>
</g>
<g>
	<path class="st4" d="M119.6,70.2c-12.3-6-21.7-17.7-24.9-31c-0.4-1.7-0.7-3.6-0.1-5.3c0.7-1.7,2.2-3,3.7-4c2.6-1.8,5.3-3.4,8.4-4.1
		c3.1-0.6,6.5-0.2,8.9,1.9c2.7,2.3,3.6,6.2,4.2,9.7c3-1,4-4.7,5.8-7.4c3.6-5.3,12.1-6.4,16.8-2.1c2.8,2.6,4.2,6.5,4.1,10.4
		c0,3.8-1.3,7.6-2.9,11c-4.9,10.3-13.7,18.6-24.1,23c-0.6,0.3-8.9-0.5-9.6-0.6c-1.4-0.4,5.9-1.1,5.2-2.4c-2-4.2-14.3-12.9-15.3-17.4
		"/>
	<g>
		<path class="st4" d="M120.8,68.1c-9.3-4.8-16.7-12.3-21.1-21.8c-1-2.3-2.4-5.2-2.6-7.7c-0.3-4.7,2.1-6.6,5.8-8.6
			c3.6-1.9,7.9-2.9,11.2,0c2.3,2,2.8,5.2,3.3,8.1c0.3,1.7,2.3,2.1,3.7,1.5c6.1-2.9,5.6-11.5,13.7-11.8c11.6-0.3,9.8,14.2,6.4,21.1
			c-3.6,7.3-9.2,13.5-16,17.8c-2.5,1.6-4.9,3.2-7.9,3.3c-1.3,0-2.7-0.2-4-0.3c-0.4,0-2.8-0.5-2.2-0.1c0.2,1.3,0.3,2.6,0.5,3.9
			c-1,0.9,1.3-0.1,2.2-0.3c1-0.3,2.2-0.6,3-1.4c1.6-1.7,0.9-3.4-0.3-5.1c-1.9-2.7-4.6-4.9-7-7.2c-2.3-2.2-6-5-7.1-8.2
			c-1-3.1-5.8-1.8-4.8,1.3c1.6,5.1,6.8,8.9,10.6,12.5c1.1,1,2.2,2,3.1,3.1c0.2,0.2,1,1.4,1.2,1.4c0.6,0.1,0.9-1.2,0.3-1.5
			c-0.8-0.4-4.1,1.1-4.8,1.7c-1.2,1.1-0.9,3.2,0.5,3.9c2.2,1.2,5.8,0.9,8.2,1.1c4.2,0.2,7.4-1.7,10.9-3.9c9-5.7,16.5-14.6,20-24.7
			c2.9-8.4,1.2-20.2-8.7-23c-3.7-1-7.9-0.5-11.2,1.4c-4.3,2.5-5.1,8.6-9.2,10.5c1.2,0.5,2.4,1,3.7,1.5c-1.4-7.2-4.8-13.8-13.2-13.6
			c-6.2,0.1-16.3,4.9-17.2,11.9c-0.9,7,4.1,15.9,8,21.4c4.8,6.8,11.1,12.2,18.5,16C121.2,73.8,123.7,69.5,120.8,68.1L120.8,68.1z"/>
	</g>
</g>
<g>
	<path class="st5" d="M112,69.2c-12.3-6-21.7-17.7-24.9-31c-0.4-1.7-0.7-3.6-0.1-5.3c0.7-1.7,2.2-3,3.7-4c2.6-1.8,5.3-3.4,8.4-4.1
		c3.1-0.6,6.5-0.2,8.9,1.9c2.7,2.3,3.6,6.2,4.2,9.7c3-1,4-4.7,5.8-7.4c3.6-5.3,12.1-6.4,16.8-2.1c2.8,2.6,4.2,6.5,4.1,10.4
		c0,3.8-1.3,7.6-2.9,11c-4.9,10.3-13.7,18.6-24.1,23c-0.6,0.3-1.3,0.5-2,0.4c-1.4-0.4-1.7-2.1-2.3-3.4c-2-4.2-14.3-12.9-15.3-17.4"
		/>
	<g>
		<path class="st5" d="M113.3,67.1c-9.3-4.8-16.7-12.3-21.1-21.8c-1-2.3-2.4-5.2-2.6-7.7c-0.3-4.7,2.1-6.6,5.8-8.6
			c3.6-1.9,7.9-2.9,11.2,0c2.3,2,2.8,5.2,3.3,8.1c0.3,1.7,2.3,2.1,3.7,1.5c3.2-1.5,4.2-4.4,6-7.2c2.5-4,7.7-5.9,12.1-3.6
			c11.4,6.2,1.1,23.4-4.6,29.8c-3.3,3.7-7.2,6.9-11.5,9.3c-0.9,0.5-1.8,1-2.7,1.4c-2.2,1-1.6,0.8-2.8-0.6c-0.6-0.7-1-1.8-1.6-2.6
			c-2-2.6-4.6-4.8-7-7.1c-2.2-2.1-5.6-4.7-6.6-7.7c-1-3.1-5.8-1.8-4.8,1.3c1.3,4.2,5.2,7.4,8.3,10.4c1.9,1.8,4,3.6,5.7,5.6
			c1.3,1.5,1.7,3.5,2.9,5c3.4,4.2,9.8-0.4,13.1-2.5c5.4-3.4,10.1-7.9,13.8-13c6.3-8.7,12.7-24.8,1.6-32.7c-3.9-2.8-9.2-3.2-13.6-1.4
			c-2.1,0.9-3.9,2.2-5.3,3.9c-2,2.4-2.6,6-5.6,7.4c1.2,0.5,2.4,1,3.7,1.5c-1.4-7.2-4.8-13.8-13.2-13.6c-6.2,0.1-16.3,4.9-17.2,11.9
			c-0.9,7,4.1,15.9,8,21.4c4.8,6.8,11.1,12.2,18.5,16C113.6,72.8,116.2,68.5,113.3,67.1L113.3,67.1z"/>
	</g>
</g>
</svg>
