<?xml version="1.0" encoding="utf-8"?>
<!-- Generator: Adobe Illustrator 22.1.0, SVG Export Plug-In . SVG Version: 6.00 Build 0)  -->
<svg version="1.1" id="Layer_1" xmlns="http://www.w3.org/2000/svg" xmlns:xlink="http://www.w3.org/1999/xlink" x="0px" y="0px"
	 viewBox="0 0 504 113.3" style="enable-background:new 0 0 504 113.3;" xml:space="preserve">
<style type="text/css">
	.st0{fill:none;stroke:#000000;stroke-miterlimit:10;}
</style>
<ellipse class="st0" cx="58.2" cy="13.3" rx="8.4" ry="8.5"/>
<line class="st0" x1="99.1" y1="34.4" x2="117.1" y2="39.8"/>
<line class="st0" x1="106.3" y1="46.4" x2="109.2" y2="28.3"/>
<path class="st0" d="M5.9,30.6c-1.6,1-1.5,3.1,0.2,5s4.8,3.4,7.4,3.5c2.7,0.2,4.7-1,7.5-0.5c3,0.5,5.9,2.8,7.1,5
	c1.2,2.1,1.1,4.1,1.1,6"/>
<ellipse class="st0" cx="371.5" cy="13.3" rx="8.4" ry="8.5"/>
<line class="st0" x1="422.2" y1="33" x2="440.2" y2="38.4"/>
<line class="st0" x1="429.4" y1="45" x2="432.3" y2="26.9"/>
<path class="st0" d="M308.1,37.1c-0.5,1.8,1,3.3,3.5,3.5c2.5,0.2,5.8-0.8,7.8-2.4c2.1-1.7,2.8-3.9,5.2-5.4c2.6-1.6,6.3-1.9,8.6-1.2
	c2.3,0.7,3.6,2.2,4.9,3.7"/>
<ellipse class="st0" cx="490.2" cy="95.9" rx="8.4" ry="8.5"/>
<ellipse class="st0" cx="468.1" cy="13.3" rx="8.4" ry="8.5"/>
<ellipse transform="matrix(1 -2.732895e-03 2.732895e-03 1 0.2234 1.2313)" class="st0" cx="450.6" cy="-81.1" rx="8.4" ry="8.5"/>
<line class="st0" x1="409.7" y1="-102.1" x2="391.7" y2="-107.5"/>
<line class="st0" x1="402.5" y1="-114" x2="399.6" y2="-96"/>
<path class="st0" d="M502.9-98.6c1.6-1,1.5-3.1-0.2-5c-1.7-1.9-4.8-3.4-7.4-3.5c-2.7-0.2-4.7,1-7.5,0.5c-3-0.5-5.9-2.8-7.1-4.9
	s-1.2-4.1-1.1-6"/>
<ellipse transform="matrix(1 -2.732895e-03 2.732895e-03 1 0.282 0.352)" class="st0" cx="128.9" cy="-103" rx="8.4" ry="8.5"/>
<line class="st0" x1="91" y1="-114.6" x2="73" y2="-120"/>
<line class="st0" x1="83.8" y1="-126.6" x2="81" y2="-108.5"/>
<path class="st0" d="M200.7-104.2c0.5-1.8-1-3.3-3.5-3.5s-5.8,0.8-7.8,2.5c-2.1,1.7-2.8,3.9-5.2,5.5c-2.6,1.6-6.3,1.9-8.6,1.2
	c-2.3-0.7-3.6-2.2-4.9-3.7"/>
<ellipse transform="matrix(1 -2.732895e-03 2.732895e-03 1 0.1465 1.4257)" class="st0" cx="521.8" cy="-52.9" rx="8.4" ry="8.5"/>
<ellipse transform="matrix(1 -2.732895e-03 2.732895e-03 1 0.1873 0.1024)" class="st0" cx="37.6" cy="-68.5" rx="8.4" ry="8.5"/>
</svg>
