<?xml version="1.0" encoding="utf-8"?>
<!-- Generator: Adobe Illustrator 22.1.0, SVG Export Plug-In . SVG Version: 6.00 Build 0)  -->
<svg version="1.1" id="Layer_1" xmlns="http://www.w3.org/2000/svg" xmlns:xlink="http://www.w3.org/1999/xlink" x="0px" y="0px"
	 viewBox="0 0 504 113.3" style="enable-background:new 0 0 504 113.3;" xml:space="preserve">
<style type="text/css">
	.st0{fill:none;stroke:#000000;stroke-width:0.9911;stroke-miterlimit:10;}
</style>
<ellipse class="st0" cx="419.9" cy="60.9" rx="8.3" ry="8.5"/>
<line class="st0" x1="379.7" y1="39.9" x2="362" y2="34.6"/>
<line class="st0" x1="372.6" y1="28" x2="369.8" y2="46.1"/>
<path class="st0" d="M471.3,43.5c1.6-1,1.5-3.1-0.2-5c-1.6-1.9-4.7-3.4-7.3-3.5c-2.7-0.2-4.6,1-7.4,0.5c-3-0.5-5.8-2.8-7-4.9
	c-1.2-2.1-1.1-4.1-1.1-6"/>
<ellipse class="st0" cx="103.9" cy="39" rx="8.3" ry="8.5"/>
<line class="st0" x1="66.7" y1="27.4" x2="49" y2="22.1"/>
<line class="st0" x1="59.6" y1="15.5" x2="56.8" y2="33.5"/>
<path class="st0" d="M174.4,37.8c0.5-1.8-1-3.3-3.4-3.5c-2.5-0.2-5.7,0.8-7.7,2.5c-2.1,1.7-2.7,3.9-5.1,5.5
	c-2.5,1.6-6.1,1.9-8.4,1.2c-2.3-0.7-3.6-2.2-4.8-3.7"/>
<ellipse class="st0" cx="489.8" cy="89.1" rx="8.3" ry="8.5"/>
<ellipse class="st0" cx="14.2" cy="73.6" rx="8.3" ry="8.5"/>
</svg>
