<?xml version="1.0" encoding="utf-8"?>
<!-- Generator: Adobe Illustrator 22.1.0, SVG Export Plug-In . SVG Version: 6.00 Build 0)  -->
<svg version="1.1" id="Layer_1" xmlns="http://www.w3.org/2000/svg" xmlns:xlink="http://www.w3.org/1999/xlink" x="0px" y="0px"
	 viewBox="0 0 87.7 87.1" style="enable-background:new 0 0 87.7 87.1;" xml:space="preserve">
<style type="text/css">
	.st0{fill:none;stroke:#000000;stroke-width:0.9769;stroke-miterlimit:10;}
	.st1{fill:#FFFFFF;stroke:#000000;stroke-miterlimit:10;}
	.st2{fill:none;stroke:#000000;stroke-miterlimit:10;}
</style>
<ellipse class="st0" cx="43.1" cy="40.8" rx="36" ry="34.3"/>
<ellipse class="st1" cx="61.4" cy="35.2" rx="10.3" ry="5.1"/>
<path class="st2" d="M61.7,35.3"/>
<path class="st2" d="M24.6,48.2c2.8,5.5,11.4,9.6,19.8,9.4c8.5-0.2,15.9-4.8,17.2-10.4"/>
<g>
	<g>
		<path d="M61.4,40.2c6.4,0,6.4-10,0-10C54.9,30.2,54.9,40.2,61.4,40.2L61.4,40.2z"/>
	</g>
</g>
<ellipse class="st1" cx="22.8" cy="36.2" rx="10.3" ry="5.1"/>
<path class="st2" d="M23.2,36.3"/>
<g>
	<g>
		<path d="M22.8,41.2c6.4,0,6.4-10,0-10C16.4,31.2,16.4,41.2,22.8,41.2L22.8,41.2z"/>
	</g>
</g>
<line class="st2" x1="19.5" y1="66.4" x2="33.2" y2="56.6"/>
<line class="st2" x1="33.2" y1="73.8" x2="33.2" y2="56.6"/>
<line class="st2" x1="51" y1="56.6" x2="57.9" y2="72"/>
<line class="st2" x1="62.7" y1="59.6" x2="54.2" y2="64.5"/>
<line class="st2" x1="25.6" y1="62" x2="33.2" y2="65.2"/>
<line class="st0" x1="39.4" y1="35.2" x2="39.4" y2="47.2"/>
<line class="st0" x1="43.9" y1="47.2" x2="39.4" y2="47.2"/>
</svg>
