<?xml version="1.0" encoding="utf-8"?>
<!-- Generator: Adobe Illustrator 22.1.0, SVG Export Plug-In . SVG Version: 6.00 Build 0)  -->
<svg version="1.1" id="Слой_1" xmlns="http://www.w3.org/2000/svg" xmlns:xlink="http://www.w3.org/1999/xlink" x="0px" y="0px"
	 viewBox="0 0 464.4 256.4" style="enable-background:new 0 0 464.4 256.4;" xml:space="preserve">
<style type="text/css">
	.st0{fill:#FBE3F0;}
	.st1{fill:#FEDC9E;}
</style>
<g>
	<path class="st0" d="M40.3,171.2c6.5-10.3,13.8-20,21.7-29.2c2.1-2.5,4.5-5,7.5-6.1c4.8-1.8,10.2,0.3,14.4,3.4s7.7,6.9,12.1,9.5
		c0.8,0.5,1.8,0.9,2.7,0.7c1.4-0.3,2-2,2.4-3.5c2.8-10.5,6.8-21.1,14.6-28.5c9.1-8.6,22.9-11.9,34.9-8.2s21.6,14.2,24.2,26.5
		c11.1-17.3,34.1-25.7,53.7-19.8c19.6,6,34,25.9,33.5,46.4c3.9-6.1,12.1-7.8,19.3-8.1c3.7-0.1,7.6,0,11,1.6c5.7,2.7,8.9,9,9.9,15.2
		c2.7,16.3-7.1,32.8-20.7,42.3c-13.6,9.5-30.3,13.2-46.6,15.7c-12,1.9-24.6,3.2-36.1-0.9c-6.3,10.9-18.3,17.8-30.7,19.9
		c-12.4,2-25.3-0.4-37.1-4.8c-9.3-3.4-18.3-8.2-24.9-15.5c-6.6-7.3-10.6-17.5-8.8-27.2c-0.4,12.8-12.8,23.9-25.5,22.9
		c-5.9-0.5-11.4-3.1-16.6-6C38,207.7,22,195.2,8.3,180.5c-1.9-2.1-3.9-4.4-4.4-7.2c-0.4-2.3,0.3-4.7,1.4-6.8
		c3.6-7.2,11.5-12.1,19.6-12.2c8.1,0,16,4.8,19.7,12"/>
	<g>
		<path class="st0" d="M42.5,172.5c4.8-7.5,9.9-14.8,15.5-21.7c5.7-7.1,11.8-16.6,22.1-11.1c5.5,3,10.8,11.1,17.3,12.1
			c6.3,0.9,6.9-8.2,8.3-12.3c5.2-15.7,16.3-28.9,33.9-29.3c15.8-0.4,29.3,10.9,32.9,26.1c0.5,2.2,3.4,2.3,4.6,0.6
			c10.6-16,31.6-24.1,50.2-18.8c19.1,5.5,32.5,24.5,32.4,44.2c0,2.6,3.3,3.2,4.7,1.3c4.2-5.8,12.1-6.9,18.8-6.8
			c8.3,0,14,4.1,16.3,12.2c3.9,13.6-3.3,28.1-13,37.4c-10.6,10.2-25.1,15.1-39.3,18.1c-15.3,3.3-32.2,6.4-47.4,1.4
			c-1.1-0.3-2.3,0.2-2.8,1.1c-11.7,19.4-36.3,22.1-56.4,16.7c-19.1-5.2-44.3-18.8-40.5-42.4c-1.6-0.2-3.3-0.4-4.9-0.7
			c-0.9,13.6-14.5,23-27.6,19.5c-6.7-1.8-13-5.9-18.9-9.5c-6.2-3.8-12.1-8-17.8-12.5c-5.2-4.1-10.1-8.5-14.8-13.1
			c-2.4-2.3-4.8-4.7-7-7.2c-3.3-3.9-3.1-8.3-0.2-12.4c8.5-12.3,26.5-10.3,33.5,2.3c1.6,2.8,5.9,0.3,4.3-2.5
			c-5.7-10.3-18.1-15.8-29.5-11.9c-10.3,3.5-20.8,16-13,26.5c8.5,11.3,21,20.9,32.5,29c10.8,7.6,25.4,18.6,39.4,17.2
			c12.9-1.3,23.1-12.5,24-25.3c0.2-2.8-4.5-3.5-4.9-0.7c-4.2,26,20.6,41.7,42.3,48.1c22.8,6.6,50.5,3.5,63.8-18.5
			c-0.9,0.4-1.9,0.8-2.8,1.1c14.6,4.8,30.2,2.3,45-0.4c14.1-2.6,28.4-6.7,40.2-15.1c10-7.2,18.2-17.9,20.8-30.1
			c2.3-10.4,0.6-24.5-9.4-30.6c-10.1-6.1-28.1-3-35,6.6c1.6,0.4,3.1,0.8,4.7,1.3c0.1-21.9-14.8-42.9-36.1-49
			c-20.8-6-44,3.3-55.9,21.1c1.5,0.2,3,0.4,4.6,0.6c-5.8-24.4-33.4-37.1-55.6-25c-11.4,6.2-17.7,17.9-21.4,29.8
			c-0.4,1.4-0.7,4.4-1.6,5.5c-1.5,2-2.7,0.6-4.3-0.6c-3-2.2-5.6-4.9-8.6-7.1c-4.6-3.4-10.5-6-16.3-4.3c-7.1,2-12,9.9-16.3,15.4
			c-5.4,6.8-10.4,14-15.1,21.3C36.4,172.7,40.8,175.2,42.5,172.5L42.5,172.5z"/>
	</g>
</g>
<g>
	<path class="st0" d="M243.8,62.1c-1.7-3.6-1.7-7.7-1.4-11.7c0.4-4.5,1.1-9.2,3.3-13.1s6.4-7,11-6.9c4.5,0.1,8.9,4.3,8.3,8.8
		c3-13.1,14.9-23,27.9-26.4c13-3.4,26.9-1.4,39.7,2.7c8,2.5,16,5.9,22.2,11.5c12.9-13.8,31.4-22.2,50.3-22.8
		c18.9-0.5,37.9,6.8,51.5,19.8c2.5,2.4,5,5.4,4.7,8.8c-0.2,3.4-3,6.1-4.2,9.3c-2.3,6.6,2.5,13.4,3.2,20.3c1.2,12-9.9,21.6-20.8,27
		c-17,8.4-36.2,12.4-55.2,11.5c-6-0.3-13.4-2.4-14.2-8.4c-10.1,9.2-20.8,18.6-34,21.9c-21.1,5.2-42.4-6.5-61-17.8
		c-6.5-3.9-13.3-8.2-16.7-15c-7.7,7.5-20,9.3-30.2,5.6c-10.1-3.8-18-12.4-22.1-22.4c-1.9-4.6-3-10.1-0.6-14.4
		c2.6-4.6,8.7-6.3,13.9-5.5c5.2,0.8,18.5,2.6,23,5.5"/>
	<g>
		<path class="st0" d="M246.2,61.4c-2.5-6-1.8-14.3,0.5-20.4c1.2-3,3.2-5.8,6.1-7.2c4.3-2.1,9.9,0.1,9.7,5.4
			c-0.1,2.8,4.2,3.4,4.9,0.7c9.2-36.2,63.5-30.3,85.6-11.1c1,0.9,2.6,1,3.5,0c23.3-24.5,61.1-29,89.4-10.1c3.4,2.3,6.7,4.8,9.5,7.7
			c1.9,1.9,3.8,4.3,3.3,7.3c-0.4,2.1-2.2,4.1-3.1,5.9c-3.3,6.7-0.2,13,1.5,19.6c4.8,18.3-17.5,28.6-31.4,33.4
			c-9.3,3.2-19.1,5.2-28.9,5.8c-6.4,0.4-22.4,2.3-24.3-6.5c-0.4-1.9-2.9-2.3-4.2-1.1c-7.3,6.6-14.8,13.3-23.7,17.8
			c-10,5-21,5.7-31.8,3.1c-10.2-2.5-19.7-7.4-28.8-12.6c-8.5-4.9-18.6-9.8-23.5-18.6c-0.8-1.5-2.8-1.6-3.9-0.5
			c-16,14.6-38.7,3.4-47.1-13.6c-2.2-4.6-4.5-10.8-1.2-15.4c2.8-3.8,7.9-3.9,12.2-3.3c6.7,1,14.7,1.6,20.7,4.9
			c2.8,1.6,5.3-2.7,2.5-4.3c-4.1-2.4-9.1-3.2-13.7-4.1c-4.6-0.9-9.8-2.2-14.5-1.8c-12.7,0.9-15.9,12.8-11.7,23.2
			c8.8,21.9,36.9,35.8,56.4,17.9c-1.3-0.2-2.6-0.3-3.9-0.5c5.1,9.3,14.9,14.4,23.8,19.5c10.4,6.1,21.4,11.8,33.3,14.4
			c10.5,2.3,21.2,1.7,31.1-2.6c10.5-4.6,19.2-12.4,27.6-20c-1.4-0.4-2.8-0.7-4.2-1.1c1.5,7.1,8.9,9.5,15.4,10.1
			c10,0.9,20.4-0.2,30.2-2.2c16.7-3.5,39.7-11,47.5-27.9c1.5-3.4,2.3-7.1,2-10.8c-0.5-5.4-3.6-10.3-3.8-15.8
			c-0.2-4.9,3.7-8,4.6-12.5c0.7-3.7-0.9-7-3.2-9.8c-11.9-14.2-32.4-22-50.5-22.7c-21.3-0.9-42.3,8.1-56.9,23.5c1.2,0,2.4,0,3.5,0
			c-24.9-21.7-83.8-26.9-93.9,13.3c1.6,0.2,3.3,0.4,4.9,0.7c0.4-10.6-12-13.9-19.5-8.2c-8.5,6.5-10.5,22.3-6.6,31.8
			C242.6,65.7,247.4,64.4,246.2,61.4L246.2,61.4z"/>
	</g>
</g>
<g>
	<path class="st1" d="M86.8,64.7c-0.3-2.1-0.5-4.4,0.4-6.3c0.9-1.9,3.5-3.3,5.3-2.1c2.3,1.5,1.7,5.7,4.2,6.8
		c0.8,0.3,1.6,0.3,2.5,0.2c1.9-0.2,3.8-0.3,5.8-0.5c0.8-0.1,1.8-0.1,2.4,0.5c1,1,0.3,2.7-0.8,3.6c-1.1,0.9-2.5,1.5-3.1,2.8
		c-1.1,2.6,2.1,5.9,0.3,8c-1.3,1.6-3.9,0.7-5.5-0.5s-3.5-2.9-5.5-2.4C91,75.2,90.1,77,89,78.4s-3.2,2.5-4.5,1.3
		c-0.5-0.5-0.7-1.3-0.8-2.1c-0.2-2.5,0.2-5.3-1.5-7.2c-1.2-1.4-3.2-1.7-5-2.2s-3.7-1.8-3.7-3.7c3.7-0.4,7.5-0.5,11.3-0.3"/>
	<g>
		<path class="st1" d="M89.3,64.7c-0.2-1.1-0.3-2.2-0.3-3.2c1.7-2.6,2.8-2.9,3.1-0.9c0.7,0.8,0.9,2.4,1.6,3.3c1.5,1.8,3.2,2,5.4,2
			c1.3-0.1,2.6-0.2,3.8-0.3c2.2-0.3,2.6-0.3,1,0.1c-1,1.1-2.1,1.5-2.8,2.9c-0.4,0.7-0.5,1.6-0.6,2.4c0,1,1.2,3.6,0.9,4.3
			c-0.8,2-3.5-1.3-4.7-2c-0.8-0.4-1.8-0.8-2.7-0.9c-1.4-0.2-2.7,0.2-3.9,0.9c-0.6,0.4-2.1,2.8-2.6,2.9c-2.4,0.5-1.4-1.4-1.7-3
			c-0.2-1.4-0.6-2.7-1.5-3.9c-1.8-2.3-7.7-2.6-8.4-5.3c-0.8,1.1-1.6,2.1-2.4,3.2c3.8-0.4,7.5-0.5,11.3-0.3c3.2,0.2,3.2-4.8,0-5
			c-3.8-0.2-7.5-0.1-11.3,0.3c-1.6,0.2-2.8,1.5-2.4,3.2c0.5,2.1,1.6,3.5,3.5,4.6c1,0.6,2.3,0.7,3.3,1.2c4.1,2.2,2.9,3.6,3.3,6.6
			c0.5,3.6,3.1,6.1,6.9,4.6c3-1.2,3.4-5.2,7.5-3.9c2.1,0.7,3.2,2.5,5.7,2.7c4.4,0.3,5.3-3.2,5.2-6.6c-0.1-2.1-0.3-3.3,1.2-5.3
			c0.4-0.6,1.2-1,1.6-1.7c0.8-1.3,1.2-3,0.6-4.5c-0.7-1.6-2.1-2.3-3.7-2.6c-1.6-0.2-3.5,0.3-5.1,0.3c-2.5,0.1-3,0.6-4.2-1.5
			c-1.8-3.1-2.8-6.9-7.5-5.7c-5.1,1.3-5.6,6.8-5.1,11.2C84.6,67.8,89.6,67.9,89.3,64.7L89.3,64.7z"/>
	</g>
</g>
<g>
	<path class="st1" d="M336.2,215.8c-0.3-2.1-0.5-4.4,0.4-6.3c0.9-1.9,3.5-3.3,5.3-2.1c2.3,1.5,1.7,5.7,4.2,6.8
		c0.8,0.3,1.6,0.3,2.5,0.2c1.9-0.2,3.8-0.3,5.8-0.5c0.8-0.1,1.8-0.1,2.4,0.5c1,1,0.3,2.7-0.8,3.6c-1.1,0.9-2.5,1.5-3.1,2.8
		c-1.1,2.6,2.1,5.9,0.3,8c-1.3,1.6-3.9,0.7-5.5-0.5s-3.5-2.9-5.5-2.4c-1.7,0.5-2.6,2.3-3.6,3.7c-1.1,1.4-3.2,2.5-4.5,1.3
		c-0.5-0.5-0.7-1.3-0.8-2.1c-0.2-2.5,0.2-5.3-1.5-7.2c-1.2-1.4-3.2-1.7-5-2.2c-1.8-0.6-3.7-1.8-3.7-3.7c3.7-0.4,7.5-0.5,11.3-0.3"/>
	<g>
		<path class="st1" d="M338.7,215.8c-0.2-1.1-0.3-2.2-0.3-3.2c1.7-2.6,2.8-2.9,3.1-0.9c0.7,0.8,0.9,2.4,1.6,3.3c1.5,1.8,3.2,2,5.4,2
			c1.3-0.1,2.6-0.2,3.8-0.3c2.2-0.3,2.6-0.3,1,0.1c-1,1.1-2.1,1.5-2.8,2.9c-0.4,0.7-0.5,1.6-0.6,2.4c0,1,1.2,3.6,0.9,4.3
			c-0.8,2-3.5-1.3-4.7-2c-0.8-0.4-1.8-0.8-2.7-0.9c-1.4-0.2-2.7,0.2-3.9,0.9c-0.6,0.4-2.1,2.8-2.6,2.9c-2.4,0.5-1.4-1.4-1.7-3
			c-0.2-1.4-0.6-2.7-1.5-3.9c-1.8-2.3-7.7-2.6-8.4-5.3c-0.8,1.1-1.6,2.1-2.4,3.2c3.8-0.4,7.5-0.5,11.3-0.3c3.2,0.2,3.2-4.8,0-5
			c-3.8-0.2-7.5-0.1-11.3,0.3c-1.6,0.2-2.8,1.5-2.4,3.2c0.5,2.1,1.6,3.5,3.5,4.6c1,0.6,2.3,0.7,3.3,1.2c4.1,2.2,2.9,3.6,3.3,6.6
			c0.5,3.6,3.1,6.1,6.9,4.6c3-1.2,3.4-5.2,7.5-3.9c2.1,0.7,3.2,2.5,5.7,2.7c4.4,0.3,5.3-3.2,5.2-6.6c-0.1-2.1-0.3-3.3,1.2-5.3
			c0.4-0.6,1.2-1,1.6-1.7c0.8-1.3,1.2-3,0.6-4.5c-0.7-1.6-2.1-2.3-3.7-2.6c-1.6-0.2-3.5,0.3-5.1,0.3c-2.5,0.1-3,0.6-4.2-1.5
			c-1.8-3.1-2.8-6.9-7.5-5.7c-5.1,1.3-5.6,6.8-5.1,11.2C334.1,219,339.1,219,338.7,215.8L338.7,215.8z"/>
	</g>
</g>
<g>
	<path class="st1" d="M412.1,131.1c-0.3-2.1-0.5-4.4,0.4-6.3c0.9-1.9,3.5-3.3,5.3-2.1c2.3,1.5,1.7,5.7,4.2,6.8
		c0.8,0.3,1.6,0.3,2.5,0.2c1.9-0.2,3.8-0.3,5.8-0.5c0.8-0.1,1.8-0.1,2.4,0.5c1,1,0.3,2.7-0.8,3.6c-1.1,0.9-2.5,1.5-3.1,2.8
		c-1.1,2.6,2.1,5.9,0.3,8c-1.3,1.6-3.9,0.7-5.5-0.5s-3.5-2.9-5.5-2.4c-1.7,0.5-2.6,2.3-3.6,3.7c-1.1,1.4-3.2,2.5-4.5,1.3
		c-0.5-0.5-0.7-1.3-0.8-2.1c-0.2-2.5,0.2-5.3-1.5-7.2c-1.2-1.4-3.2-1.7-5-2.2c-1.8-0.6-3.7-1.8-3.7-3.7c3.7-0.4,7.5-0.5,11.3-0.3"/>
	<g>
		<path class="st1" d="M414.6,131.1c-0.2-1.1-0.3-2.2-0.3-3.2c1.7-2.6,2.8-2.9,3.1-0.9c0.7,0.8,0.9,2.4,1.6,3.3c1.5,1.8,3.2,2,5.4,2
			c1.3-0.1,2.6-0.2,3.8-0.3c2.2-0.3,2.6-0.3,1,0.1c-1,1.1-2.1,1.5-2.8,2.9c-0.4,0.7-0.5,1.6-0.6,2.4c0,1,1.2,3.6,0.9,4.3
			c-0.8,2-3.5-1.3-4.7-2c-0.8-0.4-1.8-0.8-2.7-0.9c-1.4-0.2-2.7,0.2-3.9,0.9c-0.6,0.4-2.1,2.8-2.6,2.9c-2.4,0.5-1.4-1.4-1.7-3
			c-0.2-1.4-0.6-2.7-1.5-3.9c-1.8-2.3-7.7-2.6-8.4-5.3c-0.8,1.1-1.6,2.1-2.4,3.2c3.8-0.4,7.5-0.5,11.3-0.3c3.2,0.2,3.2-4.8,0-5
			c-3.8-0.2-7.5-0.1-11.3,0.3c-1.6,0.2-2.8,1.5-2.4,3.2c0.5,2.1,1.6,3.5,3.5,4.6c1,0.6,2.3,0.7,3.3,1.2c4.1,2.2,2.9,3.6,3.3,6.6
			c0.5,3.6,3.1,6.1,6.9,4.6c3-1.2,3.4-5.2,7.5-3.9c2.1,0.7,3.2,2.5,5.7,2.7c4.4,0.3,5.3-3.2,5.2-6.6c-0.1-2.1-0.3-3.3,1.2-5.3
			c0.4-0.6,1.2-1,1.6-1.7c0.8-1.3,1.2-3,0.6-4.5c-0.7-1.6-2.1-2.3-3.7-2.6c-1.6-0.2-3.5,0.3-5.1,0.3c-2.5,0.1-3,0.6-4.2-1.5
			c-1.8-3.1-2.8-6.9-7.5-5.7c-5.1,1.3-5.6,6.8-5.1,11.2C409.9,134.3,414.9,134.3,414.6,131.1L414.6,131.1z"/>
	</g>
</g>
</svg>
