<?xml version="1.0" encoding="utf-8"?>
<!-- Generator: Adobe Illustrator 22.1.0, SVG Export Plug-In . SVG Version: 6.00 Build 0)  -->
<svg version="1.1" id="Слой_1" xmlns="http://www.w3.org/2000/svg" xmlns:xlink="http://www.w3.org/1999/xlink" x="0px" y="0px"
	 viewBox="0 0 222.8 188.6" style="enable-background:new 0 0 222.8 188.6;" xml:space="preserve">
<style type="text/css">
	.st0{fill:#FFFFFF;stroke:#000000;stroke-miterlimit:10;}
</style>
<circle class="st0" cx="59.4" cy="128.5" r="15.8"/>
<g>
	<g>
		<path d="M65.8,131.4c3.2,0,3.2-5,0-5C62.6,126.4,62.5,131.4,65.8,131.4L65.8,131.4z"/>
	</g>
</g>
<circle class="st0" cx="86.6" cy="144.3" r="15.8"/>
<circle class="st0" cx="59.4" cy="160.1" r="15.8"/>
<circle class="st0" cx="86.6" cy="112.8" r="15.8"/>
<circle class="st0" cx="31.1" cy="144.3" r="15.8"/>
<circle class="st0" cx="31.1" cy="112.8" r="15.8"/>
<circle class="st0" cx="113.4" cy="128.9" r="15.8"/>
<circle class="st0" cx="135.6" cy="105.7" r="15.8"/>
<circle class="st0" cx="145" cy="137.2" r="15.8"/>
<circle class="st0" cx="123.2" cy="160.1" r="15.8"/>
<circle class="st0" cx="118.1" cy="78.5" r="15.8"/>
<circle class="st0" cx="171.1" cy="78.5" r="15.8"/>
<circle class="st0" cx="145" cy="25.3" r="15.8"/>
<g>
	<g>
		<path d="M24.2,113.2c3.2,0,3.2-5,0-5C20.9,108.2,20.9,113.2,24.2,113.2L24.2,113.2z"/>
	</g>
</g>
<g>
	<g>
		<path d="M36.2,139.4c3.2,0,3.2-5,0-5C33,134.4,33,139.4,36.2,139.4L36.2,139.4z"/>
	</g>
</g>
<g>
	<g>
		<path d="M53,163.6c3.2,0,3.2-5,0-5C49.8,158.6,49.8,163.6,53,163.6L53,163.6z"/>
	</g>
</g>
<g>
	<g>
		<path d="M85.2,152.2c3.2,0,3.2-5,0-5C82,147.2,82,152.2,85.2,152.2L85.2,152.2z"/>
	</g>
</g>
<g>
	<g>
		<path d="M111.4,126.7c3.2,0,3.2-5,0-5C108.2,121.7,108.2,126.7,111.4,126.7L111.4,126.7z"/>
	</g>
</g>
<g>
	<g>
		<path d="M90.6,114.6c3.2,0,3.2-5,0-5C87.4,109.6,87.4,114.6,90.6,114.6L90.6,114.6z"/>
	</g>
</g>
<g>
	<g>
		<path d="M128.9,104.5c3.2,0,3.2-5,0-5C125.6,99.5,125.6,104.5,128.9,104.5L128.9,104.5z"/>
	</g>
</g>
<g>
	<g>
		<path d="M124.2,78.3c3.2,0,3.2-5,0-5C120.9,73.3,120.9,78.3,124.2,78.3L124.2,78.3z"/>
	</g>
</g>
<g>
	<g>
		<path d="M135.6,24.6c3.2,0,3.2-5,0-5C132.4,19.6,132.3,24.6,135.6,24.6L135.6,24.6z"/>
	</g>
</g>
<g>
	<g>
		<path d="M179.9,82.4c3.2,0,3.2-5,0-5C176.6,77.4,176.6,82.4,179.9,82.4L179.9,82.4z"/>
	</g>
</g>
<g>
	<g>
		<path d="M149,141.4c3.2,0,3.2-5,0-5C145.8,136.4,145.8,141.4,149,141.4L149,141.4z"/>
	</g>
</g>
<g>
	<g>
		<path d="M116.8,159.5c3.2,0,3.2-5,0-5C113.6,154.5,113.6,159.5,116.8,159.5L116.8,159.5z"/>
	</g>
</g>
</svg>
