<?xml version="1.0" encoding="utf-8"?>
<!-- Generator: Adobe Illustrator 22.1.0, SVG Export Plug-In . SVG Version: 6.00 Build 0)  -->
<svg version="1.1" id="Слой_1" xmlns="http://www.w3.org/2000/svg" xmlns:xlink="http://www.w3.org/1999/xlink" x="0px" y="0px"
	 viewBox="0 0 267.8 188.6" style="enable-background:new 0 0 267.8 188.6;" xml:space="preserve">
<style type="text/css">
	.st0{fill:none;stroke:#000000;stroke-miterlimit:10;}
</style>
<path class="st0" d="M124.5,97.8c-4.8,7.5-17.4,7.9-20.4,16.3c-1.2,3.3-0.4,7-1.2,10.4c-1.1,4.8-5,8.6-6,13.3
	c-1.7,7.4,4.3,14.9,11.6,17c7.3,2.1,15.1-0.1,21.8-3.7c3-1.6,6-3.5,9.2-4.5c3.7-1.1,7.6-0.9,11.4-1.7c5.6-1.2,10.7-4.4,14.1-9
	c2.5-3.4,4.1-7.4,6.8-10.7c9.3-11.8,27.6-11,39.8-19.8c8.9-6.4,13.6-18.2,11.6-29c-0.6-3.1-1.6-6.2-1.3-9.4c0.3-3.2,2.7-6.4,5.9-6.3
	c6.1,0.3,6.7,11.2,12.8,12.1c0.5-1.3,1.1-2.6,1.6-3.9c2.8,0.3,5.6,0.5,8.4,0.8c0.1-2.6-1.2-5.2-3.2-6.9c1.8-2.1,3.5-4.2,5.3-6.3
	c-8.1-5-16.5-10.1-26-11.1c-2.7-0.3-5.6-0.3-7.7-2.1c-1.2-1-1.9-2.3-2.7-3.7c-14-24.2-45.3-34.3-73-30.1c-8,1.2-15.8,3.5-23.9,4
	s-16.7-0.9-22.8-6.2c-1.2,4.4,1.7,9.2,5.6,11.5s8.7,2.9,13.2,3.4c15.6,1.7,31.2,3.4,46.7,5.2c6.3,0.7,14.3,3.2,14.3,9.5
	c0,3.7-3.2,6.8-6.8,7.9c-3.6,1.1-7.4,0.6-11.1,0.1c-8.7-1.2-18.3-2-25.4,3.1c1.6,0.7,3.1,1.8,4.3,3.2c-2.1,1.4-3.6,3.7-4.1,6.2
	c6.7-1.6,13.8-1.9,20.6-0.9c-2.6,8.3-10.5,13.5-17.2,19c-6.7,5.5-13.3,13.4-11.5,21.9"/>
<circle class="st0" cx="107.3" cy="128.8" r="4.4"/>
<circle class="st0" cx="132.5" cy="143.3" r="4.3"/>
<g>
	<g>
		<path d="M107.4,128.7c3.2,0,3.2-5,0-5C104.2,123.7,104.2,128.7,107.4,128.7L107.4,128.7z"/>
	</g>
</g>
<g>
	<g>
		<path d="M130.9,146.8c3.2,0,3.2-5,0-5C127.7,141.8,127.6,146.8,130.9,146.8L130.9,146.8z"/>
	</g>
</g>
<line class="st0" x1="107.3" y1="140.9" x2="107.3" y2="143.3"/>
<line class="st0" x1="111.7" y1="147.6" x2="115.4" y2="147.6"/>
<path class="st0" d="M129.7,117.5c11.7-17.2,35.9-21.4,49.7-36.9c7.6-8.5,11.4-20.2,10.4-31.6"/>
<path class="st0" d="M74,108.4c0.7-0.7,1.7,0.5,1.9,1.5c0.9,5.9-3.1,11.7-8.3,14.6c-5.2,3-11.3,3.6-17.3,3.9
	c-2.3,0.1-4.8,0.2-6.9-0.7s-4.1-2.9-4.1-5.2c0-2.4,1.9-4.4,4-5.3c2.2-0.9,4.6-0.9,7-0.9c1.2,0,2.5,0,3.5,0.8
	c0.8,0.6,1.2,1.5,1.5,2.4c1.3,3.2,2.2,7.1,0.4,10c-1,1.6-2.6,2.6-4.1,3.5c-9.1,5.3-19.5,8.4-30,8.9c0.9-3,2.1-5.9,3.7-8.7
	c0.6,3.8-2.4,7-4.4,10.3c-0.2,0.3-0.4,0.7-0.2,1c0.1,0.3,0.4,0.4,0.7,0.6c2.7,1.4,5.4,2.9,8.1,4.3"/>
</svg>
