<?xml version="1.0" encoding="utf-8"?>
<!-- Generator: Adobe Illustrator 22.1.0, SVG Export Plug-In . SVG Version: 6.00 Build 0)  -->
<svg version="1.1" id="Слой_1" xmlns="http://www.w3.org/2000/svg" xmlns:xlink="http://www.w3.org/1999/xlink" x="0px" y="0px"
	 viewBox="0 0 222.8 188.6" style="enable-background:new 0 0 222.8 188.6;" xml:space="preserve">
<style type="text/css">
	.st0{fill:none;stroke:#000000;stroke-miterlimit:10;}
</style>
<g>
	<g>
		<path d="M97.3,67.6c3.2,0,3.2-5,0-5C94.1,62.6,94.1,67.6,97.3,67.6L97.3,67.6z"/>
	</g>
</g>
<path class="st0" d="M49,58.9c-1.6-1.8,10.2-3.7,15.1-4.5c4.9-0.8,10.6,0.8,13.2,5.1c0.6,1,1.1,2.2,2.1,2.9c2,1.3,4.7-0.4,5.8-2.5
	s1.7-4.6,3.4-6.2c3-2.9,7.9-1.7,11.9-0.3c9.3,3.3,19.9,8.3,21.5,18c0.3,1.8,0.2,3.8,1.2,5.3c1.7,2.7,5.5,2.8,8.7,2.7
	c17.9-0.7,36.7,0.3,52,9.7s25.2,29.5,17.8,45.7c-0.7,1.6-1.6,3.2-1.6,4.9c0,3.7,3.6,6.1,6.4,8.5c2.8,2.4,5.2,6.8,2.6,9.4
	c-2.9,2.9-8.6-0.2-11.9,2.3c-1.4,1.1-2,3.1-3.3,4.4c-2.2,2-5.7,1.4-8.3,0c-2.6-1.4-4.8-3.5-7.7-4.4c-3.7-1.1-7.6,0.1-11.4,1
	c-8.1,1.9-16.5,2.4-24.7,1.5c-3.6-0.4-7.3-1-10.6,0.4c-3.3,1.4-5.5,5.9-3.3,8.7c1,1.2,2.7,2,3.1,3.5c0.8,3-3.6,4.3-6.6,4.2
	c-4.2-0.2-8.5-0.4-12.7-0.6c-1.1-0.1-2.5-0.2-3.1-1.1c-0.6-0.8-0.4-1.9-0.2-2.8c1-5.3,2-10.6,3-15.8c-10.5-0.2-21.1-0.4-31.6-0.6
	c-2.6,0-5.8,0.2-7.1,2.4c-2.5,4.2,4.2,9.5,2,13.9c-1.2,2.3-4.2,2.8-6.8,2.8c-4.5,0.1-8.9,0-13.4-0.5c-2.4-0.3-5.2-0.9-6-3.2
	c-1.1-2.9,1.9-5.5,4.4-7.3c2.5-1.8,4.9-5.3,3-7.6c-1.1-1.3-3.1-1.4-4.9-1.4c-9,0-18-0.1-27-0.4c-1.4,0-2.9-0.1-3.9-1.1
	c-1.8-1.7-0.5-5,1.8-6s4.9-0.5,7.3,0.1c-0.8-11.7-0.7-25.5,8.7-32.7c2.2-1.7,4.9-3,6.4-5.3c1.8-2.8,1.5-6.4,1.2-9.6
	c-0.8-7.1-1.5-14.2-2.3-21.3c-0.5-4.6-1-9.4,0.5-13.7C44.9,62.7,44.4,58.5,49,58.9"/>
<path class="st0" d="M52.9,74.8c6.6,8.2,16.2,13.9,26.6,15.6c5.7,1,12,0.7,16.8-2.6c4.6-3.2,7.6-9,13.1-10.3"/>
<circle class="st0" cx="97.3" cy="65.1" r="4"/>
<g>
	<g>
		<path d="M66.4,69.6c3.2,0,3.2-5,0-5C63.2,64.6,63.2,69.6,66.4,69.6L66.4,69.6z"/>
	</g>
</g>
<circle class="st0" cx="66.4" cy="67.1" r="4"/>
<line class="st0" x1="70.5" y1="74.8" x2="76.5" y2="78.5"/>
<line class="st0" x1="85.9" y1="76.7" x2="93.3" y2="74.8"/>
<line class="st0" x1="72.5" y1="160.5" x2="73.5" y2="122.8"/>
<line class="st0" x1="111.2" y1="158.7" x2="109.4" y2="125.5"/>
<circle class="st0" cx="176.1" cy="101.4" r="7.1"/>
<circle class="st0" cx="191.3" cy="123.5" r="8.1"/>
<circle class="st0" cx="151.3" cy="108.4" r="7"/>
</svg>
