<?xml version="1.0" encoding="utf-8"?>
<!-- Generator: Adobe Illustrator 22.1.0, SVG Export Plug-In . SVG Version: 6.00 Build 0)  -->
<svg version="1.1" id="Слой_1" xmlns="http://www.w3.org/2000/svg" xmlns:xlink="http://www.w3.org/1999/xlink" x="0px" y="0px"
	 viewBox="0 0 429.5 188.6" style="enable-background:new 0 0 429.5 188.6;" xml:space="preserve">
<style type="text/css">
	.st0{fill:none;stroke:#000000;stroke-miterlimit:10;}
</style>
<path class="st0" d="M50.5,123.2c-3.3-1.5-6.6-3-9.9-4.5c-0.8-0.4-1.7-0.9-1.9-1.7c-0.2-0.9,0.4-1.7,1.1-2.3c1.5-1.6,3.3-3,5.1-4.3
	c0.7-0.4,1.5-0.9,2.2-0.5c0.6,0.3,0.9,1.1,1,1.8c0.9,4.1,1.2,8.3,0.9,12.5"/>
<path class="st0" d="M75.2,83.9"/>
<path class="st0" d="M41.9,112c-2.2-16.4,0.5-33.5,7.5-48.5c1.9-4.2,4.2-8.2,5.1-12.7c0.8-3.8,0.5-7.8,1-11.7
	c1-6.6,4.7-12.8,10-16.8c1.3-1,2.8-1.8,4.4-1.8c2.9,0.1,4.7,3.1,5.7,5.8c2.7,6.9,3.8,14.3,3.2,21.7c-0.1,1.5-0.2,3.2,0.8,4.2
	c1,0.9,2.5,0.9,3.8,0.9c10.7-0.6,21.4-1.2,32.2-1.8c1.2-0.1,2.5-0.2,3.5-0.9c1.4-1,1.8-2.8,2.1-4.4c0.9-4.5,2.2-9,5-12.6
	s7.5-6.1,12-5.1c4.2,0.9,7.3,4.7,8.8,8.8c2.9,8,0.4,17.7-6,23.3c10.9,5.1,25.3,3.2,33.6,12c4.5,4.8,6.5,12.4,12.6,14.9
	c2.6,1.1,5.5,1,8.2,1.8c7.1,2.2,10.8,9.9,12.9,17c2.1,6.8,3.5,13.9,4.3,21c0.4,3.3,0.5,7-1.6,9.5c-1.5,1.9-3.9,2.7-6.3,3.4
	c-5.4,1.6-11,2.6-16.7,3c-2.4,0.2-4.8,0.2-6.9,1.4c-5.5,3-5.3,11.5-10.3,15.3c-2.8,2.1-6.5,2.2-10,2.2c-6,0.1-12,0.1-18,0.2
	c-3.5,0-7.3-0.1-9.9-2.5c-2.5-2.4-1.8-7.8,1.6-8.1c-18.1-0.6-36.2-0.7-54.3-0.5c-1.9,0-4,0.1-5.3,1.5c-1.5,1.5-1.4,4.1-2.8,5.7
	c-1.3,1.5-3.5,1.7-5.5,1.8c-3.8,0.2-7.7,0.4-11.5,0.7c-3.8,0.2-7.8,0.4-11-1.7c-3.2-2-4.6-7.2-1.7-9.6c4.7,2.3,10.9,0.7,13.9-3.5
	c5.3-7.4-0.6-18.3-8.8-22.1"/>
<path class="st0" d="M50.5,123.4c5.7,2.1,12.7,0.3,16.6-4.3"/>
<path class="st0" d="M125.7,113.8c-4.6,2.8-8.5,6.6-11.5,11c-0.6,0.9-1.2,2.2-0.5,3.1c0.5,0.6,1.4,0.8,2.2,0.8
	c4.1,0.4,8.9,0.5,11.7-2.5"/>
<path class="st0" d="M115.2,121.7c-3.4-4.3-6.7-8.6-10.1-12.8c5.1-0.4,10.2-0.7,15.3-1.1c0.4,2.1,0.5,12.2-0.4,9.2"/>
<path class="st0" d="M109.2,107.8c-3.6-1.3-4.1-6-4.1-9.8c0-1.6,0.2-3.5,1.6-4.4c0.7-0.5,1.7-0.5,2.6-0.4c3.5,0.2,7.2,1.7,9.2,4.6
	c2.1,2.9,2.2,7.3-0.3,9.8"/>
<path class="st0" d="M107,93.2c-1.4-3.1,0.5-7.4,3.9-8c3.4-0.6,9.4,9.6,7.7,12.5"/>
<path class="st0" d="M108.6,84.7c-1.4-1.1-2.6-2.6-2.9-4.4c-0.3-1.8,0.7-3.8,2.3-4.4c2-0.8,4.4,0.8,5.3,2.7c0.9,2,0.7,12.5,0.6,6.4"
	/>
<path class="st0" d="M191.3,106.7c0.4-0.4,0.9-0.9,1.3-1.3"/>
<path class="st0" d="M191.3,113.4c1.6,0.4,3.1,0.8,4.7,1.3"/>
<path class="st0" d="M192.5,120.9c0.9,1.1,1.8,2.2,2.7,3.3"/>
<path class="st0" d="M130,52.3c1-3.5,3-6.8,5.6-9.3"/>
<path class="st0" d="M64,47c0.4-2.9,0.9-5.8,1.3-8.7"/>
<g>
	<g>
		<path d="M65.8,91.1c3.2,0,3.2-5,0-5C62.6,86.1,62.5,91.1,65.8,91.1L65.8,91.1z"/>
	</g>
</g>
<circle class="st0" cx="63" cy="89.3" r="4.1"/>
<circle class="st0" cx="21.4" cy="27.1" r="6.6"/>
<circle class="st0" cx="184.2" cy="50" r="7"/>
<line class="st0" x1="14.8" y1="47" x2="33.6" y2="50"/>
<line class="st0" x1="169.8" y1="33.7" x2="195.2" y2="27.1"/>
<line class="st0" x1="177.2" y1="20.5" x2="184.2" y2="23.5"/>
<circle class="st0" cx="24.3" cy="171.3" r="6.2"/>
<line class="st0" x1="9.4" y1="162" x2="24.2" y2="157"/>
<path class="st0" d="M249.7,76.5c13.3-5.1,27.3-8.2,41.6-9.2c10.3-0.7,21-0.3,30.6,3.6c5.3,2.1,10.3,5.3,13.4,10.1
	c3.1,4.8,3.8,11.3,0.8,16.1c-4.3,6.9-13.9,7.9-22,7.3c-5.1-0.4-10.8-1.6-13.8-5.7c-4.2-5.8-0.5-14.7,5.9-18.1s14.1-2.4,21-0.5
	c21.9,6.1,40.7,22.3,50,43c0.9-7,1-14,0.5-21c-2.2,6.6-3.3,13.5-3.2,20.4c-6.1-1.5-12.4-2.5-18.8-2.9"/>
</svg>
