<?xml version="1.0" encoding="utf-8"?>
<!-- Generator: Adobe Illustrator 22.1.0, SVG Export Plug-In . SVG Version: 6.00 Build 0)  -->
<svg version="1.1" id="Слой_1" xmlns="http://www.w3.org/2000/svg" xmlns:xlink="http://www.w3.org/1999/xlink" x="0px" y="0px"
	 viewBox="0 0 267.8 188.6" style="enable-background:new 0 0 267.8 188.6;" xml:space="preserve">
<style type="text/css">
	.st0{fill:none;stroke:#000000;stroke-miterlimit:10;}
</style>
<g>
	<g>
		<path d="M47.7,77c3.2,0,3.2-5,0-5C44.4,72,44.4,77,47.7,77L47.7,77z"/>
	</g>
</g>
<circle class="st0" cx="47.7" cy="72.5" r="7.4"/>
<circle class="st0" cx="100" cy="72.5" r="7.4"/>
<g>
	<g>
		<path d="M97.3,75.7c3.2,0,3.2-5,0-5C94.1,70.7,94.1,75.7,97.3,75.7L97.3,75.7z"/>
	</g>
</g>
<circle class="st0" cx="63.9" cy="85.4" r="1.5"/>
<circle class="st0" cx="87.2" cy="81.9" r="2"/>
<path class="st0" d="M33.6,60.4c5.9-3.4,12.9-5,19.7-4.4c3.2,0.3,6.6,1.1,8.9,3.3c2.3,2.2,3.2,6.2,1.2,8.8c4.2,1,8.5,1.4,12.8,1.3
	c0.9,0,1.9-0.1,2.7-0.6c2-1.2,1.6-4.2,2.1-6.5c1.1-5.6,8-8.3,13.7-7.5c5.7,0.8,10.7,4,16.1,5.8c5.4,1.8,12.2,2,16.1-2.3
	c1.9-2.1,2.8-5,4.4-7.4c2.5-3.5,6.6-5.6,10.4-7.5c12.7-6.2,26.9-12.6,40.4-8.5c3-3.5,2.8-8.6,2.7-13.2s0.3-9.8,3.9-12.7
	c3.6-2.9,10.7,0.1,9.3,4.5c2.1-1.4,4.3-2.5,6.5-3.5c0.9,3.3,0.9,6.8-0.1,10c3.7-1.7,8.2-1.5,11.7,0.4c-4.8,4.2-9.3,8.7-13.5,13.4
	c-2.6,2.9-5.2,7-3.3,10.4c0.9,1.6,2.5,2.6,3.9,3.7c4.2,3.6,5.9,9.7,4.2,15c8.7-3.4,16.1-10,20.4-18.3c0.9-1.7,1.7-3.5,3.3-4.7
	c1.6-1.1,4.1-1.2,5.1,0.5c1.7,2.8-2.7,6.5-1.1,9.4c2.9,0.2,5.7,0.3,8.6,0.5c0.8,0,1.7,0.1,2.3,0.6c2.2,1.8-1.2,4.7-3.3,6.7
	c-4.6,4.2-3.7,13.1-9.3,15.8c-3.1,1.5-6.9,0.3-10.2,1.3c-2.5,0.8-4.4,2.9-6.1,4.9c-3.5,4.1-6.8,8.3-10,12.6c-3,4-5.9,8.2-9.8,11.2
	c-5,3.7-11.2,5.3-17.3,6.8c-9.7,2.4-19.3,4.7-29,7.1c-4,1-8.1,2-11.6,4.1c-6.4,3.9-11.2,11.5-18.7,12c-2,0.1-4-0.2-5.8,0.5
	c-2.7,1.1-3.9,4.2-5.4,6.8c-6.2,10.6-21.5,15.7-22.7,27.9c-0.4,3.9-0.6,9.7-4.6,9.4c-3-0.2-3.8-4.2-3.8-7.2
	c-2.9,1.7-6.2,3.5-9.5,2.8s-5.3-5.8-2.5-7.6c-1.4,2.1-5.1,1.1-5.9-1.3c-0.8-2.4,0.6-5,2.6-6.6c2-1.5,4.5-2.3,6.8-3.3
	c11.8-5,19.6-16.3,26.7-27c-9.9-1.1-19.8-2.2-29.6-3.3c-1.4-0.2-2.9-0.3-4.2,0.4c-1.3,0.7-2,2.1-2.6,3.3
	C52.9,142,42.4,154,29.6,162.7c-2-3.2-2.3-7.4-0.8-10.8c-5.3,3-13-2.4-12-8.5c-3.3,1.8-7.8-1.7-7.4-5.5s4.3-6.5,8.1-6.2
	c2.2,0.2,4.2,1.1,6.4,1.5c7.7,1.3,14.3-5.2,19.4-11.2c1.4-1.6,2.9-3.8,1.9-5.7c-0.5-1-1.6-1.6-2.6-2.1c-6.8-3.4-13.6-7.8-17.2-14.5
	c-5-9.1-3.1-20.3-1.1-30.4C24.6,66.6,31.8,62.6,33.6,60.4c1.7-2.2-1.6-2.2,0.8-0.7"/>
<g>
	<path d="M73.1,93.1c-4.3,8.9-13.2,14.5-20.8,21S37.9,130,40.1,139.6c2.3,10.1,13.3,15.4,23.4,18.1c14.9,3.9,30.5,4.9,45.8,2.9
		c3.2-0.4,6.6-1,9.4-2.7c4.7-2.8,7.2-8,10.2-12.6c4.1-6.5,9.5-12.2,15.7-16.8c4.8-3.5,10.4-6.4,16.3-6.5c5.9-0.1,12.2,3.2,14.2,8.8
		c1,3,0.8,6.2,1.2,9.3c1,7.9,6.6,15.1,14,18c7.4,2.9,16.4,1.5,22.5-3.6c4.4-3.7,7.3-8.9,12-12.2c6.2-4.3,15.1-4.1,21.1,0.4
		c-2.7-3.2-6-5.8-9.7-7.6c1.8-2.4,3.6-4.9,5.4-7.3c-9.1-0.6-17.9,4-24.5,10.2c-3.3,3.1-6.3,6.7-10.2,9c-3.9,2.3-9.3,2.8-12.8-0.1
		c-3.5-3-3.7-8.2-4.8-12.7c-3.8-15.3-21.5-24.4-37-21.8s-28.3,14.4-36,28.1c-1.2,2.2-2.4,4.5-4.2,6.2c-3.4,3.1-8.4,3.7-13,3.5
		c-15.1-0.3-29.7-5.6-43.1-12.4c-2.7-1.3-5.5-3-6.4-5.9c-1-3.2,1-6.8,3.8-8.7c2.8-2,6.1-2.9,9.2-4.2c6.2-2.7,11.6-7.2,15.2-12.9
		c1.7-2.6,3-5.7,2.4-8.7c-0.6-3-4-5.5-6.8-4.3"/>
	<g>
		<path d="M70.9,91.8c-8.6,16.5-39.3,26.2-33,49.1c5.3,19.4,34.8,22.4,51.1,23c9.8,0.4,24,1.2,32.4-4.9c3.5-2.6,5.8-6.3,8-9.9
			c3.3-5.4,7.1-10.3,11.8-14.6c4.4-4,9.7-7.9,15.5-9.3c6.5-1.6,14.5,0.6,16.3,7.9c1.1,4.6,0.5,9,2.3,13.5c1.7,4.2,4.6,7.9,8.2,10.7
			c8,6.1,19.5,6.5,28,1.3c5.1-3.2,8.2-8.4,12.5-12.3c5.9-5.3,14-5.5,20.5-1.2c2.5,1.7,4.8-1.9,3-3.9c-2.9-3.3-6.3-5.9-10.2-8
			c0.3,1.1,0.6,2.3,0.9,3.4c1.8-2.4,3.6-4.9,5.4-7.3c1.2-1.6-0.4-3.7-2.2-3.8c-10-0.3-19,4.2-26.3,10.9c-3.9,3.6-7.5,8.6-12.9,9.8
			c-7.8,1.8-9-5.5-10.3-11.3c-3.5-16.1-19.9-26.1-35.8-25.4c-18.1,0.8-33.1,14.1-41.7,29.1c-1.2,2.1-2.3,4.6-4.2,6.3
			c-2.6,2.3-6.3,2.7-9.7,2.8c-6.3,0.2-12.6-0.9-18.7-2.5c-5.6-1.4-11.2-3.4-16.5-5.7c-4.1-1.8-16.1-5.3-12.9-11.8
			c2.6-5.2,12.1-6.4,16.8-9.5c4.2-2.8,8-6.5,10.7-10.8c2.3-3.6,4-8.3,1.9-12.4c-1.8-3.5-5.5-5.1-9.2-4.2c-3.1,0.8-1.8,5.6,1.3,4.8
			c5.6-1.4,3.5,5.3,2.9,6.8c-0.6,1.3-1.3,2.6-2.2,3.7c-1.6,2.3-3.6,4.3-5.8,6.1c-4.5,3.6-9.8,4.9-14.8,7.6
			c-6.7,3.5-10.4,11.7-3.9,17.4c3.5,3,8.4,4.8,12.6,6.6c5.2,2.3,10.5,4.3,15.9,5.8c9,2.5,20.9,5.1,30,1.8
			c8.4-3.1,11.3-13.8,16.8-20.1c6.4-7.5,14.7-13.6,24.4-15.9c9.1-2.2,19-0.3,26.7,5.1c3.5,2.5,6.5,5.7,8.4,9.5
			c2.2,4.3,2.2,9.2,3.9,13.7c3.5,8.7,13.3,9.4,20.5,4.6c5.1-3.4,8.7-8.6,13.8-12.1c5.4-3.8,11.6-6,18.2-5.8
			c-0.7-1.3-1.4-2.5-2.2-3.8c-1.8,2.4-3.6,4.9-5.4,7.3c-0.8,1.1-0.2,2.8,0.9,3.4c3.6,1.9,6.5,4.2,9.2,7.2c1-1.3,2-2.6,3-3.9
			c-7.5-5.1-17.6-5.1-24.9,0.5c-3.5,2.7-6,6.4-9,9.5c-4.2,4.3-9.7,6.7-15.7,6.5c-5.4-0.2-10.5-2.7-14-6.8c-4.3-5-4.5-10.2-5.2-16.4
			c-1-7.8-6.9-13.1-14.6-14.1c-9.6-1.2-18.5,4.6-25.3,10.6c-3.7,3.2-6.9,6.9-9.8,10.9c-3.1,4.3-5.2,9.6-9.3,13.1
			c-4.5,3.9-11.6,4-17.3,4.4c-6.4,0.4-12.9,0.3-19.4-0.3c-10.6-1-22.8-2.9-31.8-8.9c-5-3.3-8.8-8.3-8.5-14.6
			c0.3-6.7,4.9-12.6,9.5-17.1c8.1-7.8,18.2-13.3,23.5-23.6C76.7,91.5,72.4,89,70.9,91.8L70.9,91.8z"/>
	</g>
</g>
<circle class="st0" cx="184.7" cy="56.5" r="5.5"/>
<circle class="st0" cx="159.1" cy="51" r="4"/>
<circle class="st0" cx="159.1" cy="71.8" r="4"/>
</svg>
