<?xml version="1.0" encoding="utf-8"?>
<!-- Generator: Adobe Illustrator 22.1.0, SVG Export Plug-In . SVG Version: 6.00 Build 0)  -->
<svg version="1.1" id="Слой_1" xmlns="http://www.w3.org/2000/svg" xmlns:xlink="http://www.w3.org/1999/xlink" x="0px" y="0px"
	 viewBox="0 0 375.6 347.1" style="enable-background:new 0 0 375.6 347.1;" xml:space="preserve">
<style type="text/css">
	.st0{fill:#FF73ED;}
	.st1{fill:none;stroke:#000000;stroke-miterlimit:10;}
	.st2{fill:#2EFFE4;}
</style>
<g>
	<path class="st0" d="M273.3,47.4c-7.2,4-15.9,8-23.3,4.3c-10.2-5.1-9.4-19.9-15.5-29.5c-7.7-12.2-24.8-13.6-39.2-11.9
		c-20.5,2.4-40.6,8.4-59.1,17.7c-17.2,8.6-34.4,22.6-36.1,41.7C99,83,105.7,95.6,111,107.8c1,2.2,1.9,4.7,1,6.9
		c-0.8,2.2-3,3.4-5.1,4.4c-15.8,7.1-34.2,5.3-50.7,10.6c-21.3,6.8-37.9,26.2-41.6,48.2c-1,6.3-1,12.9,1.4,18.7
		c2.8,6.7,8.4,11.8,14.4,15.9c11.6,8,25.1,13,39.1,14.7c23.2,2.7,46.5-4,69.9-4.8c3.1-0.1,6.4-0.1,9.2,1.2c3,1.4,5.1,4.1,6.9,6.8
		c11.5,16.8,17.1,37.6,15.5,58c-0.7,8.7-2.5,18.3,2.2,25.6c3.9,6.1,11.3,9,18.3,10.9c13.4,3.6,28.2,4.8,40.5-1.5
		c11-5.6,18.4-16.5,23.1-27.9c15-35.9,7.3-77-4.6-114c-2.8-8.7-5.5-19.4,0.7-26.2c3.3-3.7,8.4-5.1,13.3-6
		c23.5-4.3,47.6,0.2,71.4,0.2c6.9,0,14.3-0.4,20.1-4.3c7.7-5.1,10.8-15.3,9.4-24.4s-6.6-17.2-12.6-24.2c-9.8-11.5-23.4-21.2-38.5-21
		c-5.8,0.1-11.6,1.6-17.3,1.3c-5.8-0.4-12.1-3.4-13.7-8.9c-1.7-5.9,2.4-12.5-0.1-18c-2.6-5.6-12.1-5.9-14.9-0.4"/>
	<g>
		<path class="st0" d="M272,45.2c-9.7,5.2-21.8,9.1-27.4-3.2c-3.1-6.8-3.9-14.6-8-21c-9.2-14.4-28.9-14.8-44-12.8
			c-21.2,2.8-42.1,9.2-60.9,19.4c-15,8.2-30.4,20.9-33.5,38.6c-1.7,9.5,0.7,19,4.2,27.8c1.8,4.6,3.9,9,5.9,13.5
			c1.2,2.7,2.4,6-0.3,8.3c-1.2,1.1-3.3,1.7-4.7,2.3c-2.7,1-5.4,1.8-8.2,2.4c-19.6,4.5-39.6,3.3-56.6,15.7
			c-13.9,10.1-23.9,25.7-26.2,42.8c-1.3,9.4,0.2,18.6,6.2,26.1c5.8,7.2,14.3,12.5,22.6,16.4c19.9,9.5,41.1,10,62.6,7.3
			c11.9-1.4,23.9-3.5,35.9-3.9c6.4-0.2,10.3,1.5,14,6.8c3.1,4.4,5.7,9.2,7.9,14.1c4.5,10.2,7.1,21.3,7.5,32.5
			c0.4,9.9-2.5,20.1-0.5,29.8c3.8,18.5,29.1,22.7,44.8,22.3c44.1-0.9,55-54.6,52.6-89.7c-1.5-21.6-7.4-42-13.5-62.7
			c-1.3-4.5-2.5-9.2-2-13.9c0.8-6.9,5.9-10.2,12.2-11.8c11.3-2.8,23.4-2.6,34.9-2.2c12.3,0.5,24.5,1.7,36.8,1.9
			c8.5,0.1,17.9-0.2,24.9-5.8c14.9-11.9,9.4-33.3-0.3-46.4c-10.5-14.2-26.5-27.3-45.1-26.6c-8.1,0.3-27.5,5.3-28-8.2
			c-0.3-7.3,4-16.6-4.7-20.8c-5.2-2.5-11.6-0.8-14.6,4.1c-1.7,2.7,2.6,5.3,4.3,2.5c2.3-3.7,8.2-3.7,10.3,0.1
			c2.3,4.3-0.6,10.1-0.3,14.8c0.5,7.2,6.4,11.8,13.2,13.2c9.2,1.9,18.4-2,27.7-0.2c9.6,1.9,18,7.6,24.9,14.4
			c7,6.9,13.7,15.4,16.1,25.1c2.2,8.7,0.3,19.5-7.6,24.8c-8.4,5.7-20.9,4.1-30.4,3.6c-11.3-0.5-22.6-1.6-33.9-1.8
			c-10.2-0.1-21.1,0.1-31,2.9c-7.1,2-12.7,6.6-14.1,14.2c-1.5,8.2,1.7,16.6,4.1,24.3c3.1,10,5.8,20.1,7.8,30.3
			c4,20.2,5.4,41.3,0.8,61.5c-4.4,19-14.2,40.5-34.4,46c-9.8,2.6-20.3,1.4-29.9-1c-10.3-2.6-20.1-6.9-21.1-18.8
			c-0.9-9.7,1.5-19.5,0.8-29.3c-0.7-9.3-2.7-18.4-6.1-27.1c-3.1-7.8-7-16.2-12.7-22.5c-6.2-6.9-15.4-5.6-23.9-4.9
			c-21.8,1.9-43.8,7.5-65.7,3.6c-10-1.8-19.7-5.3-28.5-10.5c-8.7-5.2-17.6-12-19.7-22.5c-3.5-18,7.9-37.7,21.4-48.8
			c15.9-13,35.2-12.6,54.4-16.3c6.4-1.2,18.4-3.1,21.4-9.9c1.5-3.5,0-7-1.4-10.3c-2.2-5.2-4.7-10.3-6.7-15.6
			c-3.6-9.6-5.2-19.8-1.3-29.6c3.4-8.5,10-15.5,17.2-21c16.1-12.2,36.4-19.5,55.9-23.9c15.3-3.4,38.6-8.2,51.4,4.2
			c9.9,9.6,6.4,29.8,21.4,34.9c8.2,2.7,16.6-1.4,23.7-5.2C277.4,48,274.8,43.7,272,45.2L272,45.2z"/>
	</g>
</g>
<circle class="st1" cx="64" cy="91.8" r="8.3"/>
<g>
	<path class="st2" d="M125.4,295.8c-0.5,5.1-6.9,7.6-12.2,7.5c-6.3-0.1-12.6-2.4-16.9-6.7c-4.4-4.3-6.6-10.8-5.1-16.8
		c1.3-5.4,5.4-9.8,9.6-13.7c0.9-0.8,1.8-1.7,1.7-2.8c0-0.6-0.4-1.2-0.8-1.7c-1.9-2.8-3.8-5.5-5.7-8.3c-0.4-0.5-0.8-1.1-1.4-1.4
		c-2.1-1.1-5.1,1.7-7,0.3c-1.6-1.2-0.3-3.7,1.2-5c3.9-3.3,8.9-5,13.7-6.6c1.7-0.6,3.5-1.1,5.2-0.9s3.5,1.7,3.4,3.4
		c-0.1,1.5-1.3,2.7-1.6,4.1c-0.2,1.2,0.4,2.3,0.9,3.4c2.1,4.2,4.2,8.5,6.2,12.7c0.3,0.6,0.6,1.2,1.2,1.3c0.7,0.2,1.3-0.2,1.9-0.5
		c5.2-2.6,11.5,0.9,14.7,5.6c4.6,6.8,4.7,16.3,0.3,23.4s-13.1,11.4-21.5,10.7"/>
	<g>
		<path class="st2" d="M123,295.2c-1.9,10.1-18.9,4.9-23.8,0.7c-9.1-7.6-6.3-18.4,1.1-25.8c1.9-1.9,4.8-3.7,4.7-6.7
			c-0.1-3.1-3.3-6.1-4.9-8.5c-1.5-2.2-2.9-5-5.7-5.6c-1.2-0.2-2.4,0.5-3.4,0.4c-1.3,0.6-1.4,0.4-0.3-0.7c1-0.8,2.1-1.6,3.2-2.2
			c1.8-1,13.5-7,14.1-2.1c0.2,1.4-0.9,2.7-0.6,4.4c0.3,1.6,1.1,3,1.8,4.5c1.7,3.7,3.3,8.8,5.9,11.9c1.5,1.9,3,1.8,5.1,1.3
			c3.1-0.7,4.7-1.4,7.8,0.2c2.2,1.2,4,3.1,5.2,5.3c2.5,4.3,3,9.7,1.7,14.5c-2.6,9.6-12,15-21.5,14.6c-3.2-0.2-3.2,4.8,0,5
			c17.2,0.8,31.7-15.4,25.9-32.5c-2.4-7-8.8-13.8-16.8-13.1c-1,0.1-3.2,1.4-3.9,1.2c0,0-2-4.6-2.5-5.5c-1-2.1-3-4.8-3.5-7.1
			c-0.5-2.4,1.2-4.6,0.9-6.9c-1.1-9.3-14.3-3.7-18.9-1.7c-3.7,1.6-15.1,8.3-8.6,13.3c2.6,2,5.3-0.8,7.7,0.4c1.5,0.8,3.4,4.9,4.3,6.2
			c2.2,3.2,0.4,3.9-1.9,6.3c-5.9,6.1-9.8,13.9-7.1,22.4c2.8,9,11.2,14.7,20.3,16c7,1,16.9-0.8,18.4-9
			C128.4,293.3,123.6,292,123,295.2L123,295.2z"/>
	</g>
</g>
<path class="st1" d="M42.1,243.6c1.7-4.5,8.9-5.3,11.6-1.3c1.4,2.1,1.5,4.7,2.4,7s3.1,4.6,5.5,3.9"/>
<path class="st1" d="M57.2,307.7c4.6,2.4,9.2,4.8,13.7,7.2"/>
<path class="st1" d="M59.9,318.2c1.6-5.1,4-9.9,7.1-14.2"/>
<ellipse transform="matrix(0.9999 -1.020248e-02 1.020248e-02 0.9999 -2.8565 0.2441)" class="st1" cx="22.5" cy="280.1" rx="8.3" ry="8.3"/>
</svg>
