<?xml version="1.0" encoding="utf-8"?>
<!-- Generator: Adobe Illustrator 22.1.0, SVG Export Plug-In . SVG Version: 6.00 Build 0)  -->
<svg version="1.1" id="Слой_1" xmlns="http://www.w3.org/2000/svg" xmlns:xlink="http://www.w3.org/1999/xlink" x="0px" y="0px"
	 viewBox="0 0 264.6 347.1" style="enable-background:new 0 0 264.6 347.1;" xml:space="preserve">
<style type="text/css">
	.st0{fill:#FF73ED;}
	.st1{fill:none;stroke:#000000;stroke-miterlimit:10;}
	.st2{fill:#2EFFE4;}
</style>
<g>
	<path class="st0" d="M257.9,95.2c0.3-21,0.5-41.2-3.4-65.7c-2.6-16.6-30.1-13-46.8-11.9c-10,0.7-21.2,2-27.4,9.8
		c-10.2,12.8,0.1,33.2-7.9,47.4c-5.6,10.1-18.3,13.5-29.7,15.3c-11.4,1.8-23.9,3.4-31.8,11.9c-9.6,10.3-8,27.9,1.3,38.6
		c4.5,5.2,10.5,9,15.1,14.2c8.7,9.9,11.5,24.7,6.9,37.1c-1.2,3.4-3,6.6-5.7,9c-3.1,2.8-7.3,4.2-11.3,5.5
		C98.3,212.5,77,218.7,67,235.9c-10.3,17.7-3.1,42.7,14.1,53.8c17.2,11,41.6,7.9,56.9-5.7c3.7-3.3,7-7.2,11.5-9.2
		c10.5-4.7,23.1,3.1,28.4,13.3c5.3,10.3,5.6,22.3,7.3,33.7c0.5,3.3,1.3,7,4,9c1.5,1.1,3.4,1.6,5.3,1.9c15,2.5,31.1-2.8,41.7-13.7
		c10.6-10.9,15.4-27.2,12.4-42.1c-2.4-11.8-9.1-22.3-14.2-33.2c-5.1-11-8.5-23.8-3.9-35c1.5-3.7,4-7.1,7.4-9.3
		c2.8-1.7,6.1-2.5,9-4.2c10.4-6,11.5-20.2,11.4-32.1c-0.2-31.4-0.5-62.8-0.7-94.3"/>
	<g>
		<path class="st0" d="M260.4,95.2c0.2-19.1,0.2-38.2-2.2-57.2c-0.8-6.2-0.9-12.9-5.7-17.5c-3.8-3.7-9.3-5.1-14.5-5.9
			c-12.9-1.8-27.6-0.5-40.5,1.6c-7.1,1.2-14.4,3.7-19.1,9.5c-4.6,5.6-5.6,12.9-5.6,19.9c0,8,1.4,16.4-1.1,24.2
			c-2.7,8.6-10.5,13.2-18.7,15.6c-14.8,4.4-33.3,2.8-44.4,15.4c-9.5,10.8-8.4,27.7-0.3,38.9c5.5,7.6,14.2,12.1,19.5,19.9
			c5.2,7.6,7.2,17.4,5.3,26.4c-0.9,4.5-2.6,9.2-6,12.5c-3.6,3.5-8.8,4.8-13.4,6.3c-7.6,2.4-15.2,4.9-22.4,8.1
			c-13.2,5.8-25.6,15.2-30,29.5c-4.2,13.6-0.5,29,8.2,40c9.3,11.8,24.4,17.4,39.2,16.2c7.7-0.6,15.3-2.9,22.1-6.7
			c3.2-1.8,6.1-3.9,8.8-6.3c3.8-3.4,7.2-7.7,12.3-9.3c8.6-2.7,17.7,3.5,22.3,10.5c5.7,8.7,6.4,19.7,7.7,29.7
			c0.9,6.9,1.3,15.3,9,17.8c7.1,2.3,15.8,1.6,22.9-0.1c15.6-3.8,28.5-14.9,34.4-29.9c6.5-16.5,2.8-32.7-4.9-48
			c-4.5-9.1-9.7-18.1-11.8-28.2c-2.1-10.4-0.4-23,10.2-27.9c7-3.2,12.3-6.1,15.5-13.5c2.8-6.5,3.4-13.9,3.5-20.9
			c0.3-21.5-0.3-43-0.4-64.5c-0.1-10.8-0.2-21.6-0.2-32.4c0-3.2-5-3.2-5,0c0.1,20.3,0.3,40.6,0.4,60.9c0.1,10.5,0.2,20.9,0.2,31.4
			c0,7.2,0.1,14.7-2.3,21.5c-1.3,3.8-3.4,7.4-6.8,9.7c-3.5,2.4-7.9,3.2-11.4,5.7c-5.7,4.1-8.5,11.2-9.3,17.9
			c-2.1,17.7,8.9,32.9,15.7,48.3c7.3,16.5,7,35.1-4.6,49.7c-5.3,6.7-12.7,11.7-20.9,14.4c-6.7,2.2-19.3,4.8-25.4,0.1
			c-3.8-2.9-3.6-9.2-4.1-13.6c-0.5-4.3-1-8.5-1.8-12.8c-1.4-7.6-3.8-15.1-8.9-21c-4.3-5-10.3-9-16.9-10c-7.1-1.1-13,1.9-18.2,6.6
			c-6.2,5.6-12,10.6-20,13.4c-7.8,2.7-16.4,3.6-24.5,2c-15.4-3-27.1-14.6-30.7-29.8c-3.7-15.6,2.8-30.2,15.7-39.2
			c12.6-8.8,27.5-11.4,41.5-17.1c14.2-5.9,18-22.8,14.8-36.7c-1.7-7.2-5.3-13.8-10.6-19.1c-6.1-6.1-13.6-10.6-17.4-18.6
			c-3.4-7-4.1-15.6-1-22.8c3.5-8.1,11.3-12.1,19.5-14.3c13.6-3.6,29.3-3,40.6-12.6c11.9-10.2,8.5-25.6,9-39.4
			c0.3-8.5,3.2-16,11.3-19.7c6.9-3.2,14.8-3.3,22.3-3.9c10.9-0.8,25.7-3.3,35.5,2.7c6.6,4,6,13.3,6.8,20.1c1,8.9,1.5,17.9,1.7,26.9
			c0.2,8.5,0.1,17.1,0,25.6C255.3,98.4,260.3,98.4,260.4,95.2L260.4,95.2z"/>
	</g>
</g>
<path class="st1" d="M81.8,83.7c1.7-4.5,8.9-5.3,11.6-1.3c1.4,2.1,1.5,4.7,2.4,7s3.1,4.6,5.5,3.9"/>
<path class="st1" d="M41,199c4.6,2.4,9.2,4.8,13.7,7.2"/>
<path class="st1" d="M43.7,209.5c1.6-5.1,4-9.9,7.1-14.2"/>
<ellipse transform="matrix(0.9999 -1.020248e-02 1.020248e-02 0.9999 -1.4802 0.2701)" class="st1" cx="25.7" cy="145.2" rx="8.3" ry="8.3"/>
<g>
	<path class="st2" d="M60,122.4c-5.1-2-8.9-7-9.6-12.4c-2.5,0-5-0.1-7.5-0.1c-0.8,0-1.6,0-2.2-0.5c-1.1-0.7-1.3-2.2-1.1-3.4
		c0.5-5.5,4.8-10.3,10-11.9s11.2,0,15.4,3.5c1.9,1.6,3.6,3.8,3.9,6.3c0.3,2.5-1.1,5.3-3.6,6c-2,0.5-4.9,0.1-5.3,2.1
		c-0.3,1.5,1.3,2.5,2.4,3.5c1.4,1.2,2.4,3,2.4,4.8c0,1.8-1.3,3.7-3.2,4c-1.8,0.3-3.8-1.2-3.7-3"/>
	<g>
		<path class="st2" d="M61.2,120.2c-4.7-2.1-7.6-5.9-8.5-11c-0.2-1.1-1.4-1.8-2.4-1.8c-2.4,0-8.1,1.1-8.2-2.2
			c-0.1-2.7,2.8-5.9,5-7.3c5.1-3.4,14.7-2.4,18,3.4c4.2,7.5-4.7,4.7-7,9c-0.6,1.1-0.7,2.4-0.2,3.7c0.2,0.6,0.7,1.2,1.1,1.7
			c0.3,0.3,0.6,0.5,0.8,0.8c1.5,0.8,1.7,2.2,0.6,4.1c-0.5-3.2-5.3-1.8-4.8,1.3c1.5,9.5,16.1,2.9,10.4-6.2c-0.6-0.9-1.8-1.6-2.2-2.5
			c-0.3-0.3-0.6-0.5-1-0.6c0.7-0.1,1.4-0.2,2.2-0.3c1.9-0.4,3.4-1.1,4.6-2.6c2.9-3.6,2-8.4-0.7-11.9c-6.4-8.1-19.4-9.6-27-2.3
			c-3,2.9-5.7,7.8-4.8,12.1c1.2,6,8.7,4.5,13.2,4.5c-0.8-0.6-1.6-1.2-2.4-1.8c1.1,6.3,5,11.3,10.8,13.9
			C61.6,125.9,64.2,121.6,61.2,120.2L61.2,120.2z"/>
	</g>
</g>
<g>
	<path class="st2" d="M90.6,181.4c-5.4,1.1-11.3-1.1-14.8-5.3c-2.1,1.3-4.2,2.6-6.3,3.9c-0.6,0.4-1.3,0.8-2.1,0.8
		c-1.3,0-2.2-1.2-2.8-2.3c-2.6-4.9-1.5-11.2,2.1-15.4c3.6-4.2,9.5-6.1,14.9-5.3c2.5,0.3,5.1,1.3,6.7,3.2c1.6,2,1.9,5.1,0.2,7
		c-1.4,1.5-4,2.7-3.3,4.6c0.5,1.4,2.4,1.5,3.9,1.7c1.8,0.3,3.6,1.2,4.6,2.8c1,1.6,0.9,3.8-0.5,5.1c-1.3,1.3-3.9,1.1-4.8-0.5"/>
	<g>
		<path class="st2" d="M89.9,179c-4.9,0.7-9.1-1.1-12.4-4.7c-0.7-0.8-2.1-1-3-0.4c-1.7,1-6.1,4.9-7.8,3.3c-2.4-2.1-0.9-8.1,0.4-10.4
			c2.9-5.4,11.9-9.1,17.5-5.6c6.1,3.9-3.1,7-1.9,11.7c0.3,1.3,1.2,2.2,2.3,2.9c0.7,0.4,1.5,0.5,2.2,0.7c0.4,0.1,0.8,0.1,1.2,0.2
			c2.2,0,2.8,1,1.8,3.1c-2.1-2.4-5.7,1.1-3.5,3.5c6.3,7.2,14.8-5.4,6.3-10.4c-1.2-0.7-2-0.6-3.2-1.1c-2.2-1-1.2,0.7-0.4-1.3
			c0.7-1.8,2.4-2.6,2.7-4.8c0.6-4.6-2.8-8.2-6.8-9.7c-10-3.5-22,2.6-24.2,13.1c-0.8,4-0.3,9.8,3,12.6c4.3,3.7,9.4-1.3,13.1-3.6
			c-1-0.1-2-0.3-3-0.4c4.6,5,10.6,6.9,17.2,6C94.4,183.4,93,178.6,89.9,179L89.9,179z"/>
	</g>
</g>
<g>
	<path class="st2" d="M138.7,77.8c-5.1-2-8.9-7-9.6-12.4c-2.5,0-5-0.1-7.5-0.1c-0.8,0-1.6,0-2.2-0.5c-1.1-0.7-1.3-2.2-1.1-3.4
		c0.5-5.5,4.8-10.3,10-11.9s11.2,0,15.4,3.5c1.9,1.6,3.6,3.8,3.9,6.3c0.3,2.5-1.1,5.3-3.6,6c-2,0.5-4.9,0.1-5.3,2.1
		c-0.3,1.5,1.3,2.5,2.4,3.5c1.4,1.2,2.4,3,2.4,4.8s-1.3,3.7-3.2,4c-1.8,0.3-3.8-1.2-3.7-3"/>
	<g>
		<path class="st2" d="M139.9,75.6c-4.7-2.1-7.6-5.9-8.5-11c-0.2-1.1-1.4-1.8-2.4-1.8c-2.4,0-8.1,1.1-8.2-2.2
			c-0.1-2.7,2.8-5.9,5-7.3c5.1-3.4,14.7-2.4,18,3.4c4.2,7.5-4.7,4.7-7,9c-0.6,1.1-0.7,2.4-0.2,3.7c0.2,0.6,0.7,1.2,1.1,1.7
			c0.3,0.3,0.6,0.5,0.8,0.8c1.5,0.8,1.7,2.2,0.6,4.1c-0.5-3.2-5.3-1.8-4.8,1.3c1.5,9.5,16.1,2.9,10.4-6.2c-0.6-0.9-1.8-1.6-2.2-2.5
			c-0.3-0.3-0.6-0.5-1-0.6c0.7-0.1,1.4-0.2,2.2-0.3c1.9-0.4,3.4-1.1,4.6-2.6c2.9-3.6,2-8.4-0.7-11.9c-6.4-8.1-19.4-9.6-27-2.3
			c-3,2.9-5.7,7.8-4.8,12.1c1.2,6,8.7,4.5,13.2,4.5c-0.8-0.6-1.6-1.2-2.4-1.8c1.1,6.3,5,11.3,10.8,13.9
			C140.3,81.3,142.8,77,139.9,75.6L139.9,75.6z"/>
	</g>
</g>
</svg>
