<?xml version="1.0" encoding="utf-8"?>
<!-- Generator: Adobe Illustrator 22.1.0, SVG Export Plug-In . SVG Version: 6.00 Build 0)  -->
<svg version="1.1" id="Слой_1" xmlns="http://www.w3.org/2000/svg" xmlns:xlink="http://www.w3.org/1999/xlink" x="0px" y="0px"
	 viewBox="0 0 375.6 347.1" style="enable-background:new 0 0 375.6 347.1;" xml:space="preserve">
<style type="text/css">
	.st0{fill:#FF73ED;}
	.st1{fill:#2EFFE4;}
	.st2{fill:none;stroke:#000000;stroke-miterlimit:10;}
</style>
<g>
	<path class="st0" d="M64.4,259.4c1.9-33.8,3.8-67.7,5.6-101.5c0.4-6.4,1-13.4,5.4-17.9c2.9-2.9,7-4.4,11-5.4
		c10.2-2.5,21-2.9,31.3-1c4.7,0.8,9.4,2.2,13.1,5.1c5.7,4.5,8.2,11.9,11.2,18.5c3,6.7,7.6,13.6,14.8,14.9
		c9.9,1.9,17.8-7.5,25.7-13.7c10-7.8,23.3-11.3,35.9-9.4c12.6,1.9,24.3,9.1,31.6,19.6c2,2.9,3.8,6,6.7,8c3.1,2,6.9,2.3,10.6,2.5
		c11.3,0.7,22.6,1.4,33.9,2c6.1,0.4,12.4,0.8,17.5,4.1c4,2.6,6.9,6.7,9.1,11c2.8,5.5,4.8,11.6,4.5,17.8c-0.4,8.9-5.4,17.1-12.3,22.7
		s-15.4,8.9-24.1,10.8c-35,7.7-70.8-5.2-106.1-11.6c-3.3-0.6-6.7-1.2-10-0.4c-11.1,2.7-13.4,17.3-21,25.8
		c-6.1,6.8-15.6,9.3-24.7,10.3c-7.1,0.7-15.3,0.3-19.9-5.1c-4.7-5.5-4.6-15-11-18.3c-4.8-2.5-10.8,0-15,3.4s-7.8,7.9-12.7,10.2
		c-4.9,2.2-10.6,1.9-15.9,1.6c-1.5-0.1-3.1-0.2-4.3-1.3c-1.1-1-1.4-2.6-1.6-4.1c-1.1-8.2-1.7-16.5-1.9-24.8
		c-0.2-9.4,0.2-18.9-1.1-28.3c-1.6-12-6-23.5-6.8-35.5c-0.8-12,2.9-25.6,13.3-31.6c8.6-5,19.4-3.6,29.2-2.1"/>
	<g>
		<path class="st0" d="M66.9,259.4c1.9-34.6,3.2-69.2,5.8-103.8c0.6-8.7,3.2-15.3,12.2-18c7.9-2.4,16.4-3.1,24.6-2.6
			c7.7,0.5,16.9,1.7,22.3,7.8c4.4,5,6.2,11.7,9.1,17.6c5.1,10.3,14.9,17.9,26.6,12.5c5.6-2.6,10-7.1,14.7-10.9
			c5.8-4.8,12.3-8.3,19.7-9.9c14.5-3.3,29.8,1.1,40.6,11.3c4.5,4.3,7.1,10.5,12,14.4c5.3,4.1,12.6,3.7,19,4.1
			c9,0.5,17.9,1.1,26.9,1.6c8.5,0.5,16.7,1.3,22.2,8.7c10.1,13.5,9.7,31.1-3.5,42.2c-12.3,10.4-30.1,12.9-45.6,12.9
			c-16.8,0-33.4-3.3-49.7-6.9c-7.9-1.8-15.9-3.6-23.8-5.3c-6.4-1.3-13.9-3.7-20.5-2.2c-10.3,2.5-13.9,13.9-18.8,21.9
			c-7.1,11.6-24.1,16.9-37.1,13.8c-7.7-1.8-9.3-7.9-12-14.4c-1.8-4.3-4.6-8.2-9.4-9.4c-13.7-3.5-20.5,14.4-32.9,15.9
			c-3.2,0.4-10.7,1.2-12.6-2.1c-0.9-1.5-0.7-4.8-0.8-6.6c-0.2-2.2-0.4-4.4-0.6-6.7c-0.6-8.2-0.6-16.5-0.7-24.7
			c-0.1-7.7-0.6-15.3-2.1-22.9c-1.6-8-4-15.8-5.2-23.9c-1.9-13.3,0.8-31,15.5-35.9c7.5-2.5,15.8-1.3,23.4-0.1
			c3.1,0.5,4.5-4.3,1.3-4.8c-13.8-2.1-29.3-3.2-38.7,9.1c-8.6,11.3-8,26.2-5.2,39.3c1.9,9,4.6,17.8,5.5,27
			c0.9,9.1,0.4,18.3,0.7,27.4c0.1,4.5,0.4,8.9,0.8,13.4c0.3,3.7,0.2,8.7,1.8,12.2c2.6,5.7,11.3,4.8,16.5,4.4c7-0.6,12-3.9,17.1-8.6
			c5.8-5.4,15.3-12.5,20.5-2.4c2.7,5.3,3.6,11.3,8.5,15.2c5,4,12,4.6,18.2,4.1c13.5-1,25.6-5.7,32.6-17.8c3-5.2,5.3-11.5,9.8-15.6
			c6.7-6,17.3-2,25-0.4c33.5,7.1,69.7,18.5,103.7,7.5c13.4-4.4,26.3-13.5,30-27.9c3.2-12.8-3-30.6-14.7-37.4
			c-6.6-3.8-14.7-3.8-22.1-4.3c-9.6-0.6-19.3-1.1-28.9-1.7c-4.9-0.3-9.4-0.7-12.8-4.6c-2.4-2.7-4.1-6-6.5-8.8
			c-4.8-5.6-10.9-10-17.6-13c-12.9-5.7-27.8-5.5-40.6,0.3c-6.7,3-11.9,7.7-17.5,12.4c-6.4,5.4-14.8,10.3-22.2,3.6
			c-5.6-5.1-7.6-12.7-10.8-19.3c-3-6.1-7.2-11.1-13.6-13.7c-13.6-5.6-33.3-5.1-46.8,0.7c-14.7,6.3-12.5,25.5-13.2,38.6
			c-1.1,19.2-2.1,38.5-3.2,57.7c-0.5,9.6-1.1,19.2-1.6,28.9C61.7,262.7,66.7,262.6,66.9,259.4L66.9,259.4z"/>
	</g>
</g>
<g>
	<path class="st1" d="M84.9,138.4c-5.1-2-8.9-7-9.6-12.4c-2.5,0-5-0.1-7.5-0.1c-0.8,0-1.6,0-2.2-0.5c-1.1-0.7-1.3-2.2-1.1-3.4
		c0.5-5.5,4.8-10.3,10-11.9s11.2,0,15.4,3.5c1.9,1.6,3.6,3.8,3.9,6.3c0.3,2.5-1.1,5.3-3.6,6c-2,0.5-4.9,0.1-5.3,2.1
		c-0.3,1.5,1.3,2.5,2.4,3.5c1.4,1.2,2.4,3,2.4,4.8c0,1.8-1.3,3.7-3.2,4s-3.8-1.2-3.7-3"/>
	<g>
		<path class="st1" d="M86.1,136.2c-4.7-2.1-7.6-5.9-8.5-11c-0.2-1.1-1.4-1.8-2.4-1.8c-2.4,0-8.1,1.1-8.2-2.2
			c-0.1-2.7,2.8-5.9,5-7.3c5.1-3.4,14.7-2.4,18,3.4c4.2,7.5-4.7,4.7-7,9c-0.6,1.1-0.7,2.4-0.2,3.7c0.2,0.6,0.7,1.2,1.1,1.7
			c0.3,0.3,0.6,0.5,0.8,0.8c1.5,0.8,1.7,2.2,0.6,4.1c-0.5-3.2-5.3-1.8-4.8,1.3c1.5,9.5,16.1,2.9,10.4-6.2c-0.6-0.9-1.8-1.6-2.2-2.5
			c-0.3-0.3-0.6-0.5-1-0.6c0.7-0.1,1.4-0.2,2.2-0.3c1.9-0.4,3.4-1.1,4.6-2.6c2.9-3.6,2-8.4-0.7-11.9c-6.4-8.1-19.4-9.6-27-2.3
			c-3,2.9-5.7,7.8-4.8,12.1c1.2,6,8.7,4.5,13.2,4.5c-0.8-0.6-1.6-1.2-2.4-1.8c1.1,6.3,5,11.3,10.8,13.9
			C86.5,141.8,89.1,137.5,86.1,136.2L86.1,136.2z"/>
	</g>
</g>
<g>
	<path class="st1" d="M118.6,153.9c-5.1-2-8.9-7-9.6-12.4c-2.5,0-5-0.1-7.5-0.1c-0.8,0-1.6,0-2.2-0.5c-1.1-0.7-1.3-2.2-1.1-3.4
		c0.5-5.5,4.8-10.3,10-11.9s11.2,0,15.4,3.5c1.9,1.6,3.6,3.8,3.9,6.3c0.3,2.5-1.1,5.3-3.6,6c-2,0.5-4.9,0.1-5.3,2.1
		c-0.3,1.5,1.3,2.5,2.4,3.5c1.4,1.2,2.4,3,2.4,4.8c0,1.8-1.3,3.7-3.2,4c-1.8,0.3-3.8-1.2-3.7-3"/>
	<g>
		<path class="st1" d="M119.9,151.7c-4.7-2.1-7.6-5.9-8.5-11c-0.2-1.1-1.4-1.8-2.4-1.8c-2.4,0-8.1,1.1-8.2-2.2
			c-0.1-2.7,2.8-5.9,5-7.3c5.1-3.4,14.7-2.4,18,3.4c4.2,7.5-4.7,4.7-7,9c-0.6,1.1-0.7,2.4-0.2,3.7c0.2,0.6,0.7,1.2,1.1,1.7
			c0.3,0.3,0.6,0.5,0.8,0.8c1.5,0.8,1.7,2.2,0.6,4.1c-0.5-3.2-5.3-1.8-4.8,1.3c1.5,9.5,16.1,2.9,10.4-6.2c-0.6-0.9-1.8-1.6-2.2-2.5
			c-0.3-0.3-0.6-0.5-1-0.6c0.7-0.1,1.4-0.2,2.2-0.3c1.9-0.4,3.4-1.1,4.6-2.6c2.9-3.6,2-8.4-0.7-11.9c-6.4-8.1-19.4-9.6-27-2.3
			c-3,2.9-5.7,7.8-4.8,12.1c1.2,6,8.7,4.5,13.2,4.5c-0.8-0.6-1.6-1.2-2.4-1.8c1.1,6.3,5,11.3,10.8,13.9
			C120.3,157.3,122.8,153,119.9,151.7L119.9,151.7z"/>
	</g>
</g>
<g>
	<path class="st1" d="M208.4,145.9c5.1-2,8.9-7,9.6-12.4c2.5,0,5-0.1,7.5-0.1c0.8,0,1.6,0,2.2-0.5c1.1-0.7,1.3-2.2,1.1-3.4
		c-0.5-5.5-4.8-10.3-10-11.9s-11.2,0-15.4,3.5c-1.9,1.6-3.6,3.8-3.9,6.3c-0.3,2.5,1.1,5.3,3.6,6c2,0.5,4.9,0.1,5.3,2.1
		c0.3,1.5-1.3,2.5-2.4,3.5c-1.4,1.2-2.4,3-2.4,4.8c0,1.8,1.3,3.7,3.2,4c1.8,0.3,3.8-1.2,3.7-3"/>
	<g>
		<path class="st1" d="M209.7,148c5.8-2.6,9.7-7.7,10.8-13.9c-0.8,0.6-1.6,1.2-2.4,1.8c4.3-0.1,11.4,1.4,13-3.9
			c1.3-4.2-1.3-9.3-4.1-12.2c-7.4-7.8-20.9-6.5-27.4,1.8c-2.7,3.4-3.6,8.2-0.7,11.9c1.2,1.5,2.8,2.2,4.6,2.6
			c3.4,0.8,1.2,0.3-0.6,2.8c-2.4,3.3-2.4,8.4,1.4,10.7c3.5,2.2,8,0,8.6-4c0.5-3.1-4.3-4.5-4.8-1.3c-1.1-1.7-1.1-3,0.1-3.8
			c0.3-0.2,0.6-0.5,0.9-0.8c0.4-0.6,1.1-1.1,1.4-1.8c0.5-1.1,0.6-2.4,0.1-3.6c-1.9-4.6-12.3-1.9-7.2-9.4c3.6-5.3,12-6.9,17.4-3.7
			c2.3,1.4,5.1,4.2,5.4,7c0.4,4.1-5.1,2.8-8,2.8c-1,0-2.2,0.8-2.4,1.8c-0.9,5.1-3.8,8.8-8.5,11C204.2,145,206.8,149.4,209.7,148
			L209.7,148z"/>
	</g>
</g>
<g>
	<path class="st1" d="M232.4,169.3c5.1-2,8.9-7,9.6-12.4c2.5,0,5-0.1,7.5-0.1c0.8,0,1.6,0,2.2-0.5c1.1-0.7,1.3-2.2,1.1-3.4
		c-0.5-5.5-4.8-10.3-10-11.9c-5.3-1.6-11.2,0-15.4,3.5c-1.9,1.6-3.6,3.8-3.9,6.3c-0.3,2.5,1.1,5.3,3.6,6c2,0.5,4.9,0.1,5.3,2.1
		c0.3,1.5-1.3,2.5-2.4,3.5c-1.4,1.2-2.4,3-2.4,4.8c0,1.8,1.3,3.7,3.2,4c1.8,0.3,3.8-1.2,3.7-3"/>
	<g>
		<path class="st1" d="M233.7,171.5c5.8-2.6,9.7-7.7,10.8-13.9c-0.8,0.6-1.6,1.2-2.4,1.8c4.3-0.1,11.4,1.4,13-3.9
			c1.3-4.2-1.3-9.3-4.1-12.2c-7.4-7.8-20.9-6.5-27.4,1.8c-2.7,3.4-3.6,8.2-0.7,11.9c1.2,1.5,2.8,2.2,4.6,2.6
			c3.4,0.8,1.2,0.3-0.6,2.8c-2.4,3.3-2.4,8.4,1.4,10.7c3.5,2.2,8,0,8.6-4c0.5-3.1-4.3-4.5-4.8-1.3c-1.1-1.7-1.1-3,0.1-3.8
			c0.3-0.2,0.6-0.5,0.9-0.8c0.4-0.6,1.1-1.1,1.4-1.8c0.5-1.1,0.6-2.4,0.1-3.6c-1.9-4.6-12.3-1.9-7.2-9.4c3.6-5.3,12-6.9,17.4-3.7
			c2.3,1.4,5.1,4.2,5.4,7c0.4,4.1-5.1,2.8-8,2.8c-1,0-2.2,0.8-2.4,1.8c-0.9,5.1-3.8,8.8-8.5,11C228.2,168.5,230.8,172.8,233.7,171.5
			L233.7,171.5z"/>
	</g>
</g>
<g>
	<path class="st1" d="M188.3,173.2c5.1-2,8.9-7,9.6-12.4c2.5,0,5-0.1,7.5-0.1c0.8,0,1.6,0,2.2-0.5c1.1-0.7,1.3-2.2,1.1-3.4
		c-0.5-5.5-4.8-10.3-10-11.9s-11.2,0-15.4,3.5c-1.9,1.6-3.6,3.8-3.9,6.3c-0.3,2.5,1.1,5.3,3.6,6c2,0.5,4.9,0.1,5.3,2.1
		c0.3,1.5-1.3,2.5-2.4,3.5c-1.4,1.2-2.4,3-2.4,4.8c0,1.8,1.3,3.7,3.2,4c1.8,0.3,3.8-1.2,3.7-3"/>
	<g>
		<path class="st1" d="M189.5,175.3c5.8-2.6,9.7-7.7,10.8-13.9c-0.8,0.6-1.6,1.2-2.4,1.8c4.3-0.1,11.4,1.4,13-3.9
			c1.3-4.2-1.3-9.3-4.1-12.2c-7.4-7.8-20.9-6.5-27.4,1.8c-2.7,3.4-3.6,8.2-0.7,11.9c1.2,1.5,2.8,2.2,4.6,2.6
			c3.4,0.8,1.2,0.3-0.6,2.8c-2.4,3.3-2.4,8.4,1.4,10.7c3.5,2.2,8,0,8.6-4c0.5-3.1-4.3-4.5-4.8-1.3c-1.1-1.7-1.1-3,0.1-3.8
			c0.3-0.2,0.6-0.5,0.9-0.8c0.4-0.6,1.1-1.1,1.4-1.8c0.5-1.1,0.6-2.4,0.1-3.6c-1.9-4.6-12.3-1.9-7.2-9.4c3.6-5.3,12-6.9,17.4-3.7
			c2.3,1.4,5.1,4.2,5.4,7c0.4,4.1-5.1,2.8-8,2.8c-1,0-2.2,0.8-2.4,1.8c-0.9,5.1-3.8,8.8-8.5,11C184.1,172.3,186.6,176.6,189.5,175.3
			L189.5,175.3z"/>
	</g>
</g>
<g>
	<path class="st1" d="M311.9,188.7c5.1-2,8.9-7,9.6-12.4c2.5,0,5-0.1,7.5-0.1c0.8,0,1.6,0,2.2-0.5c1.1-0.7,1.3-2.2,1.1-3.4
		c-0.5-5.5-4.8-10.3-10-11.9c-5.3-1.6-11.2,0-15.4,3.5c-1.9,1.6-3.6,3.8-3.9,6.3c-0.3,2.5,1.1,5.3,3.6,6c2,0.5,4.9,0.1,5.3,2.1
		c0.3,1.5-1.3,2.5-2.4,3.5c-1.4,1.2-2.4,3-2.4,4.8s1.3,3.7,3.2,4s3.8-1.2,3.7-3"/>
	<g>
		<path class="st1" d="M313.2,190.8c5.8-2.6,9.7-7.7,10.8-13.9c-0.8,0.6-1.6,1.2-2.4,1.8c4.3-0.1,11.4,1.4,13-3.9
			c1.3-4.2-1.3-9.3-4.1-12.2c-7.4-7.8-20.9-6.5-27.4,1.8c-2.7,3.4-3.6,8.2-0.7,11.9c1.2,1.5,2.8,2.2,4.6,2.6
			c3.4,0.8,1.2,0.3-0.6,2.8c-2.4,3.3-2.4,8.4,1.4,10.7c3.5,2.2,8,0,8.6-4c0.5-3.1-4.3-4.5-4.8-1.3c-1.1-1.7-1.1-3,0.1-3.8
			c0.3-0.2,0.6-0.5,0.9-0.8c0.4-0.6,1.1-1.1,1.4-1.8c0.5-1.1,0.6-2.4,0.1-3.6c-1.9-4.6-12.3-1.9-7.2-9.4c3.6-5.3,12-6.9,17.4-3.7
			c2.3,1.4,5.1,4.2,5.4,7c0.4,4.1-5.1,2.8-8,2.8c-1,0-2.2,0.8-2.4,1.8c-0.9,5.1-3.8,8.8-8.5,11C307.8,187.8,310.3,192.1,313.2,190.8
			L313.2,190.8z"/>
	</g>
</g>
<ellipse transform="matrix(0.9999 -1.020248e-02 1.020248e-02 0.9999 -1.3352 3.1825)" class="st2" cx="311.3" cy="132.5" rx="8.3" ry="8.3"/>
<ellipse transform="matrix(0.9999 -1.020248e-02 1.020248e-02 0.9999 -0.8424 2.3686)" class="st2" cx="231.7" cy="83.8" rx="8.3" ry="8.3"/>
<ellipse transform="matrix(0.9999 -1.020248e-02 1.020248e-02 0.9999 -1.1841 1.8084)" class="st2" cx="176.7" cy="117" rx="8.3" ry="8.3"/>
</svg>
