<?xml version="1.0" encoding="utf-8"?>
<!-- Generator: Adobe Illustrator 22.1.0, SVG Export Plug-In . SVG Version: 6.00 Build 0)  -->
<svg version="1.1" id="Слой_1" xmlns="http://www.w3.org/2000/svg" xmlns:xlink="http://www.w3.org/1999/xlink" x="0px" y="0px"
	 viewBox="0 0 486.1 192.4" style="enable-background:new 0 0 486.1 192.4;" xml:space="preserve">
<style type="text/css">
	.st0{fill:#FF73ED;}
	.st1{fill:#61FF5C;}
	.st2{fill:#FFFFFF;}
	.st3{fill:none;stroke:#FFFFFF;stroke-miterlimit:10;}
	.st4{fill:none;stroke:#000000;stroke-miterlimit:10;}
</style>
<g>
	<path class="st0" d="M75.5,190.6c-1.7-10.8-12.4-17.5-22.5-21.8c-10.1-4.2-21.3-8-27.4-17c-3.7-5.5-4.9-12.1-5.7-18.7
		c-1.3-11.2-0.9-24.2,8-31.2c10.1-8,24.9-3.4,36.2,2.6c7.9,4.2,15.5,9.1,22.8,14.4c7.5,5.6,15.8,12.1,25.1,10.8
		c9.8-1.4,16.4-11.5,17.8-21.3c1.4-9.8-0.9-19.8-1.7-29.7c-0.8-9.9,0.3-20.8,7.1-28c6.2-6.5,15.7-8.6,24.6-9.1
		c22.8-1.3,46,5.8,64.1,19.6c5.8,4.4,11.2,9.6,14.3,16.1c4.2,8.7,4,18.8,5,28.4c1.1,10.4,3.7,20.7,7.6,30.4c2,4.9,4.5,9.8,8.9,12.7
		c8.4,5.5,20.5,0.8,26.4-7.3s7.2-18.7,8.4-28.7c1.5-12.7,2.9-25.5,4.4-38.2c0.5-4.2,1.1-8.6,3.8-11.8c4-4.8,11.1-5.1,17.4-5.1
		c19.1,0.1,38.9,0.4,56.5,7.8c17.7,7.4,33,23.6,33.4,42.8c0.3,14.2-7.5,28.2-4.6,42.1c2.6,12.5,14.7,22.4,27.5,22.5
		c10.1,0,37.6-11.1,43,3.2c1.6,4.3-0.5,9.7-4.7,11.6c-2.5,1.2-5.3,1.2-8,1.3c-76.2,0.6-152.5,1.3-228.7,1.9
		c-11.1,0.1-22.2,0.2-33.2,0.3c-39.7,0.3-79.3,0.7-119,1c-2,0-4.2,0-5.9-1.1c-4.1-2.6-0.6-4.8,0.8-7.1"/>
	<g>
		<path class="st0" d="M77.9,189.9c-3.8-18.9-25.2-22.4-39.5-30.4c-10.5-5.8-14.6-14.9-16-26.5c-1-8.8-1.4-19.5,4.5-26.8
			c14.4-17.5,44.3,4.4,57.2,13.7c7,5.1,14.3,11.3,23.3,12.3c8,0.8,15.1-3.4,19.6-9.9c12.1-17.7,0.1-38.8,4.1-58
			c4.9-23.5,34.4-22.3,52.9-18.5c10.7,2.2,21,6.2,30.3,11.9c8.9,5.4,18.1,12.3,22.2,22.1c4.2,10,3.3,21.5,5,32
			c1.6,10.4,4.5,21.3,9.5,30.6c3.9,7.2,10.5,12,18.9,11.2c7.9-0.7,15-5.6,19.3-12.2c4.9-7.6,6.4-16.7,7.5-25.5
			c1.5-11.9,2.7-23.8,4.1-35.7c0.6-5.3,0.3-12.9,4.7-16.8c4-3.7,10.5-3.3,15.5-3.3c11.5,0,23,0.2,34.4,2c19.5,3.1,39.4,12.3,48.5,31
			c4.9,10.2,3.9,20.5,1.5,31.3c-2.1,9.3-4.5,19.1-1.7,28.5c4.4,14.8,19.6,24.1,34.7,21.7c7.1-1.1,36.8-10.1,35.7,4.9
			c-0.6,7.5-9.3,6.7-14.7,6.8c-6.3,0.1-12.6,0.1-18.9,0.2c-12.3,0.1-24.5,0.2-36.8,0.3c-98.5,0.8-197,1.6-295.5,2.5
			c-5.6,0-11.2,0.1-16.9,0.1c-2.9,0-6.1,0.4-8.9,0.1c-0.7-0.1-4.9-0.7-4.9-1.9c0-0.1,1.8-2.3,2-2.6c1.9-2.6-2.5-5.1-4.3-2.5
			c-1.7,2.3-4.1,4.7-2.7,7.8c1.7,3.7,6.4,4.2,9.9,4.2c13.2,0.2,26.5-0.2,39.7-0.3c26.4-0.2,52.9-0.4,79.3-0.7
			c52.2-0.4,104.4-0.9,156.6-1.3c26.5-0.2,53-0.4,79.6-0.7c6.6-0.1,13.3-0.1,19.9-0.2c4.9,0,10.7,0.7,15.3-1.6
			c6.4-3.3,8.2-11.7,4.3-17.5c-7.5-11-26.2-4.9-36.5-3c-8.9,1.7-17.2,0.4-24.2-5.8c-9.2-8.2-9.7-19.6-7.4-31
			c2-10.2,5.1-20.2,3.2-30.7c-1.6-8.8-6.2-16.9-12.2-23.4c-14.4-15.7-35.6-21.1-56.1-22.6c-10.5-0.8-22.5-2.1-32.9,0
			c-9.9,2-13.1,9.5-14.2,18.7c-1.5,12.4-2.8,24.9-4.3,37.3c-1.2,10.6-2.4,23.3-10.5,31.1c-3.7,3.6-9.1,6.2-14.4,5.9
			c-6.5-0.4-10.4-5.4-13-11c-5.5-11.6-8-24.5-9-37.2c-0.9-10.5-1.8-21-8.1-29.8c-5.9-8.1-14.5-14.2-23.2-19.1
			c-18.1-10.1-40.2-15.2-60.9-12c-8.8,1.4-17.3,5-22.4,12.5c-5.2,7.6-5.8,17.5-5.1,26.4c0.9,11.7,4.6,24.3,0.1,35.6
			c-1.9,4.7-5.2,9.4-9.9,11.6c-5.7,2.7-11.8,1-17.1-2c-10-5.6-18.6-13.3-28.5-19.1c-8.4-4.8-17.6-9.4-27.5-9.8
			c-8.6-0.4-16.8,3.1-21.3,10.6c-4.7,7.6-4.9,17.4-4,26c1,9.4,2.9,18.9,9.8,25.8c6.8,6.8,16.2,9.9,24.9,13.6
			c9.2,3.9,19,9.7,21.1,20.2C73.7,194.4,78.5,193.1,77.9,189.9L77.9,189.9z"/>
	</g>
</g>
<g>
	<path class="st1" d="M107.8,73.4c-4.7,6-11.2,10.5-18.5,12.7c-4.2,1.3-8.8,1.8-12.9,0.2s-7.5-5.4-7.5-9.7c0-3.2,1.6-6.7-0.1-9.3
		c-1-1.5-3.1-2.4-3.3-4.2c-0.2-1.4,0.8-2.6,1.7-3.7c2-2.3,5.1-4.9,7.8-3.4c1.2,0.7,2,2,3.3,2.4c2.6,0.7,4.2-2.9,6.7-3.8
		c0.9-0.3,1.9-0.4,2.7-0.9c1.5-1,1.4-3.1,1.8-4.8c0.7-4,5.1-7.4,8.9-5.8c2.9,1.2,4.2,4.6,6.5,6.7c3,2.7,7.7,3.4,9.7,6.8
		c1.9,3.4,0.2,7.7-2.1,10.8c-2.3,3.1-5.4,5.9-6.4,9.6"/>
	<g>
		<path class="st1" d="M106,71.7c-4.1,5-9.1,9-15.2,11.3c-6,2.2-15.5,3.5-18.7-3.6c-1.4-3.1,0.1-6,0-9.2c-0.1-2.4-1.2-3.5-2.3-5.5
			c-0.8-1.4-1.5-2.3-0.4-4.1c1.1-1.4,2.7-2,4.8-1.9c0.3,0.3,0.7,0.6,1,0.9c1.7,0.8,2.7,1.7,4.7,1.3c1.8-0.4,2.9-1.8,4.3-2.8
			c1.9-1.4,4.4-1.6,5.9-3.5c1.4-1.7,1.1-4,1.9-5.9c2.4-5.8,6.6-2.1,9,0.9c3.2,3.9,12.4,6,11.4,11.9c-0.9,5.5-7.2,9.6-9.1,14.9
			c-1.1,3,3.7,4.3,4.8,1.3c2.2-6,8.4-9.6,9.3-16.3c0.8-5.7-3.1-8.8-7.6-11.2c-2.9-1.5-4.5-3.3-6.5-5.8c-1.6-2-3.5-3.7-6.2-4
			c-4.6-0.6-8.9,3-10.2,7.3c-0.4,1.2-0.2,2.9-1.1,3.8c-0.8,0.8-2.4,1-3.4,1.6c-0.8,0.5-1.5,1.6-2.4,2c-2,0.8-2.9-0.5-4.4-1.2
			c-4.7-2.3-10.7,2.5-12.4,6.7c-0.6,1.6-0.6,3.3,0.2,4.8c0.5,1,1.7,1.6,2.2,2.5c1.3,2.1,0.9,4.8,0.7,7.1c-0.4,5.1,2,9.6,6.3,12.3
			c12.2,7.6,29-2.6,36.8-12.1C111.6,72.7,108,69.2,106,71.7L106,71.7z"/>
	</g>
</g>
<g>
	<g>
		<path class="st1" d="M68.7,64c3.2,0,3.2-5,0-5C65.5,59,65.5,64,68.7,64L68.7,64z"/>
	</g>
</g>
<g>
	<g>
		<path class="st1" d="M68.2,63.4c3.2,0,3.2-5,0-5C65,58.4,65,63.4,68.2,63.4L68.2,63.4z"/>
	</g>
</g>
<g>
	<g>
		<path class="st2" d="M69.9,62.9c3.2,0,3.2-5,0-5C66.7,57.9,66.7,62.9,69.9,62.9L69.9,62.9z"/>
	</g>
</g>
<g>
	<g>
		<path class="st2" d="M95.2,48.8c3.2,0,3.2-5,0-5C92,43.8,92,48.8,95.2,48.8L95.2,48.8z"/>
	</g>
</g>
<path class="st3" d="M76,75.6c0.8,1.8,3.4,1.6,5.3,1c9.5-2.8,20.2-6.7,23.9-15.9"/>
<circle class="st4" cx="284.8" cy="19" r="9.1"/>
<circle class="st4" cx="11.1" cy="171.3" r="8.3"/>
<path class="st4" d="M233.1,45.6c3.1-3.6,10.2-2,11.4,2.6c0.6,2.4-0.1,4.9-0.1,7.4s1.4,5.4,3.9,5.5"/>
<path class="st4" d="M124.4,20.8c5-1.3,10-2.6,15-3.9"/>
<path class="st4" d="M133.5,26.7c-2.2-4.8-3.7-10-4.2-15.3"/>
</svg>
