<?xml version="1.0" encoding="utf-8"?>
<!-- Generator: Adobe Illustrator 22.1.0, SVG Export Plug-In . SVG Version: 6.00 Build 0)  -->
<svg version="1.1" id="Слой_1" xmlns="http://www.w3.org/2000/svg" xmlns:xlink="http://www.w3.org/1999/xlink" x="0px" y="0px"
	 viewBox="0 0 286.9 408.5" style="enable-background:new 0 0 286.9 408.5;" xml:space="preserve">
<style type="text/css">
	.st0{fill:#FF73ED;}
	.st1{fill:#61FF5C;}
	.st2{fill:#FFFFFF;}
	.st3{fill:none;stroke:#FFFFFF;stroke-miterlimit:10;}
	.st4{fill:none;stroke:#000000;stroke-miterlimit:10;}
</style>
<g>
	<path class="st0" d="M25.7,341.2c-10.1,1.1-18.8-7.3-20.6-16.7c-2.3-12-3.1-26-4.6-38.4c-1.7-13.7,1.4-27.4,2.7-41.1
		c1.3-13.5,1-27.1,0.6-40.7c-0.5-19.7-1-39.5-1.5-59.2c-0.2-8-0.4-16,1-23.8c1-5.5,2.9-10.9,4.7-16.2c2.5-7.2,5-14.5,9.2-20.9
		c8.4-12.9,24-27,36.6-35.7C69.6,37.4,88,30.2,107.1,27.8c4-0.5,8.3-0.8,12,1c4.3,2.1,6.9,6.9,7.9,11.6c3.1,14.4-5.3,28.5-12,41.7
		c-9,17.6-15.3,38.5-7.9,56.9c0.9,2.4,2.2,4.7,4.2,6.3c2.3,1.8,5.4,2.3,8.4,2.5c17.2,1.5,34.3-2.1,51.4-3.5
		c17.2-1.5,35.4-0.7,50,8.4c12.6,7.8,21,20.9,28.4,33.8c6.3,11.2,12.3,24.9,6.7,36.4c-4.7,9.8-16,14.3-26.3,18
		c-13.8,4.9-27.6,9.8-41.5,14.7c-12.9,4.6-27.1,10.2-33.2,22.5c-1.5,3-2.4,6.5-2,9.8c0.7,5.1,4.6,9.2,8.6,12.5
		c14.9,12.3,34,18.4,49.2,30.3c13.1,10.2,23,24.4,27.8,40.3c1.5,4.8,2.5,10,0.7,14.7c-2.1,5.5-7.6,9-13,11.3
		c-16.2,6.9-34.5,7.2-52,5.5c-23.2-2.2-46.4-7.6-66.7-18.9s-37.7-28.9-45.9-50.7c-2.1-5.7-6.4-13-12-10.8c-1.7,0.6-2.9,2.1-4,3.4
		C40.4,332.2,34.5,340.2,25.7,341.2z"/>
	<g>
		<path class="st0" d="M25.7,338.7c-11.1,0.8-17.1-8.4-18.7-18.2c-1.7-10.3-2.4-20.7-3.6-31c-2.4-22,3.2-43.8,3.3-65.8
			c0.1-23.2-1-46.5-1.6-69.8C4.8,142.6,3.8,131,6.1,120c2.2-10.4,6-21.6,11-30.9c8.9-16.7,25.7-30.9,41.4-40.9
			c8.6-5.5,18-10,27.7-13.1c4.6-1.5,9.2-2.7,14-3.6c5.4-1.1,12.5-2.9,17.7-0.3c10.4,5.3,7.5,21.2,4.3,29.9
			c-3.7,10.1-9.6,19.2-13.7,29.1c-6.6,15.8-11.5,37-2.3,52.9c4.3,7.6,13.3,7.5,21.1,7.6c11.5,0.1,22.9-1.6,34.3-2.9
			c19.9-2.3,42.1-3.7,59.7,7.9c8.3,5.5,14.6,13.5,19.9,21.7c5.4,8.3,10.9,17.3,13.5,27c2.9,10.8-0.1,20.7-9.6,26.9
			c-8.2,5.3-18,7.9-27.1,11.2c-10.7,3.8-21.5,7.5-32.2,11.4c-7.6,2.7-15.3,5.8-21.9,10.6c-6.3,4.6-12,11.4-13.1,19.4
			c-1.1,8.3,4.5,14.5,10.5,19.3c15.1,12.1,34.1,18.1,49.2,30.2c7.8,6.2,14.3,14,19.2,22.6c4.4,7.7,11.7,21.5,6.7,30.3
			c-4.8,8.6-18.4,11.5-27.4,13.1c-10.5,1.8-21.3,1.6-31.9,0.8c-21.5-1.8-43.1-6.3-62.5-15.9c-17-8.4-32.3-20.8-42.6-36.9
			c-2.4-3.7-4.4-7.5-6.2-11.6c-1.7-4-3-8.1-5.6-11.6c-4.1-5.5-10.2-6.8-15.2-1.6c-6.1,6.4-10.4,14.7-20,16.3
			c-3.2,0.5-1.8,5.3,1.3,4.8c9.1-1.5,15-8.6,20.5-15.4c1.7-2.2,3.7-5.1,6.9-3.6c2.1,1,3.5,3.6,4.5,5.6c2.1,4.2,3.6,8.7,5.7,12.9
			c8.7,16.7,22.7,30.4,38.7,40.1c18.4,11.2,39.5,17.3,60.6,20.3c20.8,2.9,43.4,4.2,63.2-3.9c7.5-3.1,15-8,16.4-16.6
			c1.4-8.9-3.2-19-7.2-26.7c-9.2-17.8-24.1-29.8-41.4-39.3c-9.2-5-18.7-9.6-27.1-15.8c-4.3-3.1-9.6-7.1-11-12.6
			c-1.5-5.9,2.3-12.1,6.2-16.2c6.5-6.7,15.6-10.4,24.2-13.6c11.5-4.2,23.2-8.2,34.7-12.3c15.3-5.4,36.8-10.9,39.5-29.9
			c1.4-10-2.7-19.9-7.3-28.5c-4.5-8.5-9.6-16.8-15.7-24.1c-13.1-15.8-31.2-22.4-51.4-22.8c-11.1-0.2-22.2,1.3-33.2,2.6
			c-11.4,1.4-24.2,3.4-35.6,1.3c-11.7-2.2-11.7-21.3-10.5-30.6c1.3-10.9,5.5-21.3,10.4-31.1c4.7-9.3,10.3-18.7,12.2-29.1
			c1.6-8.2,1-18.3-5.1-24.7c-6.4-6.7-16.4-4.7-24.5-3.2c-10.2,1.9-20.2,5.2-29.6,9.6c-18,8.4-34.3,21.5-47.3,36.4
			C16.3,80.1,11.5,88.2,8,97.7c-3.9,10.6-7.5,21.3-8.1,32.6c-0.6,11.4,0.2,23,0.5,34.4c0.3,12.5,0.6,25,1,37.5c0.3,12,0.7,24,0,35.9
			c-0.7,11.7-3,23.2-3.6,34.8c-0.6,11.4,1.3,22.9,2.6,34.2c0.9,8.8,1.1,19.2,6.3,26.7c4.4,6.4,11.4,10.3,19.2,9.8
			C28.9,343.5,28.9,338.5,25.7,338.7z"/>
	</g>
</g>
<g>
	<path class="st1" d="M208,98.6c-7.5,1.3-15.3,0.3-22.2-3c-4-1.9-7.7-4.6-9.7-8.5c-2-3.9-2-9,0.9-12.3c2.1-2.3,5.7-3.8,6.1-7
		c0.2-1.8-0.7-3.8,0.4-5.4c0.8-1.2,2.3-1.4,3.7-1.6c3-0.4,7-0.2,8,2.7c0.4,1.3,0.1,2.8,0.8,4c1.5,2.3,5.1,0.7,7.6,1.7
		c0.9,0.3,1.6,1,2.6,1.1c1.7,0.3,3.1-1.3,4.5-2.4c3.2-2.5,8.8-2.1,10.5,1.6c1.3,2.8,0,6.2,0.3,9.3c0.4,4,3.5,7.6,2.6,11.5
		c-0.8,3.8-5,5.8-8.8,6.6s-7.9,0.8-11.2,2.8"/>
	<g>
		<path class="st1" d="M207.4,96.2c-7.3,1.1-15,0.1-21.6-3.4c-6-3.2-12.2-10.8-6.1-17c3.3-3.4,5.4-4.4,6-9.3
			c0.3-2.3,0.3-2.9,2.8-3.2c2.7-0.4,3.5,0.2,4.7,3c0.7,1.6,0.6,2.8,2.2,4c1.5,1,3.1,0.9,4.8,1.1c2.2,0.3,4.6,1.5,6.8,1.4
			c1.9-0.1,3.1-1.2,4.6-2.2c4.3-2.9,8.1-1,7.8,4.3c-0.2,2.7-0.2,4.9,0.6,7.6c1.1,3.6,3.5,6.9,0,10c-4.3,3.8-11.8,2.5-16.9,5.2
			c-2.9,1.5-0.3,5.8,2.5,4.3c5.6-2.9,12.6-1.5,17.7-5.7c4.9-4,3.6-9.1,1.7-14.4c-1.8-5.2,1.4-12.1-3.6-16.1
			c-3.7-2.9-8.7-2.2-12.3,0.4c-2,1.4-2.4,1-4.7,0.6c-1.2-0.2-2.3-0.4-3.6-0.4c-2.1-0.1-2,0.1-2.7-1.8c-0.4-1.1-0.3-2.2-1-3.2
			c-2.4-3.7-8.7-3.8-12.4-2.4c-1.9,0.7-3.4,2-3.9,4.1c-0.3,1.1,0.1,2.3,0,3.4c-0.3,2.3-1.6,3.2-3.1,4.6c-4.2,3.7-6.4,8.3-4.9,14
			c3.7,14.5,23.7,17.8,36,15.9C211.9,100.5,210.5,95.7,207.4,96.2L207.4,96.2z"/>
	</g>
</g>
<g>
	<g>
		<path class="st1" d="M187.1,66.1c3.2,0,3.2-5,0-5C183.9,61.1,183.8,66.1,187.1,66.1L187.1,66.1z"/>
	</g>
</g>
<g>
	<g>
		<path class="st1" d="M187.1,65.2c3.2,0,3.2-5,0-5C183.9,60.2,183.8,65.2,187.1,65.2L187.1,65.2z"/>
	</g>
</g>
<g>
	<g>
		<path class="st2" d="M188.7,66.1c3.2,0,3.2-5,0-5C185.5,61.1,185.5,66.1,188.7,66.1L188.7,66.1z"/>
	</g>
</g>
<g>
	<g>
		<path class="st2" d="M216.9,72.5c3.2,0,3.2-5,0-5C213.7,67.5,213.7,72.5,216.9,72.5L216.9,72.5z"/>
	</g>
</g>
<path class="st3" d="M183,78.9c-0.6,1.9,1.5,3.5,3.3,4.3c9,4.3,19.5,8.6,28.4,4.2"/>
<circle class="st4" cx="165.6" cy="25.9" r="9.1"/>
<circle class="st4" cx="255.8" cy="135.5" r="8.3"/>
<path class="st4" d="M141.3,109.2c1.7-4.5,8.9-5.3,11.6-1.3c1.4,2.1,1.5,4.7,2.4,7c0.9,2.3,3.1,4.6,5.5,3.9"/>
<path class="st4" d="M255.7,70.7c4.6,2.4,9.2,4.8,13.7,7.2"/>
<path class="st4" d="M258.4,81.2c1.6-5.1,4-9.9,7.1-14.2"/>
<path class="st4" d="M225,289.3c2.8-0.3,5.5-0.6,8.3-0.9c1.1-0.1,2.2-0.2,3.1,0.2c3,1.2,2.6,5.4,3.3,8.6c0.8,3.5,3.9,6.3,7.4,6.8
	c3.5,0.5,7.3-1.2,9.1-4.3"/>
</svg>
