<?xml version="1.0" encoding="utf-8"?>
<!-- Generator: Adobe Illustrator 22.1.0, SVG Export Plug-In . SVG Version: 6.00 Build 0)  -->
<svg version="1.1" id="Layer_1" xmlns="http://www.w3.org/2000/svg" xmlns:xlink="http://www.w3.org/1999/xlink" x="0px" y="0px"
	 viewBox="0 0 494 438.7" style="enable-background:new 0 0 494 438.7;" xml:space="preserve">
<style type="text/css">
	.st0{fill:#FFFFFF;}
	.st1{fill:#010202;stroke:#010202;stroke-width:1.0161;stroke-miterlimit:10;}
	.st2{fill:#010202;stroke:#010202;stroke-miterlimit:10;}
	.st3{fill:none;stroke:#FFFFFF;stroke-miterlimit:10;}
	.st4{fill:none;stroke:#FFFFFF;stroke-width:1.2175;stroke-miterlimit:10;}
	.st5{fill:#FFFFFF;stroke:#000000;stroke-width:0.3617;stroke-miterlimit:10;}
	.st6{stroke:#000000;stroke-width:0.4485;stroke-miterlimit:10;}
</style>
<rect x="176.7" y="70.2" class="st0" width="277" height="66"/>
<rect x="373.7" y="23.2" class="st0" width="80" height="59"/>
<rect x="367.7" y="130.2" class="st0" width="40" height="75"/>
<path class="st1" d="M374.1,104.7c-3-7-2.1-16.5,4.1-20.7c6.2-4.1,16.7,2.1,14.4,9.4c9-1.2,18.1-1.4,27.1-0.5
	c1.3-5,3.4-10.8,8.2-11.8c7.5-1.6,11.2,9,11.7,16.8c1,14.5,1.7,29.9-5.6,42.3c-2.2,3.7-5.1,7.1-6,11.4c-2.8,13.3,14.1,21.5,19.3,34
	c4.1,9.8,0.2,21.6-6.8,29.5s-16.6,12.6-25.9,17.2c11.4,5.3,21.9,12.4,31.2,21.1c5.4,5,10.4,10.8,12.9,17.8c2.9,8.3,2,17.5-0.4,26
	c-4.9,17.2-15.8,32.6-30.4,42.4c-3.8,2.6-7.9,4.8-11.1,8.2c-3.7,3.8-6,8.7-8.8,13.1c-6.4,9.9-15.5,17.4-24.5,24.8
	c0.8-13.5,3.5-26.9,7.9-39.7c-7.6,11.2-18.7,19.8-31.2,24.3c-2.6-9.7-1.9-20.4,2.1-29.6c-8.6,4.1-18.1,6.3-27.5,6.4
	c0.8-12.6,10-23.2,20.7-29.3c10.7-6.1,22.9-8.6,34.7-12c3.7-1.1,7.5-2.3,10.4-4.9c2.5-2.2,4.1-5.3,5.7-8.3
	c3.9-7.4,7.8-14.8,11.6-22.2c0.8-1.6,1.7-3.4,1-5.1c-0.5-1.2-1.8-2-2.9-2.6c-8.6-4.7-17.2-9.4-25.8-14.2c-2.9-1.6-6-3.3-9.4-3.5
	c-9.4-0.5-15.6,10.1-24.5,13.3c-11.8,4.3-23.5-5.3-34.6-11.3c-8.4-4.5-17.6-7.2-26.8-9.8c-14.1-4-28.2-8-42.2-12
	c-4.7-1.3-9.5-2.7-13.2-6c-5.8-5.1-7.4-13.5-8.9-21.2c-2.9-14.2-7.6-29.1-18.8-37.9c-10.3-8.1-24-9.4-36.8-11.4
	c-13.8-2.1-27.5-5.4-40.9-9.8c-3.4-1.1-7.1-2.5-9.2-5.6c-1.4-2.1-1.8-4.7-2.2-7.2c-1.3-8.6-2.6-17.1-3.9-25.7
	c6.5,4.6,12,10.6,16.1,17.5c-0.2-8.1,0.8-16.3,2.9-24.1c7.4,6.7,13.1,15.3,16.5,24.8c-1.1-8.5,1.5-17.5,7.1-23.9
	c9.3,4.2,8.8,18.5,15.8,26.1c2.8,3,6.6,4.7,10.4,6.1c13.1,4.6,27.1,5.7,40.6,8.7c3.6,0.8,7.2,1.8,10.1,4c9.5,7.1,7.9,23.1,16.1,31.8
	c5.5-7.8,14.8-11.9,24-13c9.2-1.1,18.6,0.3,27.8,1.8c1.6-8.6-0.4-17.9-5.4-25.1c-2.6-3.6-6-6.9-6.9-11.3c-0.7-3.3,0-6.7,1-9.9
	c5.1-16.5,17.3-30.6,32.6-37.7c-0.4,5.7-2.1,11.3-5.1,16.2c3.3-1.8,6.7-3.6,10-5.4c-6,15.2-3.9,33.6,5.4,47
	c11.8-6.4,23.6-12.7,35.4-19.1c-2.1-4.4-2-10,0.5-14.2"/>
<path class="st2" d="M449.5,200.3c5-16.2,28.3-21.6,32.4-38.1c-3.9,1.3-7.7,2.7-11.6,4c-0.5-2.9-0.5-5.8-0.2-8.7
	c-1.5,4.7-4,9-7.3,12.6c-0.4,0.5-0.9,1-1.5,1.2c-0.9,0.3-1.8,0.1-2.7-0.1c-6.9-1.3-13.5,3-19.2,7.1"/>
<path class="st2" d="M129.4,221.6c-4.4-23.8-15-46.5-30.5-65.2c-5,13-15.7,22.7-24.8,33.2c-9.4,10.9-17.2,23.1-23.2,36.1
	C39.4,204.8,34.1,181.2,29,158c-3.1-14.2-6.3-28.4-9.4-42.6c7-0.5,12,6.3,15.6,12.2c6.3,10.4,12.5,20.8,18.8,31.2
	c10.4-11.8,21.9-22.6,34.4-32.3c0.6-0.4,1.3-0.9,2-0.7c0.5,0.2,0.8,0.6,1.1,1.1c18.6,30.2,32.9,62.9,42.5,97
	c-14.5-16.7-29-33.5-43.6-50.2"/>
<path class="st2" d="M243.2,269.9c-7.8,21.8-11.1,45.2-9.6,68.4c1.7,26.9,9.7,54.7,0.6,80.1c-36.1-32.7-80.2-57.2-110.3-95.6
	c-9.4,25.5-28.2,47.3-51.9,60.5c-12-25.6-28.1-49.2-47.5-69.7c18.3-1,33.9,11.8,49,22.2c2.4,1.7,5.1,3.4,8.1,3.2
	c2.6-0.2,4.8-1.8,6.9-3.3c19-13.8,39.2-26.1,60.3-36.5c1.9-1,4-1.9,6.2-1.7c2.3,0.3,4.2,2,6,3.6c16.3,15.1,31.6,31.3,45.7,48.4
	c9.9-22.7,18.7-45.8,26.4-69.3"/>
<circle class="st3" cx="166.7" cy="367.5" r="23.4"/>
<circle class="st4" cx="234" cy="385.7" r="26.7"/>
<circle class="st4" cx="157.3" cy="306.8" r="23.5"/>
<circle class="st4" cx="101.8" cy="342.4" r="25.1"/>
<circle class="st4" cx="43.1" cy="325.9" r="23.5"/>
<circle class="st4" cx="231.1" cy="302.1" r="23.8"/>
<ellipse class="st5" cx="381.1" cy="94.5" rx="9.4" ry="3.4"/>
<ellipse class="st6" cx="381.4" cy="94.5" rx="4.4" ry="3.4"/>
<ellipse class="st5" cx="430" cy="94.5" rx="9.4" ry="3.4"/>
<ellipse class="st6" cx="430" cy="94.5" rx="4.4" ry="3.4"/>
</svg>
