<?xml version="1.0" encoding="utf-8"?>
<!-- Generator: Adobe Illustrator 22.1.0, SVG Export Plug-In . SVG Version: 6.00 Build 0)  -->
<svg version="1.1" id="Layer_1" xmlns="http://www.w3.org/2000/svg" xmlns:xlink="http://www.w3.org/1999/xlink" x="0px" y="0px"
	 viewBox="0 0 494 438.7" style="enable-background:new 0 0 494 438.7;" xml:space="preserve">
<style type="text/css">
	.st0{fill:#FFFFFF;}
	.st1{fill:#010202;}
</style>
<rect x="373.7" y="23.2" class="st0" width="80" height="59"/>
<g>
	<path class="st1" d="M276.7,320.3c-14.9-12.6-34.5-20.2-45.9-36.1c-8.5-11.8-11.4-26.6-15.7-40.6c-12.9-41.9-39.9-79.3-46-122.7
		c-0.3-2.3-0.5-4.9,1.1-6.6c1.2-1.3,3-1.7,4.7-2c7.5-1.4,15-2.8,22.4-4.3c1.8-0.3,3.8-0.7,5.5,0.3c1.6,0.9,2.3,2.7,3,4.4
		c8.2,21.7,16.3,43.4,24.5,65c8.2-20.6,16.4-41.3,24.6-61.9c10.7,2.3,21.4,4.7,32,7c2.1,0.5,4.4,1,6,2.5c2.1,1.9,2.8,5,3,7.8
		c1.7,18.9-6.9,37.1-15.4,54.2c-7.3,14.8-14.6,29.5-21.9,44.3c-1.2,2.5-2.5,5.1-2.7,7.9c-0.2,3.6,1.5,7,3.2,10.2
		c15.4,27.9,40.4,50.5,69.8,62.8c2.6,1.1,5.4,2.2,7.4,4.2c5.2,5.2,1.9,15.7-5.2,17.1c-19.4-5-38.8-10-58.2-14.9"/>
	<g>
		<path class="st1" d="M278.5,318.5c-14.9-12.4-34.6-20.1-46-36.3c-6.2-8.8-9.2-19.3-12.1-29.5c-3-10.4-6.3-20.6-10.4-30.6
			c-8-19.6-17.9-38.3-25.8-57.9c-4-9.9-7.6-20.1-10.1-30.5c-0.6-2.5-1.1-5-1.6-7.5c-0.4-2.2-1.6-5.8-1.1-8c0.9-3.8,6-3.7,8.8-4.3
			c3.4-0.7,6.9-1.3,10.3-2c2.7-0.5,6.8-2.1,9.6-1.7c3.5,0.6,4.3,6.1,5.3,8.8c2.4,6.5,4.9,13,7.3,19.5c5,13.3,10,26.6,15,39.9
			c0.9,2.4,3.9,2.3,4.8,0c8.2-20.6,16.4-41.3,24.6-61.9c-1,0.6-2.1,1.2-3.1,1.7c6.3,1.4,12.6,2.7,18.8,4.1c2.8,0.6,5.7,1.2,8.5,1.8
			c2.7,0.6,6.7,0.8,9.1,2.5c5,3.5,3.2,14.8,2.4,19.8c-0.9,5.8-2.5,11.6-4.6,17.1c-8.9,24.2-23.5,46-33.4,69.8
			c-3.9,9.3,1.5,17.3,6.4,25c5.3,8.3,11.4,16.2,18.3,23.3c7,7.3,14.9,13.9,23.2,19.6c8.7,5.9,17.9,10.1,27.4,14.6
			c5.1,2.4,8,7.4,4.5,12.6c-3.7,5.4-13,0.5-18.1-0.8c-14.4-3.7-28.8-7.4-43.2-11.1c-3.1-0.8-4.4,4-1.3,4.8
			c14.1,3.6,28.2,7.2,42.3,10.8c3.4,0.9,6.9,1.8,10.3,2.6c2.1,0.5,4.8,1.7,7,1.4c3.6-0.5,6.6-3.7,8.1-6.8c4.1-8.3-0.7-15.2-8.4-18.6
			c-10.5-4.7-20.6-9.9-29.9-16.7c-9.5-7-18.2-15.2-25.7-24.3c-3.5-4.3-6.8-8.7-9.8-13.4c-3.5-5.5-9.2-12.8-7.1-19.6
			c2-6.6,6.2-13,9.2-19.1c3.4-6.8,6.7-13.6,10.1-20.4c5.8-11.7,12-23.4,16.1-35.8c2.1-6.4,3.6-12.9,4-19.6
			c0.4-5.3,0.8-12.9-2.9-17.3c-3.6-4.4-10.5-4.7-15.6-5.8c-8.2-1.8-16.3-3.6-24.5-5.3c-1.4-0.3-2.6,0.4-3.1,1.7
			c-8.2,20.6-16.4,41.3-24.6,61.9c1.6,0,3.2,0,4.8,0c-5.1-13.6-10.2-27.3-15.4-40.9c-2.3-6.2-4.7-12.4-7-18.6
			c-1.5-3.9-2.6-9.8-6.8-11.7c-4.3-1.9-10,0.3-14.3,1.2c-5.7,1.1-12.9,1.3-18.1,3.7c-3.9,1.8-4.9,5.3-4.5,9.4
			c0.5,5.8,1.9,11.6,3.3,17.2c5.9,23.1,16.7,44.6,26.6,66.2c5.3,11.5,10.4,23,14.4,35c3.9,11.5,6.3,23.4,11.1,34.6
			c4.7,11.1,12.1,19.8,21.7,27c10.2,7.7,21.5,13.6,31.3,21.8C277.4,324.1,280.9,320.6,278.5,318.5L278.5,318.5z"/>
	</g>
</g>
<g>
	<g>
		<path class="st1" d="M162.1,253.1c11.9,0.8,11.6,16.1,11.5,24.8c-0.1,6-2.4,16.2,3.7,20.2c5.8,3.8,15.1-0.2,21.3-0.6
			c4.7-0.3,12.2-1.2,15.4,2.9c2.8,3.6,4,9.9,5.1,14.2c0.8,3.1,5.7,1.8,4.8-1.3c-2-7.5-4.1-18.6-13-20.3c-4.9-0.9-10.1-0.8-15-0.3
			c-4.4,0.5-10.1,2.9-14.5,1.7c-4.8-1.3-2.8-12.5-2.8-16.5c0.1-5,0.3-10.1-0.9-15.1c-1.8-7.7-7.4-14.2-15.6-14.7
			C158.8,247.9,158.9,252.9,162.1,253.1L162.1,253.1z"/>
	</g>
</g>
<g>
	<path class="st0" d="M174.5,125.6c2.9,8.2,4.2,17,6.7,25.3c2.5,8.4,6.5,16.7,13.4,22c3,2.3,6.5,4,9.1,6.6
		c7.4,7.5,6.6,20.7,14.6,27.6c-2.7-21.5-8.4-42.7-16.7-62.7c-4.2-10-9.9-20.7-20.1-24.4c-0.5-0.2-1-0.3-1.5-0.2
		c-0.6,0.2-1,0.7-1.3,1.3c-1.2,1.9-2.3,3.9-3.5,5.8"/>
	<g>
		<path class="st0" d="M172,126.3c5.4,15.9,5.9,35.7,19.6,47.5c3.2,2.8,7.3,4.5,10.3,7.6c2.8,2.9,4.2,6.6,5.5,10.4
			c2.2,6.2,4,12.6,9,17.2c1.4,1.3,4.6,0.5,4.3-1.8c-2.9-22.2-8.6-44-17.3-64.6c-3.3-7.8-7.4-15.6-14.2-20.9
			c-2.2-1.7-6.2-4.7-9.3-4.3c-3.6,0.5-5.4,5.7-7,8.3c-1.7,2.8,2.6,5.3,4.3,2.5c0.5-0.8,2.7-5.7,3.5-5.8c0.9-0.1,3.4,1.8,4.2,2.4
			c3.1,2.1,5.6,5,7.7,8.2c4.5,6.6,7.3,14.3,10.1,21.7c6.2,17,10.5,34.6,12.9,52.5c1.4-0.6,2.8-1.2,4.3-1.8c-5.3-5-6.5-12.3-9.1-18.8
			c-2.7-6.6-6.6-10.1-12.4-14c-15.8-10.9-16-31.1-21.6-47.7C175.8,121.9,171,123.2,172,126.3L172,126.3z"/>
	</g>
</g>
</svg>
