<?xml version="1.0" encoding="utf-8"?>
<!-- Generator: Adobe Illustrator 22.1.0, SVG Export Plug-In . SVG Version: 6.00 Build 0)  -->
<svg version="1.1" id="Слой_1" xmlns="http://www.w3.org/2000/svg" xmlns:xlink="http://www.w3.org/1999/xlink" x="0px" y="0px"
	 viewBox="0 0 145 95.8" style="enable-background:new 0 0 145 95.8;" xml:space="preserve">
<style type="text/css">
	.st0{fill:none;stroke:#000000;stroke-miterlimit:10;}
</style>
<path class="st0" d="M144.9,76c-21.9,5.4-45.2,5.3-67.1-0.5c-5.5-1.4-11-3.3-15.5-6.7c-4.5-3.4-7.9-8.8-7.8-14.4
	c0-1.1,0.2-2.2,1-2.9c0.9-0.7,2.1-0.6,3.2-0.3c5.3,1.1,10.2,4.1,13.7,8.2c-3.2-3.1-5.3-7.3-5.9-11.7c-0.1-0.8-0.1-1.8,0.5-2.4
	c0.6-0.6,1.6-0.6,2.5-0.5c6,0.9,10.7,5.6,14.8,10.1c-2.4-4-4.6-9.8-1-12.9c3.4-2.9,8.7-0.2,11.1,3.6c2.4,3.7,3.3,8.3,6.2,11.7
	c1.2-2.2,0.3-4.9,0.2-7.4c-0.1-2.5,2.2-5.6,4.4-4.4c0.7,0.4,1.1,1,1.5,1.7c2.2,3.6,3.9,7.4,5.2,11.5c0.3,1,0.6,2.1,1.5,2.7
	c0.8,0.6,1.9,0.6,2.9,0.6c9.1-0.2,18.2-0.3,27.3-0.5"/>
<path class="st0" d="M90.6,78.8c-7.1,1.5-14.3,1.9-21.5,2.2c-11.9,0.4-24.3,0-34.6-6c-7.9-4.6-13.8-12.4-16.2-21.2
	c-1.2-4.4-0.7-10.4,3.6-11.9c2.7-1,5.7,0.4,7.6,2.5s2.8,4.9,3.8,7.6C33,46.8,32.9,41.3,35.7,37c0.7-1,1.7-2,2.9-2
	c1.4,0,2.4,1.4,3,2.6c2,3.6,3.6,7.5,4.8,11.4c-0.8-2.3-1.6-4.6-1.5-7c0.1-2.4,1.5-4.9,3.8-5.7c2.2-0.7,4.6,0.3,6.2,2
	c1.6,1.6,2.5,3.8,3.3,5.9c1.3-2.9-1-7.4,1.7-8.9c2-1.1,4.3,1,4.9,3.1c0.6,2.1,0.3,4.5,1.3,6.5"/>
<g>
	<g>
		<path d="M56.2,22.2c0-0.1,3.1-4.2,3.4-4.9c0.7-2,0.6-3.8,0.2-5.9c-0.6,1-1.2,2.1-1.7,3.1c0.3,0,0.6-0.1,0.8-0.1
			c-0.8-0.2-1.6-0.4-2.4-0.6c0.4,0.4,0.2,3.2,1,4.2c1,1.3,2.6,2.2,4.2,2.3c4.1,0.3,6.5-3.4,6.4-7.1c-0.6,0.8-1.2,1.6-1.8,2.4
			c0.2,0,0.4-0.1,0.6-0.1c-0.8-0.2-1.6-0.4-2.4-0.6c0.2,0.2,0.5,2,0.8,2.4c0.5,0.8,1.4,1.4,2.3,1.7c2.7,1,4.3-0.5,6.6-1.6
			c5.9-2.8,3.7,2.8,5.2,6.4c1.5,3.6,4.7,3.2,7,5.8c0.6-1.4,1.2-2.8,1.8-4.3c-2.2,0.1-3.2-2.2-5.6-1.6c-2.5,0.7-3.5,3.6-4.6,5.7
			c1.4,0,2.9,0,4.3,0c-1.2-1.9,0.1-3.1-2.2-4.6c-1.7-1.1-4.6-1.1-6.5-1c-1.8,0.1-3.6,0.6-5.1,1.7c-1.6,1.3-2,4.9-3.5,5.6
			c1.3,0.7,2.5,1.4,3.8,2.2c-0.1-3.2,1-9-3.4-9.8c-4.9-0.8-4.8,4.7-8.1,6.1c0.9,1.2,1.9,2.4,2.8,3.7c0.9-2.1,3.4-5.5,2.7-8
			c-0.3-1.3-6.1-5.2-6.5-3.8c-0.5,1.9,1.2,3.5,3.1,3.1c0.8-0.1,1.6-0.3,2.4-0.7c1.1-0.3,1.7-1,1.8-2.3c1.1,0.3,2.3,0.6,3.4,0.9
			c-1.5-2.5,5-1.2,5.1-1.2c-0.6-0.6-1.2-1.2-1.7-1.7c0.5,0.2,0.9,0.4,1.4,0.6c-0.6,1-1.2,2.1-1.7,3.1c2.2-0.7,4.9-1.7,7.2-1.2
			c-0.6-0.6-1.2-1.2-1.7-1.7c0,0-9.2,1.8-10,1.8c0.4,1.6,0.8,3.1,1.3,4.7c2.4-1.3,5.4-1.3,7.7-2.9c0.6-0.4,1.2-1,1.7-1.6
			c0.4-0.5,0.6-1,0.8-1.5c0.8-1.4,0.3-2.6-1.4-3.7c1.2-0.5,2.4-1,3.7-1.5c-1.5-0.9-7.2-0.9-7.7-2c-0.5,1.2-1,2.4-1.5,3.7
			c2-0.4,3.7-0.4,5.7-0.2c3.2,0.2,3.2-4.8,0-5c-2.4-0.2-4.6,0-7,0.4c-1.7,0.3-2.1,2.3-1.5,3.7c2,4.6,6.1,1.8,9.5,3.8
			c1.4,0.8,3.3,0.1,3.7-1.5c0.8-3.2-2.2-5.8-5.2-4.2c-2.1,1.1-2.1,3.5-3.7,5c-1.8,1.8-5,2-7.3,3.2c-2.2,1.1-1.2,4.8,1.3,4.7
			c3.7-0.2,14.6-1.2,15.1-6.5c0.6-6.1-9.2-3.1-11.9-2.2c-1.3,0.4-2.1,1.7-1.7,3.1c1.7,6.6,11.7,0.1,7.6-4.3c-2-2.1-7.5-1.6-9.7-0.3
			c-2.9,1.8-3.8,5.3-2.1,8.2c0.7,1.1,2.3,1.6,3.4,0.9c2.1-1.4,2.8-3.9,1.1-6c-2.5-3-6.2-0.8-9.1-0.2c1,1,2.1,2.1,3.1,3.1
			c1.2-4.3-3.8-7.7-7.1-4.3c-1.4,1.4-1.7,3.5-0.9,5.3c1.3,3,3.9,2.3,6,3.9c-0.4-0.7-0.8-1.4-1.2-2.2c0.1,1.3-1.6,4-2.1,5.2
			c-0.8,1.7,0.6,4.6,2.8,3.7c1.5-0.6,2.4-1.2,3.5-2.4c0.4-0.4,0.9-1.9,1.4-2.1c0.2-0.9,0.3-0.8,0.2,0.4c0,1,0.1,2,0.1,3
			c0.1,1.9,2.1,3.1,3.8,2.2c2.4-1.3,1.9-2.9,3.3-4.9c0.8-1.2,3.6-2.6,5.2-1.8c1.3,0.6,1.3,2,2,3c1,1.5,3.4,1.7,4.3,0
			c0.5-1.1,1.1-2,1.9-2.9c0.4,0.3,0.8,0.5,1.2,0.7c0.9,0,1.8,0.6,2.8,0.6c2.3-0.1,3.2-2.6,1.8-4.3c-1-1.2-2.3-1.5-3.5-2.4
			c-2.3-1.7-2.7-3.9-3.2-6.5c-0.5-2.7-1.8-5.4-4.6-6.3c-1.3-0.4-2.5-0.3-3.8,0.2c-1.3,0.4-4.1,3.1-5.5,2.4c-0.2-0.1-0.8-2-1.3-2.3
			c-1-0.8-1.8-0.8-3.1-0.5c-1.1,0.2-1.8,1.4-1.8,2.4c-1.3,1-1.9,1-1.7,0c0-0.4,0-0.8-0.1-1.2c-0.4-0.5-0.5-1-1-1.5
			c-1.1-1.2-2-1.1-3.6-0.9c-1.4,0.2-2,1.9-1.7,3.1c0.9,4.8-6.6,7.2-3.1,12C53.8,27.3,58.1,24.8,56.2,22.2L56.2,22.2z"/>
	</g>
</g>
<g>
	<g>
		<path d="M74.8,20.8c1.1,1.5,1.9,3,2.4,4.8c0.8,3.1,5.7,1.8,4.8-1.3c-0.6-2.2-1.6-4.2-2.9-6c-0.8-1.1-2.2-1.6-3.4-0.9
			C74.6,18,73.9,19.7,74.8,20.8L74.8,20.8z"/>
	</g>
</g>
<g>
	<g>
		<path d="M80.8,35.1c0.3-1,0.7-2,1-3c0.4-1.2-0.5-2.8-1.7-3.1c-1.4-0.3-2.6,0.4-3.1,1.7c-0.3,1-0.7,2-1,3c-0.4,1.2,0.5,2.8,1.7,3.1
			C79.1,37.2,80.3,36.5,80.8,35.1L80.8,35.1z"/>
	</g>
</g>
<g>
	<g>
		<path d="M92.2,30.2c-0.5-0.7-1-1.3-1.5-2c-0.4-0.5-0.8-1-1.5-1.1c-0.6-0.2-1.4-0.1-1.9,0.3c-1,0.7-1.7,2.3-0.9,3.4
			c0.5,0.7,1,1.3,1.5,2c0.4,0.5,0.8,1,1.5,1.1c0.6,0.2,1.4,0.1,1.9-0.3C92.3,33,93,31.4,92.2,30.2L92.2,30.2z"/>
	</g>
</g>
<g>
	<g>
		<path d="M54,35c0.2,0,0.3,0,0.5,0c1.3,0,2.6-1.1,2.5-2.5c-0.1-1.4-1.1-2.5-2.5-2.5c-0.2,0-0.3,0-0.5,0c-1.3,0-2.6,1.1-2.5,2.5
			C51.6,33.9,52.6,35,54,35L54,35z"/>
	</g>
</g>
<g>
	<g>
		<path d="M66.5,37.2c0.2-0.5,0.3-1,0.5-1.5c0.4-1.2-0.5-2.8-1.7-3.1c-1.4-0.3-2.6,0.4-3.1,1.7c-0.2,0.5-0.3,1-0.5,1.5
			c-0.4,1.2,0.5,2.8,1.7,3.1C64.8,39.3,66.1,38.5,66.5,37.2L66.5,37.2z"/>
	</g>
</g>
<circle class="st0" cx="28" cy="20.5" r="4.5"/>
<path class="st0" d="M102.5,28.8c2.2,1.5,4.3,3.1,6.3,4.8"/>
<path class="st0" d="M102.5,34.6c2.6-2.1,5.2-4.1,7.9-6.2"/>
<path class="st0" d="M9.6,71.1c0.3-1.2,1.5-2.1,2.8-2.2c1.3-0.1,2.5,0.7,3,1.9c0.4,1.1,0.2,2.3,0.1,3.4c-0.1,1.1,0,2.4,0.8,3.2
	c0.8,0.8,2.5,0.6,2.7-0.5"/>
</svg>
