<?xml version="1.0" encoding="utf-8"?>
<!-- Generator: Adobe Illustrator 22.1.0, SVG Export Plug-In . SVG Version: 6.00 Build 0)  -->
<svg version="1.1" id="Слой_1" xmlns="http://www.w3.org/2000/svg" xmlns:xlink="http://www.w3.org/1999/xlink" x="0px" y="0px"
	 viewBox="0 0 198.6 266.7" style="enable-background:new 0 0 198.6 266.7;" xml:space="preserve">
<style type="text/css">
	.st0{fill:#FCEAF4;}
	.st1{fill:#FFFFFF;}
</style>
<g>
	<path class="st0" d="M39.6,140.8c-9.8-3.7-16.2-14.2-16.2-24.6c0-10.4,5.9-20.4,14.3-26.6c1.8-1.3,3.7-2.5,4.7-4.4
		c1.3-2.6,0.6-5.8,0.2-8.7c-0.9-6.5,0.1-13.2,2.8-19.1c0.8-1.7,1.8-3.4,2-5.3c0.2-1.9-0.3-3.7-0.9-5.5c-3-10.1-5.7-21.9,0.6-30.3
		c5.7-7.6,16.5-9.1,26-8.9c5.4,0.1,10.9,0.5,15.7,2.9c4.8,2.4,8.9,7,9,12.4c3.2-5.6,7-11.6,13.2-13.3c6.4-1.8,13.3,1.7,18.1,6.4
		c6,5.8,10.3,15.4,5.6,22.3c-1,1.5-2.5,3-2.4,4.9c0.1,2.5,2.8,3.9,4.8,5.4c4.4,3.5,5.7,9.7,4.8,15.2c-0.9,5.5-3.8,10.4-6.5,15.2
		c13.7,3.7,22.8,18.2,22.7,32.3c-0.2,14.2-8.5,27.4-19.8,35.9c3,4.1,8.8,4.4,13.8,4.9c7.5,0.8,15.2,3,20.6,8.3
		c5.4,5.3,7.7,14.2,3.8,20.6c-4.7,7.6-15.1,8.7-24.1,8.8c-4.1,0-9.3,0.8-10.6,4.7c-0.5,1.5-0.2,3,0.1,4.5c1.4,6.5,4.5,12.5,6.3,18.9
		c1.8,6.4,2,13.8-1.9,19.1c-2.9,4-7.7,6.2-12.2,8.2c-5.7,2.5-11.3,5.1-17,7.6c-5.5,2.5-12.9,4.5-16.7-0.2c-2-2.5-2-6-1.8-9.2
		c0.2-5.4,0.4-10.8,0.6-16.2c0.1-2.4,0.1-5-1.3-6.9c-2.8-3.8-9.2-2.2-12.1,1.4c-3,3.7-3.8,8.5-5.9,12.8c-4.1,8.3-12.8,13.8-22,15.2
		s-18.6-0.9-26.9-5.1c-4.9-2.5-9.8-6-11.9-11.1s-0.3-12.1,4.8-14.1c2.4-0.9,5-0.7,7.5-1.2c5.7-1.3,9.8-6.6,11.3-12.3
		c1.5-5.7,0.8-11.7,0.2-17.5c-0.1-0.5-0.1-1.1-0.4-1.6c-1.2-2.2-4.5-0.5-6.6,0.9c-5.8,4-14.4,3.3-19.6-1.4
		c-5.2-4.8-6.6-13.2-3.2-19.4c1.6-2.9,4-5.2,6.4-7.4c6.1-5.7,12.2-11.5,18.3-17.2"/>
	<g>
		<path class="st0" d="M40.3,138.4c-16.7-6.9-17.7-28.2-7.3-40.9c4-4.8,11.7-7.7,12.6-14.4c0.5-3.3-0.7-6.8-0.8-10.1
			c-0.2-5.3,1-10.2,3.1-15c1.3-2.8,2.3-5.3,1.9-8.5c-0.5-3.7-2-7.4-2.8-11.1c-1.7-8-2.3-17.5,4.6-23.2c5.8-4.9,14.2-5.5,21.5-5.4
			c8.6,0.1,21.3,2,22.3,12.8c0.2,2.4,3.3,3.5,4.7,1.3c5.2-8.9,12.2-16.4,22.9-9.9c7.2,4.3,14.6,14.4,9.7,22.8
			c-1.5,2.6-3.5,4.7-2.4,8c1,3,4.2,4.2,6.2,6.3c7.4,7.6,1.1,19.1-3.2,26.4c-0.8,1.4-0.1,3.2,1.5,3.7c12.8,3.8,21,16.8,20.8,29.9
			c-0.2,13.8-8.5,26-19.1,34.2c-1.1,0.9-0.8,2.6,0,3.5c4.6,5.4,11.6,5,18,6c7.9,1.2,16.5,4.5,20,12.3c3.9,8.4-0.5,16.1-9.1,18.6
			c-6.5,1.9-13.7,0.2-20,2.4c-5.7,2-7,6.8-5.7,12.3c2,8.4,6.9,16.2,7.2,25c0.4,10.5-7.4,14.6-15.8,18.3c-4,1.8-7.9,3.5-11.9,5.3
			c-3.7,1.6-7.6,3.7-11.8,3.8c-15.2,0.2,2.7-32.4-11.5-37c-4.8-1.5-10,1.3-12.8,5.1c-4.6,6.4-5,14.2-11.2,19.6
			c-6.9,6-16.5,7.9-25.4,6.5c-8-1.3-17.9-4.8-23-11.4c-2.4-3-3.5-6.9-1.8-10.6c2.1-4.5,6.5-3.6,10.6-4.6c5.8-1.4,10.1-6.1,12.2-11.5
			c1.5-3.8,1.9-7.9,1.9-12c0-3.2,0.3-8.8-1.4-11.6c-1.4-2.4-4.1-2.5-6.4-1.8c-3.9,1.2-6.6,4-11,4.1c-10.9,0.1-17.1-12.1-11.1-21
			c2.8-4.1,7.2-7.4,10.8-10.8c4.2-4,8.5-7.9,12.7-11.9c2.4-2.2-1.2-5.7-3.5-3.5c-7.6,7.1-16.3,13.9-22.9,21.9
			c-4.3,5.3-5.6,12.3-3.2,18.8c2.4,6.5,8.3,10.9,15.2,11.5c3.2,0.3,6.6-0.2,9.5-1.5c1-0.4,4.5-3.2,5.5-2.9c0.9,0.3,0.9,7.1,0.9,8
			c0.2,4.8-0.3,9.8-3,13.9c-3,4.7-6.8,5.3-11.9,6.1c-6.1,0.9-10.2,5.6-10.5,11.9c-0.7,16.2,22.3,23.9,35.2,24.4
			c7.6,0.3,15.4-1.7,21.7-6.2c7.3-5.1,9.3-11.8,12.9-19.5c1.8-3.9,9.4-10.9,11.1-2.7c0.9,4.4-0.3,10.1-0.5,14.6
			C96,245,95,253.4,102,256.6c6.1,2.9,13.3-0.6,18.9-3.1c7.9-3.5,17.4-6.3,24.1-11.9c6.1-5,7.7-12.7,6.6-20.2
			c-0.6-4.2-2.1-8.3-3.6-12.3c-1.5-4-6.8-14.1-1.3-16.4c3.9-1.7,9.2-0.7,13.3-1.2c3.8-0.4,7.6-1.2,11.1-2.9
			c6.8-3.3,10.7-10.1,9.8-17.7c-1-8.3-6.9-14.7-14.2-18.1c-3.9-1.8-8.1-2.8-12.3-3.4c-5-0.7-10.7-0.3-14.2-4.5c0,1.2,0,2.4,0,3.5
			c12.3-9.5,21.6-24.5,20.5-40.5c-1-14.4-10.4-27.7-24.4-31.9c0.5,1.2,1,2.4,1.5,3.7c4.9-8.5,10.2-19,5.1-28.7
			c-1.1-2-2.5-3.7-4.3-5.1c-3.1-2.6-3.5-3.5-1.5-6.9c2.4-4,2.8-8.4,1.6-12.9c-2.4-9.1-10.9-17.6-20.2-19.6
			c-11-2.4-17.8,6.1-22.7,14.6c1.6,0.4,3.1,0.8,4.7,1.3C99,7.2,82.1,4.4,69.5,4.8c-13,0.5-26.3,5.7-28.4,20.1
			c-1,6.7,0.6,13.6,2.4,20.1c0.7,2.4,1.8,5.2,1.2,7.7c-0.4,1.8-1.6,3.6-2.3,5.3c-1.5,3.6-2.3,7.5-2.6,11.4c-0.3,4,0.7,7.7,0.8,11.6
			c0.1,4.8-5.1,6.8-8.2,9.8c-4.8,4.5-8.5,10.4-10.3,16.8c-4.1,14.4,2.8,29.9,16.8,35.7C41.9,144.4,43.2,139.6,40.3,138.4L40.3,138.4
			z"/>
	</g>
</g>
<g>
	<g>
		<path d="M94.9,107.5c2.8-5.2,9.5-5,12.2,0.2c1.1,2.1,4.3,0.3,3.2-1.9c-3.9-7.7-14.5-7.7-18.6-0.2
			C90.5,107.8,93.7,109.7,94.9,107.5L94.9,107.5z"/>
	</g>
</g>
<g>
	<g>
		<path d="M69,106c-3.9-5.2-11.2-6.8-16.8-3.2c-2,1.3-0.1,4.6,1.9,3.2c3.7-2.4,8.9-1.8,11.6,1.8C67.2,109.8,70.5,107.9,69,106
			L69,106z"/>
	</g>
</g>
<g>
	<g>
		<path d="M77.6,111.4c0.9,0,1.8,0,2.7,0c1,0,1.9-0.9,1.9-1.9c0-1-0.8-1.9-1.9-1.9c-0.9,0-1.8,0-2.7,0c-1,0-1.9,0.9-1.9,1.9
			C75.8,110.5,76.6,111.4,77.6,111.4L77.6,111.4z"/>
	</g>
</g>
<g>
	<g>
		<path d="M91.9,75.7c-3.6-3-4.9-8.4-2.2-12.5c1.7-2.7,5.5-3.8,5.7-7.4c0.1-2.1-1.1-3.7-2.4-5.2c-1.5-1.8-3.4-3.3-4-5.7
			c-0.8-3.3,0.9-6.6,2.9-9.1c1-1.2-0.7-3-1.8-1.8c-2.4,2.9-4.1,6.3-3.8,10.1c0.2,2.1,1,3.7,2.3,5.4c2.2,2.9,5.9,4.7,2.3,8.9
			c-2.7,3-5,4.7-5.1,9.2c-0.2,3.9,1.4,7.4,4.4,9.8C91.4,78.5,93.2,76.7,91.9,75.7L91.9,75.7z"/>
	</g>
</g>
<g>
	<g>
		<path class="st1" d="M55.5,128.9c12.9,0,12.9-20,0-20C42.6,108.9,42.6,128.9,55.5,128.9L55.5,128.9z"/>
	</g>
</g>
<g>
	<g>
		<path class="st1" d="M57.5,129.6c12.9,0,12.9-20,0-20C44.6,109.6,44.6,129.6,57.5,129.6L57.5,129.6z"/>
	</g>
</g>
<g>
	<g>
		<path class="st1" d="M102.5,130.2c12.9,0,12.9-20,0-20C89.6,110.2,89.6,130.2,102.5,130.2L102.5,130.2z"/>
	</g>
</g>
<g>
	<path class="st1" d="M159.5,169.4c1.1-1.8,2.2-3.6,4-4.6c1.8-1.1,4.3-1.2,5.7,0.3c1.4,1.5-2.1,4.8-4.2,5c2-0.1,6.2,2.4,5.2,4.2
		s-3.4,2.3-5.3,1.7C163.1,175.3,160.7,171.1,159.5,169.4"/>
	<g>
		<path class="st1" d="M160.6,170.1c1.3-2.1,3.4-5.5,6.3-4.8c1.7,0.4,1.3,1.2,0.3,2.2c-0.7,0.7-1.5,1.2-2.5,1.4
			c-1.4,0.3-1,2.4,0.3,2.5c1.2,0,2.5,0.7,3.4,1.5c1.8,1.6-1.7,2.4-3,2c-2.2-0.8-3.7-4.2-4.9-6c-0.9-1.3-3.1-0.1-2.2,1.3
			c2.5,3.7,5.8,9.8,11.2,6.6c5.1-3-0.8-7.8-4.5-7.8c0.1,0.8,0.2,1.6,0.3,2.5c2.7-0.5,7.4-4.5,4.5-7.3c-4.3-4-9.3,1.3-11.4,4.8
			C157.6,170.2,159.8,171.4,160.6,170.1L160.6,170.1z"/>
	</g>
</g>
<g>
	<path class="st1" d="M28.9,171.8c-1.9-0.9-3.8-1.8-5.9-1.7s-4.2,1.3-4.6,3.4c-0.4,2,4.4,2.8,6.2,1.9c-1.8,1-3.9,5.4-2.1,6.4
		c1.8,0.9,4.1,0.1,5.4-1.5C29.1,178.7,28.8,173.8,28.9,171.8"/>
	<g>
		<path class="st1" d="M29.5,170.8c-2.4-1.2-5-2.3-7.8-1.7c-2,0.4-4.2,1.9-4.6,4.1c-0.7,3.8,5.3,4.4,7.8,3.5c-0.3-0.8-0.6-1.5-1-2.3
			c-3.2,2.2-5.6,9.4,0.5,9c6.1-0.4,5.5-7.1,5.6-11.5c0-1.6-2.5-1.6-2.5,0c-0.1,2.2,0.5,5.5-0.7,7.5c-0.6,1.1-3.9,2.7-3.9,0.6
			c0-1.2,1.2-2.8,2.1-3.4c1.1-0.7,0.4-2.8-1-2.3c-1.1,0.4-5.1,0.7-4.4-1.2c0.4-1.2,2.4-1.6,3.5-1.6c1.7,0,3.4,0.8,4.9,1.5
			C29.7,173.6,31,171.5,29.5,170.8L29.5,170.8z"/>
	</g>
</g>
</svg>
