<?xml version="1.0" encoding="utf-8"?>
<!-- Generator: Adobe Illustrator 22.1.0, SVG Export Plug-In . SVG Version: 6.00 Build 0)  -->
<svg version="1.1" id="Слой_1" xmlns="http://www.w3.org/2000/svg" xmlns:xlink="http://www.w3.org/1999/xlink" x="0px" y="0px"
	 viewBox="0 0 160.1 149.3" style="enable-background:new 0 0 160.1 149.3;" xml:space="preserve">
<style type="text/css">
	.st0{fill:#FDDBB9;}
	.st1{fill:#FFFFFF;}
	.st2{fill:#F9C7B2;}
	.st3{fill:#E53012;}
</style>
<g>
	<path class="st0" d="M18.4,35.4C18.2,54,24.3,72,26.5,90.5c0.3,2.5,0.6,5.2,2.2,7.1s5.2,2.3,6.4,0.2c0.6-1.1,0.5-2.4,0.4-3.7
		c-1.8-16.5-3.6-33-5.4-49.5c-0.3-2.8-0.7-5.7-2.4-7.9c-1.7-2.2-5.3-3.3-7.3-1.4"/>
	<g>
		<path class="st0" d="M15.9,35.4c0,15.8,4.1,31.1,6.8,46.6c0.9,5.3,0.2,14.3,5,18.1c2.8,2.2,7.2,2.3,9.4-0.8c1.5-2.1,1-4.8,0.7-7.2
			c-0.4-4-0.9-7.9-1.3-11.9c-0.9-8.6-1.9-17.2-2.8-25.7c-0.6-5.8-0.1-14.1-3.8-19.1c-2.6-3.4-7.1-4.6-10.8-2.3
			c-2.7,1.7-0.2,6.1,2.5,4.3c6-3.8,6.3,10.6,6.6,13.1c0.6,5.3,1.1,10.6,1.7,15.8c0.6,5.3,1.1,10.6,1.7,15.8c0.3,2.6,0.6,5.3,0.9,7.9
			c0.2,1.4,2,9.4-2.9,4.2c-1.1-1.2-0.8-4.8-1-6.3c-0.3-2.5-0.7-4.9-1.1-7.4c-0.8-4.9-1.9-9.8-2.8-14.7c-2-10.1-3.8-20.2-3.8-30.6
			C20.9,32.1,15.9,32.1,15.9,35.4L15.9,35.4z"/>
	</g>
</g>
<g>
	<path class="st1" d="M29,35.7C29.2,49.9,30,64,31.4,78.2c1.2,11.8-1.3,23.3,14,19.9c11.3-2.5,5.5-15.4,4.7-23.6
		c-1.3-13.8-1.3-27.8-5.3-41.1c-0.2-0.7-0.5-1.4-1-1.9c-0.7-0.6-1.6-0.7-2.5-0.8c-4.3-0.4-9.6-0.4-12,3.3"/>
	<g>
		<path class="st1" d="M26.5,35.7c0.2,15.9,1.8,31.5,2.7,47.4c0.4,7.3,0.6,17,9.7,18.1c10,1.2,16.7-4.9,15.7-14.8
			c-0.6-5.5-2-10.9-2.4-16.5c-0.6-7.8-1-15.5-2.1-23.2c-0.7-5-0.9-16.3-6.8-18.1C38.3,26.9,31,28,27.6,32.2c-2,2.5,1.5,6,3.5,3.5
			c2-2.5,5.7-3.3,8.9-2.7c3.9,0.7,4,6.9,4.6,10.2c1.3,7.2,1.8,14.5,2.3,21.8c0.4,5.5,0.8,10.9,1.9,16.3c0.7,3.7,2.5,9.9-0.9,12.9
			c-3.4,3-10.7,3.1-12.5-1.5c-1.6-3.8-1-8.7-1.3-12.8c-1.1-14.8-2.4-29.5-2.5-44.3C31.5,32.4,26.5,32.4,26.5,35.7L26.5,35.7z"/>
	</g>
</g>
<g>
	<path class="st2" d="M44.4,32.3c2.8,19.6,6.6,39.1,11.3,58.3c0.2,0.9,0.5,1.8,1.1,2.4c0.8,0.8,2.2,1,3.4,0.8
		c3.5-0.4,6.6-2.7,9.1-5.2c6-5.8,10.4-13.3,12.6-21.3c0.7-2.5,1.2-5.2,0.4-7.7c-0.7-2.3-2.5-4.1-4.1-5.8
		C70.6,46,62.9,38.1,53.3,33.1c-1.9-1-4.2-1.9-6.3-1.3s-3.5,3.6-1.9,5.1"/>
	<g>
		<path class="st2" d="M42,32.9c2.8,19.3,5.7,39.5,11.3,58.3c1.8,6,7.5,6,12.4,3.3C72,91,77,84.2,80.3,78c3.1-5.8,6.8-13.9,3.9-20.3
			c-1.2-2.7-3.4-4.8-5.4-6.8c-3.2-3.3-6.4-6.6-9.9-9.6c-5-4.5-12.5-11.6-19.7-12.1c-4.9-0.3-9.3,4.3-6.3,9c1.7,2.7,6.1,0.2,4.3-2.5
			c0.7-0.5,1.5-0.9,2.2-1.4c1.1,0.4,2.2,0.8,3.2,1.4c1.3,0.7,2.5,1.4,3.7,2.2c2.5,1.6,4.8,3.4,7,5.3c4.2,3.5,8,7.4,11.8,11.3
			c2.1,2.1,4.3,4.1,4.8,7.1c0.5,2.8-0.8,6.2-1.8,8.9c-2,5.2-4.9,10.1-8.6,14.2c-1.7,1.9-3.6,3.9-5.8,5.2c-1.7,1-3.9,2.3-5.7,0.1
			c-0.6-0.7-0.7-2.8-0.9-3.7c-1.4-5.9-2.7-11.8-4-17.8c-2.5-12.2-4.7-24.5-6.4-36.8C46.3,28.4,41.5,29.8,42,32.9L42,32.9z"/>
	</g>
</g>
<g>
	<path class="st0" d="M40.3,31.2c-0.2,18.6,5.9,36.7,8.1,55.1c0.3,2.5,0.6,5.2,2.2,7.1c1.6,1.9,5.2,2.3,6.4,0.2
		c0.6-1.1,0.5-2.4,0.4-3.7c-1.8-16.5-3.6-33-5.4-49.5c-0.3-2.8-0.7-5.7-2.4-7.9s-5.3-3.3-7.3-1.4"/>
	<g>
		<path class="st0" d="M37.8,31.2c0,15.8,4.1,31.1,6.8,46.6c0.9,5.3,0.2,14.3,5,18.1c2.8,2.2,7.2,2.3,9.4-0.8c1.5-2.1,1-4.8,0.7-7.2
			c-0.4-4-0.9-7.9-1.3-11.9c-0.9-8.6-1.9-17.2-2.8-25.7c-0.6-5.8-0.1-14.1-3.8-19.1c-2.6-3.4-7.1-4.6-10.8-2.3
			c-2.7,1.7-0.2,6.1,2.5,4.3c6-3.8,6.3,10.6,6.6,13.1c0.6,5.3,1.1,10.6,1.7,15.8c0.6,5.3,1.1,10.6,1.7,15.8c0.3,2.6,0.6,5.3,0.9,7.9
			c0.2,1.4,2,9.4-2.9,4.2c-1.1-1.2-0.8-4.8-1-6.3c-0.3-2.5-0.7-4.9-1.1-7.4c-0.8-4.9-1.9-9.8-2.8-14.7c-2-10.1-3.8-20.2-3.8-30.6
			C42.8,27.9,37.8,27.9,37.8,31.2L37.8,31.2z"/>
	</g>
</g>
<g>
	<path class="st3" d="M43.4,93.6c-1,1.6-3.1,2.2-4.9,1.8s-3.3-1.8-4.2-3.4c-3-4.8-1.4-11.9,3.3-15c0.5-0.3,1.1-0.6,1.7-0.6
		c0.9,0,1.6,0.7,2.1,1.4c2.1,2.5,3.7,5.4,4.7,8.5c0.7,2.1,1.1,4.5,0.1,6.5s-3.7,3.2-5.5,1.9"/>
	<g>
		<path class="st3" d="M41.6,91.8c-2.7,3.3-5.8-1.3-6.2-3.9c-0.4-2.4,0.1-5,1.6-7c0.8-1.1,1.5-2.1,2.7-1.5c0.9,0.4,1.9,2.6,2.4,3.5
			c0.7,1.2,1.3,2.5,1.7,3.9c0.2,0.7,1.6,7.3-1.7,5.6c-2.9-1.5-5.4,2.8-2.5,4.3c6.9,3.5,10.9-4.3,9.4-10.1c-1.2-4.7-5.8-15.3-12.1-12
			C31.1,77.4,29,85.2,31,90.9c2,5.6,9.6,10.2,14.2,4.5C47.1,92.9,43.6,89.3,41.6,91.8L41.6,91.8z"/>
	</g>
</g>
<g>
	<path class="st3" d="M41.3,67.2c-0.5,0.8-1,1.7-1.7,2.3c-2,1.8-5.3,1.4-7.4-0.3c-2-1.8-2.9-4.6-3-7.2c-0.1-2.7,1.1-6.1,3.8-6.4
		c1.3-0.1,2.5,0.5,3.5,1.1c2.6,1.6,5.2,3.8,5.5,6.8c0.3,3-3.1,6.2-5.7,4.7"/>
	<g>
		<path class="st3" d="M39.2,65.9c-3.5,6-8.5-1.8-7.1-6.2c0.4-1.4,1-2,2.5-1.4c1.1,0.4,2.2,1.3,3.1,2.1c0.9,0.9,2,2,2,3.4
			c0,0.7-0.8,2.7-1.9,2.2c-2.9-1.3-5.5,3-2.5,4.3c5.5,2.5,10.7-3.2,9.1-8.7c-1.5-5-9.2-11-14.2-7.5c-4.7,3.2-3.9,11.1-1,15.1
			c1.7,2.4,4.4,3.9,7.3,3.9c3.3,0,5.5-2,7.1-4.7C45.1,65.6,40.8,63.1,39.2,65.9L39.2,65.9z"/>
	</g>
</g>
<g>
	<path class="st3" d="M37.1,45.7c-0.7,2.6-4.3,3.5-6.6,2s-3-4.5-2.5-7.1c0.5-2.6,2-4.9,3.6-7c0.5-0.7,1.1-1.4,1.9-1.5
		c1-0.1,1.8,0.7,2.5,1.4c2.1,2.3,4.4,4.8,4.6,7.9c0.2,3.1-2.9,6.5-5.7,5.3"/>
	<g>
		<path class="st3" d="M34.7,45c-1.1,2.7-3.9-0.4-4.2-1.9c-0.5-2.6,1-5.1,2.5-7.1c0.3-0.5,0.7-0.9,1-1.4c-0.4,0-0.3,0.2,0.4,0.6
			c0.8,0.5,1.7,1.9,2.3,2.6c0.7,1,1.4,2.1,1.6,3.3c0.2,1.4-0.7,3.7-2.5,3.1c-3.1-0.9-4.4,4-1.3,4.8c6.5,1.8,10.3-5.6,8.1-11
			c-1.7-4.4-7.5-11.8-12.2-6.7c-3.9,4.2-6.8,11.3-3,16.5c3.4,4.6,10.2,3.6,12.3-1.5C40.7,43.3,35.8,42,34.7,45L34.7,45z"/>
	</g>
</g>
<g>
	<path class="st0" d="M111.2,57.7c-11.6,14.6-17.8,32.6-27.5,48.5c-1.3,2.1-2.7,4.4-2.6,7c0.1,2.5,2.7,5,5,4.1
		c1.2-0.5,1.9-1.6,2.6-2.7c8.7-14.1,17.4-28.3,26.1-42.4c1.5-2.4,3-4.9,3-7.7c0-2.8-2.1-5.8-4.9-5.6"/>
	<g>
		<path class="st0" d="M109.4,55.9C100.6,67.3,94.7,80.3,88.1,93c-1.8,3.5-3.7,7-5.7,10.4c-1.4,2.4-3.1,4.8-3.6,7.5
			c-0.8,4.1,1.8,9.1,6.5,8.9c5.6-0.2,9-9.6,11.3-13.4c4.5-7.3,9.1-14.7,13.6-22c3.4-5.6,9.6-12.4,10-19.2c0.3-4.7-2.6-8.5-7.3-8.9
			c-3.2-0.3-3.2,4.7,0,5c6.4,0.6-1.9,12.4-3.4,14.7c-2.8,4.5-5.6,9-8.4,13.6s-5.6,9-8.4,13.6c-1.4,2.3-2.8,4.5-4.2,6.8
			c-0.3,0.5-1.6,3.3-2.1,3.4c-0.7-1.1-1.4-2.1-2.1-3.2c0.3-0.7,0.7-1.3,1.1-2c9.3-16,16-33.9,27.5-48.6
			C114.9,56.9,111.4,53.4,109.4,55.9L109.4,55.9z"/>
	</g>
</g>
<g>
	<path class="st1" d="M119.4,64.4c-8.6,11.3-16.7,23-24.2,35c-6.3,10.1-15.3,17.6-1.2,24.3c10.5,5,13.8-8.8,18.2-15.7
		c7.4-11.6,16-22.7,21-35.7c0.3-0.7,0.5-1.4,0.4-2.2c-0.2-0.9-0.8-1.5-1.5-2.2c-3.2-3-7.4-6.2-11.5-4.7"/>
	<g>
		<path class="st1" d="M117.2,63.2c-9.4,12.4-17.6,25.5-26.4,38.3c-4.6,6.8-10.9,15.2-2.5,21.8c7.9,6.2,15.6,4.5,20.6-3.8
			c2.7-4.6,4.8-9.3,7.8-13.8c4.1-6.3,8.4-12.4,12.2-18.9c2-3.5,3.9-7.1,5.5-10.8c1-2.3,2.3-4.6,1.4-7.1c-2-5.6-10.3-9.2-15.8-8.1
			c-3.1,0.7-1.8,5.5,1.3,4.8c2.8-0.6,5.9,1,7.8,3c2,2.1,1.9,2.7,0.6,5.6c-1.4,3.2-3,6.2-4.7,9.2c-3.1,5.5-6.7,10.8-10.2,16
			c-3,4.4-5.7,8.8-8.1,13.5c-1.6,3.2-3.8,8.6-7.9,9.2c-4.7,0.7-11-4.2-9.3-9.2c1.5-4.3,5-8.1,7.5-11.8c7.8-12.1,15.8-24.1,24.6-35.6
			C123.5,63.1,119.2,60.6,117.2,63.2L117.2,63.2z"/>
	</g>
</g>
<g>
	<path class="st2" d="M133.6,71.2c-9.8,17.2-18.8,34.9-26.8,53c-0.4,0.8-0.7,1.7-0.6,2.6c0.2,1.2,1.1,2.1,2.2,2.7
		c3.1,1.8,6.8,1.9,10.4,1.5c8.3-0.9,16.3-4.1,23-9.1c2.1-1.5,4.1-3.4,5-5.8c0.8-2.2,0.6-4.7,0.3-7.1c-1.2-10.8-2.5-21.8-7-31.7
		c-0.9-2-2.1-4.1-4.2-4.9s-4.9,0.7-4.6,2.9"/>
	<g>
		<path class="st2" d="M131.4,69.9c-9.7,17.1-19.2,34.8-26.8,53c-2.4,5.8,1.6,9.4,7.3,10.4c6.8,1.2,14.7-1,20.9-3.6
			c5.8-2.4,14.1-6.6,16.3-13c1.4-4.2,0.3-9-0.2-13.2c-0.5-3.8-1-7.7-1.7-11.4c-1.2-6.3-2.9-16.6-8.4-20.9c-4-3.1-9.6-1.1-10,4
			c-0.3,3.2,4.7,3.2,5,0c0.9,0.3,1.9,0.6,2.8,0.9c0.4,0.6,0.7,1.1,1,1.8c0.7,1.3,1.2,2.8,1.7,4.2c0.9,2.5,1.7,5.2,2.3,7.8
			c1.3,5.7,2.1,11.5,2.7,17.3c0.4,3.5,0.9,6.9-1.2,10c-1.6,2.3-4.5,3.9-6.9,5.3c-5,2.9-10.6,4.9-16.3,5.8c-2.7,0.4-5.6,0.7-8.3,0
			c-4.3-1.2-1.4-6.1-0.1-8.9c2.4-5.2,4.9-10.4,7.4-15.6c5.2-10.6,10.8-21,16.6-31.3C137.3,69.6,133,67.1,131.4,69.9L131.4,69.9z"/>
	</g>
</g>
<g>
	<path class="st0" d="M131.1,67.8c-11.6,14.6-17.8,32.6-27.5,48.5c-1.3,2.1-2.7,4.4-2.6,7s2.7,5,5,4.1c1.2-0.5,1.9-1.6,2.6-2.7
		c8.7-14.1,17.4-28.3,26.1-42.4c1.5-2.4,3-4.9,3-7.7c0-2.8-2.1-5.8-4.9-5.6"/>
	<g>
		<path class="st0" d="M129.3,66c-8.8,11.4-14.7,24.4-21.3,37.1c-1.8,3.5-3.7,7-5.7,10.4c-1.4,2.4-3.1,4.8-3.6,7.5
			c-0.8,4.1,1.8,9.1,6.5,8.9c5.6-0.2,9-9.6,11.3-13.4c4.5-7.3,9.1-14.7,13.6-22c3.4-5.6,9.6-12.4,10-19.2c0.3-4.7-2.6-8.5-7.3-8.9
			c-3.2-0.3-3.2,4.7,0,5c6.4,0.6-1.9,12.4-3.4,14.7c-2.8,4.5-5.6,9-8.4,13.6c-2.8,4.5-5.6,9-8.4,13.6c-1.4,2.3-2.8,4.5-4.2,6.8
			c-0.3,0.5-1.6,3.3-2.1,3.4c-0.7-1.1-1.4-2.1-2.1-3.2c0.3-0.7,0.7-1.3,1.1-2c9.3-16,16-33.9,27.5-48.6
			C134.8,67.1,131.3,63.5,129.3,66L129.3,66z"/>
	</g>
</g>
<g>
	<path class="st3" d="M95.2,119c-1.7,0.7-3.8-0.1-4.9-1.6c-1.1-1.5-1.5-3.4-1.3-5.3c0.6-5.7,6.2-10.3,11.8-9.8
		c0.6,0.1,1.2,0.2,1.7,0.6c0.7,0.6,0.8,1.5,0.8,2.4c0.1,3.3-0.4,6.5-1.5,9.6c-0.7,2.1-1.9,4.2-3.9,5.2c-2,1-4.9,0.3-5.5-1.9"/>
	<g>
		<path class="st3" d="M94.5,116.6c-4.4,1.1-3-5.8-1.7-7.8c1-1.6,4.8-4.8,7-4c2.3,0.9,0.6,6.5,0,8.3c-0.5,1.5-3.5,7.8-5.2,3.9
			c-1.3-2.9-5.6-0.4-4.3,2.5c2.8,6.3,10.5,3.2,13-1.6c2.2-4.3,5.6-16.2-1.4-17.9c-6.2-1.5-12.8,3.5-14.8,9.1
			c-2.1,6,1.3,14.1,8.7,12.4C99,120.6,97.6,115.8,94.5,116.6L94.5,116.6z"/>
	</g>
</g>
<g>
	<path class="st3" d="M109.8,96.9c-0.9,0.4-1.8,0.7-2.7,0.8c-2.7,0.2-5.1-2.1-5.6-4.8s0.5-5.4,2.1-7.6c1.6-2.2,4.6-4.1,6.9-2.7
		c1.1,0.7,1.6,1.9,2.1,3.1c1.1,2.8,1.8,6.2,0.2,8.8c-1.6,2.6-6.2,3.1-7.3,0.2"/>
	<g>
		<path class="st3" d="M109.1,94.5c-8.5,3.4-5.1-10.6-0.4-9.6c1.8,0.4,2.6,4.7,2.5,6.3c-0.1,1.4-2.4,4.8-3.6,2.4
			c-1.5-2.9-5.8-0.3-4.3,2.5c2.4,4.5,9.2,3.9,11.7-0.2c2.7-4.4,1.1-13.8-4.2-15.7c-6.1-2.3-11.3,5.2-11.8,10.4
			c-0.7,6.8,5.3,11.3,11.5,8.9C113.4,98.1,112.1,93.3,109.1,94.5L109.1,94.5z"/>
	</g>
</g>
<g>
	<path class="st3" d="M119.6,77.3c-2.1,1.6-5.6,0.1-6.4-2.5s0.4-5.4,2.4-7.2c2-1.8,4.6-2.6,7.2-3.3c0.8-0.2,1.7-0.4,2.4,0
		c0.9,0.5,1,1.7,1.1,2.6c0.3,3.1,0.5,6.5-1.3,9.1s-6.2,3.4-7.8,0.7"/>
	<g>
		<path class="st3" d="M118.4,75.1c-0.8,0.5-1.8,0.3-2.4-0.5c-0.9-1.1-0.4-2.8,0.3-3.8c1.3-2.1,4.5-3.6,6.9-3.9
			c0.9-0.1,0.3-0.7,0.8,0.2c0.2,0.4,0.1,1.3,0.1,1.7c0.1,1.5,0.2,3-0.3,4.4c-0.3,1.1-2.9,4.4-4.2,2.3c-1.8-2.6-6.1-0.1-4.3,2.5
			c3.1,4.4,9.7,3.4,12.3-1c2.2-3.7,3.4-15-3-15.4c-2.8-0.2-6.5,1.4-8.8,2.9c-2.6,1.7-4.6,4.2-5,7.3c-0.9,5.6,5.1,10.8,10.3,7.6
			C123.6,77.8,121.1,73.4,118.4,75.1L118.4,75.1z"/>
	</g>
</g>
</svg>
