<?xml version="1.0" encoding="utf-8"?>
<!-- Generator: Adobe Illustrator 22.1.0, SVG Export Plug-In . SVG Version: 6.00 Build 0)  -->
<svg version="1.1" id="Слой_1" xmlns="http://www.w3.org/2000/svg" xmlns:xlink="http://www.w3.org/1999/xlink" x="0px" y="0px"
	 viewBox="0 0 517 272" style="enable-background:new 0 0 517 272;" xml:space="preserve">
<style type="text/css">
	.st0{fill:url(#SVGID_1_);}
	.st1{fill:url(#SVGID_2_);}
</style>
<g>
	<linearGradient id="SVGID_1_" gradientUnits="userSpaceOnUse" x1="50.9707" y1="146.3424" x2="466.0293" y2="146.3424">
		<stop  offset="0" style="stop-color:#E82D88"/>
		<stop  offset="1" style="stop-color:#00B8E0"/>
	</linearGradient>
	<path class="st0" d="M75.5,167.7c-11.1,0.9-20.8-9-23.4-19.7s0.1-22.1,3.3-32.8C62,93.5,71.6,71.4,90,58.1
		c18.8-13.6,43.2-15.6,66.3-17.2c9.1-0.6,19-1,26.4,4.2c10.2,7.2,11.5,21.4,15.4,33.3c5.6,17.1,19.4,32,36.9,36.4
		c4.6,1.1,9.4,1.6,14,0.5c12.3-2.9,19.6-15.3,26-26.2c7.5-12.8,16-25.2,27.5-34.6c11.4-9.4,26.2-15.5,41-13.9
		c22.5,2.4,39.4,21.5,51.1,40.8s21.1,41,38.6,55.2c11.1,9,25.6,15.5,30.9,28.8c5.8,14.5-2.9,31.7-16.1,40.1s-29.6,9.7-45.3,9.2
		c-16-0.5-32.4-2.7-46.7-10c-4.5-2.3-9.4-5.2-14.2-3.6c-2.6,0.9-4.6,2.9-6.6,4.9c-32.2,32-78.4,51.1-123.5,45.5
		c-18.3-2.3-38.9-11.5-42.1-29.7c-0.9-5.1-0.3-10.5-2.7-15.1c-3.5-6.7-12.1-9-19.5-8.1s-14.4,4.1-21.7,5.7
		c-7.6,1.6-15.6,1.4-23.2-0.6c-3.4-0.9-6.7-2.2-9.2-4.7c-4.4-4.3-5.2-10.9-6.6-16.9s-4.5-12.6-10.5-13.9"/>
	<g>
		<linearGradient id="SVGID_2_" gradientUnits="userSpaceOnUse" x1="50.4707" y1="146.4099" x2="466.5293" y2="146.4099">
			<stop  offset="0" style="stop-color:#E82D88"/>
			<stop  offset="1" style="stop-color:#00B8E0"/>
		</linearGradient>
		<path class="st1" d="M75.5,165.2c-9.7,0.4-17.5-7.1-20.4-15.9c-3.5-10.6-0.6-22.2,2.4-32.6c5.2-17.5,12.3-35.4,25.1-48.9
			c13.7-14.5,32.9-20.2,52.1-22.6c9.6-1.2,19.3-2.2,29-2.3c10.1-0.1,19.3,2.5,24.3,11.9c4,7.5,5.2,16.1,7.8,24.1
			c2.4,7.4,6.3,14.3,11.2,20.3c9.8,11.9,26.9,22.1,42.8,18.4c16.1-3.8,23.6-21.3,31.5-33.9c10.8-17.1,24.9-33.6,45.1-39.2
			c41.5-11.6,63.2,34,80.2,62.7c4.6,7.8,9.6,15.4,15.6,22.2c5.6,6.3,12.2,11.3,19.1,16.1c6.9,4.8,14.5,9.8,18.8,17.2
			c4.6,8,4.1,17.4,0.1,25.6c-9.2,18.6-30.7,23.6-49.8,23.9c-10.6,0.2-21.4-0.5-31.8-2.6c-4.6-0.9-9.2-2.2-13.7-3.8
			c-4.9-1.8-9.4-4.7-14.3-6.5c-8.6-3.2-13.5,1.5-19.4,7.1c-6.8,6.5-14.2,12.4-22.1,17.7c-15.6,10.4-33,18.1-51.3,22.4
			c-17.5,4-37,5.3-54.6,0.9c-7.7-1.9-15.5-5.1-21.6-10.3c-7.1-6.1-9.2-13.1-10.1-22.1c-0.8-7.7-3.6-14-11.2-17.1
			c-7.7-3.2-15.9-1.6-23.6,0.7c-10.6,3.2-20.6,5.8-31.8,3.2c-4.9-1.1-9.6-2.9-12.2-7.5c-2.4-4.3-2.7-9.3-4-14
			c-1.8-6.4-5.2-12.4-11.9-14.4c-3.1-0.9-4.4,3.9-1.3,4.8c9.7,2.9,8.7,16.8,12.1,24.4c3.9,8.6,12.6,11.3,21.3,12.4
			c10.6,1.3,19.9-1.4,29.9-4.4c9.1-2.7,23.5-4.4,26.9,7.5c1.3,4.5,0.8,9.3,1.9,13.8c0.9,3.7,2.6,7.1,4.8,10.2
			c4.5,6.1,10.9,10.6,17.8,13.6c16,7.1,34.6,7.8,51.7,6c19-2.1,37.5-7.9,54.4-16.7c8.7-4.5,16.9-9.8,24.6-15.8
			c3.5-2.7,6.9-5.5,10.1-8.4c3.7-3.4,8.4-10.2,13.9-10.1c5.2,0.1,10.5,4.2,15.2,6.2c4.9,2.1,10,3.6,15.2,4.8
			c10.6,2.3,21.5,3.1,32.3,3.1c18.2,0,38.7-3.3,51.1-18.1c10.3-12.3,13.2-29.6,2.7-42.8c-5.5-6.9-13.1-11.7-20.3-16.8
			c-8.2-5.8-15.3-12.5-21.3-20.7C399.7,91,387,46.2,348,38.6c-19.1-3.7-37.9,5-51.5,18c-7.4,7-13.5,15.3-18.9,23.9
			c-5,7.8-9.1,16.5-15.3,23.4c-7.7,8.6-17.4,11.2-28.5,7.8c-9.2-2.8-17.1-8.7-23.1-16c-6-7.3-9.5-15.8-11.9-24.9
			c-2.1-7.9-4-16.4-9.2-23c-5.3-6.7-13.3-9.4-21.6-9.9c-10.1-0.5-20.6,0.8-30.6,1.9c-18.8,2.2-37.8,6.7-52.6,19.1
			c-14.2,12-22.8,29.3-28.8,46.5c-6,17.2-13,39.5,0.1,55.3c4.9,5.9,11.8,9.6,19.5,9.3C78.7,170.1,78.7,165.1,75.5,165.2L75.5,165.2z
			"/>
	</g>
</g>
</svg>
