<?xml version="1.0" encoding="utf-8"?>
<!-- Generator: Adobe Illustrator 22.1.0, SVG Export Plug-In . SVG Version: 6.00 Build 0)  -->
<svg version="1.1" xmlns="http://www.w3.org/2000/svg" xmlns:xlink="http://www.w3.org/1999/xlink" x="0px" y="0px"
	 viewBox="0 0 3091.3 593.9" style="enable-background:new 0 0 3091.3 593.9;" xml:space="preserve">
<style type="text/css">
	.st0{display:none;}
	.st1{display:inline;}
	.st2{fill:#FFFFFF;}
	.st3{fill:url(#SVGID_1_);}
	.st4{fill:url(#SVGID_2_);}
	.st5{fill:url(#SVGID_3_);}
	.st6{fill:url(#SVGID_4_);}
	.st7{fill:url(#SVGID_5_);}
	.st8{fill:url(#SVGID_6_);}
	.st9{fill:url(#SVGID_7_);}
	.st10{fill:url(#SVGID_8_);}
</style>
<g id="Слой_3">
	<g class="st0">
		<g class="st1">
			<path class="st2" d="M440.1-371.5c5.8,0,5.8-9,0-9C434.3-380.5,434.3-371.5,440.1-371.5L440.1-371.5z"/>
		</g>
	</g>
	<g id="Слой_5">
	</g>
</g>
<g id="Слой_2">
</g>
<g id="Слой_1">
</g>
<g id="Слой_4">
	<g>
		<g>
			<path class="st2" d="M2481.8,1428.2c12.9,0,12.9-20,0-20C2468.9,1408.2,2468.9,1428.2,2481.8,1428.2L2481.8,1428.2z"/>
		</g>
	</g>
	<g>
		
			<linearGradient id="SVGID_1_" gradientUnits="userSpaceOnUse" x1="322.94" y1="-976.0854" x2="714.3317" y2="-976.0854" gradientTransform="matrix(0.999 -4.485445e-02 -4.485445e-02 -0.999 -342.3072 -651.3548)">
			<stop  offset="0" style="stop-color:#F17AA9"/>
			<stop  offset="1" style="stop-color:#F17AA9;stop-opacity:0"/>
		</linearGradient>
		<path class="st3" d="M123.9,345.2c5,8.2,0,19.1-7.4,25.3c-7.4,6.1-16.8,9.2-24.5,14.9c-14.8,10.9-21.7,30.8-18.9,48.9
			c2.8,18.2,14.6,34.3,29.9,44.4c11.6,7.7,25.1,12.2,36.2,20.6c11.1,8.4,19.8,22.6,15.5,35.8c-2.4,7.5-8.4,13.1-12.3,19.9
			c-3.8,6.8-4.9,16.7,1.4,21.4c6.5-9.5,12.9-19,19.3-28.5c2.2,8.2,4.3,16.4,6.5,24.7c0.9,3.4,2.4,7.4,5.8,8.1
			c3.1,0.6,5.9-1.9,7.7-4.4c6.6-9,8.9-21,5.9-31.8c0.6,11.9,8.3,23.2,19.1,28c11.1-14.1-0.8-33.9-10.5-48.9
			c-14.8-23-24.8-48.7-34.6-74.2c-4.3-11-7.9-25.2,0.7-33.2c8.7-8.1,22.5-3.5,33.9-0.3c11.4,3.3,27.7,1.9,29.9-9.8
			c9.4,6.6,20.6,10.4,32,11.1c-0.1,30.7-0.3,61.4-0.4,92.2c0,7-0.2,14.3-3.5,20.3c-2.9,5.3-7.7,9.1-11.4,13.8
			c-6.9,9-8.9,21.4-5.2,32.1c9.2-3.5,16.5-11.7,19-21.2c7.1,6.4,2.9,22.2,12.2,24.4c5.7,1.4,10.4-4.8,11.9-10.5
			c1.5-5.7,1.7-12.1,5.7-16.3c8.1,5.6,4.2,24.5,14,23.4c4.2-0.5,6.3-5.3,7.1-9.5c5.1-28.6-15.5-59.3-4-86
			c5-11.5,15.1-19.8,23.2-29.3c16.5-19.6,24.8-46.9,18.4-71.8c-9.5-36.7-34.8-37.7-64.1-47.2c-27.3-8.8-4.8-55.5-7.5-81.2
			c-0.5-4.8-1.2-10,1.3-14.3c1.7-3,4.7-4.9,7.7-6.5c18.4-9.7,42-8.9,57.7-22.5c10.3-8.9,15.1-22.4,19.1-35.4
			c8.2-27.4,13.7-55.6,16.4-84.2c0.7-7,1.3-14.4,5.5-20.1c2.7-3.7,6.7-6.3,10-9.5c10.5-10,13.6-26.9,7.7-40
			c-11-3-23.7,5.7-24.9,17.1c-0.1-11.5-10.9-21.9-22.4-21.5c0.4,6.6,0.9,13.2,1.3,19.7c-6.1-6.9-16.1-10.3-25.1-8.4
			c-2.7,15.1,5.6,31.6,19.3,38.5c-13.3,25.9-21.8,54.2-25.2,83.2c-7.8-1.3-15.8-0.9-23.5,1.1c-3.7-38.5-12.2-82.9-46.5-100.7
			c-25.9-13.5-61.4-4.1-77.3,20.4c-20.4,31.6-10.5,80.5-40.8,102.7c-17-14.5-36-26.7-56.3-36.1c0.6-13.5-1-27.1-4.6-40.2
			c-0.7-2.8-1.8-5.7-4.2-7.2c-4-2.4-9.5,0.8-11,5.2c-1.6,4.4-0.4,9.2,0.7,13.7c-4.2-4.7-9.9-8.1-16-9.7c0.3,7.7,0.7,15.4,1,23
			c-8.6-6.1-19.2-9.3-29.8-9c2.9,12.6,11.7,23.7,23.3,29.4c4.9,2.4,10.3,4,14,8c4.1,4.5,5.1,10.9,6.6,16.8
			c7.1,27,31.8,48.6,59.7,51.7c-1,41.4-7.2,90.3,5.5,130.3"/>
	</g>
	<g>
		
			<linearGradient id="SVGID_2_" gradientUnits="userSpaceOnUse" x1="718.2441" y1="-995.6362" x2="1109.6359" y2="-995.6362" gradientTransform="matrix(-0.9974 7.315013e-02 7.315013e-02 0.9974 1563.9369 1218.6718)">
			<stop  offset="0" style="stop-color:#75CBCA"/>
			<stop  offset="1" style="stop-color:#75CBCA;stop-opacity:0"/>
		</linearGradient>
		<path class="st4" d="M674,245.2c-5.3-8-0.5-19.1,6.7-25.5c7.2-6.3,16.5-9.7,24.1-15.6c14.5-11.3,20.8-31.4,17.5-49.4
			c-3.4-18.1-15.5-33.8-31.2-43.5c-11.8-7.4-25.5-11.5-36.8-19.5c-11.3-8.1-20.4-22-16.5-35.4c2.2-7.5,8.1-13.3,11.7-20.3
			s4.4-16.9-2.1-21.4c-6.2,9.7-12.3,19.3-18.5,29c-2.4-8.2-4.8-16.3-7.2-24.5c-1-3.4-2.6-7.4-6.1-7.9c-3.1-0.5-5.8,2.1-7.6,4.6
			c-6.4,9.2-8.3,21.3-5,31.9c-0.9-11.9-8.9-22.9-19.9-27.5C572.4,34.7,584.8,54.2,595,69c15.5,22.5,26.2,48,36.7,73.2
			c4.6,10.9,8.6,25,0.2,33.2c-8.4,8.3-22.3,4.2-33.9,1.2c-11.5-3-27.8-1.1-29.6,10.6c-9.6-6.3-20.9-9.9-32.3-10.2
			c-0.7-30.7-1.5-61.4-2.2-92.1c-0.2-7-0.2-14.3,2.9-20.4c2.7-5.3,7.5-9.3,11-14.1c6.6-9.2,8.3-21.7,4.3-32.3
			c-9.1,3.8-16.2,12.2-18.4,21.8c-7.2-6.2-3.5-22.1-12.9-24c-5.7-1.2-10.3,5.1-11.6,10.8S508,38.7,504,43c-8.3-5.4-4.9-24.4-14.7-23
			c-4.2,0.6-6.2,5.5-6.8,9.7c-4.3,28.8,17.2,58.8,6.4,85.8c-4.6,11.6-14.5,20.2-22.3,30c-16,20.1-23.5,47.6-16.4,72.2
			c10.5,36.4,35.9,36.7,65.4,45.4c27.5,8.1,6.4,55.4,9.8,81c0.6,4.8,1.5,10-0.9,14.3c-1.6,3-4.5,5-7.5,6.7
			c-18.1,10.2-41.7,10.1-57.1,24.1c-10,9.2-14.5,22.8-18.1,36c-7.4,27.6-12.1,56-14,84.6c-0.5,7-0.9,14.5-4.9,20.3
			c-2.6,3.8-6.5,6.5-9.7,9.8c-10.2,10.3-12.9,27.2-6.5,40.2c11.1,2.7,23.6-6.4,24.4-17.8c0.4,11.5,11.5,21.6,23,20.8
			c-0.6-6.5-1.3-13.1-1.9-19.7c6.3,6.7,16.4,9.8,25.4,7.7c2.2-15.2-6.5-31.4-20.4-37.9c12.6-26.3,20.3-54.8,22.8-83.8
			c7.8,1.1,15.9,0.5,23.5-1.8c4.8,38.3,14.5,82.5,49.3,99.3c26.3,12.7,61.4,2.3,76.6-22.6c19.5-32.1,8.2-80.7,37.9-103.8
			c17.4,14.1,36.7,25.7,57.3,34.5c-0.2,13.5,1.8,27.1,5.7,40.1c0.8,2.8,1.9,5.7,4.4,7.1c4.1,2.3,9.4-1.1,10.8-5.6
			c1.5-4.4,0.2-9.2-1-13.7c4.4,4.6,10.1,7.9,16.3,9.2c-0.5-7.6-1.1-15.3-1.6-23c8.8,5.9,19.5,8.8,30,8.1
			c-3.3-12.5-12.4-23.4-24.2-28.7c-4.9-2.3-10.4-3.7-14.2-7.6c-4.2-4.4-5.4-10.8-7-16.6c-7.8-26.8-33.2-47.7-61.1-50
			c-0.1-41.4,4.7-90.5-9.2-130.1L674,245.2z"/>
	</g>
	<g>
		
			<linearGradient id="SVGID_3_" gradientUnits="userSpaceOnUse" x1="1071.4088" y1="-1009.4921" x2="1462.8005" y2="-1009.4921" gradientTransform="matrix(0.999 -4.485445e-02 -4.485445e-02 -0.999 -342.3072 -651.3548)">
			<stop  offset="0" style="stop-color:#F17AA9"/>
			<stop  offset="1" style="stop-color:#F17AA9;stop-opacity:0"/>
		</linearGradient>
		<path class="st5" d="M873.2,345c5,8.2,0,19.1-7.4,25.3c-7.4,6.1-16.8,9.2-24.5,14.9c-14.8,10.9-21.7,30.8-18.9,48.9
			c2.8,18.2,14.6,34.3,29.9,44.4c11.6,7.7,25.1,12.2,36.2,20.6s19.8,22.6,15.5,35.8c-2.4,7.5-8.4,13.1-12.3,19.9s-4.9,16.7,1.4,21.4
			c6.5-9.5,12.9-19,19.3-28.5c2.2,8.2,4.3,16.4,6.5,24.7c0.9,3.4,2.4,7.4,5.8,8.1c3.1,0.6,5.9-1.9,7.7-4.4c6.6-9,8.9-21,5.9-31.8
			c0.6,11.9,8.3,23.2,19.1,28c11.1-14.1-0.8-33.9-10.5-48.9c-14.8-23-24.8-48.7-34.6-74.2c-4.3-11-7.9-25.2,0.7-33.2
			c8.7-8.1,22.5-3.5,33.9-0.3c11.4,3.3,27.7,1.9,29.9-9.8c9.4,6.6,20.6,10.4,32,11.1c-0.1,30.7-0.3,61.4-0.4,92.2
			c0,7-0.2,14.3-3.5,20.3c-2.9,5.3-7.7,9.1-11.4,13.8c-6.9,9-8.9,21.4-5.2,32.1c9.2-3.5,16.5-11.7,19-21.2
			c7.1,6.4,2.9,22.2,12.2,24.4c5.7,1.4,10.4-4.8,11.9-10.5s1.7-12.1,5.7-16.3c8.1,5.6,4.2,24.5,14,23.4c4.2-0.5,6.3-5.3,7.1-9.5
			c5.1-28.6-15.5-59.3-4-86c5-11.5,15.1-19.8,23.2-29.3c16.5-19.6,24.8-46.9,18.4-71.8c-9.5-36.7-34.8-37.7-64.1-47.2
			c-27.3-8.8-4.8-55.5-7.5-81.2c-0.5-4.8-1.2-10,1.3-14.3c1.7-3,4.7-4.9,7.7-6.5c18.4-9.7,42-8.9,57.7-22.5
			c10.3-8.9,15.1-22.4,19.1-35.4c8.2-27.4,13.7-55.6,16.4-84.2c0.7-7,1.3-14.4,5.5-20.1c2.7-3.7,6.7-6.3,10-9.5
			c10.5-10,13.6-26.9,7.7-40c-11-3-23.7,5.7-24.9,17.1c-0.1-11.5-10.9-21.9-22.4-21.5c0.4,6.6,0.9,13.2,1.3,19.7
			c-6.1-6.9-16.1-10.3-25.1-8.4c-2.7,15.1,5.6,31.6,19.3,38.5c-13.3,25.9-21.8,54.2-25.2,83.2c-7.8-1.3-15.8-0.9-23.5,1.1
			c-3.7-38.5-12.2-82.9-46.5-100.7c-25.9-13.5-61.4-4.1-77.3,20.4c-20.4,31.6-10.5,80.5-40.8,102.7c-17-14.5-36-26.7-56.3-36.1
			c0.6-13.5-1-27.1-4.6-40.2c-0.7-2.8-1.8-5.7-4.2-7.2c-4-2.4-9.5,0.8-11,5.2c-1.6,4.4-0.4,9.2,0.7,13.7c-4.2-4.7-9.9-8.1-16-9.7
			c0.3,7.7,0.7,15.4,1,23c-8.6-6.1-19.2-9.3-29.8-9c2.9,12.6,11.7,23.7,23.3,29.4c4.9,2.4,10.3,4,14,8c4.1,4.5,5.1,10.9,6.6,16.8
			c7.1,27,31.8,48.6,59.7,51.7c-1,41.4-7.2,90.3,5.5,130.3"/>
	</g>
	<g>
		
			<linearGradient id="SVGID_4_" gradientUnits="userSpaceOnUse" x1="-28.9772" y1="-941.0304" x2="362.4145" y2="-941.0304" gradientTransform="matrix(-0.9974 7.315013e-02 7.315013e-02 0.9974 1563.9369 1218.6718)">
			<stop  offset="0" style="stop-color:#75CBCA"/>
			<stop  offset="1" style="stop-color:#75CBCA;stop-opacity:0"/>
		</linearGradient>
		<path class="st6" d="M1423.2,245c-5.3-8-0.5-19.1,6.7-25.5c7.2-6.3,16.5-9.7,24.1-15.6c14.5-11.3,20.8-31.4,17.5-49.4
			c-3.4-18.1-15.5-33.8-31.2-43.5c-11.8-7.4-25.5-11.5-36.8-19.5s-20.4-22-16.5-35.4c2.2-7.5,8.1-13.3,11.7-20.3s4.4-16.9-2.1-21.4
			c-6.2,9.7-12.3,19.3-18.5,29c-2.4-8.2-4.8-16.3-7.2-24.5c-1-3.4-2.6-7.4-6.1-7.9c-3.1-0.5-5.8,2.1-7.6,4.6
			c-6.4,9.2-8.3,21.3-5,31.9c-0.9-11.9-8.9-22.9-19.9-27.5c-10.7,14.4,1.7,33.8,11.9,48.6c15.5,22.5,26.2,48,36.7,73.2
			c4.6,10.9,8.6,25,0.2,33.2c-8.4,8.3-22.3,4.2-33.9,1.2c-11.5-3-27.8-1.1-29.6,10.6c-9.6-6.3-20.9-9.9-32.3-10.2
			c-0.7-30.7-1.5-61.4-2.2-92.1c-0.2-7-0.2-14.3,2.9-20.4c2.7-5.3,7.5-9.3,11-14.1c6.6-9.2,8.3-21.7,4.3-32.3
			c-9.1,3.8-16.2,12.2-18.4,21.8c-7.2-6.2-3.5-22.1-12.9-24c-5.7-1.2-10.3,5.1-11.6,10.8c-1.3,5.7-1.3,12.2-5.3,16.5
			c-8.3-5.4-4.9-24.4-14.7-23c-4.2,0.6-6.2,5.5-6.8,9.7c-4.3,28.8,17.2,58.8,6.4,85.8c-4.6,11.6-14.5,20.2-22.3,30
			c-16,20.1-23.5,47.6-16.4,72.2c10.5,36.4,35.9,36.7,65.4,45.4c27.5,8.1,6.4,55.4,9.8,81c0.6,4.8,1.5,10-0.9,14.3
			c-1.6,3-4.5,5-7.5,6.7c-18.1,10.2-41.7,10.1-57.1,24.1c-10,9.2-14.5,22.8-18.1,36c-7.4,27.6-12.1,56-14,84.6
			c-0.5,7-0.9,14.5-4.9,20.3c-2.6,3.8-6.5,6.5-9.7,9.8c-10.2,10.3-12.9,27.2-6.5,40.2c11.1,2.7,23.6-6.4,24.4-17.8
			c0.4,11.5,11.5,21.6,23,20.8c-0.6-6.5-1.3-13.1-1.9-19.7c6.3,6.7,16.4,9.8,25.4,7.7c2.2-15.2-6.5-31.4-20.4-37.9
			c12.6-26.3,20.3-54.8,22.8-83.8c7.8,1.1,15.9,0.5,23.5-1.8c4.8,38.3,14.5,82.5,49.3,99.3c26.3,12.7,61.4,2.3,76.6-22.6
			c19.5-32.1,8.2-80.7,37.9-103.8c17.4,14.1,36.7,25.7,57.3,34.5c-0.2,13.5,1.8,27.1,5.7,40.1c0.8,2.8,1.9,5.7,4.4,7.1
			c4.1,2.3,9.4-1.1,10.8-5.6c1.5-4.4,0.2-9.2-1-13.7c4.4,4.6,10.1,7.9,16.3,9.2c-0.5-7.6-1.1-15.3-1.6-23c8.8,5.9,19.5,8.8,30,8.1
			c-3.3-12.5-12.4-23.4-24.2-28.7c-4.9-2.3-10.4-3.7-14.2-7.6c-4.2-4.4-5.4-10.8-7-16.6c-7.8-26.8-33.2-47.7-61.1-50
			c-0.1-41.4,4.7-90.5-9.2-130.1L1423.2,245z"/>
	</g>
	<g>
		
			<linearGradient id="SVGID_5_" gradientUnits="userSpaceOnUse" x1="1845.9661" y1="-1044.4662" x2="2237.3577" y2="-1044.4662" gradientTransform="matrix(0.999 -4.485445e-02 -4.485445e-02 -0.999 -342.3072 -651.3548)">
			<stop  offset="0" style="stop-color:#F17AA9"/>
			<stop  offset="1" style="stop-color:#F17AA9;stop-opacity:0"/>
		</linearGradient>
		<path class="st7" d="M1648.5,345.2c5,8.2,0,19.1-7.4,25.3c-7.4,6.1-16.8,9.2-24.5,14.9c-14.8,10.9-21.7,30.8-18.9,48.9
			c2.8,18.2,14.6,34.3,29.9,44.4c11.6,7.7,25.1,12.2,36.2,20.6s19.8,22.6,15.5,35.8c-2.4,7.5-8.4,13.1-12.3,19.9
			c-3.8,6.8-4.9,16.7,1.4,21.4c6.5-9.5,12.9-19,19.3-28.5c2.2,8.2,4.3,16.4,6.5,24.7c0.9,3.4,2.4,7.4,5.8,8.1
			c3.1,0.6,5.9-1.9,7.7-4.4c6.6-9,8.9-21,5.9-31.8c0.6,11.9,8.3,23.2,19.1,28c11.1-14.1-0.8-33.9-10.5-48.9
			c-14.8-23-24.8-48.7-34.6-74.2c-4.3-11-7.9-25.2,0.7-33.2c8.7-8.1,22.5-3.5,33.9-0.3s27.7,1.9,29.9-9.8c9.4,6.6,20.6,10.4,32,11.1
			c-0.1,30.7-0.3,61.4-0.4,92.2c0,7-0.2,14.3-3.5,20.3c-2.9,5.3-7.7,9.1-11.4,13.8c-6.9,9-8.9,21.4-5.2,32.1
			c9.2-3.5,16.5-11.7,19-21.2c7.1,6.4,2.9,22.2,12.2,24.4c5.7,1.4,10.4-4.8,11.9-10.5c1.5-5.7,1.7-12.1,5.7-16.3
			c8.1,5.6,4.2,24.5,14,23.4c4.2-0.5,6.3-5.3,7.1-9.5c5.1-28.6-15.5-59.3-4-86c5-11.5,15.1-19.8,23.2-29.3
			c16.5-19.6,24.8-46.9,18.4-71.8c-9.5-36.7-34.8-37.7-64.1-47.2c-27.3-8.8-4.8-55.5-7.5-81.2c-0.5-4.8-1.2-10,1.3-14.3
			c1.7-3,4.7-4.9,7.7-6.5c18.4-9.7,42-8.9,57.7-22.5c10.3-8.9,15.1-22.4,19.1-35.4c8.2-27.4,13.7-55.6,16.4-84.2
			c0.7-7,1.3-14.4,5.5-20.1c2.7-3.7,6.7-6.3,10-9.5c10.5-10,13.6-26.9,7.7-40c-11-3-23.7,5.7-24.9,17.1
			c-0.1-11.5-10.9-21.9-22.4-21.5c0.4,6.6,0.9,13.2,1.3,19.7c-6.1-6.9-16.1-10.3-25.1-8.4c-2.7,15.1,5.6,31.6,19.3,38.5
			c-13.3,25.9-21.8,54.2-25.2,83.2c-7.8-1.3-15.8-0.9-23.5,1.1c-3.7-38.5-12.2-82.9-46.5-100.7c-25.9-13.5-61.4-4.1-77.3,20.4
			c-20.4,31.6-10.5,80.5-40.8,102.7c-17-14.5-36-26.7-56.3-36.1c0.6-13.5-1-27.1-4.6-40.2c-0.7-2.8-1.8-5.7-4.2-7.2
			c-4-2.4-9.5,0.8-11,5.2c-1.6,4.4-0.4,9.2,0.7,13.7c-4.2-4.7-9.9-8.1-16-9.7c0.3,7.7,0.7,15.4,1,23c-8.6-6.1-19.2-9.3-29.8-9
			c2.9,12.6,11.7,23.7,23.3,29.4c4.9,2.4,10.3,4,14,8c4.1,4.5,5.1,10.9,6.6,16.8c7.1,27,31.8,48.6,59.7,51.7
			c-1,41.4-7.2,90.3,5.5,130.3"/>
	</g>
	<g>
		
			<linearGradient id="SVGID_6_" gradientUnits="userSpaceOnUse" x1="-802.2321" y1="-884.1187" x2="-410.8404" y2="-884.1187" gradientTransform="matrix(-0.9974 7.315013e-02 7.315013e-02 0.9974 1563.9369 1218.6718)">
			<stop  offset="0" style="stop-color:#75CBCA"/>
			<stop  offset="1" style="stop-color:#75CBCA;stop-opacity:0"/>
		</linearGradient>
		<path class="st8" d="M2198.6,245.2c-5.3-8-0.5-19.1,6.7-25.5c7.2-6.3,16.5-9.7,24.1-15.6c14.5-11.3,20.8-31.4,17.5-49.4
			c-3.4-18.1-15.5-33.8-31.2-43.5c-11.8-7.4-25.5-11.5-36.8-19.5c-11.3-8.1-20.4-22-16.5-35.4c2.2-7.5,8.1-13.3,11.7-20.3
			c3.7-6.9,4.4-16.9-2.1-21.4c-6.2,9.7-12.3,19.3-18.5,29c-2.4-8.2-4.8-16.3-7.2-24.5c-1-3.4-2.6-7.4-6.1-7.9
			c-3.1-0.5-5.8,2.1-7.6,4.6c-6.4,9.2-8.3,21.3-5,31.9c-0.9-11.9-8.9-22.9-19.9-27.5c-10.7,14.4,1.7,33.8,11.9,48.6
			c15.5,22.5,26.2,48,36.7,73.2c4.6,10.9,8.6,25,0.2,33.2c-8.4,8.3-22.3,4.2-33.9,1.2c-11.5-3-27.8-1.1-29.6,10.6
			c-9.6-6.3-20.9-9.9-32.3-10.2c-0.7-30.7-1.5-61.4-2.2-92.1c-0.2-7-0.2-14.3,2.9-20.4c2.7-5.3,7.5-9.3,11-14.1
			c6.6-9.2,8.3-21.7,4.3-32.3c-9.1,3.8-16.2,12.2-18.4,21.8c-7.2-6.2-3.5-22.1-12.9-24c-5.7-1.2-10.3,5.1-11.6,10.8
			c-1.3,5.7-1.3,12.2-5.3,16.5c-8.3-5.4-4.9-24.4-14.7-23c-4.2,0.6-6.2,5.5-6.8,9.7c-4.3,28.8,17.2,58.8,6.4,85.8
			c-4.6,11.6-14.5,20.2-22.3,30c-16,20.1-23.5,47.6-16.4,72.2c10.5,36.4,35.9,36.7,65.4,45.4c27.5,8.1,6.4,55.4,9.8,81
			c0.6,4.8,1.5,10-0.9,14.3c-1.6,3-4.5,5-7.5,6.7c-18.1,10.2-41.7,10.1-57.1,24.1c-10,9.2-14.5,22.8-18.1,36
			c-7.4,27.6-12.1,56-14,84.6c-0.5,7-0.9,14.5-4.9,20.3c-2.6,3.8-6.5,6.5-9.7,9.8c-10.2,10.3-12.9,27.2-6.5,40.2
			c11.1,2.7,23.6-6.4,24.4-17.8c0.4,11.5,11.5,21.6,23,20.8c-0.6-6.5-1.3-13.1-1.9-19.7c6.3,6.7,16.4,9.8,25.4,7.7
			c2.2-15.2-6.5-31.4-20.4-37.9c12.6-26.3,20.3-54.8,22.8-83.8c7.8,1.1,15.9,0.5,23.5-1.8c4.8,38.3,14.5,82.5,49.3,99.3
			c26.3,12.7,61.4,2.3,76.6-22.6c19.5-32.1,8.2-80.7,37.9-103.8c17.4,14.1,36.7,25.7,57.3,34.5c-0.2,13.5,1.8,27.1,5.7,40.1
			c0.8,2.8,1.9,5.7,4.4,7.1c4.1,2.3,9.4-1.1,10.8-5.6c1.5-4.4,0.2-9.2-1-13.7c4.4,4.6,10.1,7.9,16.3,9.2c-0.5-7.6-1.1-15.3-1.6-23
			c8.8,5.9,19.5,8.8,30,8.1c-3.3-12.5-12.4-23.4-24.2-28.7c-4.9-2.3-10.4-3.7-14.2-7.6c-4.2-4.4-5.4-10.8-7-16.6
			c-7.8-26.8-33.2-47.7-61.1-50c-0.1-41.4,4.7-90.5-9.2-130.1L2198.6,245.2z"/>
	</g>
	<g>
		
			<linearGradient id="SVGID_7_" gradientUnits="userSpaceOnUse" x1="2593.2551" y1="-1078.0178" x2="2984.6467" y2="-1078.0178" gradientTransform="matrix(0.999 -4.485445e-02 -4.485445e-02 -0.999 -342.3072 -651.3548)">
			<stop  offset="0" style="stop-color:#F17AA9"/>
			<stop  offset="1" style="stop-color:#F17AA9;stop-opacity:0"/>
		</linearGradient>
		<path class="st9" d="M2396.6,345.2c5,8.2,0,19.1-7.4,25.3c-7.4,6.1-16.8,9.2-24.5,14.9c-14.8,10.9-21.7,30.8-18.9,48.9
			c2.8,18.2,14.6,34.3,29.9,44.4c11.6,7.7,25.1,12.2,36.2,20.6c11.1,8.4,19.8,22.6,15.5,35.8c-2.4,7.5-8.4,13.1-12.3,19.9
			c-3.8,6.8-4.9,16.7,1.4,21.4c6.5-9.5,12.9-19,19.3-28.5c2.2,8.2,4.3,16.4,6.5,24.7c0.9,3.4,2.4,7.4,5.8,8.1
			c3.1,0.6,5.9-1.9,7.7-4.4c6.6-9,8.9-21,5.9-31.8c0.6,11.9,8.3,23.2,19.1,28c11.1-14.1-0.8-33.9-10.5-48.9
			c-14.8-23-24.8-48.7-34.6-74.2c-4.3-11-7.9-25.2,0.7-33.2c8.7-8.1,22.5-3.5,33.9-0.3s27.7,1.9,29.9-9.8c9.4,6.6,20.6,10.4,32,11.1
			c-0.1,30.7-0.3,61.4-0.4,92.2c0,7-0.2,14.3-3.5,20.3c-2.9,5.3-7.7,9.1-11.4,13.8c-6.9,9-8.9,21.4-5.2,32.1
			c9.2-3.5,16.5-11.7,19-21.2c7.1,6.4,2.9,22.2,12.2,24.4c5.7,1.4,10.4-4.8,11.9-10.5c1.5-5.7,1.7-12.1,5.7-16.3
			c8.1,5.6,4.2,24.5,14,23.4c4.2-0.5,6.3-5.3,7.1-9.5c5.1-28.6-15.5-59.3-4-86c5-11.5,15.1-19.8,23.2-29.3
			c16.5-19.6,24.8-46.9,18.4-71.8c-9.5-36.7-34.8-37.7-64.1-47.2c-27.3-8.8-4.8-55.5-7.5-81.2c-0.5-4.8-1.2-10,1.3-14.3
			c1.7-3,4.7-4.9,7.7-6.5c18.4-9.7,42-8.9,57.7-22.5c10.3-8.9,15.1-22.4,19.1-35.4c8.2-27.4,13.7-55.6,16.4-84.2
			c0.7-7,1.3-14.4,5.5-20.1c2.7-3.7,6.7-6.3,10-9.5c10.5-10,13.6-26.9,7.7-40c-11-3-23.7,5.7-24.9,17.1
			c-0.1-11.5-10.9-21.9-22.4-21.5c0.4,6.6,0.9,13.2,1.3,19.7c-6.1-6.9-16.1-10.3-25.1-8.4c-2.7,15.1,5.6,31.6,19.3,38.5
			c-13.3,25.9-21.8,54.2-25.2,83.2c-7.8-1.3-15.8-0.9-23.5,1.1c-3.7-38.5-12.2-82.9-46.5-100.7c-25.9-13.5-61.4-4.1-77.3,20.4
			c-20.4,31.6-10.5,80.5-40.8,102.7c-17-14.5-36-26.7-56.3-36.1c0.6-13.5-1-27.1-4.6-40.2c-0.7-2.8-1.8-5.7-4.2-7.2
			c-4-2.4-9.5,0.8-11,5.2c-1.6,4.4-0.4,9.2,0.7,13.7c-4.2-4.7-9.9-8.1-16-9.7c0.3,7.7,0.7,15.4,1,23c-8.6-6.1-19.2-9.3-29.8-9
			c2.9,12.6,11.7,23.7,23.3,29.4c4.9,2.4,10.3,4,14,8c4.1,4.5,5.1,10.9,6.6,16.8c7.1,27,31.8,48.6,59.7,51.7
			c-1,41.4-7.2,90.3,5.5,130.3"/>
	</g>
	<g>
		
			<linearGradient id="SVGID_8_" gradientUnits="userSpaceOnUse" x1="-1548.27" y1="-829.4014" x2="-1156.8784" y2="-829.4014" gradientTransform="matrix(-0.9974 7.315013e-02 7.315013e-02 0.9974 1563.9369 1218.6718)">
			<stop  offset="0" style="stop-color:#75CBCA"/>
			<stop  offset="1" style="stop-color:#75CBCA;stop-opacity:0"/>
		</linearGradient>
		<path class="st10" d="M2946.6,245.2c-5.3-8-0.5-19.1,6.7-25.5c7.2-6.3,16.5-9.7,24.1-15.6c14.5-11.3,20.8-31.4,17.5-49.4
			c-3.4-18.1-15.5-33.8-31.2-43.5c-11.8-7.4-25.5-11.5-36.8-19.5c-11.3-8.1-20.4-22-16.5-35.4c2.2-7.5,8.1-13.3,11.7-20.3
			c3.7-6.9,4.4-16.9-2.1-21.4c-6.2,9.7-12.3,19.3-18.5,29c-2.4-8.2-4.8-16.3-7.2-24.5c-1-3.4-2.6-7.4-6.1-7.9
			c-3.1-0.5-5.8,2.1-7.6,4.6c-6.4,9.2-8.3,21.3-5,31.9c-0.9-11.9-8.9-22.9-19.9-27.5c-10.7,14.4,1.7,33.8,11.9,48.6
			c15.5,22.5,26.2,48,36.7,73.2c4.6,10.9,8.6,25,0.2,33.2c-8.4,8.3-22.3,4.2-33.9,1.2s-27.8-1.1-29.6,10.6
			c-9.6-6.3-20.9-9.9-32.3-10.2c-0.7-30.7-1.5-61.4-2.2-92.1c-0.2-7-0.2-14.3,2.9-20.4c2.7-5.3,7.5-9.3,11-14.1
			c6.6-9.2,8.3-21.7,4.3-32.3c-9.1,3.8-16.2,12.2-18.4,21.8c-7.2-6.2-3.5-22.1-12.9-24c-5.7-1.2-10.3,5.1-11.6,10.8
			c-1.3,5.7-1.3,12.2-5.3,16.5c-8.3-5.4-4.9-24.4-14.7-23c-4.2,0.6-6.2,5.5-6.8,9.7c-4.3,28.8,17.2,58.8,6.4,85.8
			c-4.6,11.6-14.5,20.2-22.3,30c-16,20.1-23.5,47.6-16.4,72.2c10.5,36.4,35.9,36.7,65.4,45.4c27.5,8.1,6.4,55.4,9.8,81
			c0.6,4.8,1.5,10-0.9,14.3c-1.6,3-4.5,5-7.5,6.7c-18.1,10.2-41.7,10.1-57.1,24.1c-10,9.2-14.5,22.8-18.1,36
			c-7.4,27.6-12.1,56-14,84.6c-0.5,7-0.9,14.5-4.9,20.3c-2.6,3.8-6.5,6.5-9.7,9.8c-10.2,10.3-12.9,27.2-6.5,40.2
			c11.1,2.7,23.6-6.4,24.4-17.8c0.4,11.5,11.5,21.6,23,20.8c-0.6-6.5-1.3-13.1-1.9-19.7c6.3,6.7,16.4,9.8,25.4,7.7
			c2.2-15.2-6.5-31.4-20.4-37.9c12.6-26.3,20.3-54.8,22.8-83.8c7.8,1.1,15.9,0.5,23.5-1.8c4.8,38.3,14.5,82.5,49.3,99.3
			c26.3,12.7,61.4,2.3,76.6-22.6c19.5-32.1,8.2-80.7,37.9-103.8c17.4,14.1,36.7,25.7,57.3,34.5c-0.2,13.5,1.8,27.1,5.7,40.1
			c0.8,2.8,1.9,5.7,4.4,7.1c4.1,2.3,9.4-1.1,10.8-5.6c1.5-4.4,0.2-9.2-1-13.7c4.4,4.6,10.1,7.9,16.3,9.2c-0.5-7.6-1.1-15.3-1.6-23
			c8.8,5.9,19.5,8.8,30,8.1c-3.3-12.5-12.4-23.4-24.2-28.7c-4.9-2.3-10.4-3.7-14.2-7.6c-4.2-4.4-5.4-10.8-7-16.6
			c-7.8-26.8-33.2-47.7-61.1-50c-0.1-41.4,4.7-90.5-9.2-130.1L2946.6,245.2z"/>
	</g>
</g>
</svg>
