<?xml version="1.0" encoding="utf-8"?>
<!-- Generator: Adobe Illustrator 22.1.0, SVG Export Plug-In . SVG Version: 6.00 Build 0)  -->
<svg version="1.1" xmlns="http://www.w3.org/2000/svg" xmlns:xlink="http://www.w3.org/1999/xlink" x="0px" y="0px"
	 viewBox="0 0 1449.6 1254.5" style="enable-background:new 0 0 1449.6 1254.5;" xml:space="preserve">
<style type="text/css">
	.st0{display:none;}
	.st1{display:inline;}
	.st2{fill:#FFFFFF;}
	.st3{fill:url(#SVGID_1_);}
	.st4{fill:url(#SVGID_2_);}
	.st5{fill:url(#SVGID_3_);}
	.st6{fill:url(#SVGID_4_);}
	.st7{fill:url(#SVGID_5_);}
</style>
<g id="Слой_3">
	<g class="st0">
		<g class="st1">
			<path class="st2" d="M724.9-280.6c5.8,0,5.8-9,0-9C719.1-289.6,719.1-280.6,724.9-280.6L724.9-280.6z"/>
		</g>
	</g>
	<g id="Слой_5">
	</g>
</g>
<g id="Слой_2">
</g>
<g id="Слой_1">
</g>
<g id="Слой_4">
	<g>
		<g>
			<path class="st2" d="M2766.7,1519.1c12.9,0,12.9-20,0-20C2753.8,1499.1,2753.8,1519.1,2766.7,1519.1L2766.7,1519.1z"/>
		</g>
	</g>
	<g>
		<linearGradient id="SVGID_1_" gradientUnits="userSpaceOnUse" x1="317.6426" y1="732.5104" x2="1817.163" y2="732.5104">
			<stop  offset="0" style="stop-color:#763FF5"/>
			<stop  offset="8.104094e-02" style="stop-color:#7248F2"/>
			<stop  offset="0.2158" style="stop-color:#6862E9"/>
			<stop  offset="0.3876" style="stop-color:#578BDB"/>
			<stop  offset="0.5674" style="stop-color:#43BEC9"/>
			<stop  offset="0.8652" style="stop-color:#E828CB"/>
			<stop  offset="0.9944" style="stop-color:#FF1E44"/>
		</linearGradient>
		<path class="st3" d="M1728.2,658.7c-81,4.4-144.8-68.7-179.8-141.8s-57.4-156.2-116.9-211.2c-62.2-57.5-157.7-72-238-45.2
			s-145.2,91-183.1,166.9c-7.9,15.9-15.1,32.8-28.1,44.9c-11.8,11-27.4,17-42.9,21.3c-69.8,18.9-144.7,6-212.7-18.7
			S595.3,414.3,529,385.6c-39.4-17.1-84.5-31.7-124.5-16.1c-27,10.5-47.4,33.6-61.4,58.9c-29.8,54-33.7,121.6-10.1,178.6
			c23.5,57,74,102.2,133.2,119.4c42.6,12.4,91.9,12.3,124.5,42.5c42,38.9,32.3,112.4-6.7,154.3c-29.7,31.9-74.7,54.4-84.5,96.8
			c-6.7,29,6.1,59.7,25.8,82.1c32.7,37.2,82.8,55.5,132.2,59.3c49.4,3.8,98.8-5.6,147.2-16c39.6-8.5,80.3-18.4,112.3-43.1
			c18.6-14.4,33.4-33.2,52.2-47.3c36.4-27.1,86-33.4,129.7-21.3c43.7,12,81.6,41.1,109.3,77c19.7,25.5,35.2,55.1,60.7,74.7
			c33.4,25.8,78.2,30.1,120.4,31.6c40.6,1.5,84,0.4,117.8-22c56-37.1,63.8-117.8,46.6-182.8c-9.8-37.1-25.8-75.2-16.8-112.4
			c10.9-45.2,55.8-74.3,100.5-87.2c44.7-12.9,92.2-14.4,136.3-29.1c19.9-6.6,41.6-19.5,43.4-40.4c1.9-22.8-21-39.6-42.1-48.4
			c-21.2-8.9-45.8-16.9-55.4-37.7"/>
	</g>
	<g>
		<linearGradient id="SVGID_2_" gradientUnits="userSpaceOnUse" x1="489.9174" y1="173.9025" x2="930.1158" y2="173.9025">
			<stop  offset="0" style="stop-color:#763FF5"/>
			<stop  offset="8.104094e-02" style="stop-color:#7248F2"/>
			<stop  offset="0.2158" style="stop-color:#6862E9"/>
			<stop  offset="0.3876" style="stop-color:#578BDB"/>
			<stop  offset="0.5674" style="stop-color:#43BEC9"/>
			<stop  offset="0.8652" style="stop-color:#E828CB"/>
			<stop  offset="0.9944" style="stop-color:#FF1E44"/>
		</linearGradient>
		<path class="st4" d="M772.7,51.5c49.8,0.1,66.2,5.9,84.8,16.1s39.2,18.3,52.7,34.6c13.5,16.3,15.8,44.5-1.8,56.2
			c-6.7,4.5-15.8,6.3-20,13.2c-8.2,13.4,8.4,27.4,19.9,38.2c26.1,24.5,29.4,69.5,7.2,97.6c-22.2,28.1-66.7,35.3-96.6,15.6
			c-22.4-14.7-35-40.6-55.7-57.8c-29.8-24.7-76-27-108.1-5.4c-10.6,7.1-19.5,16.4-30.1,23.6c-12.5,8.6-27.1,14.1-42.2,15.9
			c-34.1,4.1-70.8-13.1-86-43.8s-4.6-73,25.2-89.9c31.5-17.8,76.2-7.3,101.8-32.9c20.5-20.5,18.8-55,36-78.2
			c14.4-19.5,39.3-27.6,62.8-33.8c19-5,38.9-9.5,58.2-5.9c19.3,3.6,38.1,17.3,41.6,36.6"/>
		<g>
			<linearGradient id="SVGID_3_" gradientUnits="userSpaceOnUse" x1="489.4174" y1="173.9164" x2="930.6158" y2="173.9164">
				<stop  offset="0" style="stop-color:#763FF5"/>
				<stop  offset="8.104094e-02" style="stop-color:#7248F2"/>
				<stop  offset="0.2158" style="stop-color:#6862E9"/>
				<stop  offset="0.3876" style="stop-color:#578BDB"/>
				<stop  offset="0.5674" style="stop-color:#43BEC9"/>
				<stop  offset="0.8652" style="stop-color:#E828CB"/>
				<stop  offset="0.9944" style="stop-color:#FF1E44"/>
			</linearGradient>
			<path class="st5" d="M772.7,54c20.4,0.1,41.6,0.4,61.3,6.2c6.2,1.8,12.2,4.3,17.9,7.3c9.5,4.9,19,9.8,28.4,14.9
				c19.6,10.8,38.7,26.4,38.1,50.9c-0.3,10.8-5.2,19.9-14.8,25c-8.3,4.4-18.4,8-19.8,18.7c-1.3,9.9,6.3,18.5,12.7,25.1
				c8,8.1,16.4,15,22,25.1c10.3,18.6,11.9,41.8,4.5,61.7c-16.3,43.3-75.2,55.8-109.8,26.8c-17.9-15-29.4-36.1-47.1-51.2
				c-16.5-14.2-38.1-21.6-59.8-21.9c-22.7-0.3-43.7,7.6-61.4,21.7c-10.4,8.4-20.1,17.4-32.1,23.4c-11.5,5.8-24.3,9.2-37.2,9.7
				c-22.6,0.8-45.7-7.6-62-23.3c-15.9-15.2-23.5-36.6-20.7-58.4c2.6-20.4,14.1-39.7,32.7-49.2c19.7-10.1,42.7-9.9,63.9-14.4
				c20.6-4.5,37.9-14.5,47.4-34c9.4-19.3,11.2-41.9,23.3-59.9c13.7-20.5,38.8-28.5,61.5-34.6c25.9-6.9,56-13.6,80,2.5
				c9.2,6.2,16,15.1,18.3,26.1c0.6,3.2,5.5,1.8,4.8-1.3c-4.5-22.4-26.3-36.3-47.8-39.1c-14.8-1.9-29.6,0.4-44,3.8
				c-12.7,3-25.4,6.3-37.5,11.1c-11.1,4.4-21.9,10-30.6,18.3c-8.1,7.7-13.5,17.4-17.5,27.8c-8.1,21.2-10.7,47-29.6,62
				c-18.4,14.6-44.1,14.5-66.1,18.5c-21.1,3.9-40.4,12.2-52.5,30.7c-11.4,17.4-14.8,39.9-9.5,60c5.6,21.1,21.3,38.2,40.4,48.1
				c21,10.9,45.4,13.3,68.1,6.7c12.5-3.6,23.9-9.7,34.1-17.7c10.8-8.4,20.5-18.1,32.8-24.3c22.1-11.2,48.9-12.1,72-3.6
				c24.5,9,39.1,29.1,55.3,48.3c15.1,18,32.6,31.9,56.6,34.6c20.8,2.3,42.6-3.9,58.7-17.4c16.8-14,25.3-35.8,24.8-57.4
				c-0.5-22.1-9.9-41.4-25.9-56.4c-7.6-7.1-23.7-20.3-16.2-32.1c2.9-4.6,8.5-6.7,13.1-9c4.9-2.4,9.3-5.2,12.7-9.5
				c12-15.2,7.6-38.6-3.7-52.9c-7.7-9.8-18.4-16.9-29.2-23c-9.8-5.4-19.8-10.6-29.8-15.7c-13.6-6.9-28-10.4-43.1-12
				c-12.6-1.4-25.3-1.7-37.9-1.7C769.5,49,769.5,54,772.7,54L772.7,54z"/>
		</g>
	</g>
	<g>
		<linearGradient id="SVGID_4_" gradientUnits="userSpaceOnUse" x1="128.0247" y1="877.6844" x2="434.6941" y2="877.6844">
			<stop  offset="0" style="stop-color:#763FF5"/>
			<stop  offset="8.104094e-02" style="stop-color:#7248F2"/>
			<stop  offset="0.2158" style="stop-color:#6862E9"/>
			<stop  offset="0.3876" style="stop-color:#578BDB"/>
			<stop  offset="0.5674" style="stop-color:#43BEC9"/>
			<stop  offset="0.8652" style="stop-color:#E828CB"/>
			<stop  offset="0.9944" style="stop-color:#FF1E44"/>
		</linearGradient>
		<path class="st6" d="M319.6,943.1c6.5-13.8,19.1-24.6,33.6-28.9c15.4-4.6,32.3-2.3,47.4-7.8c25.4-9.3,38.7-40.3,32.5-66.6
			c-6.2-26.3-28.4-46.9-53.7-56.3c-25.3-9.5-53.3-9.2-80-5.1c-22.1,3.4-47.7,8.3-64.3-6.7c-7-6.4-11.4-15.8-19.6-20.5
			c-11.3-6.6-25.9-2-37.3,4.4c-25,14.1-45.3,38.4-49.5,66.9c-4.2,28.4,10.6,60,37.2,70.6c10.8,4.3,23.2,5.4,32.1,12.9
			c18.3,15.4,9.9,45.1,16.8,68c9.6,31.9,56.2,44.8,80.9,22.4c20.6-18.7,22.3-50.9,39.4-72.8"/>
		<g>
			<linearGradient id="SVGID_5_" gradientUnits="userSpaceOnUse" x1="127.5247" y1="877.6322" x2="435.1941" y2="877.6322">
				<stop  offset="0" style="stop-color:#763FF5"/>
				<stop  offset="8.104094e-02" style="stop-color:#7248F2"/>
				<stop  offset="0.2158" style="stop-color:#6862E9"/>
				<stop  offset="0.3876" style="stop-color:#578BDB"/>
				<stop  offset="0.5674" style="stop-color:#43BEC9"/>
				<stop  offset="0.8652" style="stop-color:#E828CB"/>
				<stop  offset="0.9944" style="stop-color:#FF1E44"/>
			</linearGradient>
			<path class="st7" d="M321.8,944.3c8-16.3,23-26.8,40.8-29.7c17.2-2.8,35.3-1.2,50.3-11.9c23.4-16.7,30-49.6,18.8-75.3
				c-13.5-30.8-45.5-48.4-77.6-52.8c-18.6-2.6-37.5-1.4-56,1.4c-16.1,2.5-34.1,6.2-50,0.5c-8.6-3.1-14.1-9.4-19.6-16.3
				c-4.9-6.2-10.3-11.8-18.2-13.9c-16-4.2-33,5.7-45.3,15c-24.8,18.6-42.9,48.4-38.8,80.3c1.8,14,7.6,27.4,16.9,38.1
				c4.7,5.4,10.4,10,16.7,13.3c7,3.7,14.8,5.4,22.3,7.8c8.6,2.7,16.3,6.8,20.8,14.9c3.6,6.5,4.8,14.2,5.4,21.5
				c1.2,14.1,0.3,29.2,6.1,42.5c9.9,22.7,37.7,34.2,61.3,29.4c31.4-6.3,39.3-38.9,50.3-64.3c3.1-7.1,6.7-13.8,11.4-20
				c1.9-2.6-2.4-5.1-4.3-2.5c-8.8,11.6-13.6,25.5-18.9,38.9c-5.2,13.3-11.5,27.8-23.7,36.3c-20,14-50.2,8-65.5-10.2
				c-18.3-21.9-3.6-54-19.4-76.8c-8.8-12.7-23.9-14.2-37.4-19.2c-13.8-5.2-24.4-16.2-30.8-29.3c-13.9-28.8-4.6-61.4,16.5-84
				c10.9-11.6,25.5-22.9,41.3-26.5c9.3-2.2,18.2-0.4,24.9,6.6c5.2,5.4,9,12.1,15,16.8c11.3,9.1,26.1,10.3,40,9.2
				c16.6-1.3,32.8-5,49.5-5.7c34.1-1.4,70.1,7.2,92.5,34.8c18.7,23,20.9,57.5-0.4,79.8c-12.2,12.7-28.3,14.2-45,15.7
				c-15.6,1.4-30,5.3-41.7,16.2c-5.2,4.8-9.4,10.6-12.5,17C316.1,944.7,320.4,947.2,321.8,944.3L321.8,944.3z"/>
		</g>
	</g>
</g>
</svg>
