<?xml version="1.0" encoding="utf-8"?>
<!-- Generator: Adobe Illustrator 22.1.0, SVG Export Plug-In . SVG Version: 6.00 Build 0)  -->
<svg version="1.1" id="Layer_1" xmlns="http://www.w3.org/2000/svg" xmlns:xlink="http://www.w3.org/1999/xlink" x="0px" y="0px"
	 viewBox="0 0 436 84" style="enable-background:new 0 0 436 84;" xml:space="preserve">
<style type="text/css">
	.st0{fill:none;stroke:#000000;stroke-miterlimit:10;}
	.st1{fill:none;stroke:#000000;stroke-width:0.7526;stroke-miterlimit:10;}
	.st2{stroke:#000000;stroke-width:0.7526;stroke-miterlimit:10;}
</style>
<path class="st0" d="M266.3,27.8c1.4,5.9,2.8,11.8,4.2,17.7c0.4-5.6,2.5-11,5.9-15.4c2.2,4.7,4.2,9.4,6.1,14.3
	c4.5-4.3,8-9.5,10.3-15.2c-1,16.3,0.6,32.7,4.9,48.5c-2.1-10.7-3-21.6-3.1-32.5c0-2.9,0-6,1.6-8.5c1.5-2.5,5.1-4,7.5-2.4
	c2.7,1.8,2.3,5.9,0.7,8.7c-1.2,2.1-4.3,3.9-5.8,2c-0.9-1.2-0.3-3.1,0.9-4c1.2-0.9,2.8-1.3,4.2-1.8c3.7-1.3,7-3.8,9.1-7.1
	c-1.5,1.9-2,4.7-1.1,7c0.3,0.9,0.9,1.7,1.7,2.3c2.6,1.6,6.3-2,5-4.8c-1.3-2.8-5.9-2.9-7.6-0.3c-0.3,1.9,1.6,3.6,3.6,3.8
	c1.9,0.2,3.8-0.6,5.6-1.4c1.7-0.8,3.4-1.6,5.1-2.3c2.4-1.1,5.2-4,3.3-5.8c-1.4,2.2-2.8,4.4-2.8,7c0,2.5,1.9,5.3,4.5,5.1
	c1.2-0.1,2.3-0.9,3.3-1.7c2.4-2.2,4-5.1,4.6-8.3c-0.3,4.1,1.1,8.4,3.9,11.5"/>
<path class="st0" d="M345.2,29.4c-2.2,2.4-3.9,5.3-5,8.4c-0.3,0.8-0.5,1.8,0.2,2.3c0.4,0.3,1,0.2,1.5,0.1c5-1.1,9.2-5.2,10.5-10.2
	c-0.7,4.7-0.2,9.6,1.3,14.1c-0.8-4.9,0.8-10.1,4.2-13.6c3.3,4,5.1,9.2,5,14.3c-1.1-4.5-0.1-9.5,2.6-13.3c1.2-1.7,3.5-3.2,5.1-2
	c0.6,0.4,1,1.2,1.3,1.9c1.3,3.4,1.1,7.2,1.6,10.9c0.5,3.6,1.8,7.5,5.1,9.3"/>
<path class="st0" d="M64.6,36.6c-16.8,4.1-34.3,3.5-51.6,2.8c2.3,5.3,7.8,9.1,13.6,9.4c-5.2-3.4-10.3-6.8-15.5-10.2
	c3-3.3,6.9-5.8,11.2-7.1"/>
<path class="st1" d="M413.9,41.7c1.8,1,2.5,3.7,1.7,5.6c-0.8,2-2.8,3.3-4.9,3.6c-2.3,0.3-4.7-0.5-6.1-2.3c-1.4-1.8-1.6-4.7-0.2-6.5
	c-4.1,2-9.5,0.3-11.8-3.8c-0.6-1.1-1-2.3-0.7-3.5c0.5-1.7,2.3-2.5,3.9-2.9c2.3-0.6,4.6-0.7,7-0.3c0.5-1.5-0.9-2.9-1.2-4.5
	c-0.4-2.2,1.4-4.2,3.3-5.4c1.5-0.9,3.3-1.6,4.8-1c2.6,1.1,2.7,4.8,2.3,7.7c1.6-2.7,5.6-3.7,8-1.7s2.3,6.5-0.4,8.1
	c1.9-0.4,4,0.6,4.9,2.3c0.9,1.7,0.6,4.1-0.7,5.5c-1.8,1.9-4.7,1.9-7.1,1.3c-1.6-0.4-3.4-1.5-3.3-3.1"/>
<path class="st2" d="M412.4,37.3c-0.7,2.8-4.9,3.8-6.8,1.6c-1.9-2.2-0.5-6.3,2.2-7c2.8-0.7,5.7,2,5.5,4.9c-0.1,1.1-0.5,2.1-0.9,3"/>
<path class="st0" d="M81.5,23.3c-0.9,10.2-0.7,20.5,0.7,30.7"/>
<path class="st0" d="M75.6,24.5c7.1-1.6,14.4-2.6,21.6-3c1.5,9.4,2.5,18.8,2.8,28.3"/>
<path class="st0" d="M105.7,33.2c-1.3,8.6-2.1,17.3-2.5,25.9"/>
<path class="st0" d="M104.6,38.6c0.7-1.6,2.7-2.3,4.4-1.8c1.7,0.5,2.9,1.9,3.7,3.4c1.1,2.3,1.3,5.3-0.4,7.2c-1.7,1.9-5.6,1.5-6.2-1"
	/>
<path class="st0" d="M115.1,41.3c2.6,0.2,5.6,0.3,7.7-1.4c2.1-1.6,2.3-5.6-0.2-6.5c-1.5-0.5-3.2,0.3-4.3,1.5
	c-2.6,2.7-3,7.7-0.1,10.2c2.9,2.5,8.4,0.6,8.5-3.2c0.9,2.8,2.1,5.4,3.4,8c1.9-1.8,3.9-3.6,4.9-6c1-2.4,0.6-5.6-1.6-7.1
	c-2.2-1.4-5.9,0.2-5.6,2.8c0.2,2,2.5,3.2,4.5,3c2-0.2,3.7-1.5,5.3-2.6c0.9,7.1,1.8,14.3,2.8,21.4c-3,0.2-2.6-4.6-1-7.1
	c3-4.7,5.9-9.5,8.9-14.2c-2.1,2.2-2,6,0.1,8.1c1.9-3.3,0.6-8-2.7-9.8c4.6-4.4,13.9,0.3,13.1,6.6c3-1.3,5.5-3.5,7.2-6.3
	c1.2,3,2.7,5.9,4.6,8.5c3.2-3.6,1.6-10.2-2.8-12.1c-0.8,4.8,3,8.9,5.5,13s3.2,10.8-1.4,12.5c0.5-8.8,4.1-17.4,9.9-24
	c-3,1.7-1,7.2,2.4,7.2c3.4,0,5.6-4.5,4.1-7.6c4.5,7,5.8,16,3.6,24c-4.1-2.6-1.8-9.1,1.6-12.5s7.8-7.3,6.9-12.1
	c-0.8,2.7-0.4,5.7,1,8.2c1.9-2.1,3.8-4.1,5.6-6.2c-0.9,2.5,1.8,5.5,4.4,4.8c2.6-0.6,3.6-4.5,1.6-6.3c4.7,4.4,6.4,11.6,4.3,17.7
	c-3.4-2.1-1-7.4,2-10c3-2.6,6.8-6.1,5.2-9.7c0.7,2.4,1.5,4.7,2.2,7.1c2.6-1.7,4.5-4.6,4.9-7.6c-0.2,3.5,1,7.1,3.3,9.8
	c3.5-2.3,6-6.1,6.7-10.2c0.8,2.4,1.6,4.9,2.4,7.3c3.2-1.6,5.1-5.4,4.6-8.9c2.7,5,5.3,10.1,8,15.1"/>
<path class="st0" d="M233,23.6c3,0,5.9-1.3,7.9-3.6"/>
</svg>
