<?xml version="1.0" encoding="utf-8"?>
<!-- Generator: Adobe Illustrator 22.1.0, SVG Export Plug-In . SVG Version: 6.00 Build 0)  -->
<svg version="1.1" id="Layer_1" xmlns="http://www.w3.org/2000/svg" xmlns:xlink="http://www.w3.org/1999/xlink" x="0px" y="0px"
	 viewBox="0 0 466.7 84" style="enable-background:new 0 0 466.7 84;" xml:space="preserve">
<style type="text/css">
	.st0{fill:none;stroke:#000000;stroke-miterlimit:10;}
	.st1{fill:none;stroke:#000000;stroke-width:0.7526;stroke-miterlimit:10;}
	.st2{stroke:#000000;stroke-width:0.7526;stroke-miterlimit:10;}
</style>
<path class="st0" d="M132,22c-0.8,14.9-1.6,29.7-2.4,44.6c-0.1,2.1-0.3,4.3-1.4,6.1c-1.2,1.8-3.7,2.8-5.4,1.6
	c-1.7-1.2-1.8-3.7-1.3-5.7c1.7-8,7.8-14.3,12.8-20.8c5-6.5,9.3-14.8,6.8-22.6c-0.8,4.4-0.7,8.9,0.2,13.3c0.2,0.9,0.6,1.9,1.5,2
	c0.5,0,1-0.3,1.5-0.7c4.7-4,7.8-9.6,8.8-15.7c0.9,11.7,1.1,23.5,0.4,35.2c-0.2,2.8-0.4,5.8-2,8.1c-1.6,2.3-4.9,3.7-7.3,2.2
	c-3-1.9-2.3-6.5-0.8-9.8c1.8-3.8,4.2-7.3,7.1-10.4c3-3.1,6.4-5.7,9-9.1c3.6-4.8,5.2-11,4.4-16.9c0.4,8-0.3,16.1-2.3,23.8
	c-0.4-4.7,0.1-9.5,1.5-14c1.3,3.1,6.3,2.9,8.5,0.4c2.3-2.5,2.6-6.2,2.8-9.6c-0.6,5.6,0.1,11.3,1.9,16.6c0.4,1.1,1,2.4,2.2,2.6
	c0.9,0.1,1.6-0.5,2.3-1.2c3.9-4.1,4.9-10.7,2.3-15.7c-1.1-2.2-3.1-4.2-5.6-4.2c-2.4,0-4.5,3.2-2.9,5.1"/>
<path class="st0" d="M189.9,23.4c-3.4,5.5-4.5,12.3-3,18.6c5-4.4,9.3-9.7,12.4-15.5c-1.9,5.1-1.4,11.1,1.3,15.8
	c4.5-3.4,7.4-8.8,7.8-14.4c3.5,10.6,6.4,21.4,8.5,32.4c0.4,1.9,0.7,3.9,0.2,5.8c-0.6,1.9-2.4,3.5-4.3,3.2c-1.4-0.2-2.5-1.5-3.2-2.7
	c-3.8-7,0.5-15.6,5.5-21.8c5-6.2,11-12.8,10.6-20.7c-0.8,5.1-1.2,10.3-1,15.5c2.8-3.6,5-7.6,6.5-11.8c0.8,3.7,1.6,7.4,2.4,11
	c0.2,1,0.7,2.2,1.7,2.1c0.6,0,1-0.5,1.3-0.9c3.1-3.7,5.9-7.6,8.3-11.7c-0.6,4.5-0.5,9,0.1,13.4c4.4-3.2,7.1-8.6,7.1-14
	c1.6,5,4.1,9.7,7.2,13.9"/>
<path class="st0" d="M237.2,19.2c1.9,1.7,4.7,2.2,7.1,1.3s4.2-3.1,4.5-5.6"/>
<path class="st0" d="M276.9,21.4c1.4,5.9,2.8,11.8,4.2,17.7c0.4-5.6,2.5-11,5.9-15.4c2.2,4.7,4.2,9.4,6.1,14.3
	c4.5-4.3,8-9.5,10.3-15.2c-1,16.3,0.6,32.7,4.9,48.5c-2.1-10.7-3-21.6-3.1-32.5c0-2.9,0-6,1.6-8.5c1.5-2.5,5.1-4,7.5-2.4
	c2.7,1.8,2.3,5.9,0.7,8.7c-1.2,2.1-4.3,3.9-5.8,2c-0.9-1.2-0.3-3.1,0.9-4c1.2-0.9,2.8-1.3,4.2-1.8c3.7-1.3,7-3.8,9.1-7.1
	c-1.5,1.9-2,4.7-1.1,7c0.3,0.9,0.9,1.7,1.7,2.3c2.6,1.6,6.3-2,5-4.8s-5.9-2.9-7.6-0.3c-0.3,1.9,1.6,3.6,3.6,3.8
	c1.9,0.2,3.8-0.6,5.6-1.4c1.7-0.8,3.4-1.6,5.1-2.3c2.4-1.1,5.2-4,3.3-5.8c-1.4,2.2-2.8,4.4-2.8,7c0,2.5,1.9,5.3,4.5,5.1
	c1.2-0.1,2.3-0.9,3.3-1.7c2.4-2.2,4-5.1,4.6-8.3c-0.3,4.1,1.1,8.4,3.9,11.5"/>
<path class="st0" d="M355.7,23c-2.2,2.4-3.9,5.3-5,8.4c-0.3,0.8-0.5,1.8,0.2,2.3c0.4,0.3,1,0.2,1.5,0.1c5-1.1,9.2-5.2,10.5-10.2
	c-0.7,4.7-0.2,9.6,1.3,14.1c-0.8-4.9,0.8-10.1,4.2-13.6c3.3,4,5.1,9.2,5,14.3c-1.1-4.5-0.1-9.5,2.6-13.3c1.2-1.7,3.5-3.2,5.1-2
	c0.6,0.4,1,1.2,1.3,1.9c1.3,3.4,1.1,7.2,1.6,10.9c0.5,3.6,1.8,7.5,5.1,9.3"/>
<path class="st0" d="M67.8,25.7c-0.1-3.2-1.2-6.4-3-8.9c-2.9,4.3-5.9,8.6-7.5,13.5c-1.6,4.9-1.6,10.6,1.2,15c0.6,0.9,1.3,1.8,2.4,2
	c0.8,0.2,1.7-0.1,2.5-0.4c4.7-2,8.5-6,10.3-10.7c-1.5,2.5-1.1,6,0.9,8c5.9-4.9,10-12,11.3-19.6c-1.6,6-1.3,12.5,0.8,18.4
	c0.4,1.1,1,2.2,2.1,2.5c0.8,0.2,1.5-0.2,2.2-0.6c5.5-3.1,9.8-8.2,12-14.1c0.7-1.8,1.1-3.8,0.5-5.5s-2.9-3-4.5-2
	c-1.5,0.9-1.7,2.9-1.7,4.5c-0.1,3.4-0.1,6.9,1.2,10c1.4,3.1,4.7,5.6,8,5c3.6-0.7,5.6-4.5,6.9-7.8c1-2.4,1.9-4.9,2.8-7.4
	c-0.9,4.8-0.1,10,2.3,14.3c0.4,0.8,1,1.6,1.8,1.7c0.9,0.2,1.8-0.4,2.5-1c2.3-1.9,4.4-4.2,5.6-6.9c1.2-2.8,1.3-6.1-0.2-8.7
	c-1.5-2.6-4.8-4.2-7.6-3.2c-2.8,1-4.4,4.8-2.8,7.3"/>
<path class="st0" d="M400.4,33.2c16.9-3.8,34.4-2.8,51.6-1.8c-2.2-5.4-7.6-9.2-13.4-9.6c5.1,3.5,10.2,7,15.3,10.5
	c-3.1,3.3-7,5.7-11.4,6.9"/>
<path class="st1" d="M29.4,38c1.8,1,2.5,3.7,1.7,5.6c-0.8,2-2.8,3.3-4.9,3.6c-2.3,0.3-4.7-0.5-6.1-2.3c-1.4-1.8-1.6-4.7-0.2-6.5
	c-4.1,2-9.5,0.3-11.8-3.8c-0.6-1.1-1-2.3-0.7-3.5c0.5-1.7,2.3-2.5,3.9-2.9c2.3-0.6,4.6-0.7,7-0.3c0.5-1.5-0.9-2.9-1.2-4.5
	c-0.4-2.2,1.4-4.2,3.3-5.4c1.5-0.9,3.3-1.6,4.8-1c2.6,1.1,2.7,4.8,2.3,7.7c1.6-2.7,5.6-3.7,8-1.7s2.3,6.5-0.4,8.1
	c1.9-0.4,4,0.6,4.9,2.3c0.9,1.7,0.6,4.1-0.7,5.5c-1.8,1.9-4.7,1.9-7.1,1.3c-1.6-0.4-3.4-1.5-3.3-3.1"/>
<path class="st2" d="M27.9,33.5c-0.7,2.8-4.9,3.8-6.8,1.6c-1.9-2.2-0.5-6.3,2.2-7c2.8-0.7,5.7,2,5.5,4.9c-0.1,1.1-0.5,2.1-0.9,3"/>
</svg>
