<?xml version="1.0" encoding="utf-8"?>
<!-- Generator: Adobe Illustrator 22.1.0, SVG Export Plug-In . SVG Version: 6.00 Build 0)  -->
<svg version="1.1" id="Layer_1" xmlns="http://www.w3.org/2000/svg" xmlns:xlink="http://www.w3.org/1999/xlink" x="0px" y="0px"
	 viewBox="0 0 132 52" style="enable-background:new 0 0 132 52;" xml:space="preserve">
<style type="text/css">
	.st0{fill:none;stroke:#000000;stroke-miterlimit:10;}
</style>
<path class="st0" d="M25.5,16.3c-0.4,4.7-0.8,9.3-1.2,14"/>
<path class="st0" d="M21.5,17.8c5.1-1.6,10.5-2.2,15.9-1.8"/>
<path class="st0" d="M33.5,16.4c-0.8,4.3-1.6,8.6-2.4,12.9"/>
<path class="st0" d="M36.4,22.6c-1.2,2.7-2.1,6.6,0.6,7.9c2.2,1.1,5-1.3,4.9-3.7c-0.1-2.5-2.2-4.4-4.5-5.3"/>
<path class="st0" d="M51.4,23.3c-1.6-0.6-3.2-1.2-4.8-1.9c-2.3,2.4-2.9,6.2-1.4,9.2c1.9-0.9,3.6-2.2,4.8-3.9c1.6,6,0,12.8-4.2,17.4
	c-0.9-4.1,2.8-7.6,6.1-10.3s6.9-6.4,5.7-10.4c-0.1,6.6-0.2,13.3-0.3,19.9"/>
<path class="st0" d="M59.4,24.1c-0.5-2.4,3.9-2.9,4.9-0.7S64,28.1,62.4,30c-0.6,0.7-1.3,1.3-2.1,1.4s-1.9-0.7-1.6-1.6
	c4.3-0.4,8.3-3.1,10.3-7c-0.3,2.8-0.1,6.2,2.4,7.4c2.3,1.1,5.3-1.1,5.4-3.7s-2.3-4.8-4.8-5.2c-0.3,1.2,1.3,2,2.6,1.9
	c1.2-0.1,2.6-0.6,3.7,0c1.4,0.9,1.2,3,2.2,4.2c1.8,2.3,5.9-0.3,5.8-3.2s-2.5-5.2-4.7-7c-0.8-0.7-1.7-1.5-1.6-2.5
	c0-0.5,0.2-1,0.5-1.4c1.7-3.1,4.1-5.9,7-8"/>
<path class="st0" d="M91.3,19.3c0.5,3.3,0.1,6.7-1.2,9.8c-0.9-1.4-1.2-3.2-0.6-4.8c3,1.9,7.8-0.3,8.1-3.9c-2.4,2.5,0.7,7,4.2,7.1
	c3.5,0.1,6.4-2.3,9-4.7c0.7-0.7,1.5-1.4,1.7-2.3c0.5-2-2.2-3.8-4.1-3c-1.9,0.8-2.8,3.1-2.6,5.2s1.4,3.9,2.4,5.7
	c3.5-0.5,6.9-1.5,10.2-2.9c2.7-1.2,5.5-4.4,3.5-6.5c-2.2,1.7-3.9,4.4-3.4,7.2c0.4,2.7,3.8,4.9,6.2,3.5"/>
</svg>
