<?xml version="1.0" encoding="utf-8"?>
<!-- Generator: Adobe Illustrator 22.1.0, SVG Export Plug-In . SVG Version: 6.00 Build 0)  -->
<svg version="1.1" id="Слой_1" xmlns="http://www.w3.org/2000/svg" xmlns:xlink="http://www.w3.org/1999/xlink" x="0px" y="0px"
	 viewBox="0 0 250.5 95.8" style="enable-background:new 0 0 250.5 95.8;" xml:space="preserve">
<style type="text/css">
	.st0{fill:none;stroke:#000000;stroke-miterlimit:10;}
</style>
<g>
	<g>
		<path d="M114.9,48.5c-0.6-1.1-1.3-1.8-2.3-2.6c-0.6-0.5-1.3-0.9-2-1.3c-1.3-0.9-1.4-1.5-0.3-1.7c0.3-0.8,1.4-1.4,1.7-2.3
			c0.5-1.5-0.2-3,0.1-4.5c-1.6-0.2-3.3-0.4-4.9-0.7c0,3.1-0.5,6.5,0.4,9.4c0.3,1.1,1.3,1.8,2.4,1.8c4.3,0.2,6.8-5.9,8.3-9
			c-1.5-0.6-3-1.3-4.6-1.9c-0.8,2.6-1.6,5.2-2.4,7.9c-0.8,2.6,2.4,3.9,4.2,2.4c3.1-2.6,7.9,2.3,7.6,5.4c0.4-0.7,0.8-1.4,1.2-2.2
			c-2,1.5-5.5,3-6.7,0.2c-1.3-1.4-1.1-2,0.5-1.6c2.2-0.3,2.6,0,1,1.1c-1.2,0.5-2.4,1-3.7,1.5c0.2,0.3,0.4,0.7,0.5,1
			c0.6-1,1.2-2.1,1.7-3.1c0.4-0.1-3-2.9-3.4-3c-1.3-0.7-2.9-1.1-4.3-1c-2.8,0.2-4.2,2.1-4.3,4.7c-0.3,9.1,11.4,9.3,16.8,12.8
			c2.7,1.7,5.2-2.6,2.5-4.3c-3.5-2.2-10.8-2.4-13-5.8c-1-1.6-0.4-1.8,1.1-1.1c0.8,0.4,1.3,1.5,2.1,2c1.4,1,2.3,1.1,3.9,0.6
			c1.4-0.4,2-1.7,1.7-3.1c-0.3-1.9-1.2-3-2.8-4c-1.4-0.8-3.2,0-3.7,1.5c-2.5,8.7,12.6,8.2,11.8,0.4c-0.8-7.4-15.9-7.2-16.6,0.3
			c-0.4,4,3,6.9,6.6,7.5c3.3,0.6,10.5,0.1,11.8-3.8c1.2-3.3-2.5-7.9-4.9-9.8c-3.5-2.7-7.8-2.7-11.2,0.2c1.4,0.8,2.8,1.6,4.2,2.4
			c0.8-2.6,1.6-5.2,2.4-7.9c0.8-2.7-3.3-4.5-4.6-1.9c-0.4,0.7-2.9,6.6-4,6.5c0.8,0.6,1.6,1.2,2.4,1.8c-0.7-2.4-0.2-5.6-0.2-8.1
			c0-2.7-4.5-3.5-4.9-0.7c-0.2,1.5,0,3.4-0.6,4.2c-1,1.4-2.1,1.4-2.4,3.4c-0.7,4.8,4.3,5.4,6.2,8.7
			C112.2,53.8,116.6,51.3,114.9,48.5L114.9,48.5z"/>
	</g>
</g>
<g>
	<g>
		<path d="M111,37.9c-0.7-2.2-1.4-4.3-2.1-6.5c-0.5-1.5-2.9-0.9-2.4,0.7c0.7,2.2,1.4,4.3,2.1,6.5C109.1,40.1,111.5,39.5,111,37.9
			L111,37.9z"/>
	</g>
</g>
<g>
	<g>
		<path d="M118,40.3c-0.2-2.7-0.4-5.3-0.6-8c-0.1-1.6-2.6-1.6-2.5,0c0.2,2.7,0.4,5.3,0.6,8C115.7,41.9,118.2,41.9,118,40.3L118,40.3
			z"/>
	</g>
</g>
<path class="st0" d="M11.3,54.8c3.3,5.9,11.6,7.4,17.9,5.1c6.3-2.3,11.2-7.5,15.5-12.7s8.7-10.6,14.7-13.8
	c4.7-2.5,10.1-3.4,15.4-3.7c6.5-0.4,13.5,0.1,18.6,4.1c4.9,3.8,7.3,9.9,11,15c5,6.8,12.8,11.5,21.1,12.8c2.5,0.4,5.2,0.5,7.6-0.3
	c5.2-1.8,8.1-7.2,11.6-11.5c4.8-5.8,11.9-10,19.4-10.6s15.5,2.6,19.8,8.8c3.2,4.4,4.5,10.2,8.4,13.9c3.7,3.6,9.1,4.7,14.1,5.7
	c11.3,2.2,23.9,4.3,33.8-1.8"/>
<path class="st0" d="M31.1,68.9c6,2.3,12.8,4.6,18.6,1.8c3.4-1.6,5.8-4.8,8.6-7.2c6.1-5.2,15-7.3,22.7-4.7
	c11.7,3.9,18.3,17,29.9,21.5c7.9,3,16.7,1.5,24.9-0.3c3.1-0.7,6.3-1.5,8.9-3.3c3.8-2.8,5.7-7.5,8.9-11c5.3-5.8,14.3-7.8,21.5-4.7
	c5.9,2.5,10.1,7.8,15.1,11.9c8.4,6.8,19.5,10.3,30.4,9.4"/>
<circle class="st0" cx="89.9" cy="15.4" r="3.4"/>
<line class="st0" x1="149.5" y1="21.5" x2="154" y2="27.5"/>
<line class="st0" x1="147.5" y1="27.5" x2="154.5" y2="21.5"/>
<path class="st0" d="M23.4,39c0.8,1.7,3.6,1.2,4.6-0.5s0.6-3.7,0.5-5.6c0-0.5,0-1,0.2-1.5c0.6-1.3,2.7-1,3.7,0.1
	c1,1,1.5,2.5,2.5,3.5c1,1,3.1,1.3,3.6,0"/>
<circle class="st0" cx="161.9" cy="80.9" r="3.4"/>
<circle class="st0" cx="65.9" cy="77.9" r="2.9"/>
</svg>
