<?xml version="1.0" encoding="utf-8"?>
<!-- Generator: Adobe Illustrator 22.1.0, SVG Export Plug-In . SVG Version: 6.00 Build 0)  -->
<svg version="1.1" id="Layer_1" xmlns="http://www.w3.org/2000/svg" xmlns:xlink="http://www.w3.org/1999/xlink" x="0px" y="0px"
	 viewBox="0 0 55.3 74.7" style="enable-background:new 0 0 55.3 74.7;" xml:space="preserve">
<style type="text/css">
	.st0{stroke:#FFFFFF;stroke-miterlimit:10;}
	.st1{fill:none;stroke:#000000;stroke-miterlimit:10;}
</style>
<path class="st0" d="M30.6,37.5c-6.3,3.5-12.5,6.9-18.8,10.4c-2.6,1.4-5.4,3-6.7,5.7c6.7,0.2,13.3-0.8,19.6-3.1c-1.4,3-2.8,6-4.1,9
	c-0.9,1.9-1.2,4.9,0.9,5.2c0.7,0.1,1.4-0.3,2.1-0.6c3.6-2,7.2-4.1,10.8-6.1c1,3.7,1.9,7.5,2.9,11.2C41.4,61.9,45,54.4,48,46.7
	c0.6-1.5,1.2-3.2,0.6-4.8c-0.3-0.8-1-1.5-1.6-2.2c-1.3-1.3-2.6-2.6-3.8-3.8c-1.3-1.3-2.8-2.8-4.7-3.1c-1.7-0.4-3.5,0.3-5.2,0.9
	c-9.9,3.9-19.1,9.7-26.9,17"/>
<path class="st0" d="M6.5,35.5c1.3,8.7,3.4,17.3,6.4,25.5c1.1-7.1,2.1-14.3,3.2-21.4c2.8,4.9,7,8.9,12.1,11.3
	c-1.7-4.3-2.5-8.9-2.3-13.5c4.9,2.6,9.9,5.2,14.8,7.8C34.9,37.5,27.4,31,19,26.2"/>
<circle class="st1" cx="30" cy="19.8" r="6.4"/>
</svg>
