<?xml version="1.0" encoding="utf-8"?>
<!-- Generator: Adobe Illustrator 22.1.0, SVG Export Plug-In . SVG Version: 6.00 Build 0)  -->
<svg version="1.1" id="Слой_1" xmlns="http://www.w3.org/2000/svg" xmlns:xlink="http://www.w3.org/1999/xlink" x="0px" y="0px"
	 viewBox="0 0 457 267.8" style="enable-background:new 0 0 457 267.8;" xml:space="preserve">
<style type="text/css">
	.st0{fill:none;stroke:#000000;stroke-width:2;stroke-miterlimit:10;}
</style>
<path class="st0" d="M334.7,23.5c-1.5,15-0.7,30.2,2.4,44.9c0.5,2.4,1.9,5.4,4.3,4.9c1.4-0.3,2.2-1.6,2.8-2.8
	c4.2-7.7,7.8-15.7,10.7-23.9c2.8-7.6,4.9-16.3,1.3-23.5c-6,18.8-6.3,39.3-0.9,58.2c0.5,1.7,1.3,3.6,2.9,3.9c1.6,0.3,3.1-0.9,4.2-2.2
	c5.8-6.4,10.4-14,13.3-22.1c1.8,4.8,3.6,9.5,5.3,14.3c1.4,3.8,3.8,8.2,7.8,8.1c3.2-0.1,5.4-3.3,6.9-6.1c5.1-9.7,8.5-20.3,10.2-31.1
	c0.6-3.9,0.7-8.5-2.4-10.9c-1.4-1.1-3.3-1.5-5.1-1.8c-4.1-0.8-8.2-1.6-12.3-2.4c-1-0.2-2.1-0.4-3.1,0c-1,0.4-1.7,1.5-2.2,2.5
	c-3.2,6.8-0.5,15.8,5.9,19.8c2.2,1.3,4.8,2.2,7.3,1.4c2.5-0.7,4.2-2.9,5.7-5c5.9-8.6,9.6-18.7,10.6-29.1c-3-0.3-4.4,3.6-4.8,6.7
	c-1.8,14.6-3.4,30.1,3,43.3c1.2,2.6,3.2,5.3,6,5.6c1.8,0.2,3.6-0.7,5.2-1.5c3.6-1.8,7.1-3.6,10.7-5.4"/>
<path class="st0" d="M112.9,162.5c-2.1,12.4-4.2,25.3-6.2,39.6"/>
<path class="st0" d="M93.4,173.2c4.7-6.5,12.4-10.2,20.3-11.6s15.9-0.9,23.9-0.3c1,0.1,2,0.2,2.7,0.8c0.9,0.9,0.9,2.4,0.7,3.7
	c-1.8,15.8-3.5,31.6-5.3,47.3c15.6-14.1,31.7-29,38.6-48.9c1.2-3.4,1.8-7.9-1-10.2c-3.3-2.7-8.4-0.1-11,3.2
	c-4.9,6.3-6,14.8-6.7,22.7c-0.5,5.1-0.9,10.3,0.4,15.2c1.3,4.9,4.7,9.6,9.5,11.1c7.9,2.5,15.7-4.1,20.9-10.6
	c8.9-10.9,16-23.2,21.2-36.3c-6.2,28.4-9.6,57.4-10.3,86.4c1.4-2,1.8-4.7,1.2-7.1"/>
<path class="st0" d="M204.4,186c-1-6.4,2-15.3,6.3-20.2c3.1-3.7,7.7-6.3,12.5-6.3c4.8,0.1,9.7,3.4,10.7,8.1c0.6,3-0.3,6.1-1.3,8.9
	c-2.2,5.7-5.1,11-8,16.3c-1.8,3.2-3.9,6.7-7.5,7.6c-3.5,0.9-7.2-1.3-9.2-4.3C205.9,193.2,205.1,189.5,204.4,186"/>
<path class="st0" d="M233.6,173.5c11.6-6.9,20.8-17.6,25.9-30c0.4-0.9,0.7-1.9,0.3-2.7c-0.6-1.1-2.3-1.2-3.3-0.5c-1,0.7-1.6,2-2,3.2
	c-7.7,19.9-10.5,41.7-8.2,62.9c4-1,7.1-4.3,8.9-8c1.8-3.7,2.5-7.8,3.2-11.9c0.6-3.6,0.5-8.2-2.9-9.5c-2-0.7-4.3,0.3-5.6,1.9
	s-1.9,3.8-2.3,5.9c-0.6,3.2-0.7,6.4-0.5,9.6c0.1,0.9,0.2,1.9,0.8,2.5c0.5,0.6,1.3,0.8,2,1c6.4,1.4,12.5-3.3,17.1-7.9
	c5.1-5.2,10-11.2,11-18.4c-3,8.1-4.8,16.6-5.3,25.2c-0.1,1.4-0.1,2.8,0.6,4c1.1,1.9,3.9,2.4,6,1.5c2.1-0.9,3.6-2.7,4.9-4.5
	c5.3-7.6,8.2-16.9,8.2-26.1c0-1.9-0.2-4.1-1.8-5.2c-2.4-1.8-5.7,0.4-7.7,2.7c-4.1,4.7-7.3,10.2-9.5,16.1"/>
<path class="st0" d="M296.1,161.8c-5.2,11.7-5.6,25.3-1.1,37.3c0.3,0.9,0.8,1.8,1.6,2.2c1,0.4,2.1-0.2,3.1-0.8
	c8.4-5.4,15-13.5,18.5-22.9c2,4.4,0,10.3,3.4,13.6c1.9,1.9,5,2.1,7.5,1.1c2.5-1,4.5-2.9,6.2-5c4.4-5.4,7.3-11.8,9-18.6
	c0.6-2.2,1-4.6,0.2-6.7s-3-3.9-5.2-3.3c-2.1,0.6-3.1,2.9-3.8,5.1c-2,6.4-2.9,13.2-2.9,19.9c0,0.6,0,1.3,0.4,1.9
	c0.7,1,2.2,1.1,3.2,0.4c1-0.6,1.6-1.7,2.2-2.8c4.5-8.8,7.6-18.3,9.3-28.1c-1.6,9.7-3.2,19.4-4.2,29.1c-0.3,3-0.4,6.3,1.4,8.7
	c2.9,3.8,8.7,3.2,13.4,2.2"/>
<path class="st0" d="M336.9,137c9.7-1.3,19.9,4.9,23.1,14.1"/>
<path class="st0" d="M140,53.1c3.5-12.6,10.9-24,20.9-32.4c2.4,19.1-10.9,36.9-11,56.1c0,2,0.2,4.2,1.5,5.8c2,2.4,5.8,2.4,8.5,0.9
	c2.7-1.6,4.4-4.3,5.9-7c7-12.4,11.6-25.9,16.2-39.3c-3.2,15.4-5.1,31.2-5.7,46.9c2.5,2.7,6.3-2.7,10-2.6c3.2,0.1,4.4,4.1,4.8,7.3
	c0.5,4.5,1.1,8.9,1.6,13.4c0.5,3.9,0.4,8.8-3.1,10.6c-2.2,1.1-4.9,0.5-6.9-0.8c-7.8-4.8-8.5-16.4-4.2-24.5s12.1-13.5,19.1-19.4
	c7-5.8,13.9-13,15.2-22c0.4-2.9,0.2-6-1.5-8.3s-5.1-3.5-7.6-2c-1.2,0.8-2.1,2-2.7,3.3c-7.2,13.3-5,31,5.1,42.3c0.9,1,2,2,3.3,2.3
	c1.7,0.4,3.4-0.5,4.8-1.4c16.1-10.4,20.5-31.8,32.4-46.9c0.8,16.4-1.1,32.9-5.6,48.7c0-17.9,4.3-35.7,12.4-51.6
	c0.9-1.7,2-3.5,3.8-4.1c3.6-1.2,6.5,3.2,7.2,6.9c2.6,12.8-3.3,26.3-0.2,38.9c0.2,1,0.6,2,1.4,2.6c1.8,1.2,4-0.9,5.1-2.7
	c7.9-12.7,12.8-27.3,14-42.3c-2.3,13.3-3.7,26.7-4.2,40.2c0,1.4-0.1,2.9,0.6,4.1c2,3.6,7.5,2,10.8-0.5c13.4-10.2,20.6-28,18.1-44.7
	c-2.4,11-4.9,21.9-7.3,32.9c-0.8,3.6-1.5,7.8,0.5,10.9c2.1,3.1,8.1,3.1,8.6-0.6c2.5,7,3.7,14.5,3.5,22c-0.1,3.4-0.5,6.9-2.5,9.7
	c-2,2.8-5.9,4.4-8.9,2.8c-3-1.6-3.9-5.8-2.7-9.1c1.1-3.2,3.7-5.7,6.2-8.1c9.3-8.8,18.7-17.6,28-26.4"/>
<path class="st0" d="M23.2,25.5c2.7,24.3,3.2,48.8,1.4,73.2"/>
<path class="st0" d="M43.9,16.1c0.9,14.6-9.7,27-19.7,37.7c7.3,1.5,11.3,9.6,12.7,16.9C38.4,78,38.6,86,43,92.1
	c0.3,0.4,0.6,0.8,1.1,0.9c1.1,0.3,1.8-1,2.2-2C53,73.2,59.2,55.2,65,37.1c-0.3,17.7,2.5,35.4,8.4,52c0.5,1.5,1.4,3.3,3,3.5
	c1.5,0.2,2.8-1.1,3.8-2.3c7.2-9.2,11-20.7,13.1-32.2c1.7-9.1,2.2-19.6-4.2-26.4c-4.5-4.8-12.3-6.4-17.9-3c-5.6,3.3-7.9,11.7-4.1,17"
	/>
<path class="st0" d="M104.7,26.8c0,20.1,0,40.1,0,60.2c0.2-5.1-0.6-10.2-2.5-14.9c-0.7-1.8-1.6-3.7-1.7-5.6c-0.1-2,0.9-4.1,2.8-4.7
	c2.3-0.6,4.4,1.2,6.8,1.6c3.4,0.5,6.4-2.2,8.7-4.7c3.3-3.5,6.7-7,10-10.5c3.9-4.1,8-8.8,7.7-14.4c-0.2-4.5-3.2-8.2-6.1-11.6
	c-2.1,2.9-2.6,6.6-2.9,10.2c-1.5,15.9-1.9,32-1.3,48c0,0.7,0.1,1.4,0.5,1.9c0.4,0.5,1,0.7,1.5,0.9c2.7,0.7,5.8,0.1,7.9-1.7"/>
<path class="st0" d="M64.6,40.6c5.6,18.1,20.5,33.1,38.6,38.7"/>
<path class="st0" d="M141.5,48.5"/>
<path class="st0" d="M134.7,82.3"/>
</svg>
